<svg width="1440" height="400" viewBox="0 0 1440 400" fill="none" xmlns="http://www.w3.org/2000/svg">
<path d="M705.367 236.328C705.164 238.355 668.291 242.051 647.252 249.121C635.993 252.905 392.011 317.109 194 363C-244.5 427.5 -391.833 387.5 -417 387.5L-371.5 284.5C-324.02 307.012 291.886 324.782 546.5 236.328C623.985 223.463 688.677 236.437 705.367 236.328Z" fill="url(#paint0_linear_318_1496)"/>
<path d="M953 245.195C924.069 242.915 895.088 241.091 866.107 239.672L871.984 213.477C879.455 212.699 874.555 204.808 881.274 203.04C888.795 201.061 894.89 208.74 895.392 215.073C895.767 219.821 897.089 223.383 900.104 220.013C903.119 216.644 910.263 220.976 910.896 226.904C910.896 226.904 918.369 222.876 922.372 230.679C922.372 230.679 923.413 217.389 927.971 219.836C932.837 222.45 933.848 231.388 933.848 231.388C933.848 231.388 934.633 227.005 938.915 228.221C946.185 230.273 953 245.195 953 245.195Z" fill="black"/>
<path d="M1481 282.435C1437.55 334.211 700.599 296.636 678.817 293.1C644.883 287.59 656.757 267.323 680.033 256.835C702.316 246.793 743.848 236.404 743.848 236.404V236.328C784.584 236.581 825.32 237.696 866.005 239.672C866.005 239.672 890.629 254.34 863.472 262.903C836.34 271.44 743.258 242.725 731.174 259.723C719.064 276.722 774.57 282.435 852.249 282.435C909.553 282.435 1481 282.435 1481 282.435Z" fill="url(#paint1_linear_318_1496)"/>
<path d="M777.883 5.48541H750.65V57.0134H777.883V5.48541Z" fill="black"/>
<path d="M745.583 3.5069V8.57357L777.883 5.48543V0.418762L745.583 3.5069Z" fill="black"/>
<path d="M796.407 57.0134V5.83752" stroke="black" stroke-width="2" stroke-miterlimit="10"/>
<path d="M777.883 0.418762V5.48543L803.908 8.3709V3.30423L777.883 0.418762Z" fill="black"/>
<path d="M865.995 239.664V136.028" stroke="black" stroke-width="2" stroke-miterlimit="10"/>
<path d="M758.415 119V236.454C697.437 235.745 636.435 236.961 575.533 240.102V136.033L758.415 119Z" fill="black"/>
<path d="M575.533 235.456V240.103C618.775 237.873 662.067 236.632 705.367 236.343C705.367 236.343 627.115 234.245 575.533 235.456Z" fill="black"/>
<path d="M749.328 129.652L555.173 139.785C554.167 139.785 553.255 139.19 552.852 138.265C552.45 137.345 552.629 136.271 553.313 135.532L626.828 55.9723C627.307 55.453 627.983 55.1591 628.688 55.1591L822.842 45.0258C823.848 45.0258 824.76 45.6211 825.163 46.5458C825.566 47.4654 825.386 48.5395 824.702 49.2792L751.187 128.839C750.708 129.355 750.034 129.652 749.328 129.652Z" fill="black"/>
<path d="M652.858 54.5308L659.625 53.5428L672.737 41.6362L652.858 54.5308Z" fill="black"/>
<path d="M758 237V121.5L824.5 46.5L865.5 138.5V241.5L758 237Z" fill="white" stroke="black"/>
<path d="M889 139.392V145H864.73L812 58.8535L825.902 42.7571C826.112 42.5048 826.295 42.2524 826.452 42L889 139.392Z" fill="black"/>
<path d="M705.367 236.343C718.19 236.257 731.017 236.259 743.84 236.343V175.3H705.367V236.343Z" fill="black"/>
<path d="M676.008 175.302H649.699V215.788H676.008V175.302Z" fill="black"/>
<path d="M662.855 175.302V215.788" stroke="black" stroke-miterlimit="10"/>
<path d="M649.699 195.544H676.008" stroke="black" stroke-miterlimit="10"/>
<path d="M824.809 165.5V234.197H799.5V165.5H824.809Z" fill="black" stroke="white"/>
<path d="M812.156 165V234.698" stroke="white" stroke-miterlimit="10"/>
<path d="M799 199.846H825.309" stroke="white" stroke-miterlimit="10"/>
<path d="M626.608 175.302H600.299V215.788H626.608V175.302Z" fill="black"/>
<path d="M613.455 175.302V215.788" stroke="black" stroke-miterlimit="10"/>
<path d="M600.299 195.544H626.608" stroke="black" stroke-miterlimit="10"/>
<path d="M711.54 215.866C712.765 215.866 713.757 214.874 713.757 213.649C713.757 212.425 712.765 211.433 711.54 211.433C710.316 211.433 709.324 212.425 709.324 213.649C709.324 214.874 710.316 215.866 711.54 215.866Z" fill="black"/>
<path d="M698.48 92.3345H657.043C656.343 92.3345 655.776 91.767 655.776 91.0678V55.971C655.776 55.6138 655.925 55.2769 656.189 55.0362L677.183 35.8538C677.672 35.4079 678.421 35.4105 678.905 35.8665L699.352 55.0489C699.608 55.287 699.752 55.6239 699.752 55.971V91.0653C699.747 91.767 699.18 92.3345 698.48 92.3345Z" fill="white"/>
<path d="M696.714 56.7371V89.3015H658.807V56.7507L678.019 39.197L696.714 56.7371Z" fill="white" stroke="black"/>
<path d="M698.812 56.5309V90.1711L729.607 57.2377L698.812 56.5309Z" fill="white"/>
<path d="M729.243 55.8766L697.568 90.1998L699.428 91.9162L731.103 57.593L729.243 55.8766Z" fill="white"/>
<path d="M658.307 56.531V54.7045H650.532L673.2 33.9919L676.169 36.7761L658.307 56.531Z" fill="black"/>
<path d="M657.04 57.2377H647.267C646.745 57.2377 646.273 56.916 646.086 56.4296C645.896 55.9432 646.028 55.3909 646.413 55.0363L672.357 31.3319C672.846 30.8885 673.598 30.886 674.077 31.3446L678.9 35.8665C679.159 36.1072 679.303 36.4467 679.301 36.7963C679.298 37.151 679.149 37.4853 678.888 37.7235L657.894 56.9059C657.663 57.1187 657.357 57.2377 657.04 57.2377ZM650.532 54.7044H656.549L676.169 36.776L673.2 33.9919L650.532 54.7044Z" fill="black"/>
<path d="M730.177 58.0332C730.17 58.0332 730.16 58.0332 730.15 58.0332L693.852 57.2403C693.495 57.2327 693.158 57.0756 692.925 56.8046L672.258 33.1002C671.898 32.6898 671.845 32.0944 672.124 31.6232C672.405 31.1495 672.947 30.9114 673.487 31.033L708.046 38.6836C708.224 38.7242 708.391 38.8002 708.533 38.9091L730.937 55.7583C731.378 56.0876 731.553 56.6627 731.373 57.1846C731.196 57.6912 730.717 58.0332 730.177 58.0332Z" fill="black"/>
<path d="M694.465 54.7171L726.271 55.4113L707.231 41.0929L676.694 34.3339L694.465 54.7171Z" fill="black"/>
<path d="M683.865 59.7011V74.5497H669.523V59.7011H683.865Z" fill="black" stroke="white"/>
<path d="M676.694 59.2011V75.0497" stroke="white" stroke-miterlimit="10"/>
<path d="M669.023 67.1254H684.365" stroke="white" stroke-miterlimit="10"/>
<defs>
<linearGradient id="paint0_linear_318_1496" x1="565.5" y1="231" x2="299.5" y2="337.5" gradientUnits="userSpaceOnUse">
<stop/>
<stop offset="1" stop-color="white" stop-opacity="0"/>
</linearGradient>
<linearGradient id="paint1_linear_318_1496" x1="835" y1="236" x2="1176.5" y2="273" gradientUnits="userSpaceOnUse">
<stop/>
<stop offset="1" stop-color="#666666" stop-opacity="0"/>
</linearGradient>
</defs>
</svg>
