<svg width="232" height="413" viewBox="0 0 232 413" fill="none" xmlns="http://www.w3.org/2000/svg">
<path d="M72.9031 340.212C79.0197 342.574 85.4895 342.453 90.4802 341.719C93.0098 341.347 95.1494 340.819 96.655 340.384C97.4075 340.167 98.001 339.973 98.405 339.835C98.5342 339.79 98.6437 339.75 98.7332 339.718L99.5554 331.606L100.439 322.789C100.515 322.034 100.652 321.276 100.781 320.546C100.879 319.994 100.973 319.455 101.039 318.927L101.095 318.402C101.207 317.099 100.998 315.891 101.887 314.423V314.424C102.254 313.819 102.612 313.315 102.917 312.744C103.173 312.263 103.351 311.798 103.402 311.322L103.417 311.117C103.43 310.633 103.304 310.15 103.17 309.568C103.058 309.085 102.942 308.535 102.984 307.961L103.012 307.713C103.118 307.038 103.446 306.471 103.775 305.979C104.08 305.523 104.366 305.157 104.597 304.755L104.693 304.58C105.51 303.01 105.208 301.046 104.652 299.151C104.146 297.427 103.418 295.506 103.521 293.544L103.553 293.15C103.673 292.077 104.048 291.088 104.46 290.156C104.829 289.32 105.215 288.558 105.528 287.763L105.657 287.42C106.527 285.008 106.534 282.437 106.402 279.752C106.28 277.261 106.033 274.651 106.32 272.104L106.385 271.596C106.659 269.671 107.265 267.794 107.744 265.989V265.988C108.903 261.612 109.206 257.26 109.25 252.861C109.288 249.048 109.128 245.113 109.177 241.18L109.212 239.496C109.328 235.534 109.417 231.572 109.484 227.608L109.543 223.644C109.798 204.608 110.041 185.439 108.843 166.451L59.4705 166.201L60.4285 176.449C60.8304 180.751 61.2324 185.053 61.6345 189.355L62.8406 202.262L65.7361 233.256L68.196 259.598C68.3652 261.405 68.6063 263.271 68.738 265.125L68.7869 265.918C68.8991 268.056 68.3407 270.204 67.7244 272.212L67.1111 274.17C66.2441 276.981 65.6349 279.88 65.7859 282.773L65.8269 283.351C65.9428 284.668 66.2243 285.963 66.5193 287.293C66.7754 288.447 67.0423 289.628 67.2 290.836L67.2605 291.354C67.4054 292.766 67.1755 294.178 66.8562 295.536C66.6964 296.215 66.5113 296.894 66.3357 297.553C66.159 298.217 65.9907 298.864 65.8601 299.5H65.8611C65.5569 300.983 65.3349 302.425 65.741 303.701L65.8298 303.954L65.8308 303.955C66.0812 304.593 66.4878 305.157 66.9119 305.834C67.3178 306.481 67.7251 307.216 67.8152 308.082C67.9047 308.943 67.6572 309.757 67.4294 310.469C67.2207 311.122 67.0295 311.692 66.9871 312.26L66.9783 312.504C66.9837 313.491 67.4917 314.197 68.1658 314.951C68.4891 315.312 68.8755 315.71 69.1941 316.118C69.5207 316.536 69.8152 317.009 69.9685 317.569L69.9792 317.608L69.9832 317.648V317.649L69.9841 317.65C69.9843 317.651 69.9839 317.653 69.9841 317.656C69.9847 317.661 69.9861 317.668 69.9871 317.677C69.9891 317.696 69.9919 317.725 69.9958 317.761C70.0037 317.835 70.0156 317.942 70.03 318.074C70.0589 318.338 70.0986 318.704 70.1453 319.112C70.1921 319.521 70.2453 319.972 70.2986 320.404L70.4539 321.586L71.405 328.176C71.9691 332.174 72.5083 336.185 72.9031 340.212Z" fill="white" stroke="black"/>
<path d="M111.476 391.618C119.982 392.63 125.549 391.537 128.554 388.443L128.837 388.138C129.902 386.929 130.251 385.636 130.298 384.652C130.322 384.158 130.269 383.751 130.197 383.482C130.174 383.394 130.149 383.33 130.129 383.284L71.1675 367.043C71.166 367.075 71.1641 367.108 71.1626 367.143C71.1435 367.579 71.1259 368.169 71.1304 368.788C71.1348 369.41 71.1619 370.05 71.23 370.59C71.264 370.86 71.3066 371.096 71.3589 371.286C71.3995 371.434 71.4408 371.537 71.4761 371.603L71.5093 371.656C72.4102 372.912 74.1467 373.862 76.2046 374.613C77.7353 375.172 79.3855 375.601 80.895 375.969L82.3481 376.318C84.4271 376.82 86.6932 378.166 88.8423 379.728C90.4611 380.904 92.0426 382.224 93.4595 383.442L94.8169 384.618C96.5312 386.108 98.3873 387.577 100.96 388.815C103.373 389.975 106.436 390.94 110.624 391.51L111.476 391.618Z" stroke="black"/>
<path d="M113.62 389.449C117.949 389.6 121.502 389.118 124.18 388.231C126.702 387.396 128.401 386.22 129.28 384.922L129.445 384.662C130.167 383.432 130.538 381.499 130.446 379.612C130.359 377.828 129.867 376.23 129.02 375.337L128.846 375.168C127.36 373.846 125.455 372.691 123.447 371.625C121.92 370.814 120.4 370.088 118.946 369.368L117.516 368.647C111.994 365.797 106.175 361.857 102.855 358.492L102.542 358.167C100.623 356.145 100.15 353.15 100.165 350.488L100.174 349.96C100.368 343.208 100.998 330.997 101.626 323.708L101.752 322.318C101.908 320.663 101.931 319.501 101.893 318.69C101.857 318.732 101.811 318.786 101.752 318.85C101.606 319.008 101.388 319.227 101.091 319.49C100.497 320.015 99.5837 320.711 98.2906 321.413C95.783 322.774 91.8611 324.154 86.0885 324.388L85.524 324.407C79.4613 324.57 75.4715 323.67 72.9801 322.709C71.7349 322.229 70.8664 321.735 70.3024 321.353C70.0205 321.162 69.8144 321 69.6764 320.882C69.6074 320.823 69.5555 320.775 69.5192 320.741C69.501 320.723 69.4866 320.709 69.4762 320.699C69.4711 320.694 69.4668 320.689 69.4635 320.686C69.4619 320.684 69.4608 320.682 69.4596 320.681L69.4576 320.679H69.4567C69.4564 320.679 69.4565 320.678 69.8199 320.335L69.4567 320.678L69.3444 320.56L69.3239 320.398L69.0787 318.462C68.8965 318.607 68.7626 318.788 68.6637 319.02C68.4668 319.482 68.3879 320.171 68.4381 321.203C68.5136 322.752 68.8649 324.896 69.3463 327.859L69.8658 331.104C70.5781 335.659 71.32 340.089 71.7555 343.984C72.1898 347.869 72.3277 351.288 71.8024 353.811C70.7895 358.675 69.8625 362.093 71.1383 367.907C72.3276 369.913 74.2862 371.085 76.483 371.947C77.5919 372.382 78.7436 372.731 79.8727 373.072C80.8533 373.368 81.8227 373.658 82.7057 373.991L83.0787 374.136C86.804 375.637 91.0186 378.549 94.775 381.683L95.5201 382.312C97.4937 384.002 100.609 385.741 103.959 387.083C107.099 388.342 110.395 389.233 113.089 389.42L113.62 389.449Z" fill="black" stroke="black"/>
<mask id="mask0_318_1541" style="mask-type:luminance" maskUnits="userSpaceOnUse" x="76" y="316" width="55" height="70">
<path d="M130.338 385.079L115.367 317.024H76.9989V385.079H130.338Z" fill="white" stroke="white"/>
</mask>
<g mask="url(#mask0_318_1541)">
<g opacity="0.100006">
<path d="M129.898 383.675C130.317 382.515 130.516 381.05 130.446 379.612C130.359 377.827 129.867 376.229 129.019 375.337L128.846 375.169C127.36 373.845 125.455 372.691 123.447 371.625C121.921 370.814 120.4 370.087 118.946 369.368L117.517 368.648C111.994 365.798 106.176 361.857 102.855 358.492L102.542 358.168C100.623 356.145 100.15 353.15 100.164 350.488L100.174 349.961C100.368 343.208 100.999 330.997 101.626 323.708L101.752 322.318C101.909 320.663 101.931 319.501 101.893 318.69C101.858 318.732 101.811 318.786 101.752 318.85C101.607 319.008 101.389 319.228 101.092 319.491C100.497 320.016 99.5837 320.711 98.2909 321.413C95.7832 322.774 91.8614 324.154 86.0888 324.388L85.5243 324.407C82.1909 324.496 79.4817 324.265 77.3007 323.877C77.885 324.874 78.9444 325.575 80.1327 326.124L80.706 326.374C82.3257 327.042 84.0189 327.533 85.745 327.839L86.4862 327.96C87.2353 328.068 88.0941 328.166 88.8876 328.385C89.64 328.593 90.383 328.92 90.9823 329.506L91.1005 329.628C91.8689 330.451 92.1681 331.555 92.3651 332.544L92.4442 332.959C93.2438 337.267 93.8188 341.617 94.1659 345.986L94.3007 347.859C94.375 349.01 94.4383 350.278 94.1083 351.489L94.037 351.731C93.7677 352.573 93.3173 353.312 92.8505 353.994C92.4899 354.521 92.1338 354.996 91.8085 355.488L91.494 355.987C91.1089 356.637 90.8254 357.392 90.7499 358.113C90.6841 358.741 90.7778 359.316 91.0702 359.789L91.2079 359.985C91.4315 360.268 91.7304 360.495 92.081 360.716L92.4482 360.938L92.4491 360.939C96.6692 363.416 101.327 365.06 105.998 366.806C110.36 368.437 114.726 370.156 118.646 372.728L119.424 373.254C120.612 374.082 121.88 375.1 122.534 376.544C123.169 377.942 123.079 379.891 121.815 380.983L121.689 381.086C121.417 381.296 121.1 381.481 120.809 381.648C120.508 381.822 120.235 381.977 120.001 382.141C119.765 382.307 119.614 382.453 119.534 382.587C119.483 382.673 119.457 382.758 119.465 382.862L119.483 382.972V382.973C119.534 383.165 119.689 383.317 120.025 383.413C120.281 383.486 120.59 383.508 120.899 383.494L121.206 383.468L121.207 383.467C123.673 383.169 126.1 382.548 128.405 381.625L128.694 381.508L128.926 381.717C129.531 382.263 129.796 382.954 129.898 383.675Z" stroke="black"/>
</g>
</g>
<path d="M32.1179 359.669C36.4377 360.096 39.2826 359.256 41.031 358.34C41.9073 357.882 42.5154 357.4 42.9001 357.04C43.0925 356.859 43.2297 356.709 43.3161 356.607C43.359 356.556 43.3892 356.517 43.4079 356.493C43.4173 356.481 43.4239 356.471 43.4274 356.466L43.4304 356.463C43.5971 356.218 43.7178 355.771 43.8161 355.197C43.8818 354.814 43.94 354.351 44.0065 353.969L44.0759 353.62V353.619L46.0437 345.398L48.8483 333.637L50.4753 326.799C50.6704 325.979 50.8546 325.028 51.1472 324.144C51.4064 323.361 51.7633 322.585 52.3239 321.922L52.5769 321.644C52.9485 321.268 53.2899 320.96 53.5983 320.602C53.859 320.3 54.0582 320.002 54.1735 319.681L54.2175 319.543C54.3527 319.055 54.2964 318.527 54.2487 317.864C54.2071 317.286 54.1733 316.598 54.448 315.95L54.5075 315.821C54.6771 315.478 54.9159 315.201 55.1384 314.968C55.3194 314.779 55.4715 314.634 55.6149 314.481L55.7565 314.323C56.444 313.51 56.6853 312.479 56.7097 311.3C56.7281 310.404 56.623 309.478 56.5173 308.54L56.4157 307.597C56.1283 304.648 56.4573 301.642 57.3747 298.826L57.5661 298.265C57.9027 297.322 58.3042 296.405 58.6931 295.507C58.9867 294.83 59.2736 294.162 59.529 293.488L59.7731 292.811C60.3289 291.179 60.6552 289.477 60.9255 287.742L61.1843 285.997L61.8064 281.667C63.7124 268.401 65.9707 255.246 68.3064 242.067L69.3112 236.417C71.2069 225.792 73.0847 215.164 74.9499 204.534L76.8112 193.903C78.3142 185.3 79.8261 176.699 81.2829 168.091C81.2798 168.091 81.2763 168.091 81.2731 168.09C80.8931 168.078 80.3358 168.06 79.6267 168.037C78.2079 167.991 76.181 167.925 73.7487 167.846C68.8839 167.688 62.397 167.478 55.9099 167.267C44.0861 166.884 32.2443 166.5 30.236 166.434C30.2151 166.494 30.1918 166.567 30.1657 166.656C30.0601 167.014 29.9352 167.541 29.7985 168.194C29.5261 169.496 29.2135 171.256 28.9118 173.068C28.6103 174.879 28.3205 176.738 28.0925 178.235L27.6452 181.235L27.403 182.967C26.9386 186.433 26.595 189.914 26.3347 193.405L26.2116 195.151C25.8467 200.612 25.7587 206.144 25.5896 211.701L25.5105 214.084C25.283 220.438 24.8837 226.797 23.7731 233.023L23.5417 234.266V234.267L23.3669 235.133V235.135L23.1179 236.271C22.8597 237.404 22.5773 238.529 22.3034 239.646C22.0287 240.767 21.7621 241.882 21.531 243.002L21.3122 244.123C20.382 249.245 20.4047 254.492 20.6569 259.746L20.7771 261.998C20.8982 264.089 21.0432 266.266 20.7458 268.412L20.6804 268.84C20.4604 270.156 20.0669 271.425 19.6716 272.658C19.3229 273.746 18.9741 274.803 18.7185 275.878L18.6149 276.339C18.0785 278.893 18.1565 281.489 18.323 284.128L18.4997 286.78V286.781C18.5266 287.215 18.5652 287.665 18.6042 288.131C18.643 288.596 18.6824 289.076 18.7077 289.556C18.7519 290.395 18.7564 291.257 18.6433 292.083L18.5866 292.434C18.4075 293.421 18.0017 294.165 17.5534 294.847C17.1513 295.46 16.7511 295.978 16.3835 296.619L16.2272 296.902C15.5616 298.169 15.2827 299.638 15.4333 301.06L15.4694 301.344C15.544 301.852 15.6718 302.37 15.8171 302.906C15.9599 303.433 16.1226 303.992 16.2497 304.54C16.4889 305.571 16.6301 306.669 16.2956 307.759L16.2224 307.977C16.0268 308.51 15.7257 308.981 15.4548 309.402C15.2445 309.729 15.0522 310.026 14.8981 310.33L14.7575 310.637C14.2806 311.819 14.5124 313.239 15.156 314.457L15.2907 314.698C15.7866 315.543 16.5029 316.136 17.2253 316.912C17.9189 317.657 18.5623 318.534 18.57 319.799C18.5774 320.926 18.5783 322.06 18.5788 323.192L18.5847 326.579C18.596 328.725 18.6128 330.872 18.6335 333.018L18.7087 339.458C18.7766 344.558 18.8611 349.659 18.9763 354.757C18.9766 354.773 18.9765 354.786 18.9763 354.795C18.976 354.802 18.9756 354.81 18.9753 354.816C18.9851 354.826 18.9955 354.836 19.0065 354.846C19.1167 354.952 19.2886 355.109 19.5271 355.302C20.004 355.689 20.7481 356.222 21.7985 356.788C23.767 357.848 26.8195 359.027 31.2204 359.569L32.1179 359.669Z" fill="white" stroke="black"/>
<path d="M26.0585 411.117C30.4533 412.233 35.5736 410.989 38.1239 407.911L38.3622 407.608C41.5089 403.387 42.4901 399.356 43.0107 393.456L13.0712 387.696C12.1225 392.733 12.6394 396.815 14.1855 400.986L14.5185 401.848C16.5221 406.829 21.4814 409.956 26.0585 411.117Z" stroke="black"/>
<path d="M27.0304 408.621C31.0737 409.479 35.1651 408.822 37.797 405.728L38.047 405.421C42.4756 399.74 43.5552 393.69 43.3566 385.392C43.2528 381.078 42.9634 377.521 42.8097 374.174C42.6662 371.049 42.6428 368.138 43.0148 365.071L43.0949 364.455C44.0186 357.749 44.285 354.337 45.7658 349.084C47.0531 344.518 49.3291 336.7 50.8996 330.864L51.5246 328.499C52.0361 326.52 52.0786 325.366 51.9923 324.713C51.8553 325.166 51.7355 325.672 51.632 326.21L51.6095 326.333L51.5314 326.429L51.2169 326.177C51.5027 326.406 51.5283 326.428 51.5304 326.43V326.431L51.5285 326.433C51.5272 326.435 51.5254 326.437 51.5236 326.439C51.52 326.443 51.5156 326.449 51.5099 326.456C51.4986 326.469 51.4829 326.487 51.463 326.508C51.4232 326.552 51.3657 326.613 51.2892 326.686C51.1359 326.833 50.9051 327.034 50.5851 327.266C49.9448 327.73 48.9472 328.314 47.4875 328.837C44.6581 329.852 40.1064 330.632 33.0705 329.875L32.382 329.796C26.338 329.076 22.6443 326.868 20.4562 324.805C19.3651 323.776 18.6546 322.789 18.215 322.053C17.9954 321.686 17.8436 321.381 17.7453 321.165C17.6962 321.056 17.6599 320.97 17.6359 320.91C17.6239 320.879 17.6149 320.855 17.6086 320.837C17.6054 320.829 17.6026 320.822 17.6007 320.817C17.5998 320.814 17.5994 320.812 17.5988 320.81L17.5978 320.808V320.807C17.5977 320.807 17.5976 320.807 18.0705 320.644L17.5968 320.806L17.5705 320.727V320.118C17.5159 320.138 17.4725 320.159 17.4386 320.182C17.3443 320.248 17.2571 320.359 17.1916 320.592C17.1232 320.835 17.0898 321.167 17.0812 321.621C17.0769 321.846 17.0794 322.091 17.0841 322.359L17.1037 323.233C17.151 325.323 17.226 329.048 17.3127 333.433L17.59 347.595C17.7527 355.909 17.5065 358.619 16.5109 364.729L16.0373 367.582C15.4541 371.064 14.9812 373.519 14.507 376.011C14.1515 377.88 13.7956 379.77 13.3908 382.134L12.9679 384.673C11.726 392.342 13.6015 397.412 16.3244 401.578L16.8791 402.399C18.8674 405.249 22.8506 407.733 27.0304 408.621Z" fill="black" stroke="black"/>
<mask id="mask1_318_1541" style="mask-type:luminance" maskUnits="userSpaceOnUse" x="17" y="323" width="36" height="84">
<path d="M52.0292 405.658V323.997H18.4599V405.658H52.0292Z" fill="white" stroke="white"/>
</mask>
<g mask="url(#mask1_318_1541)">
<g opacity="0.100006">
<path d="M29.0806 405.297C32.2138 405.943 35.5546 405.714 38.5992 404.67C42.3064 399.549 43.4103 394.068 43.3785 386.867L43.357 385.392C43.2532 381.078 42.9638 377.521 42.8101 374.174C42.6666 371.049 42.6432 368.137 43.0152 365.07L43.0953 364.453C44.019 357.749 44.2854 354.337 45.7662 349.084C47.0535 344.518 49.3295 336.7 50.9 330.863L51.525 328.498C52.0361 326.521 52.0787 325.368 51.9928 324.715C51.8559 325.167 51.7367 325.673 51.6334 326.211L51.6099 326.332L51.5318 326.429L51.2603 326.211C51.5169 326.417 51.5313 326.429 51.5318 326.43L51.5289 326.433C51.5276 326.434 51.5258 326.436 51.524 326.439C51.5204 326.443 51.516 326.449 51.5103 326.455C51.4989 326.469 51.4834 326.487 51.4635 326.509C51.4236 326.553 51.366 326.612 51.2896 326.686C51.1363 326.833 50.9063 327.034 50.5865 327.266C49.9462 327.73 48.948 328.315 47.4879 328.838C44.6584 329.852 40.1067 330.632 33.0709 329.875L32.3824 329.797C29.7327 329.482 27.5566 328.871 25.7388 328.119C25.3698 328.14 25.134 328.221 24.9996 328.359L24.9449 328.426C24.8389 328.586 24.8188 328.843 24.897 329.169L24.9371 329.313V329.315C25.3993 330.821 26.6742 331.706 28.3101 332.551C29.0862 332.952 30.0196 333.379 30.8355 333.819C31.5728 334.216 32.2987 334.664 32.9342 335.219L33.2008 335.463C34.678 336.888 35.346 338.76 35.6021 340.718C35.8256 342.427 35.7394 344.236 35.5855 345.931L35.5162 346.65L33.7545 364.025C33.5116 366.422 33.2368 369.022 32.0484 371.259L31.7984 371.701C31.1413 372.794 30.2453 373.77 29.4888 374.695C28.7621 375.585 28.1395 376.452 27.8023 377.443L27.7388 377.643L27.6715 377.892C27.3671 379.14 27.5349 380.427 27.9097 381.771C28.1095 382.487 28.3641 383.206 28.6304 383.939C28.8287 384.484 29.0339 385.039 29.2222 385.593L29.4039 386.147C29.7244 387.164 30.1598 388.573 30.357 389.989C30.5397 391.302 30.533 392.713 29.9566 393.841L29.8336 394.063C29.0227 395.411 27.4534 396.026 25.897 396.266C24.5195 396.478 23.0548 396.413 21.8863 396.233L21.4039 396.149C20.8366 396.038 20.2806 395.924 19.7789 395.931C19.3479 395.937 19.0313 396.032 18.8082 396.237L18.7183 396.332C18.5581 396.528 18.4709 396.809 18.4615 397.126L18.4625 397.264V397.266C18.4958 398.156 19.0219 398.974 19.7056 399.768L20.0064 400.107H20.0074C22.3681 402.687 25.0485 404.325 28.401 405.145L29.0806 405.297Z" stroke="black"/>
</g>
</g>
<path d="M158.076 165.332C155.805 162.248 149.603 152.665 143.832 143.639C140.756 138.827 137.795 134.162 135.603 130.699C134.507 128.968 133.603 127.537 132.973 126.539C132.658 126.04 132.411 125.65 132.243 125.384C132.16 125.251 132.095 125.149 132.052 125.08C132.031 125.046 132.014 125.02 132.003 125.003C132.001 124.999 131.998 124.996 131.996 124.993L129.77 121.925C129.707 121.92 129.62 121.915 129.508 121.923C129.184 121.944 128.643 122.047 127.868 122.402C126.407 123.071 124.131 124.627 120.921 128.177L120.267 128.913C116.751 132.942 115.079 137.257 114.286 140.566C113.89 142.221 113.714 143.621 113.637 144.605C113.599 145.097 113.585 145.485 113.581 145.748C113.581 145.777 113.581 145.804 113.58 145.83C113.612 145.844 113.647 145.858 113.683 145.874C113.932 145.984 114.276 146.14 114.654 146.321C115.397 146.678 116.317 147.154 116.897 147.593L116.938 147.624L116.971 147.662L139.568 173.468L158.076 165.332Z" fill="white" stroke="black"/>
<path d="M167.246 189.486C166.737 186.893 165.807 184.415 164.79 181.94L163.691 179.302C163.533 178.922 163.347 178.518 163.149 178.09C162.953 177.666 162.748 177.22 162.559 176.767C162.23 175.98 161.936 175.142 161.828 174.313L161.794 173.959C161.752 173.289 162.03 172.784 162.469 172.454C162.88 172.144 163.405 172.005 163.877 171.956V171.955C164.141 171.927 164.469 171.973 164.724 172.009C165.005 172.05 165.241 172.086 165.432 172.089L165.366 171.95C163.505 168.51 160.207 166.128 156.89 163.83L155.471 162.847C152.675 160.9 149.815 159.06 146.671 157.966L146.038 157.757C144.102 157.155 142.086 156.855 140.035 156.63L137.974 156.422C136.907 156.32 135.928 156.248 135.084 156.565L134.917 156.633C133.811 157.129 133.092 158.372 132.944 159.685C132.815 160.835 133.062 162.012 133.442 163.187L133.613 163.69V163.691C134.338 165.749 135.307 167.712 136.345 169.663L137.398 171.612C138.676 173.956 139.945 176.282 141.396 178.484L142.03 179.419C142.935 180.717 143.905 181.93 145.143 182.747L145.394 182.905C146.054 183.3 146.779 183.579 147.545 183.833L148.322 184.082C152.533 185.403 156.757 186.682 160.994 187.919L165.235 189.141C165.963 189.348 166.628 189.521 167.246 189.486Z" fill="black" stroke="black"/>
<mask id="mask2_318_1541" style="mask-type:luminance" maskUnits="userSpaceOnUse" x="132" y="155" width="36" height="35">
<path d="M167.333 189.49V156.335H132.909V189.49H167.333Z" fill="white" stroke="white"/>
</mask>
<g mask="url(#mask2_318_1541)">
<g opacity="0.149994">
<path d="M167.245 189.486C166.737 186.893 165.806 184.415 164.789 181.94L163.691 179.302C163.533 178.922 163.346 178.518 163.149 178.09C162.953 177.666 162.747 177.22 162.558 176.767C162.229 175.98 161.935 175.142 161.827 174.313L161.793 173.958C161.751 173.288 162.03 172.784 162.468 172.453C162.879 172.144 163.404 172.005 163.876 171.955V171.954C164.14 171.926 164.468 171.973 164.723 172.009C165.004 172.049 165.24 172.086 165.431 172.089L165.365 171.95C163.504 168.509 160.207 166.128 156.889 163.829L155.47 162.847C152.674 160.9 149.814 159.06 146.67 157.966L146.037 157.757C144.101 157.155 142.085 156.855 140.034 156.63L137.973 156.422C136.907 156.319 135.928 156.248 135.083 156.565L134.916 156.633C133.811 157.129 133.091 158.372 132.944 159.685C132.814 160.835 133.061 162.012 133.442 163.187L133.612 163.69V163.691C134.337 165.749 135.306 167.712 136.344 169.662L137.398 171.612C138.675 173.956 139.944 176.282 141.396 178.484L142.029 179.419C142.934 180.716 143.904 181.929 145.142 182.746L145.394 182.905C146.053 183.299 146.779 183.578 147.544 183.832L148.321 184.081C152.532 185.403 156.756 186.682 160.993 187.918L165.235 189.141C165.963 189.348 166.627 189.52 167.245 189.486Z" fill="black" stroke="black"/>
</g>
</g>
<path d="M168.944 179.098C169.79 179.44 170.689 179.511 171.67 179.108L171.867 179.021V179.02C172.009 178.954 172.105 178.895 172.167 178.836L172.219 178.777L172.22 178.775C172.239 178.748 172.26 178.702 172.262 178.613L172.255 178.51C172.223 178.248 172.076 177.907 171.871 177.531C171.772 177.35 171.669 177.175 171.57 177.008C171.523 176.928 171.475 176.847 171.431 176.768L171.31 176.546C171.076 176.077 170.838 175.609 170.597 175.143L169.863 173.751C169.464 173.003 169.057 172.259 168.644 171.517L167.397 169.294C167.173 168.895 166.828 168.512 166.422 168.11C166.132 167.823 165.797 167.513 165.494 167.199L165.204 166.885C164.592 166.183 163.78 165.407 163.008 164.835L162.68 164.603C162.056 164.183 161.177 163.728 160.375 163.326L159.611 162.945C158.088 162.184 156.738 161.534 155.484 160.317L155.234 160.066C154.17 158.956 153.499 158.035 152.866 157.081L152.232 156.106C151.14 154.416 148.848 150.704 146.834 147.421C145.826 145.778 144.886 144.241 144.198 143.114C143.854 142.551 143.573 142.09 143.378 141.77C143.307 141.654 143.247 141.556 143.2 141.478C134.078 140.379 125.351 145.495 121.303 153.402L136.642 170.4L142.734 168.801L142.847 168.771L142.96 168.794H142.961C142.962 168.794 142.963 168.794 142.965 168.795C142.968 168.795 142.974 168.796 142.98 168.798C142.994 168.8 143.013 168.804 143.039 168.809C143.091 168.82 143.167 168.836 143.266 168.855C143.462 168.895 143.746 168.952 144.096 169.022C144.795 169.163 145.757 169.357 146.809 169.567C147.861 169.778 149.002 170.005 150.059 170.214L152.809 170.749C154.198 171.013 155.54 171.007 156.995 171.143C158.326 171.268 159.681 171.512 160.979 172.235L161.238 172.386C162.286 173.026 163.166 173.846 163.978 174.692C164.607 175.347 165.161 175.979 165.745 176.598L166.343 177.213C167.154 178.02 168.021 178.723 168.944 179.098Z" fill="black" stroke="black"/>
<path d="M115.544 147.776C115.337 147.51 115.138 147.152 114.992 146.674C114.593 145.366 114.587 143.18 115.798 139.5L116.057 138.743C118.962 130.545 126.202 126.219 131.821 124.375C131.36 122.516 130.35 120.747 129.404 119.397C128.898 118.674 128.417 118.08 128.064 117.667C127.887 117.461 127.742 117.301 127.643 117.193C127.593 117.139 127.555 117.098 127.529 117.071C127.517 117.057 127.506 117.047 127.5 117.041C127.497 117.037 127.495 117.035 127.493 117.034L127.492 117.032L127.447 116.987L127.416 116.932L127.816 116.702C127.448 116.914 127.419 116.93 127.416 116.931L127.414 116.928C127.413 116.926 127.41 116.922 127.407 116.917C127.402 116.908 127.393 116.893 127.382 116.874C127.36 116.835 127.327 116.777 127.283 116.702C127.196 116.551 127.068 116.329 126.904 116.043C126.574 115.473 126.099 114.649 125.516 113.639C124.349 111.619 122.749 108.85 121.016 105.858C118.416 101.368 115.518 96.3765 113.333 92.6509L111.424 89.4126C109.293 85.8266 107.561 83.1599 105.37 81.1558C103.294 79.2567 100.781 77.934 97.0715 77.0327L92.3937 114.584C92.4193 114.631 92.4517 114.689 92.4894 114.758C92.6022 114.964 92.7682 115.267 92.9807 115.654C93.4058 116.427 94.0176 117.536 94.7629 118.877C96.2535 121.56 98.2789 125.17 100.417 128.883C102.556 132.598 104.806 136.412 106.746 139.503C107.717 141.049 108.607 142.41 109.366 143.485C110.037 144.436 110.588 145.138 110.989 145.549L111.153 145.708C112.907 147.312 114.249 147.727 115.101 147.782C115.265 147.792 115.412 147.787 115.544 147.776Z" fill="white" stroke="black"/>
<path d="M107.176 174.251C107.305 166.687 107.847 131.795 107.213 113.943L107.147 112.231C106.606 99.573 104.583 91.5637 102.358 86.2983C100.173 81.1279 97.7852 78.5821 96.3306 76.8218C96.2917 76.8063 96.2402 76.7869 96.1743 76.7651C96.0375 76.72 95.8554 76.6661 95.6313 76.606C95.1839 76.4858 94.5891 76.3433 93.895 76.186C92.5077 75.8717 90.7414 75.5044 89.0005 75.1538C87.2604 74.8034 85.5488 74.4705 84.272 74.2251C83.6336 74.1024 83.1038 74.0013 82.7339 73.9312C82.549 73.8961 82.4039 73.8687 82.3052 73.8501C82.2805 73.8454 82.2586 73.8419 82.2397 73.8384L63.0337 76.9106L62.6147 76.978L62.481 76.5757L60.7671 71.4458L48.3989 73.8208H48.3999C42.4211 75.0404 39.6735 75.7461 37.9751 76.2788C37.1278 76.5446 36.5384 76.7682 35.9263 76.9966C35.3509 77.2113 34.7587 77.4273 33.9321 77.6802C33.9183 77.7008 33.9029 77.7235 33.8862 77.7485C33.7935 77.8882 33.6563 78.0966 33.4839 78.3706C33.139 78.9187 32.6499 79.7274 32.0767 80.7632C30.9298 82.8353 29.4477 85.8147 28.1099 89.439C25.5157 96.4667 23.4762 105.886 25.438 115.806L25.6411 116.767C26.1827 119.193 27.1076 126.254 27.9702 133.945C28.7262 140.685 29.4375 147.946 29.8062 153.067L29.9429 155.124C30.3399 161.821 30.5196 165.457 29.9995 172.761L107.176 174.251Z" fill="white" stroke="black"/>
<path d="M58.5853 114.172C58.4746 112.608 58.3128 110.931 58.0746 109.146L57.9555 108.284C56.5971 98.8519 54.1366 91.1718 51.3891 85.516C48.6934 79.967 45.7542 76.4361 43.3637 75.056L37.8549 76.4965C40.3149 78.2615 43.0553 81.7571 45.4662 86.7416C48.135 92.2591 50.4308 99.6598 51.5082 108.72L51.6088 109.602C51.7807 111.18 51.9139 112.656 52.0228 114.045L58.5853 114.172Z" stroke="black"/>
<path d="M105.411 107.072C105.339 106.628 105.265 106.184 105.179 105.724C103.97 99.3283 101.445 92.7272 98.7552 87.2603C96.1094 81.8823 93.3308 77.6595 91.5335 75.8121C90.0139 75.4876 88.2197 75.1712 86.7845 74.9351C86.4378 74.8781 86.1117 74.8286 85.8167 74.7818C86.5364 75.5639 87.3544 76.6112 88.2151 77.8511C89.634 79.8952 91.2064 82.5118 92.7044 85.4459C95.6026 91.1224 98.2469 98.0351 98.9398 104.325L99.0003 104.931C99.0622 105.619 99.1172 106.29 99.1712 106.951L105.411 107.072Z" stroke="black"/>
<path d="M28.7438 174.424C55.9631 184.41 83.2198 184.531 108.966 175.2C108.928 165.361 109.017 157.001 108.955 147.565L108.918 143.398C108.848 137.263 108.634 132.479 108.397 128.036L108.156 123.67C107.773 116.756 105.895 109.387 105.25 106.096C96.8933 105.324 86.9962 105.721 83.3277 105.906L82.149 105.969H82.1481C71.8921 106.537 61.6808 107.906 51.6373 110.058C52.0031 116.316 51.2042 125.936 49.8326 134.828C49.13 139.384 48.276 143.761 47.3463 147.414C46.4788 150.823 45.5346 153.646 44.567 155.387L44.3727 155.721C42.0294 159.569 36.7968 164.308 30.2467 165.39C29.7875 167.751 29.0173 171.916 28.7438 174.424Z" fill="white" stroke="black"/>
<path d="M63.5287 6.11139C68.2902 5.49889 73.108 5.91813 77.2905 8.0528C81.4505 10.1761 85.0339 14.0232 87.312 20.3692L88.9662 33.6465L64.1293 56.6651L39.9164 41.5323C39.9149 41.5276 39.9132 41.5225 39.9116 41.5176C39.8719 41.3981 39.8144 41.2204 39.7436 40.9903C39.6018 40.529 39.4074 39.8568 39.1977 39.0206C38.7781 37.3471 38.2998 35.0197 38.0639 32.4024C37.605 27.3093 38.0728 21.2228 41.5502 16.6837L41.8959 16.2501C43.3536 14.4896 46.3592 12.2586 50.2319 10.3087C54.0935 8.36428 58.768 6.72386 63.5287 6.11139Z" fill="white" stroke="black"/>
<path d="M51.6049 74.6981C56.5979 81.2561 65.698 83.3847 72.2426 82.5966C73.8802 82.3993 75.3377 82.0218 76.5141 81.4969C77.6949 80.9702 78.5617 80.3096 79.0639 79.5673C79.5547 78.8419 79.7164 78.0132 79.4516 77.0673C79.1811 76.1007 78.4544 74.9789 77.0942 73.7333L76.9331 73.5848L76.9321 73.3661L76.9106 68.5311L76.9077 68.0282H77.4848C77.5363 68.0274 77.6145 68.0256 77.7172 68.0223C77.9229 68.0157 78.2283 68.002 78.6215 67.9745C79.2116 67.9332 79.9996 67.8599 80.9458 67.7313L81.9428 67.5839H81.9438C86.2914 66.8971 90.3773 63.0083 91.8667 58.2645L92.0024 57.8026C93.9788 50.5982 93.5274 39.6267 90.9145 27.2802L90.6547 26.0809C90.1249 23.6874 89.1395 21.2734 87.2094 20.201L87.02 20.1014C84.3598 18.7871 81.7897 19.0578 78.851 20.079C77.3757 20.5917 75.8259 21.2865 74.1352 22.0546C72.6611 22.7243 71.0849 23.4475 69.3833 24.1366L68.6469 24.4296H68.646C66.9408 25.0938 64.0844 25.5557 61.4204 25.7333C60.081 25.8226 58.7711 25.8412 57.6577 25.7743C57.2432 25.7494 56.8464 25.7124 56.4799 25.66C56.5594 25.8291 56.6328 26.0037 56.6987 26.1776C56.9063 26.7257 57.0601 27.3028 57.1518 27.7411L57.2221 28.1268C57.3042 28.6764 57.4159 29.213 57.52 29.7987C57.5963 30.2284 57.666 30.6717 57.7045 31.1219L57.7319 31.5741C57.82 34.2249 56.7989 36.9387 54.8471 38.787H54.8481C54.5222 39.0964 54.2701 39.3055 54.0991 39.5614L54.0307 39.6747V39.6757L53.9575 39.8309C53.8934 39.9939 53.854 40.1788 53.8286 40.3895C53.8108 40.5369 53.8011 40.6807 53.7934 40.8309L53.769 41.3104C53.7208 42.1034 53.5595 42.9946 53.0561 43.7303L52.9506 43.8749C52.4017 44.5886 51.4037 45.1063 50.434 44.8661L50.2407 44.8075C49.6649 44.6023 49.3139 44.2192 49.0639 43.8182C48.9421 43.6228 48.8403 43.4176 48.7504 43.2294L48.4877 42.6923C48.1228 42.0107 47.6341 41.2748 47.1157 40.6884L46.892 40.4462C46.5974 40.143 46.0602 39.8105 45.3559 39.5663C44.6589 39.3246 43.8331 39.1819 42.9868 39.2264C41.3184 39.3143 39.55 40.1272 38.4653 42.4354C36.2541 47.1774 37.7337 53.0752 42.1665 55.118L42.604 55.3036C45.2371 56.3231 47.0451 55.8166 48.1899 55.1063C48.773 54.7446 49.1985 54.3201 49.478 53.9862C49.6173 53.8197 49.72 53.6776 49.7856 53.579C49.8181 53.5302 49.8412 53.4921 49.8559 53.4677C49.8632 53.4556 49.8686 53.4464 49.8715 53.4413C49.8722 53.4401 49.8731 53.4391 49.8735 53.4384V53.4374L50.7436 51.8505L50.812 53.6591L51.6049 74.6981Z" fill="white" stroke="black"/>
<path d="M48.2999 73.9477H51.386M77.3085 73.9477H82.8633" stroke="black"/>
<path d="M56.3236 25.8058L40.8935 17.7821" stroke="black"/>
<path d="M76.9124 69.0223C71.0949 68.9521 65.8749 68.2334 62.2435 66.7957L61.887 66.6502C59.9431 65.8303 58.1538 64.1295 56.7239 62.0438C56.2327 61.3272 55.7813 60.56 55.3773 59.7606C55.5848 60.4784 55.8391 61.2065 56.1487 61.9236C57.1747 64.3 58.7775 66.5293 61.1458 67.9383L61.6292 68.2088C66.8228 70.9326 72.855 71.1915 76.9222 71.285L76.9124 69.0223Z" fill="black" stroke="black"/>
<path d="M66.361 33.0298C65.8079 32.159 64.7693 31.7611 63.8005 32.0552L63.5788 32.1353C62.5504 32.5685 61.9664 33.6944 62.1481 34.8042L66.361 33.0298Z" stroke="black"/>
<path d="M87.707 31.0373C87.8376 30.0142 87.3166 28.9841 86.4013 28.507L86.1806 28.4064C85.1307 27.99 83.9861 28.399 83.4218 29.3361L87.707 31.0373Z" stroke="black"/>
<path d="M66.3046 40.2065C67.2418 40.1725 67.9873 39.4329 68.0477 38.5161L68.0507 38.3305C68.0166 37.3929 67.2766 36.6471 66.3602 36.5873L66.1747 36.5844H66.1737C65.2369 36.6179 64.4914 37.3583 64.4315 38.2739L64.4286 38.4594V38.4604C64.4643 39.4603 65.3039 40.2417 66.3046 40.2065Z" stroke="black"/>
<path d="M83.6478 39.0513C84.5851 39.0172 85.3309 38.2765 85.3909 37.3599L85.3939 37.1753C85.3576 36.1744 84.5176 35.3937 83.5169 35.4292C82.8787 35.4525 82.4487 35.6493 82.1819 35.936C81.9484 36.1871 81.792 36.558 81.7718 37.0747V37.3052C81.8052 38.2419 82.5453 38.9879 83.4622 39.0483L83.6478 39.0513Z" stroke="black"/>
<path d="M8.94226 372.345C10.0998 372.345 11.2591 372.06 12.326 371.486L11.6991 370.485C9.8534 371.444 7.6798 371.389 5.87878 370.313L5.69128 370.197C3.77494 368.962 2.74417 366.816 2.9696 364.562L2.995 364.344L5.20398 348.067C6.69106 337.101 11.7757 326.807 19.5565 318.956L20.3173 318.204L82.6259 257.964C94.9812 246.02 103.157 230.811 106.305 213.937L106.451 213.131L109.6 195.291L108.441 195.086L105.292 212.927C102.345 229.61 94.4305 244.678 82.3837 256.553L81.8065 257.117L19.4989 317.357C11.3617 325.225 5.95328 335.654 4.19421 346.825L4.03503 347.908L1.82703 364.185C1.4611 366.894 2.60787 369.494 4.83386 371.042L5.05261 371.188C6.25165 371.961 7.59839 372.345 8.94226 372.345Z" stroke="black"/>
<path d="M107.128 206.733C108.401 206.824 109.669 206.649 110.674 206.214L110.871 206.125C111.88 205.633 112.314 205 112.373 204.432H112.374V204.069C112.373 203.821 112.372 203.465 112.37 203.015C112.366 202.116 112.36 200.844 112.351 199.323C112.334 196.279 112.311 192.236 112.286 188.171C112.261 184.109 112.236 180.022 112.217 176.89L112.191 171.346V171.298L112.193 171.277C112.195 171.257 112.197 171.237 112.198 171.226C112.199 171.22 112.199 171.216 112.199 171.212H112.2C112.221 170.894 112.063 170.486 111.568 170.08L111.336 169.907C110.656 169.447 109.712 169.159 108.725 169.088C107.862 169.027 107.008 169.134 106.314 169.402L106.027 169.527C105.393 169.835 105.099 170.209 105.01 170.543L104.985 170.684C104.984 170.698 104.983 170.71 104.981 170.719C104.932 171.326 104.278 179.258 103.625 187.182C103.288 191.272 102.951 195.36 102.697 198.443C102.57 199.984 102.463 201.274 102.388 202.186C102.351 202.642 102.322 203.004 102.301 203.255C102.291 203.381 102.283 203.48 102.277 203.548C102.274 203.583 102.272 203.609 102.27 203.628C102.269 203.638 102.27 203.645 102.269 203.651L102.268 203.659V203.661L102.264 203.771C102.268 204.293 102.571 204.903 103.339 205.475L103.509 205.596C104.46 206.24 105.77 206.636 107.128 206.733Z" fill="black" stroke="black"/>
<mask id="mask3_318_1541" style="mask-type:luminance" maskUnits="userSpaceOnUse" x="101" y="168" width="12" height="40">
<path d="M112.373 206.756V169.071H102.264V206.756H112.373Z" fill="white" stroke="white"/>
</mask>
<g mask="url(#mask3_318_1541)">
<g opacity="0.149994">
<path d="M107.128 206.733C108.401 206.824 109.669 206.649 110.674 206.214L110.871 206.125C111.881 205.633 112.314 205 112.373 204.432H112.374V204.069C112.373 203.821 112.372 203.465 112.37 203.015C112.366 202.116 112.36 200.844 112.351 199.323C112.335 196.279 112.311 192.236 112.286 188.171C112.261 184.109 112.236 180.022 112.218 176.89L112.191 171.346V171.298L112.193 171.277C112.195 171.257 112.197 171.237 112.198 171.226C112.199 171.22 112.199 171.216 112.199 171.212H112.2C112.221 170.894 112.063 170.486 111.568 170.08L111.336 169.907C110.656 169.447 109.712 169.159 108.725 169.088C107.862 169.027 107.008 169.134 106.314 169.402L106.027 169.527C105.393 169.835 105.099 170.209 105.011 170.543L104.985 170.684C104.984 170.698 104.983 170.71 104.981 170.719C104.932 171.326 104.278 179.258 103.625 187.182C103.288 191.272 102.951 195.36 102.697 198.443C102.57 199.984 102.463 201.274 102.388 202.186C102.351 202.642 102.322 203.004 102.302 203.255C102.291 203.381 102.283 203.48 102.277 203.548C102.274 203.583 102.272 203.609 102.27 203.628C102.27 203.638 102.27 203.645 102.269 203.651L102.268 203.659V203.661L102.264 203.771C102.268 204.293 102.571 204.903 103.339 205.475L103.51 205.596C104.46 206.24 105.77 206.636 107.128 206.733Z" fill="black" stroke="black"/>
</g>
</g>
<mask id="mask4_318_1541" style="mask-type:luminance" maskUnits="userSpaceOnUse" x="101" y="168" width="12" height="40">
<path d="M112.227 206.753V169.071H102.264V206.753H112.227Z" fill="white" stroke="white"/>
</mask>
<g mask="url(#mask4_318_1541)">
<g opacity="0.149994">
<path d="M107.395 206.744C105.289 205.25 104.288 202.61 104.352 199.978L104.364 199.661C104.507 197.155 104.873 191.569 105.203 186.613C105.368 184.135 105.525 181.813 105.64 180.111C105.697 179.259 105.744 178.563 105.776 178.079C105.793 177.838 105.806 177.65 105.814 177.522C105.819 177.458 105.822 177.408 105.824 177.375C105.825 177.359 105.827 177.346 105.827 177.338C105.827 177.334 105.828 177.33 105.828 177.328V177.325L105.882 176.526L106.576 176.926L106.579 176.928C106.582 176.93 106.587 176.933 106.595 176.937C106.61 176.945 106.637 176.958 106.671 176.976C106.739 177.011 106.844 177.063 106.983 177.124C107.262 177.248 107.678 177.412 108.212 177.567C109.19 177.85 110.564 178.102 112.224 178.022L112.19 171.347V171.299L112.192 171.279C112.194 171.257 112.196 171.236 112.197 171.225C112.198 171.219 112.198 171.215 112.198 171.212H112.199C112.22 170.894 112.062 170.486 111.567 170.08L111.335 169.906C110.655 169.446 109.711 169.159 108.725 169.089C107.862 169.028 107.007 169.135 106.313 169.403L106.026 169.527H106.025C105.305 169.876 105.025 170.314 104.985 170.678C104.984 170.692 104.982 170.705 104.98 170.716C104.934 171.294 104.278 179.242 103.624 187.182C103.287 191.272 102.95 195.361 102.696 198.444C102.569 199.985 102.463 201.275 102.388 202.187C102.35 202.643 102.321 203.005 102.301 203.256C102.29 203.382 102.282 203.479 102.276 203.548C102.274 203.582 102.271 203.61 102.269 203.629C102.269 203.638 102.269 203.646 102.268 203.652L102.268 203.659V203.661L102.264 203.772C102.268 204.331 102.616 204.99 103.51 205.597L103.509 205.598C104.531 206.289 105.958 206.685 107.395 206.744Z" fill="black" stroke="black"/>
</g>
</g>
<path d="M108.458 172.833C109.321 172.895 110.175 172.789 110.87 172.521L111.158 172.396C111.847 172.062 112.132 171.649 112.19 171.299V171.298L112.192 171.277C112.194 171.257 112.197 171.237 112.198 171.226C112.199 171.221 112.199 171.217 112.199 171.213V171.212C112.223 170.849 112.014 170.368 111.336 169.907C110.656 169.447 109.712 169.159 108.726 169.088C107.862 169.027 107.008 169.134 106.313 169.402L106.026 169.527C105.393 169.835 105.099 170.21 105.011 170.543L104.984 170.684C104.984 170.69 104.984 170.696 104.983 170.702C104.959 171.066 105.168 171.552 105.848 172.013L105.847 172.014C106.527 172.474 107.472 172.761 108.458 172.833Z" stroke="black"/>
<path d="M79.6356 184.614C81.1147 185.468 82.4692 185.633 83.6063 185.258L83.8309 185.175C84.2689 184.998 85.683 184.364 86.6024 183.937L87.3026 183.604C88.2977 183.103 89.1711 182.116 89.7889 180.612L89.9091 180.304L100.131 152.736L97.2128 151.051L96.4178 153.195L96.2128 153.75L95.6991 153.454L94.035 152.494L84.4745 178.28V178.281C84.4491 178.349 84.4207 178.406 84.4003 178.447L84.3563 178.537L84.1591 178.988L83.7059 178.799C83.6418 178.772 83.5672 178.741 83.4872 178.705L83.2343 178.577L79.3778 176.349L79.1278 176.205V140.61L76.2635 138.956V142.233L75.5135 141.799L73.0858 140.398V176.722C73.0858 177.629 73.3174 178.608 73.7089 179.528L73.8856 179.918L73.8905 179.926C73.9266 180.005 73.9397 180.039 73.9637 180.09L74.0575 180.262L74.0614 180.27C74.5826 181.289 75.2371 182.074 75.9071 182.462L75.9061 182.463L76.1346 182.593H76.1356L76.5897 182.855V182.856L79.6356 184.614Z" fill="black" stroke="black"/>
<mask id="mask5_318_1541" style="mask-type:luminance" maskUnits="userSpaceOnUse" x="72" y="138" width="29" height="48">
<path d="M100.247 185.449V138.589H73.0863V185.449H100.247Z" fill="white" stroke="white"/>
</mask>
<g mask="url(#mask5_318_1541)">
<g opacity="0.449997">
<path d="M79.6355 184.614C81.1146 185.468 82.4691 185.633 83.6062 185.258L83.8308 185.176C84.2688 184.998 85.6829 184.364 86.6023 183.937L87.3025 183.604C88.2976 183.103 89.171 182.116 89.7888 180.612L89.909 180.305L100.131 152.736L97.2127 151.052L96.4178 153.195L96.2127 153.75L95.699 153.454L94.0349 152.494L84.4744 178.28V178.281C84.4491 178.349 84.4206 178.406 84.4002 178.447L84.3562 178.537L84.159 178.988L83.7058 178.799C83.6417 178.772 83.5671 178.741 83.4871 178.705L83.2342 178.577L79.3777 176.349L79.1277 176.205V140.61L76.2635 138.956V142.233L75.5135 141.8L73.0857 140.398V176.722C73.0857 177.629 73.3173 178.608 73.7088 179.528L73.8855 179.918L73.8904 179.927C73.9265 180.005 73.9396 180.039 73.9637 180.09L74.0574 180.263L74.0613 180.27C74.5825 181.289 75.237 182.074 75.907 182.462L75.906 182.463L76.1346 182.594H76.1355L76.5896 182.855V182.856L79.6355 184.614Z" fill="black" stroke="black"/>
</g>
</g>
<mask id="mask6_318_1541" style="mask-type:luminance" maskUnits="userSpaceOnUse" x="76" y="140" width="4" height="38">
<path d="M79.1275 176.859V140.821H76.9498V176.859H79.1275Z" fill="white" stroke="white"/>
</mask>
<g mask="url(#mask6_318_1541)">
<g opacity="0.300003">
<path d="M79.1276 175.595V141.097L76.9498 142.085V176.583L79.1276 175.595Z" fill="black" stroke="black"/>
</g>
</g>
<path d="M79.6356 184.614C81.2113 185.524 82.6473 185.656 83.828 185.184C84.9415 184.739 85.9217 183.718 86.5995 182.083L86.7313 181.748L96.953 154.178L94.035 152.494L84.4745 178.28C84.1046 179.276 83.4946 180.01 82.6825 180.334C81.9144 180.642 81.0597 180.546 80.2235 180.11L80.0565 180.019L76.2001 177.792L75.9501 177.647V142.052L73.0858 140.398V176.722C73.0858 177.629 73.3175 178.609 73.7089 179.528L73.8856 179.917L73.8915 179.929C73.9249 180.003 73.9437 180.047 73.9696 180.102C73.981 180.123 73.9936 180.145 74.0067 180.168L74.0575 180.262L74.0614 180.27C74.5826 181.29 75.2366 182.075 75.9061 182.461L75.9052 182.462L76.1346 182.593H76.1366L76.5887 182.857L76.5897 182.856L79.6356 184.614Z" fill="black" stroke="black"/>
<mask id="mask7_318_1541" style="mask-type:luminance" maskUnits="userSpaceOnUse" x="72" y="139" width="26" height="47">
<path d="M97.0697 185.451V140.032H73.0863V185.451H97.0697Z" fill="white" stroke="white"/>
</mask>
<g mask="url(#mask7_318_1541)">
<g opacity="0.149994">
<path d="M79.6355 184.614C81.2112 185.524 82.6472 185.656 83.8279 185.184C84.9414 184.739 85.9216 183.718 86.5994 182.083L86.7312 181.748L96.9529 154.178L94.0349 152.494L84.4744 178.28C84.1045 179.276 83.4945 180.01 82.6824 180.335C81.9143 180.642 81.0596 180.546 80.2234 180.11L80.0564 180.019L76.2 177.792L75.95 177.647V142.052L73.0857 140.398V176.722C73.0857 177.629 73.3174 178.609 73.7088 179.528L73.8855 179.918L73.8914 179.929C73.9248 180.003 73.9436 180.047 73.9695 180.102C73.9809 180.123 73.9935 180.145 74.0066 180.169L74.0574 180.262L74.0613 180.27C74.5825 181.29 75.2365 182.075 75.906 182.461L75.9051 182.462L76.1346 182.593H76.1365L76.5887 182.857L76.5896 182.856L79.6355 184.614Z" fill="black" stroke="black"/>
</g>
</g>
<path d="M110.753 176.145C112.39 177.087 114.689 177.061 117.361 175.693L117.9 175.401C120.813 173.737 123.482 170.851 125.426 167.513C127.25 164.383 128.413 160.897 128.563 157.713L128.58 157.08C128.594 153.794 127.478 151.594 125.779 150.531C125.753 150.516 125.732 150.505 125.72 150.496C125.716 150.493 125.712 150.489 125.708 150.485L87.902 128.728C84.6613 126.862 80.6953 126.807 77.4118 128.56L77.0964 128.735L74.7878 130.068H74.7868C71.892 131.739 70.1092 134.828 70.1091 138.17V139.885C70.1091 143.713 72.0902 147.258 75.3268 149.269L75.6442 149.458L98.0573 162.366L98.0563 162.367C99.915 163.437 101.244 165.363 101.331 167.541L101.336 167.753C101.341 169.476 102.206 171.069 103.622 172.015L103.912 172.195H103.913L110.754 176.144L110.753 176.145Z" fill="black" stroke="black"/>
<mask id="mask8_318_1541" style="mask-type:luminance" maskUnits="userSpaceOnUse" x="70" y="126" width="60" height="40">
<path d="M128.576 165.034V127.283H71.4351V165.034H128.576Z" fill="white" stroke="white"/>
</mask>
<g mask="url(#mask8_318_1541)">
<g opacity="0.0500031">
<path d="M126.789 164.826C127.832 162.414 128.469 159.912 128.564 157.576L128.576 157.078C128.596 153.801 127.486 151.605 125.788 150.54C125.781 150.536 125.775 150.533 125.772 150.532C125.744 150.515 125.722 150.497 125.707 150.486L87.9066 128.723C84.5587 126.798 80.4361 126.807 77.0971 128.733H77.0961L74.7895 130.069L74.7885 130.07L74.5199 130.23C73.3409 130.963 72.3652 131.938 71.6303 133.065L126.789 164.826Z" fill="black" stroke="black"/>
</g>
</g>
<mask id="mask9_318_1541" style="mask-type:luminance" maskUnits="userSpaceOnUse" x="69" y="133" width="59" height="45">
<path d="M126.522 176.796V133.74H70.1098V176.796H126.522Z" fill="white" stroke="white"/>
</mask>
<g mask="url(#mask9_318_1541)">
<g opacity="0.199997">
<path d="M110.748 176.148C112.395 177.089 114.692 177.062 117.358 175.697L117.896 175.406C121.323 173.45 124.405 169.804 126.369 165.737L71.1291 133.929C70.4665 135.224 70.1097 136.669 70.1096 138.169V139.88C70.1096 143.831 72.2208 147.485 75.6399 149.461L75.6409 149.46L98.052 162.368L98.053 162.367C99.9779 163.465 101.33 165.491 101.331 167.749C101.341 169.472 102.209 171.072 103.625 172.017L103.915 172.198H103.916L110.749 176.147L110.748 176.148Z" fill="black" stroke="black"/>
</g>
</g>
<path d="M110.754 176.143C112.391 177.086 114.689 177.061 117.361 175.693L117.9 175.402C120.813 173.737 123.481 170.851 125.426 167.513C127.25 164.383 128.414 160.897 128.564 157.713L128.579 157.08C128.594 153.795 127.479 151.594 125.782 150.531C125.754 150.516 125.733 150.504 125.721 150.495C125.718 150.493 125.715 150.49 125.711 150.488C124.076 149.526 121.756 149.529 119.061 150.909L118.514 151.206C115.601 152.871 112.929 155.754 110.98 159.09C109.153 162.218 107.986 165.704 107.835 168.894L107.819 169.528L107.828 170.114C107.938 172.982 108.952 174.948 110.459 175.969L110.458 175.97C110.547 176.021 110.7 176.112 110.753 176.144L110.754 176.143Z" fill="black" stroke="black"/>
<mask id="mask10_318_1541" style="mask-type:luminance" maskUnits="userSpaceOnUse" x="107" y="149" width="23" height="29">
<path d="M128.579 176.794V149.812H107.819V176.794H128.579Z" fill="white" stroke="white"/>
</mask>
<g mask="url(#mask10_318_1541)">
<g opacity="0.399994">
<path d="M110.755 176.143C112.391 177.086 114.689 177.061 117.361 175.693L117.9 175.402C120.813 173.737 123.482 170.851 125.427 167.513C127.25 164.384 128.414 160.898 128.564 157.713L128.58 157.08C128.594 153.795 127.479 151.595 125.782 150.532C125.755 150.516 125.733 150.504 125.721 150.495C125.718 150.493 125.715 150.49 125.712 150.488C124.077 149.526 121.756 149.53 119.061 150.91L118.514 151.206C115.601 152.871 112.929 155.754 110.98 159.09C109.153 162.218 107.986 165.704 107.836 168.894L107.819 169.528L107.829 170.114C107.938 172.982 108.952 174.948 110.46 175.969L110.459 175.97C110.548 176.021 110.701 176.112 110.754 176.144L110.755 176.143Z" fill="black" stroke="black"/>
</g>
</g>
<path d="M120.208 171.985C120.964 172.43 122.072 172.453 123.419 171.762L123.691 171.614C125.157 170.776 126.515 169.313 127.51 167.608C128.443 166.008 129.033 164.237 129.11 162.63L129.118 162.312C129.125 160.747 128.622 159.728 127.907 159.213L127.761 159.117V159.116C127.61 159.025 126.747 158.549 125.865 158.062L123.948 156.999C123.191 156.555 122.085 156.535 120.74 157.225L120.467 157.372C119.002 158.21 117.643 159.673 116.648 161.378C115.715 162.977 115.126 164.749 115.049 166.355L115.041 166.674C115.034 168.226 115.528 169.241 116.235 169.76L116.379 169.858C116.531 169.951 117.394 170.429 118.283 170.919L120.208 171.985Z" fill="black" stroke="black"/>
<path d="M120.205 171.993C121.013 172.464 122.223 172.453 123.691 171.614C125.157 170.776 126.515 169.313 127.51 167.608C128.443 166.009 129.033 164.237 129.109 162.631L129.118 162.312C129.125 160.62 128.54 159.562 127.732 159.09C126.974 158.648 125.864 158.631 124.518 159.322L124.246 159.469C122.78 160.307 121.422 161.769 120.426 163.475C119.431 165.181 118.826 167.084 118.819 168.772C118.812 170.463 119.397 171.521 120.205 171.993Z" fill="black" stroke="black"/>
<mask id="mask11_318_1541" style="mask-type:luminance" maskUnits="userSpaceOnUse" x="118" y="158" width="12" height="15">
<path d="M129.118 172.306V158.777H118.819V172.306H129.118Z" fill="white" stroke="white"/>
</mask>
<g mask="url(#mask11_318_1541)">
<g opacity="0.149994">
<path d="M120.204 171.993C121.012 172.464 122.222 172.453 123.69 171.614C125.156 170.776 126.514 169.313 127.509 167.608C128.442 166.009 129.032 164.237 129.108 162.631L129.117 162.312C129.124 160.621 128.539 159.562 127.731 159.09C126.973 158.648 125.863 158.631 124.517 159.322L124.245 159.469C122.779 160.307 121.421 161.769 120.425 163.475C119.43 165.181 118.825 167.084 118.818 168.772C118.811 170.463 119.396 171.521 120.204 171.993Z" fill="black" stroke="black"/>
</g>
</g>
<path d="M148.65 184.79C149.077 185.037 149.735 185.064 150.579 184.631L150.75 184.538C151.678 184.008 152.548 183.075 153.188 181.977C153.787 180.947 154.161 179.814 154.209 178.797L154.215 178.595C154.219 177.546 153.865 176.929 153.417 176.649L153.418 176.648C153.417 176.647 153.416 176.646 153.415 176.646V176.647C153.412 176.645 153.404 176.64 153.394 176.634C153.386 176.629 153.38 176.626 153.375 176.622C153.373 176.621 153.371 176.619 153.369 176.617C152.766 176.238 146.698 172.343 140.658 168.464C137.511 166.443 134.364 164.422 131.986 162.897C130.798 162.134 129.802 161.495 129.094 161.041C128.74 160.815 128.458 160.635 128.261 160.509C128.162 160.446 128.085 160.396 128.03 160.362L127.95 160.311H127.949C127.256 159.905 126.212 159.903 124.919 160.641H124.92C123.632 161.378 122.435 162.666 121.558 164.171C120.735 165.582 120.216 167.143 120.149 168.555L120.141 168.835C120.136 170.289 120.625 171.191 121.293 171.608C121.308 171.615 121.4 171.66 121.597 171.756C121.802 171.856 122.095 171.998 122.463 172.176C123.2 172.533 124.239 173.033 125.481 173.631C127.965 174.827 131.262 176.411 134.583 178.007C141.214 181.193 147.956 184.431 148.513 184.711C148.518 184.714 148.521 184.715 148.524 184.716L148.527 184.718L148.559 184.733L148.589 184.752C148.613 184.768 148.633 184.782 148.649 184.791L148.65 184.79Z" fill="white" stroke="black"/>
<path d="M148.649 184.79C149.076 185.037 149.735 185.064 150.579 184.631L150.75 184.538C151.678 184.008 152.548 183.075 153.188 181.977C153.787 180.947 154.161 179.814 154.209 178.797L154.214 178.595C154.219 177.546 153.865 176.929 153.417 176.649V176.648L153.41 176.644C152.983 176.388 152.316 176.354 151.46 176.792L151.286 176.886C150.358 177.416 149.488 178.348 148.847 179.446C148.246 180.474 147.871 181.608 147.822 182.627L147.817 182.829C147.812 183.827 148.132 184.433 148.544 184.727L148.559 184.733L148.589 184.752C148.613 184.768 148.633 184.781 148.649 184.79Z" stroke="black"/>
<path d="M129.028 162.493L128.976 162.404L129.02 162.481L129.028 162.493Z" stroke="black"/>
<path d="M216.459 220.213C216.5 220.237 216.625 220.276 216.857 220.169L216.964 220.113C217.262 219.941 217.56 219.625 217.785 219.235C218.01 218.846 218.133 218.429 218.133 218.084V218.083C218.134 217.822 218.068 217.695 218.014 217.637L217.968 217.599L217.963 217.596C217.96 217.594 217.956 217.591 217.952 217.589C217.943 217.583 217.93 217.576 217.913 217.566C217.879 217.547 217.829 217.518 217.765 217.481C217.637 217.407 217.449 217.298 217.205 217.157C216.716 216.875 216.004 216.463 215.101 215.941C213.295 214.897 210.723 213.41 207.64 211.628C201.475 208.064 193.268 203.319 185.06 198.574L152.152 179.551C152.103 179.523 151.947 179.477 151.646 179.65H151.647C151.349 179.823 151.051 180.139 150.826 180.528C150.601 180.918 150.476 181.334 150.476 181.679C150.476 182.027 150.594 182.138 150.642 182.166L150.641 182.167L216.459 220.213Z" fill="black" stroke="black"/>
<path d="M216.46 220.213C216.506 220.24 216.661 220.288 216.962 220.114V220.113C216.97 220.109 216.977 220.103 216.984 220.099C203.559 212.338 163.952 189.441 150.477 181.652C150.476 181.661 150.476 181.67 150.476 181.679C150.476 181.94 150.542 182.067 150.596 182.126L150.642 182.164L150.644 182.166C150.644 182.166 150.645 182.167 150.647 182.168C150.65 182.17 150.654 182.171 150.658 182.174C150.667 182.179 150.68 182.187 150.697 182.196C150.731 182.216 150.781 182.244 150.845 182.281C150.973 182.356 151.161 182.465 151.405 182.607C151.894 182.889 152.606 183.3 153.509 183.822C155.315 184.867 157.887 186.354 160.97 188.136C167.135 191.7 175.343 196.444 183.551 201.189L216.459 220.213H216.46Z" fill="black" stroke="black"/>
<path d="M228.302 227.187C228.382 227.233 228.558 227.272 228.848 227.139L228.979 227.07C229.346 226.859 229.705 226.475 229.974 226.009C230.244 225.542 230.395 225.039 230.395 224.616C230.395 224.243 230.284 224.069 230.195 223.996L230.158 223.972L230.157 223.971C230.065 223.918 229.848 223.874 229.478 224.087H229.479C229.113 224.299 228.753 224.682 228.483 225.148C228.214 225.615 228.062 226.118 228.062 226.541C228.062 226.966 228.209 227.133 228.302 227.187Z" fill="white" stroke="black"/>
<path d="M226.609 229.127C226.973 229.338 227.548 229.368 228.294 228.98L228.446 228.897C229.264 228.425 230.033 227.593 230.599 226.613C231.165 225.633 231.499 224.551 231.499 223.606C231.499 222.777 231.248 222.265 230.924 221.999L230.782 221.901H230.781L221.031 216.284C220.642 216.059 220.015 216.041 219.194 216.515H219.193C218.375 216.988 217.606 217.819 217.04 218.798C216.475 219.778 216.14 220.86 216.14 221.805C216.14 222.635 216.392 223.146 216.715 223.411L216.858 223.51H216.859C217.221 223.72 226.227 228.909 226.608 229.128L226.609 229.127Z" fill="black" stroke="black"/>
<path d="M226.609 229.13C226.974 229.34 227.548 229.367 228.295 228.98L228.446 228.897C229.264 228.424 230.034 227.593 230.599 226.613C231.165 225.633 231.5 224.552 231.5 223.607C231.5 222.777 231.249 222.265 230.925 222L230.783 221.901C230.419 221.69 229.845 221.661 229.098 222.049L228.946 222.132L228.793 222.225C228.032 222.709 227.323 223.497 226.793 224.416C226.227 225.395 225.892 226.476 225.892 227.422C225.892 228.37 226.221 228.904 226.61 229.129L226.609 229.13Z" fill="white" stroke="black"/>
<path d="M227.871 226.942C227.937 226.98 228.117 227.025 228.445 226.835C228.771 226.647 229.094 226.304 229.337 225.884C229.579 225.464 229.715 225.013 229.715 224.637C229.715 224.258 229.585 224.125 229.519 224.087C229.462 224.054 229.317 224.015 229.061 224.133L228.945 224.194L228.823 224.272C228.54 224.469 228.267 224.776 228.055 225.144C227.812 225.564 227.677 226.016 227.677 226.392C227.677 226.771 227.806 226.904 227.871 226.942Z" stroke="black"/>
<path d="M59.2871 156.794L30.0303 143.347L29.6162 143.157L29.7666 142.727L38.6387 117.479C38.639 117.478 38.6393 117.477 38.6396 117.475C38.6433 117.46 38.6491 117.436 38.6562 117.405C38.6707 117.343 38.6916 117.249 38.7188 117.128C38.7732 116.884 38.8516 116.524 38.9463 116.064C39.1358 115.143 39.3913 113.818 39.6533 112.21C40.1776 108.99 40.7278 104.639 40.8359 100.099C40.9443 95.5535 40.6087 90.8501 39.3789 86.9127C38.1704 83.0435 36.1199 79.9797 32.8438 78.4733C28.6781 79.8359 25.6836 81.2471 23.3467 83.2526C21.1301 85.1548 19.4712 87.6198 17.9844 91.1647L17.6885 91.8883L17.3213 92.8453C13.8242 102.201 5.40717 131.148 2.36133 141.855L1.39453 145.29C0.670551 147.925 0.254789 150.249 0.657227 152.339C1.0284 154.267 2.10863 156.055 4.44141 157.717L4.9248 158.048C6.23776 158.912 9.15996 160.032 13.0078 161.272C16.8304 162.504 21.4978 163.835 26.2461 165.133C35.4519 167.651 44.9894 170.056 49.1572 171.359L59.2871 156.794Z" fill="white" stroke="black"/>
<path d="M82.0812 173.283L82.09 173.287C82.1012 173.291 82.12 173.299 82.1447 173.311C82.1947 173.335 82.2675 173.373 82.3498 173.426C82.5174 173.535 82.7064 173.694 82.839 173.91C82.9659 174.116 83.0524 174.39 83.0011 174.766C82.9484 175.153 82.7449 175.678 82.2297 176.359V176.36C81.8267 176.891 80.9851 177.314 79.7365 177.591C78.5091 177.864 76.9843 177.975 75.34 177.963C72.053 177.938 68.371 177.425 65.8088 176.811L65.8097 176.81C61.7709 175.831 43.4014 171.94 32.6701 169.889C29.6279 166.267 29.4417 160.541 30.9777 155.492C31.7504 152.952 32.9474 150.629 34.384 148.892C35.7845 147.199 37.3749 146.109 38.9865 145.847C42.3141 147.457 45.7539 149.175 48.7238 150.565C51.7182 151.966 54.3122 153.07 55.8761 153.38H55.8771L56.6447 153.524C64.1672 154.848 67.1851 152.83 71.2228 152.171L71.6301 152.11L71.632 152.109L71.8361 152.088C72.3662 152.046 73.2666 152.066 74.4465 152.146C75.7528 152.235 77.3595 152.395 79.0968 152.606L90.3586 159.094C90.0693 159.388 89.7322 159.581 89.425 159.706C89.2105 159.793 89.0174 159.844 88.8801 159.874C88.8122 159.888 88.7586 159.897 88.7238 159.902C88.7064 159.905 88.693 159.906 88.6857 159.907L88.6789 159.908H88.6808L88.6691 159.909L88.6574 159.911C87.5395 160.068 86.1673 160.105 85.0617 160.101C84.5116 160.099 84.0327 160.088 83.6916 160.077C83.5211 160.071 83.3851 160.065 83.2922 160.061C83.2461 160.059 83.2106 160.057 83.1867 160.056C83.1747 160.056 83.1653 160.055 83.1593 160.054H83.1506L82.9884 161.035H82.9894C82.991 161.035 82.9944 161.037 82.9982 161.038L83.174 161.091C83.2964 161.131 83.4722 161.191 83.6828 161.27C84.1058 161.429 84.6598 161.664 85.1974 161.97C85.7399 162.28 86.2375 162.646 86.5724 163.056C86.9009 163.459 87.0513 163.875 86.9826 164.324V164.326L86.9347 164.602C86.6704 165.927 86.065 166.429 85.5939 166.636C85.3249 166.754 85.0646 166.791 84.8703 166.797C84.7741 166.801 84.6965 166.796 84.6457 166.792C84.6207 166.789 84.6025 166.787 84.592 166.786H84.5842C84.5838 166.788 84.583 166.794 84.5802 166.808L84.3586 167.757H84.3576C84.3588 167.758 84.3604 167.759 84.3625 167.759C84.3708 167.762 84.3862 167.766 84.4064 167.774C84.4471 167.789 84.508 167.815 84.5802 167.852C84.7271 167.928 84.9083 168.049 85.0636 168.226C85.3439 168.547 85.6269 169.152 85.2052 170.314V170.315C84.7823 171.471 84.0519 171.953 83.4416 172.164C83.128 172.272 82.8379 172.31 82.6271 172.321C82.5224 172.326 82.4389 172.324 82.384 172.322C82.3565 172.321 82.3363 172.319 82.3244 172.318C82.3184 172.317 82.3143 172.318 82.3127 172.318C82.3126 172.319 82.3122 172.321 82.3117 172.326L82.0812 173.283ZM82.0812 173.283L82.0793 173.282H82.0783L82.0793 173.283H82.0812Z" fill="black" stroke="black"/>
<mask id="path-68-inside-1_318_1541" fill="white">
<path d="M83.1243 160.554C82.6445 160.236 82.1323 160.088 81.6132 159.978C81.0901 159.891 80.5592 159.843 79.9957 159.968C80.4754 160.287 80.9877 160.435 81.5078 160.543C82.0308 160.629 82.5618 160.676 83.1243 160.554ZM82.4662 166.3C81.758 166.077 81.0359 165.894 80.2597 165.874C80.8941 166.321 81.5836 166.603 82.286 166.846C82.9952 167.068 83.7173 167.251 84.4925 167.272C83.8571 166.826 83.1676 166.544 82.4662 166.3ZM78.7132 171.511C79.2254 171.94 79.7967 172.205 80.3838 172.43C80.9768 172.636 81.5846 172.804 82.2515 172.81C81.7393 172.383 81.1669 172.118 80.5818 171.891C79.9878 171.684 79.38 171.516 78.7132 171.511Z"/>
</mask>
<path d="M83.1243 160.554C82.6445 160.236 82.1323 160.088 81.6132 159.978C81.0901 159.891 80.5592 159.843 79.9957 159.968C80.4754 160.287 80.9877 160.435 81.5078 160.543C82.0308 160.629 82.5618 160.676 83.1243 160.554ZM82.4662 166.3C81.758 166.077 81.0359 165.894 80.2597 165.874C80.8941 166.321 81.5836 166.603 82.286 166.846C82.9952 167.068 83.7173 167.251 84.4925 167.272C83.8571 166.826 83.1676 166.544 82.4662 166.3ZM78.7132 171.511C79.2254 171.94 79.7967 172.205 80.3838 172.43C80.9768 172.636 81.5846 172.804 82.2515 172.81C81.7393 172.383 81.1669 172.118 80.5818 171.891C79.9878 171.684 79.38 171.516 78.7132 171.511Z" fill="black"/>
<path d="M83.1243 160.554L83.6758 159.719L85.6541 161.028L83.3365 161.531L83.1243 160.554ZM81.6132 159.978L81.7785 158.992L81.799 158.996L81.8193 159L81.6132 159.978ZM79.9957 159.968L79.4418 160.8L77.4832 159.497L79.7806 158.991L79.9957 159.968ZM81.5078 160.543L81.3443 161.529L81.3249 161.526L81.3056 161.522L81.5078 160.543ZM82.4662 166.3L82.7673 165.347L82.7807 165.351L82.794 165.356L82.4662 166.3ZM80.2597 165.874L79.6835 166.691L76.9874 164.791L80.2851 164.874L80.2597 165.874ZM82.286 166.846L81.9877 167.801L81.9731 167.796L81.9586 167.791L82.286 166.846ZM84.4925 167.272L85.0664 166.453L87.788 168.36L84.4658 168.271L84.4925 167.272ZM78.7132 171.511L78.0715 172.278L75.9347 170.491L78.7206 170.511L78.7132 171.511ZM80.3838 172.43L80.0558 173.375L80.0404 173.37L80.0252 173.364L80.3838 172.43ZM82.2515 172.81L82.8914 172.041L85.045 173.834L82.2426 173.81L82.2515 172.81ZM80.5818 171.891L80.9107 170.946L80.9276 170.952L80.9443 170.959L80.5818 171.891ZM83.1243 160.554L82.5727 161.388C82.2491 161.174 81.8819 161.057 81.4071 160.957L81.6132 159.978L81.8193 159C82.3827 159.118 83.04 159.299 83.6758 159.719L83.1243 160.554ZM81.6132 159.978L81.4479 160.965C80.9714 160.885 80.5892 160.861 80.2108 160.944L79.9957 159.968L79.7806 158.991C80.5292 158.826 81.2088 158.897 81.7785 158.992L81.6132 159.978ZM79.9957 159.968L80.5496 159.135C80.8718 159.349 81.2373 159.466 81.7099 159.563L81.5078 160.543L81.3056 161.522C80.738 161.405 80.079 161.224 79.4418 160.8L79.9957 159.968ZM81.5078 160.543L81.6713 159.556C82.1477 159.635 82.5321 159.659 82.912 159.576L83.1243 160.554L83.3365 161.531C82.5915 161.693 81.914 161.624 81.3443 161.529L81.5078 160.543ZM82.4662 166.3L82.1652 167.254C81.4881 167.04 80.8711 166.89 80.2343 166.874L80.2597 165.874L80.2851 164.874C81.2008 164.897 82.0279 165.113 82.7673 165.347L82.4662 166.3ZM80.2597 165.874L80.8359 165.057C81.355 165.423 81.9394 165.668 82.6133 165.901L82.286 166.846L81.9586 167.791C81.2278 167.538 80.4332 167.22 79.6835 166.691L80.2597 165.874ZM82.286 166.846L82.5842 165.892C83.2645 166.104 83.8823 166.255 84.5192 166.272L84.4925 167.272L84.4658 168.271C83.5522 168.247 82.7259 168.031 81.9877 167.801L82.286 166.846ZM84.4925 167.272L83.9186 168.091C83.3969 167.725 82.8105 167.478 82.1385 167.245L82.4662 166.3L82.794 165.356C83.5246 165.609 84.3174 165.928 85.0664 166.453L84.4925 167.272ZM78.7132 171.511L79.3548 170.744C79.7416 171.068 80.1925 171.286 80.7425 171.497L80.3838 172.43L80.0252 173.364C79.401 173.124 78.7092 172.812 78.0715 172.278L78.7132 171.511ZM80.3838 172.43L80.7118 171.486C81.2688 171.679 81.7554 171.805 82.2604 171.81L82.2515 172.81L82.2426 173.81C81.4138 173.802 80.6848 173.593 80.0558 173.375L80.3838 172.43ZM82.2515 172.81L81.6116 173.578C81.224 173.255 80.771 173.037 80.2194 172.823L80.5818 171.891L80.9443 170.959C81.5628 171.199 82.2546 171.511 82.8914 172.041L82.2515 172.81ZM80.5818 171.891L80.2529 172.835C79.6955 172.641 79.2097 172.515 78.7058 172.511L78.7132 171.511L78.7206 170.511C79.5504 170.518 80.2802 170.727 80.9107 170.946L80.5818 171.891Z" fill="black" mask="url(#path-68-inside-1_318_1541)"/>
<path d="M1.34923 144.288C1.79774 144.015 2.44594 143.64 3.26329 143.217C4.92232 142.359 7.28492 141.301 10.1002 140.499C15.5968 138.933 22.8616 138.338 29.9762 142.179C30.0152 142.078 30.0599 141.963 30.109 141.835C30.3248 141.272 30.6349 140.463 31.0123 139.481C31.7672 137.517 32.7912 134.857 33.8678 132.077C35.7495 127.217 37.7969 121.972 38.8453 119.431L39.2301 118.517C40.0404 116.647 42.3191 108.475 42.4938 99.7155C42.6675 91.002 40.7571 81.9644 33.565 77.8043C28.6586 79.5182 25.3494 81.0322 22.819 83.152C20.4228 85.1593 18.6896 87.7386 16.9879 91.6393L16.6481 92.4371C14.381 97.8781 11.6977 106.588 9.38243 114.524C7.21932 121.939 5.37315 128.697 4.50841 131.386L4.34825 131.869L4.32579 131.936L4.28477 131.994L3.94786 132.5C2.32859 135.063 1.67482 138.087 1.4381 140.554C1.31236 141.865 1.3062 143.006 1.33067 143.819C1.33584 143.99 1.3421 144.147 1.34923 144.288Z" fill="white" stroke="black"/>
<path d="M165.795 193.959C166.462 194.303 167.258 194.269 167.705 193.883L167.79 193.802C167.938 193.641 168.046 193.432 168.145 193.177L168.244 192.905C168.889 191.017 169.156 189.001 169.029 187.009L168.998 186.612C168.974 186.344 168.926 186.064 168.854 185.784L168.774 185.505V185.504C168.593 184.926 168.316 184.39 167.962 183.985L167.805 183.819C167.171 183.2 166.208 183.231 165.671 183.878L165.569 184.016L165.468 184.188C165.372 184.365 165.291 184.562 165.209 184.781C165.106 185.059 164.992 185.401 164.85 185.714L164.189 187.17L163.902 185.597C163.566 183.75 163.09 181.798 162.202 180.199L162.019 179.885C161.664 179.301 161.2 178.805 160.651 178.511L160.411 178.398C159.86 178.173 159.469 178.191 159.183 178.304C158.886 178.421 158.623 178.67 158.395 179.049C157.932 179.823 157.715 180.971 157.634 181.901L156.672 182.043C156.38 181.318 156.1 180.621 155.748 179.971L155.593 179.695C155.326 179.24 154.998 178.76 154.613 178.382C154.275 178.05 153.92 177.823 153.545 177.738L153.384 177.711C152.805 177.645 152.303 177.913 151.917 178.389C151.574 178.813 151.355 179.368 151.3 179.882L151.286 180.099V180.1L151.269 181C151.264 181.3 151.259 181.601 151.254 181.902L150.304 182.11C150.019 181.521 149.676 181.006 149.22 180.658C148.693 180.258 147.989 180.147 147.366 180.355L147.242 180.401C147.003 180.499 146.804 180.713 146.656 181.031C146.545 181.27 146.474 181.543 146.439 181.809L146.417 182.07C146.387 182.752 146.553 183.438 146.742 184.194L147.16 185.864C147.299 186.418 147.445 187.049 147.662 187.647L147.76 187.901C148.066 188.653 148.46 189.213 149.001 189.462L149.111 189.508C149.437 189.628 149.839 189.651 150.2 189.56C150.559 189.469 150.834 189.279 150.98 189.012L151.439 188.176L151.866 189.029C152.121 189.54 152.43 189.998 152.816 190.345L152.986 190.487C153.766 191.085 154.689 191.115 155.464 190.578L155.617 190.463C155.97 190.177 156.262 189.804 156.508 189.383L156.61 189.2L156.611 189.198C156.654 189.119 156.726 188.974 156.834 188.834L156.954 188.699L156.956 188.698C157.118 188.543 157.402 188.381 157.727 188.426L157.869 188.458L157.871 188.459C158.087 188.529 158.229 188.672 158.319 188.796C158.363 188.856 158.399 188.919 158.429 188.978L158.5 189.134C158.667 189.538 158.822 189.996 158.964 190.368C159.077 190.664 159.194 190.941 159.333 191.195L159.479 191.443C159.815 191.961 160.411 192.353 161.06 192.493C161.665 192.624 162.266 192.528 162.723 192.174L162.811 192.1C162.862 192.054 162.963 191.964 163.085 191.899C163.214 191.829 163.435 191.754 163.686 191.845L163.687 191.843C163.868 191.907 163.987 192.041 164.046 192.117L164.084 192.17L164.085 192.172C164.615 192.914 165.012 193.505 165.661 193.886L165.795 193.959Z" fill="black" stroke="black"/>
<path d="M165.794 193.959C166.461 194.302 167.256 194.269 167.705 193.883L167.789 193.801C167.937 193.641 168.045 193.434 168.145 193.177L168.244 192.905C168.288 192.774 168.33 192.642 168.371 192.509C167.735 192.681 167.046 192.673 166.415 192.422L166.218 192.334C165.677 192.069 165.174 191.619 164.789 191.331C164.365 191.013 164.023 190.83 163.654 190.827C163.402 190.826 163.152 190.907 162.788 191.016C162.499 191.102 162.13 191.206 161.732 191.182L161.56 191.163C161.01 191.078 160.602 190.762 160.291 190.424C160.141 190.26 160 190.076 159.872 189.896L159.522 189.386L159.521 189.385C159.043 188.693 158.467 188.108 157.774 187.803C157.123 187.517 156.37 187.52 155.831 187.843L155.727 187.911V187.912L155.536 188.066C155.47 188.123 155.403 188.186 155.331 188.255C155.195 188.385 155.034 188.546 154.872 188.685C154.567 188.946 154.15 189.231 153.609 189.214L153.498 189.206C152.963 189.15 152.595 188.823 152.343 188.492C152.22 188.331 152.112 188.151 152.017 187.976L151.766 187.485V187.484C151.64 187.229 151.445 186.983 151.247 186.839C151.1 186.733 150.998 186.711 150.923 186.724L150.857 186.746L150.773 186.802C150.739 186.829 150.697 186.867 150.636 186.92C150.561 186.986 150.449 187.084 150.303 187.164L150.146 187.237L149.982 187.284C149.604 187.364 149.261 187.231 149.008 187.06C148.794 186.915 148.612 186.725 148.466 186.534L148.333 186.347C147.935 185.739 147.359 184.643 147.086 183.537C146.841 182.542 146.791 181.304 147.667 180.541L147.856 180.396C147.936 180.34 148.018 180.295 148.102 180.255C147.854 180.243 147.604 180.275 147.366 180.355L147.242 180.4V180.401C147.002 180.499 146.803 180.713 146.655 181.031C146.507 181.349 146.429 181.729 146.414 182.071H146.415C146.393 182.582 146.481 183.095 146.606 183.639L146.742 184.195L147.16 185.866C147.298 186.419 147.444 187.049 147.662 187.647L147.759 187.901H147.76C148.066 188.654 148.46 189.213 149 189.462L149.111 189.508C149.437 189.628 149.839 189.651 150.2 189.56C150.558 189.469 150.833 189.278 150.98 189.011L151.439 188.176L151.866 189.029C152.121 189.539 152.429 189.999 152.815 190.345L152.986 190.487C153.765 191.084 154.689 191.114 155.462 190.578L155.616 190.464C155.969 190.178 156.261 189.804 156.507 189.383L156.61 189.2C156.666 189.094 156.775 188.872 156.954 188.701V188.7C157.118 188.541 157.404 188.382 157.728 188.427L157.869 188.459C158.085 188.529 158.228 188.672 158.318 188.795C158.361 188.855 158.397 188.918 158.427 188.976L158.499 189.134C158.667 189.538 158.821 189.997 158.963 190.369C159.076 190.665 159.194 190.941 159.332 191.196L159.479 191.444C159.814 191.962 160.41 192.353 161.059 192.493C161.663 192.624 162.263 192.528 162.72 192.174L162.81 192.1L162.812 192.098C162.859 192.057 162.961 191.965 163.082 191.9C163.195 191.839 163.38 191.77 163.595 191.817L163.689 191.844C163.923 191.93 164.052 192.126 164.084 192.172C164.615 192.914 165.012 193.505 165.662 193.886L165.794 193.959Z" fill="black" stroke="black"/>
<path d="M70.5192 54.8145C71.6366 55.6126 72.6516 56.3563 73.8823 56.9716C74.7284 57.3947 75.8102 57.5691 76.7457 57.6731C77.5871 57.7665 78.2242 57.602 79.0614 57.4088C79.5658 57.2924 80.1156 56.8899 80.6372 56.8899" stroke="#0A0A0A" stroke-linecap="round"/>
<path d="M74.3581 45.8039C74.0266 45.9282 74.3954 47.2978 74.4878 47.5238C74.6169 47.8394 74.8599 48.061 75.0499 48.331C75.692 49.2434 76.5457 49.3495 77.6251 49.3495C79.0319 49.3495 80.0706 48.1319 79.8735 46.7744C79.7917 46.2103 79.2406 45.4376 78.9415 44.9391" stroke="#0A0A0A" stroke-linecap="round"/>
<mask id="path-75-inside-2_318_1541" fill="white">
<path d="M62.1213 32.2722C66.2736 32.8 69.7114 32.279 73.1349 31.5545C76.7935 30.7802 80.3938 29.7864 84.9074 29.533L85.7756 29.4939C90.2166 29.3449 96.0635 29.8372 100.021 30.1521C101.071 30.2357 101.99 30.3069 102.709 30.3494C103.408 30.3907 103.97 30.4084 104.273 30.3709C104.343 30.3621 104.458 30.3449 104.564 30.2937C104.615 30.2686 104.725 30.2078 104.802 30.0808C104.898 29.9225 104.897 29.7432 104.838 29.6013C104.79 29.4872 104.714 29.4153 104.675 29.3816C104.63 29.3428 104.583 29.3128 104.544 29.2908C104.467 29.2466 104.375 29.2061 104.279 29.1687C103.996 29.0576 103.53 28.9165 102.867 28.739L102.14 28.5486C98.7055 27.6744 95.0349 26.7057 92.2228 25.9549C91.8568 25.8571 91.5056 25.7623 91.1711 25.6726L91.6125 25.6463L91.3508 24.9998L84.5617 8.25954L84.5051 8.11989L84.381 8.03493L84.3801 8.03395L84.3781 8.03298C84.3762 8.03167 84.3729 8.02954 84.3693 8.02712C84.3621 8.02222 84.3517 8.01484 84.3381 8.00563C84.3103 7.98681 84.2686 7.95931 84.215 7.9236C84.1077 7.8521 83.9502 7.74732 83.7463 7.61598C83.3382 7.35312 82.7445 6.98108 82.0021 6.54079C80.5179 5.66053 78.433 4.50632 76.0305 3.41384C71.4026 1.30948 65.4922 -0.616798 60.4191 0.186297L59.9308 0.272234C57.7319 0.702617 55.5985 0.996168 53.5109 1.34841C51.4378 1.69823 49.4308 2.10409 47.5607 2.7527C43.9087 4.01957 40.7882 6.21327 38.6047 10.6824L38.3967 11.1218C37.0351 14.0837 36.6999 18.2602 36.6906 21.6355C36.686 23.3341 36.7647 24.852 36.8439 25.9451C36.8836 26.4918 36.9232 26.9339 36.9533 27.239C36.9683 27.3912 36.9815 27.5098 36.9904 27.5906C36.9948 27.6308 36.9978 27.6623 37.0002 27.6834C37.0014 27.6937 37.0025 27.7023 37.0031 27.7078C37.0034 27.7101 37.0039 27.7122 37.0041 27.7136V27.7166L37.0568 28.157H48.3156L48.3303 28.156L49.217 28.1052C52.8481 29.8054 57.2371 31.5134 61.2805 32.1521L62.1213 32.2722Z"/>
</mask>
<path d="M62.1213 32.2722C66.2736 32.8 69.7114 32.279 73.1349 31.5545C76.7935 30.7802 80.3938 29.7864 84.9074 29.533L85.7756 29.4939C90.2166 29.3449 96.0635 29.8372 100.021 30.1521C101.071 30.2357 101.99 30.3069 102.709 30.3494C103.408 30.3907 103.97 30.4084 104.273 30.3709C104.343 30.3621 104.458 30.3449 104.564 30.2937C104.615 30.2686 104.725 30.2078 104.802 30.0808C104.898 29.9225 104.897 29.7432 104.838 29.6013C104.79 29.4872 104.714 29.4153 104.675 29.3816C104.63 29.3428 104.583 29.3128 104.544 29.2908C104.467 29.2466 104.375 29.2061 104.279 29.1687C103.996 29.0576 103.53 28.9165 102.867 28.739L102.14 28.5486C98.7055 27.6744 95.0349 26.7057 92.2228 25.9549C91.8568 25.8571 91.5056 25.7623 91.1711 25.6726L91.6125 25.6463L91.3508 24.9998L84.5617 8.25954L84.5051 8.11989L84.381 8.03493L84.3801 8.03395L84.3781 8.03298C84.3762 8.03167 84.3729 8.02954 84.3693 8.02712C84.3621 8.02222 84.3517 8.01484 84.3381 8.00563C84.3103 7.98681 84.2686 7.95931 84.215 7.9236C84.1077 7.8521 83.9502 7.74732 83.7463 7.61598C83.3382 7.35312 82.7445 6.98108 82.0021 6.54079C80.5179 5.66053 78.433 4.50632 76.0305 3.41384C71.4026 1.30948 65.4922 -0.616798 60.4191 0.186297L59.9308 0.272234C57.7319 0.702617 55.5985 0.996168 53.5109 1.34841C51.4378 1.69823 49.4308 2.10409 47.5607 2.7527C43.9087 4.01957 40.7882 6.21327 38.6047 10.6824L38.3967 11.1218C37.0351 14.0837 36.6999 18.2602 36.6906 21.6355C36.686 23.3341 36.7647 24.852 36.8439 25.9451C36.8836 26.4918 36.9232 26.9339 36.9533 27.239C36.9683 27.3912 36.9815 27.5098 36.9904 27.5906C36.9948 27.6308 36.9978 27.6623 37.0002 27.6834C37.0014 27.6937 37.0025 27.7023 37.0031 27.7078C37.0034 27.7101 37.0039 27.7122 37.0041 27.7136V27.7166L37.0568 28.157H48.3156L48.3303 28.156L49.217 28.1052C52.8481 29.8054 57.2371 31.5134 61.2805 32.1521L62.1213 32.2722Z" fill="white"/>
<path d="M62.1213 32.2722L61.9952 33.2643L61.9875 33.2633L61.9799 33.2622L62.1213 32.2722ZM73.1349 31.5545L73.342 32.5328L73.342 32.5328L73.1349 31.5545ZM84.9074 29.533L84.8513 28.5345L84.8625 28.534L84.9074 29.533ZM85.7756 29.4939L85.7306 28.4949L85.742 28.4945L85.7756 29.4939ZM100.021 30.1521L99.9414 31.149L99.9414 31.149L100.021 30.1521ZM102.709 30.3494L102.65 31.3476L102.65 31.3476L102.709 30.3494ZM104.273 30.3709L104.396 31.3632L104.396 31.3633L104.273 30.3709ZM104.564 30.2937L105 31.1937L104.999 31.1941L104.564 30.2937ZM104.802 30.0808L105.657 30.5998L105.656 30.6003L104.802 30.0808ZM104.838 29.6013L105.761 29.2165L105.761 29.2173L104.838 29.6013ZM104.675 29.3816L105.325 28.6215L105.325 28.6218L104.675 29.3816ZM104.544 29.2908L105.042 28.4233L105.042 28.4235L104.544 29.2908ZM104.279 29.1687L104.644 28.2376L104.644 28.2376L104.279 29.1687ZM102.867 28.739L103.121 27.7716L103.126 27.7731L102.867 28.739ZM102.14 28.5486L102.387 27.5795L102.393 27.5812L102.14 28.5486ZM92.2228 25.9549L91.9649 26.921L91.9649 26.921L92.2228 25.9549ZM91.1711 25.6726L90.912 26.6385L91.1114 24.6744L91.1711 25.6726ZM91.6125 25.6463L92.5394 25.271L93.0618 26.5615L91.6721 26.6445L91.6125 25.6463ZM91.3508 24.9998L92.2775 24.624L92.2777 24.6245L91.3508 24.9998ZM84.5617 8.25954L85.4884 7.88368L85.4884 7.88372L84.5617 8.25954ZM84.5051 8.11989L85.0702 7.2949L85.3186 7.46505L85.4317 7.74404L84.5051 8.11989ZM84.381 8.03493L83.8159 8.85992L83.7394 8.80755L83.6739 8.74204L84.381 8.03493ZM84.3801 8.03395L84.8273 7.13953L84.9724 7.2121L85.0872 7.32685L84.3801 8.03395ZM84.3781 8.03298L83.9309 8.9274L83.8697 8.89681L83.8133 8.85817L84.3781 8.03298ZM84.3693 8.02712L83.8065 8.8537L83.8059 8.85329L84.3693 8.02712ZM84.3381 8.00563L84.8986 7.17752L84.8987 7.1776L84.3381 8.00563ZM84.215 7.9236L83.6605 8.75574L83.6605 8.75574L84.215 7.9236ZM83.7463 7.61598L84.2878 6.77529L84.2878 6.7753L83.7463 7.61598ZM82.0021 6.54079L82.5122 5.68068L82.5122 5.68068L82.0021 6.54079ZM76.0305 3.41384L76.4444 2.50353L76.4444 2.50353L76.0305 3.41384ZM60.4191 0.186297L60.2458 -0.798566L60.2543 -0.800058L60.2628 -0.801404L60.4191 0.186297ZM59.9308 0.272234L59.7388 -0.709145L59.7481 -0.710976L59.7575 -0.712628L59.9308 0.272234ZM53.5109 1.34841L53.3445 0.362346L53.3445 0.362345L53.5109 1.34841ZM47.5607 2.7527L47.233 1.80793L47.233 1.80792L47.5607 2.7527ZM38.6047 10.6824L37.7007 10.2545L37.7062 10.2434L38.6047 10.6824ZM38.3967 11.1218L37.488 10.7041L37.4928 10.694L38.3967 11.1218ZM36.6906 21.6355L35.6906 21.6328L35.6906 21.6328L36.6906 21.6355ZM36.8439 25.9451L35.8465 26.0174L35.8465 26.0174L36.8439 25.9451ZM36.9533 27.239L35.9582 27.3374L35.9581 27.3374L36.9533 27.239ZM36.9904 27.5906L35.9964 27.7L35.9964 27.7L36.9904 27.5906ZM37.0002 27.6834L36.0068 27.7979L36.0067 27.7976L37.0002 27.6834ZM37.0031 27.7078L37.9962 27.5903L37.9962 27.5907L37.0031 27.7078ZM37.0041 27.7136L37.9944 27.5749L38.0041 27.6439V27.7136H37.0041ZM37.0041 27.7166L36.0112 27.8355L36.0041 27.7762V27.7166H37.0041ZM37.0568 28.157V29.157H36.1694L36.0639 28.2759L37.0568 28.157ZM48.3156 28.157L48.3821 29.1548L48.3489 29.157H48.3156V28.157ZM48.3303 28.156L48.2637 27.1582L48.2731 27.1577L48.3303 28.156ZM49.217 28.1052L49.1598 27.1069L49.4121 27.0924L49.641 27.1996L49.217 28.1052ZM61.2805 32.1521L61.139 33.1421L61.1317 33.141L61.1244 33.1399L61.2805 32.1521ZM62.1213 32.2722L62.2474 31.2802C66.2369 31.7873 69.5474 31.2916 72.9279 30.5761L73.1349 31.5545L73.342 32.5328C69.8755 33.2664 66.3103 33.8127 61.9952 33.2643L62.1213 32.2722ZM73.1349 31.5545L72.9279 30.5761C76.5238 29.8151 80.238 28.7936 84.8513 28.5345L84.9074 29.533L84.9635 30.5314C80.5496 30.7793 77.0633 31.7452 73.342 32.5328L73.1349 31.5545ZM84.9074 29.533L84.8625 28.534L85.7306 28.4949L85.7756 29.4939L85.8205 30.4929L84.9524 30.532L84.9074 29.533ZM85.7756 29.4939L85.742 28.4945C90.2526 28.3432 96.1647 28.8421 100.1 29.1553L100.021 30.1521L99.9414 31.149C95.9623 30.8323 90.1806 30.3467 85.8091 30.4934L85.7756 29.4939ZM100.021 30.1521L100.1 29.1553C101.152 29.239 102.061 29.3093 102.768 29.3511L102.709 30.3494L102.65 31.3476C101.92 31.3044 100.99 31.2324 99.9414 31.149L100.021 30.1521ZM102.709 30.3494L102.768 29.3511C103.493 29.394 103.956 29.4025 104.149 29.3785L104.273 30.3709L104.396 31.3633C103.984 31.4143 103.323 31.3875 102.65 31.3476L102.709 30.3494ZM104.273 30.3709L104.149 29.3785C104.16 29.3772 104.167 29.3762 104.172 29.3754C104.177 29.3746 104.179 29.3741 104.178 29.3742C104.178 29.3743 104.174 29.3753 104.166 29.3778C104.159 29.3803 104.146 29.3851 104.129 29.3933L104.564 30.2937L104.999 31.1941C104.736 31.3211 104.482 31.3525 104.396 31.3632L104.273 30.3709ZM104.564 30.2937L104.128 29.3937C104.105 29.4046 104.015 29.45 103.947 29.5613L104.802 30.0808L105.656 30.6003C105.434 30.9656 105.126 31.1327 105 31.1937L104.564 30.2937ZM104.802 30.0808L103.947 29.5619C103.861 29.7044 103.864 29.8642 103.915 29.9853L104.838 29.6013L105.761 29.2173C105.93 29.6222 105.936 30.1406 105.657 30.5998L104.802 30.0808ZM104.838 29.6013L103.915 29.9862C103.955 30.081 104.013 30.1311 104.025 30.1415L104.675 29.3816L105.325 28.6218C105.416 28.6995 105.626 28.8933 105.761 29.2165L104.838 29.6013ZM104.675 29.3816L104.025 30.1417C104.035 30.1503 104.042 30.1553 104.045 30.1573C104.048 30.1593 104.049 30.1596 104.046 30.1581L104.544 29.2908L105.042 28.4235C105.112 28.4635 105.216 28.5283 105.325 28.6215L104.675 29.3816ZM104.544 29.2908L104.047 30.1583C104.032 30.1498 103.992 30.13 103.915 30.0998L104.279 29.1687L104.644 28.2376C104.758 28.2821 104.902 28.3434 105.042 28.4233L104.544 29.2908ZM104.279 29.1687L103.915 30.0998C103.688 30.0111 103.27 29.8822 102.608 29.7049L102.867 28.739L103.126 27.7731C103.789 27.9509 104.304 28.1042 104.644 28.2376L104.279 29.1687ZM102.867 28.739L102.614 29.7064L101.887 29.516L102.14 28.5486L102.393 27.5812L103.121 27.7716L102.867 28.739ZM102.14 28.5486L101.893 29.5177C98.4536 28.6421 94.7788 27.6724 91.9649 26.921L92.2228 25.9549L92.4808 24.9887C95.291 25.7391 98.9575 26.7066 102.387 27.5795L102.14 28.5486ZM92.2228 25.9549L91.9649 26.921C91.5984 26.8231 91.2444 26.7276 90.912 26.6385L91.1711 25.6726L91.4301 24.7068C91.7668 24.7971 92.1153 24.8911 92.4808 24.9887L92.2228 25.9549ZM91.1711 25.6726L91.1114 24.6744L91.5529 24.648L91.6125 25.6463L91.6721 26.6445L91.2307 26.6708L91.1711 25.6726ZM91.6125 25.6463L90.6856 26.0215L90.4238 25.375L91.3508 24.9998L92.2777 24.6245L92.5394 25.271L91.6125 25.6463ZM91.3508 24.9998L90.4241 25.3756L83.635 8.63536L84.5617 8.25954L85.4884 7.88372L92.2775 24.624L91.3508 24.9998ZM84.5617 8.25954L83.635 8.63539L83.5784 8.49575L84.5051 8.11989L85.4317 7.74404L85.4884 7.88368L84.5617 8.25954ZM84.5051 8.11989L83.9399 8.94488L83.8159 8.85992L84.381 8.03493L84.9462 7.20994L85.0702 7.2949L84.5051 8.11989ZM84.381 8.03493L83.6739 8.74204L83.673 8.74106L84.3801 8.03395L85.0872 7.32685L85.0881 7.32782L84.381 8.03493ZM84.3801 8.03395L83.9328 8.92838L83.9309 8.9274L84.3781 8.03298L84.8253 7.13855L84.8273 7.13953L84.3801 8.03395ZM84.3781 8.03298L83.8133 8.85817C83.8164 8.86033 83.8189 8.86204 83.8205 8.86307C83.8221 8.86414 83.8233 8.86495 83.8239 8.86533C83.8245 8.86575 83.8255 8.86643 83.8237 8.86521C83.8216 8.86386 83.8147 8.85931 83.8065 8.8537L84.3693 8.02712L84.9321 7.20053C84.9275 7.19735 84.924 7.19508 84.925 7.19573C84.9251 7.19579 84.9252 7.19585 84.9254 7.19599C84.9256 7.1961 84.9258 7.19629 84.9261 7.19649C84.9267 7.19687 84.9278 7.19756 84.929 7.19837C84.9302 7.19918 84.932 7.20038 84.9342 7.20182C84.9363 7.20324 84.9393 7.2053 84.943 7.20778L84.3781 8.03298ZM84.3693 8.02712L83.8059 8.85329C83.8013 8.85016 83.7971 8.84727 83.7945 8.84543C83.793 8.84445 83.7916 8.84346 83.7905 8.84266C83.7892 8.8418 83.7882 8.84109 83.7872 8.84036C83.7831 8.83756 83.7802 8.83557 83.7774 8.83367L84.3381 8.00563L84.8987 7.1776C84.9095 7.18491 84.9187 7.19121 84.9251 7.19562C84.9266 7.1967 84.9281 7.19772 84.9293 7.19853C84.9305 7.1994 84.9314 7.20001 84.9322 7.20055C84.9339 7.20176 84.9337 7.20163 84.9327 7.20094L84.3693 8.02712ZM84.3381 8.00563L83.7775 8.83374C83.7535 8.81751 83.7204 8.79568 83.6605 8.75574L84.215 7.9236L84.7696 7.09146C84.8168 7.12294 84.867 7.1561 84.8986 7.17752L84.3381 8.00563ZM84.215 7.9236L83.6605 8.75574C83.5547 8.68523 83.4021 8.58381 83.2047 8.45667L83.7463 7.61598L84.2878 6.7753C84.4982 6.91084 84.6608 7.01898 84.7696 7.09147L84.215 7.9236ZM83.7463 7.61598L83.2048 8.45668C82.8064 8.20009 82.2232 7.83455 81.492 7.40089L82.0021 6.54079L82.5122 5.68068C83.2658 6.12761 83.87 6.50616 84.2878 6.77529L83.7463 7.61598ZM82.0021 6.54079L81.492 7.4009C80.0299 6.53372 77.9777 5.39784 75.6165 4.32414L76.0305 3.41384L76.4444 2.50353C78.8882 3.6148 81.006 4.78734 82.5122 5.68068L82.0021 6.54079ZM76.0305 3.41384L75.6165 4.32415C71.0192 2.23367 65.3405 0.419682 60.5755 1.174L60.4191 0.186297L60.2628 -0.801404C65.644 -1.65328 71.786 0.385287 76.4444 2.50353L76.0305 3.41384ZM60.4191 0.186297L60.5925 1.17116L60.1042 1.2571L59.9308 0.272234L59.7575 -0.712628L60.2458 -0.798566L60.4191 0.186297ZM59.9308 0.272234L60.1229 1.25361C57.9104 1.68665 55.7222 1.98943 53.6773 2.33447L53.5109 1.34841L53.3445 0.362345C55.4748 0.00290122 57.5534 -0.281421 59.7388 -0.709145L59.9308 0.272234ZM53.5109 1.34841L53.6773 2.33447C51.6179 2.68197 49.6775 3.07697 47.8884 3.69749L47.5607 2.7527L47.233 1.80792C49.1841 1.13121 51.2577 0.714485 53.3445 0.362346L53.5109 1.34841ZM47.5607 2.7527L47.8885 3.69747C44.4473 4.89118 41.5539 6.92404 39.5032 11.1214L38.6047 10.6824L37.7062 10.2434C40.0225 5.5025 43.3701 3.14797 47.233 1.80793L47.5607 2.7527ZM38.6047 10.6824L39.5085 11.1102L39.3005 11.5497L38.3967 11.1218L37.4928 10.694L37.7008 10.2546L38.6047 10.6824ZM38.3967 11.1218L39.3053 11.5395C38.0403 14.2914 37.6998 18.2794 37.6906 21.6383L36.6906 21.6355L35.6906 21.6328C35.6999 18.241 36.03 13.876 37.4881 10.7042L38.3967 11.1218ZM36.6906 21.6355L37.6906 21.6382C37.6861 23.3056 37.7633 24.7976 37.8413 25.8728L36.8439 25.9451L35.8465 26.0174C35.766 24.9063 35.6859 23.3626 35.6906 21.6328L36.6906 21.6355ZM36.8439 25.9451L37.8413 25.8728C37.8803 26.4106 37.9191 26.844 37.9485 27.1407L36.9533 27.239L35.9581 27.3374C35.9272 27.0237 35.8868 26.573 35.8465 26.0174L36.8439 25.9451ZM36.9533 27.239L37.9485 27.1407C37.9629 27.2866 37.9755 27.4 37.9844 27.4812L36.9904 27.5906L35.9964 27.7C35.9876 27.6196 35.9738 27.4958 35.9582 27.3374L36.9533 27.239ZM36.9904 27.5906L37.9844 27.4812C37.9871 27.5056 37.9893 27.527 37.9909 27.5426C37.9917 27.5509 37.9923 27.5567 37.9928 27.5618C37.9931 27.5642 37.9933 27.5659 37.9934 27.5673C37.9936 27.5686 37.9936 27.5692 37.9936 27.5691L37.0002 27.6834L36.0067 27.7976C36.0046 27.7792 36.0025 27.7584 36.0012 27.7457C35.9996 27.7303 35.9982 27.7158 35.9964 27.7L36.9904 27.5906ZM37.0002 27.6834L37.9936 27.5688C37.9938 27.571 37.9941 27.5733 37.9945 27.5765C37.9946 27.5773 37.9947 27.5781 37.9948 27.5791C37.9949 27.5799 37.9951 27.581 37.9952 27.5821C37.9954 27.584 37.9958 27.5871 37.9962 27.5903L37.0031 27.7078L36.01 27.8252C36.0101 27.8257 36.0101 27.8257 36.0099 27.8241C36.0099 27.8238 36.0094 27.8199 36.0092 27.8183C36.0086 27.8132 36.0077 27.8061 36.0068 27.7979L37.0002 27.6834ZM37.0031 27.7078L37.9962 27.5907C37.9942 27.5738 37.9921 27.5597 37.9905 27.5494C37.9888 27.5393 37.9874 27.5315 37.9868 27.5285C37.9866 27.5271 37.9863 27.5258 37.9865 27.5267C37.9865 27.5268 37.987 27.5292 37.9875 27.5321C37.988 27.535 37.989 27.5403 37.9901 27.5469C37.9912 27.5534 37.9928 27.5631 37.9944 27.5749L37.0041 27.7136L36.0138 27.8524C36.0154 27.8639 36.0169 27.8732 36.0179 27.8793C36.0189 27.8855 36.0198 27.8903 36.0203 27.8928C36.0205 27.8942 36.0207 27.8953 36.0209 27.8959C36.0209 27.8962 36.021 27.8965 36.021 27.8967C36.021 27.8968 36.021 27.8969 36.021 27.8969C36.0211 27.8973 36.0208 27.8955 36.0204 27.8937C36.0197 27.8897 36.0181 27.8808 36.0162 27.8696C36.0144 27.8582 36.0121 27.8429 36.01 27.8248L37.0031 27.7078ZM37.0041 27.7136H38.0041V27.7166H37.0041H36.0041V27.7136H37.0041ZM37.0041 27.7166L37.997 27.5977L38.0497 28.0381L37.0568 28.157L36.0639 28.2759L36.0112 27.8355L37.0041 27.7166ZM37.0568 28.157V27.157H48.3156V28.157V29.157H37.0568V28.157ZM48.3156 28.157L48.2491 27.1592L48.2637 27.1582L48.3303 28.156L48.3968 29.1538L48.3821 29.1548L48.3156 28.157ZM48.3303 28.156L48.2731 27.1577L49.1598 27.1069L49.217 28.1052L49.2742 29.1036L48.3874 29.1544L48.3303 28.156ZM49.217 28.1052L49.641 27.1996C53.2415 28.8854 57.5308 30.5474 61.4365 31.1644L61.2805 32.1521L61.1244 33.1399C56.9434 32.4794 52.4547 30.7254 48.7929 29.0109L49.217 28.1052ZM61.2805 32.1521L61.4219 31.1622L62.2627 31.2823L62.1213 32.2722L61.9799 33.2622L61.139 33.1421L61.2805 32.1521Z" fill="black" mask="url(#path-75-inside-2_318_1541)"/>
</svg>
