<svg width="135" height="241" viewBox="0 0 135 241" fill="none" xmlns="http://www.w3.org/2000/svg">
<path d="M42.452 198.253C45.9151 199.557 49.5729 199.487 52.4139 199.069C53.8688 198.855 55.0992 198.551 55.9647 198.301C56.3973 198.176 56.7384 198.065 56.9696 197.986C56.9915 197.978 57.0122 197.97 57.0321 197.963L57.495 193.394L58.0077 188.284C58.0528 187.837 58.1333 187.389 58.2079 186.968C58.2649 186.647 58.3189 186.34 58.3563 186.041L58.3876 185.744C58.4438 185.086 58.3415 184.351 58.7811 183.515L58.8768 183.347C59.1001 182.978 59.2928 182.709 59.4667 182.383C59.6089 182.116 59.7002 181.874 59.7255 181.635L59.7323 181.534C59.739 181.286 59.675 181.038 59.5946 180.689C59.5303 180.41 59.4552 180.063 59.4823 179.694L59.5009 179.534C59.5694 179.095 59.7805 178.735 59.9755 178.444C60.1362 178.204 60.2725 178.026 60.3876 177.842L60.496 177.653C60.9278 176.822 60.7783 175.758 60.4569 174.663C60.1711 173.689 59.7302 172.528 59.7928 171.34L59.8124 171.102C59.8856 170.447 60.114 169.85 60.3553 169.304C60.5441 168.878 60.7302 168.502 60.8915 168.12L61.0438 167.733C61.5326 166.377 61.5392 164.924 61.4628 163.37C61.3925 161.94 61.248 160.402 61.4169 158.902L61.455 158.602C61.5756 157.753 61.8073 156.916 62.0311 156.115L62.2479 155.327C62.913 152.815 63.0878 150.313 63.1132 147.771C63.1349 145.582 63.043 143.278 63.0712 140.996L63.0907 140.019C63.1583 137.724 63.2103 135.429 63.2489 133.132L63.2831 130.835C63.4301 119.866 63.5685 108.83 62.8885 97.897L34.701 97.7544L35.2343 103.463C35.4672 105.957 35.7004 108.45 35.9335 110.944L36.6327 118.425L38.3114 136.39C38.787 141.479 39.2622 146.568 39.7372 151.658C39.8343 152.694 39.9748 153.787 40.0516 154.868L40.08 155.33C40.1469 156.604 39.8145 157.883 39.455 159.054L39.1005 160.186C38.6011 161.805 38.2551 163.458 38.3407 165.099L38.3641 165.427C38.4299 166.175 38.5903 166.912 38.7616 167.684C38.9095 168.351 39.0661 169.045 39.1591 169.756L39.1942 170.063C39.2817 170.916 39.1428 171.761 38.9559 172.556C38.8624 172.954 38.7535 173.352 38.6522 173.732C38.601 173.924 38.5518 174.113 38.5057 174.298L38.3798 174.847C38.2024 175.712 38.0883 176.497 38.3046 177.176L38.3524 177.31V177.311C38.4881 177.657 38.7062 177.957 38.9618 178.365C39.1992 178.744 39.4589 179.205 39.5165 179.758C39.5734 180.307 39.4149 180.818 39.2841 181.228C39.1601 181.616 39.0592 181.92 39.037 182.215L39.0321 182.342C39.0348 182.831 39.2813 183.19 39.6669 183.621C39.8461 183.821 40.082 184.065 40.2723 184.308C40.4706 184.562 40.6586 184.861 40.7577 185.223L40.7684 185.262L40.7733 185.302V185.307C40.7736 185.31 40.7738 185.314 40.7743 185.319C40.7755 185.33 40.7779 185.347 40.7802 185.368C40.7847 185.41 40.7913 185.472 40.7997 185.548C40.8164 185.701 40.8401 185.913 40.8671 186.149C40.8942 186.386 40.9242 186.647 40.955 186.896L41.0448 187.577L41.5956 191.398C41.9165 193.673 42.2239 195.958 42.452 198.253Z" fill="white" stroke="black"/>
<path d="M64.6385 227.99C69.5603 228.576 72.6941 227.929 74.3621 226.212L74.5193 226.043C75.1006 225.384 75.289 224.681 75.3143 224.152C75.3268 223.887 75.2964 223.676 75.2615 223.542L41.45 214.228C41.4427 214.445 41.4364 214.7 41.4383 214.965C41.4409 215.322 41.457 215.683 41.4949 215.985C41.5139 216.135 41.5375 216.261 41.5643 216.359C41.5775 216.407 41.5901 216.444 41.6014 216.471L41.6189 216.506C42.1019 217.179 43.0556 217.713 44.242 218.146C45.1188 218.466 46.0649 218.712 46.9373 218.924L47.7801 219.126C49.027 219.427 50.3684 220.228 51.6189 221.137C52.5638 221.824 53.4853 222.594 54.3084 223.302L55.0955 223.984C56.0833 224.842 57.1432 225.68 58.6102 226.385C59.9859 227.047 61.7395 227.6 64.1482 227.928L64.6385 227.99Z" stroke="black"/>
<path d="M65.864 226.732C68.355 226.819 70.3887 226.541 71.9119 226.037C73.3498 225.56 74.2847 224.899 74.7585 224.201L74.8474 224.061C75.2386 223.394 75.451 222.318 75.3992 221.25C75.3498 220.234 75.0696 219.371 74.6316 218.909L74.5417 218.822C73.6991 218.072 72.6133 217.412 71.4539 216.796C70.5635 216.324 69.6975 215.91 68.8542 215.493L68.0183 215.072C64.9104 213.468 61.6313 211.266 59.6589 209.337L59.283 208.956C58.1136 207.723 57.8384 205.917 57.8474 204.356L57.8533 204.047C57.9579 200.392 58.2838 193.979 58.6228 189.701L58.7683 188.012C58.8304 187.357 58.8555 186.84 58.8591 186.434C58.82 186.47 58.7792 186.51 58.7341 186.55C58.3783 186.865 57.8359 187.276 57.072 187.691C55.6368 188.47 53.4319 189.252 50.2312 189.426L49.5779 189.453C46.0404 189.548 43.6991 189.023 42.2253 188.455C41.4888 188.171 40.9708 187.876 40.6306 187.646C40.4607 187.531 40.3356 187.432 40.2498 187.359C40.2068 187.322 40.1739 187.292 40.1501 187.269C40.1383 187.258 40.1282 187.249 40.1208 187.242C40.1173 187.238 40.1146 187.234 40.1121 187.232L40.1062 187.226C40.1059 187.226 40.1058 187.225 40.4695 186.882L40.1052 187.225L39.9939 187.107L39.9734 186.945L39.9138 186.479C39.8744 186.695 39.8597 186.984 39.8787 187.374C39.9219 188.261 40.1222 189.489 40.4011 191.206L40.7029 193.092C41.1151 195.729 41.5465 198.303 41.7996 200.567C42.0515 202.82 42.1359 204.831 41.824 206.329C41.2381 209.142 40.7145 211.078 41.4324 214.377C42.0884 215.463 43.1631 216.113 44.408 216.601C45.0415 216.85 45.7007 217.051 46.3562 217.248C46.8416 217.395 47.3295 217.541 47.7869 217.704L48.2322 217.872C50.275 218.694 52.5572 220.233 54.6287 221.916L55.5017 222.646H55.5027C56.6231 223.605 58.4058 224.603 60.3347 225.376C62.1436 226.102 64.0313 226.609 65.5623 226.715L65.864 226.732Z" fill="black" stroke="black"/>
<mask id="mask0_318_1541" style="mask-type:luminance" maskUnits="userSpaceOnUse" x="44" y="184" width="32" height="41">
<path d="M75.2847 224.199L66.6998 185.173H44.8404V224.199H75.2847Z" fill="white" stroke="white"/>
</mask>
<g mask="url(#mask0_318_1541)">
<g opacity="0.100006">
<path d="M70.2287 223.267V223.266C71.6397 223.095 73.0288 222.74 74.3478 222.211L74.6369 222.096L74.8683 222.304C75.0494 222.467 75.183 222.651 75.2814 222.844C75.3824 222.348 75.4262 221.798 75.3996 221.25C75.3501 220.234 75.07 219.371 74.632 218.909L74.5421 218.822C73.6998 218.072 72.6136 217.412 71.4542 216.796C70.5646 216.324 69.6978 215.91 68.8546 215.493L68.0187 215.072C64.9108 213.468 61.6317 211.266 59.6593 209.337L59.2824 208.956C58.1131 207.723 57.8383 205.917 57.8468 204.356L57.8527 204.047C57.9578 200.392 58.2832 193.979 58.6222 189.701L58.7677 188.012C58.8297 187.358 58.8549 186.841 58.8585 186.435C58.8196 186.471 58.7792 186.511 58.7345 186.55C58.3787 186.865 57.8365 187.277 57.0724 187.692C55.6372 188.471 53.4322 189.252 50.2316 189.426L49.5773 189.453C47.8891 189.498 46.4725 189.401 45.2912 189.226C45.6087 189.554 46.0416 189.819 46.5314 190.045L46.8585 190.188C47.7835 190.569 48.7507 190.85 49.7365 191.025L50.1593 191.093C50.5841 191.155 51.1009 191.215 51.5773 191.346C52.002 191.463 52.4381 191.647 52.8048 191.975L52.9572 192.124C53.3746 192.572 53.57 193.145 53.6896 193.664L53.7892 194.161C54.254 196.665 54.5884 199.194 54.7902 201.733L54.8683 202.822C54.9083 203.441 54.9467 204.152 54.7872 204.847L54.7062 205.144C54.5406 205.662 54.2651 206.11 53.9913 206.51C53.7756 206.826 53.5745 207.094 53.3908 207.372L53.213 207.654C53.0016 208.011 52.8497 208.42 52.8097 208.801C52.7751 209.132 52.8257 209.415 52.965 209.64L53.0304 209.734H53.0314C53.1405 209.872 53.29 209.987 53.4835 210.11L53.6915 210.236C56.1181 211.66 58.7978 212.606 61.5119 213.621C64.0396 214.566 66.5911 215.569 68.8859 217.075L69.341 217.382C70.0328 217.864 70.8103 218.482 71.215 219.375C71.5947 220.212 71.5717 221.403 70.8224 222.123L70.6622 222.261C70.4918 222.393 70.2959 222.507 70.129 222.603C69.9504 222.706 69.8019 222.79 69.6759 222.878C69.5484 222.968 69.4892 223.032 69.465 223.073C69.4591 223.083 69.4555 223.09 69.4542 223.098L69.4581 223.134V223.135C69.4613 223.147 69.4715 223.197 69.6271 223.242C69.7474 223.276 69.9025 223.288 70.0646 223.281L70.2287 223.267Z" stroke="black"/>
</g>
</g>
<path d="M18.6373 209.471C21.1031 209.715 22.7106 209.235 23.6852 208.725C24.1749 208.469 24.5119 208.201 24.7223 208.003C24.8275 207.905 24.9017 207.823 24.9469 207.77C24.9692 207.744 24.984 207.724 24.9928 207.712C24.9954 207.709 24.9982 207.707 24.9996 207.705V207.704L25.0006 207.703V207.702L25.0016 207.701C25.0682 207.601 25.132 207.386 25.1891 207.053C25.2241 206.849 25.2599 206.568 25.3004 206.336L25.3434 206.126V206.125L26.483 201.36L28.109 194.544L29.0514 190.581H29.0523C29.1626 190.117 29.2735 189.548 29.4469 189.024C29.6017 188.556 29.819 188.079 30.1676 187.667L30.3248 187.494C30.5512 187.264 30.7349 187.1 30.9078 186.9C31.0295 186.759 31.1188 186.628 31.1764 186.498L31.2232 186.367C31.2895 186.128 31.2628 185.865 31.234 185.464C31.2116 185.154 31.1879 184.745 31.3326 184.343L31.4049 184.172C31.5174 183.944 31.6739 183.766 31.8072 183.627C31.9591 183.468 32.0535 183.384 32.1568 183.262V183.261C32.5113 182.842 32.6461 182.301 32.6598 181.641C32.6667 181.303 32.643 180.959 32.608 180.607L32.4908 179.519C32.3215 177.781 32.5156 176.01 33.0562 174.35L33.1685 174.019C33.3665 173.464 33.6021 172.926 33.8268 172.408C33.9972 172.015 34.1624 171.632 34.3082 171.247L34.4469 170.861C34.7635 169.931 34.9501 168.959 35.106 167.959L35.2555 166.949C35.3753 166.113 35.4954 165.276 35.6158 164.44V164.439C36.5632 157.845 37.6614 151.299 38.8082 144.753L39.9674 138.205C40.6998 134.099 41.4278 129.993 42.1519 125.886L44.3141 113.563C45.1714 108.655 46.034 103.751 46.8658 98.8414C46.671 98.835 46.4293 98.8261 46.1461 98.817C45.3237 98.7903 44.1485 98.7523 42.7389 98.7066C39.9192 98.6151 36.1598 98.4927 32.4 98.3707C25.8188 98.1571 19.2216 97.9444 17.6783 97.8941C17.6212 98.0928 17.5534 98.381 17.4781 98.7408C17.3211 99.4912 17.1402 100.507 16.9654 101.557C16.7908 102.606 16.6228 103.682 16.4908 104.549L16.232 106.287V106.288C15.8909 108.622 15.65 110.969 15.4742 113.326L15.4019 114.336C15.2209 117.047 15.1578 119.783 15.0816 122.541L14.9967 125.304C14.8648 128.99 14.6332 132.687 13.9869 136.311L13.8512 137.035V137.036L13.7496 137.541V137.542L13.6041 138.203C13.4538 138.862 13.2899 139.517 13.1314 140.164C12.9723 140.813 12.8182 141.456 12.6852 142.1L12.5602 142.746C12.0253 145.691 12.0373 148.713 12.1832 151.753L12.2525 153.056C12.3178 154.182 12.397 155.376 12.2643 156.562L12.1939 157.07C12.0637 157.849 11.8311 158.597 11.6021 159.311C11.4279 159.855 11.2568 160.377 11.1197 160.9L10.9957 161.424C10.6903 162.878 10.7347 164.356 10.8307 165.879L10.9322 167.419V167.42C10.9476 167.669 10.9701 167.927 10.9928 168.199C11.0153 168.468 11.0385 168.749 11.0533 169.031C11.0792 169.522 11.0824 170.036 11.0143 170.535L10.9801 170.748C10.8691 171.359 10.6172 171.818 10.3502 172.224C10.1413 172.542 9.94865 172.796 9.76816 173.088L9.59238 173.397C9.25022 174.048 9.09321 174.797 9.1412 175.531L9.17441 175.844C9.21572 176.126 9.28693 176.416 9.3707 176.725C9.45199 177.025 9.54881 177.357 9.62363 177.679C9.76474 178.288 9.85621 178.968 9.64609 179.654L9.60019 179.792C9.47773 180.125 9.29101 180.417 9.13535 180.659C9.01126 180.852 8.90523 181.015 8.82285 181.177L8.74863 181.339C8.51891 181.909 8.60302 182.606 8.90292 183.241L9.04355 183.508C9.31537 183.972 9.69656 184.28 10.1383 184.754C10.5254 185.17 10.917 185.687 10.9684 186.421L10.9742 186.571C10.9827 187.874 10.9768 189.204 10.983 190.5C10.9896 191.744 10.9984 192.988 11.0103 194.232L11.0543 197.963C11.0934 200.902 11.1415 203.84 11.2076 206.777C11.2664 206.831 11.3471 206.903 11.4508 206.987C11.7176 207.203 12.1382 207.504 12.735 207.826C13.8526 208.428 15.5966 209.103 18.1217 209.414L18.6373 209.471Z" fill="white" stroke="black"/>
<path d="M15.1558 239.297C17.6472 239.93 20.5213 239.214 21.9351 237.509L22.0669 237.341C23.8241 234.984 24.3981 232.733 24.7027 229.435L7.74565 226.173C7.25597 228.957 7.55649 231.23 8.41948 233.557L8.60991 234.05C9.73816 236.855 12.5436 238.635 15.1558 239.297Z" stroke="black"/>
<path d="M15.7106 237.849C18.011 238.338 20.2905 237.955 21.7487 236.241L21.8874 236.071C24.2539 233.035 24.9491 229.813 24.9323 225.477L24.9196 224.595C24.8595 222.096 24.6928 220.048 24.6032 218.098C24.5254 216.403 24.5082 214.809 24.6833 213.144L24.7702 212.426C25.3043 208.549 25.4606 206.551 26.3239 203.489C27.071 200.839 28.39 196.311 29.2995 192.931L29.6608 191.561C29.7403 191.253 29.7981 190.982 29.8415 190.744C29.7473 190.832 29.6173 190.944 29.444 191.07C29.0566 191.35 28.4602 191.698 27.5954 192.008C25.9737 192.59 23.42 193.033 19.5388 192.661L18.7448 192.575C15.1984 192.152 13.0147 190.853 11.7126 189.625C11.0645 189.014 10.6411 188.427 10.3776 187.986C10.2618 187.792 10.1775 187.626 10.1179 187.5C10.116 187.541 10.1119 187.585 10.111 187.631C10.1086 187.759 10.1093 187.898 10.112 188.051L10.1237 188.557L10.4059 202.678C10.5005 207.511 10.3565 209.095 9.77802 212.645L9.50262 214.302C9.16419 216.323 8.88974 217.749 8.61493 219.193C8.409 220.275 8.20276 221.369 7.96844 222.738L7.72333 224.208C7.01323 228.592 8.08344 231.48 9.63934 233.859L9.95575 234.328C11.0721 235.928 13.3299 237.344 15.7106 237.849Z" fill="black" stroke="black"/>
<mask id="mask1_318_1541" style="mask-type:luminance" maskUnits="userSpaceOnUse" x="10" y="188" width="21" height="49">
<path d="M29.947 236.127V189.215H10.9099V236.127H29.947Z" fill="white" stroke="white"/>
</mask>
<g mask="url(#mask1_318_1541)">
<g opacity="0.100006">
<path d="M16.8976 235.923C18.6549 236.285 20.5292 236.161 22.2424 235.586C24.3232 232.684 24.951 229.571 24.9328 225.446L24.9201 224.595C24.8599 222.096 24.6932 220.048 24.6037 218.098C24.5258 216.403 24.5087 214.808 24.6838 213.144L24.7707 212.426C25.3048 208.55 25.461 206.551 26.3244 203.488C27.0715 200.838 28.3905 196.311 29.3 192.931L29.6613 191.561C29.7408 191.253 29.7986 190.982 29.842 190.743C29.7478 190.831 29.6178 190.944 29.4445 191.07C29.0571 191.35 28.4606 191.698 27.5959 192.008C25.9742 192.589 23.4206 193.032 19.5392 192.66L18.7453 192.575C17.2153 192.393 15.9511 192.042 14.8898 191.609C14.8139 191.615 14.7544 191.624 14.7101 191.64C14.6828 191.65 14.6651 191.66 14.6535 191.668L14.633 191.69C14.6266 191.7 14.6142 191.727 14.6134 191.785C14.6131 191.817 14.6164 191.854 14.6232 191.894L14.6545 192.024L14.6554 192.025C14.8958 192.808 15.5606 193.287 16.506 193.776C16.9367 193.998 17.5041 194.26 17.9728 194.513C18.4061 194.746 18.8423 195.014 19.2277 195.351L19.3898 195.499C20.2921 196.369 20.6918 197.506 20.8439 198.669C20.9575 199.538 20.9362 200.446 20.8713 201.31L20.7951 202.155L19.7746 212.227C19.6345 213.609 19.4732 215.158 18.7609 216.498L18.6115 216.764C18.2203 217.414 17.6826 218.001 17.2551 218.524C16.8646 219.001 16.5423 219.45 16.3527 219.944L16.2795 220.158C16.068 220.872 16.1519 221.62 16.3791 222.435C16.4924 222.841 16.6379 223.252 16.7922 223.676C16.8683 223.885 16.9468 224.1 17.0236 224.316L17.2433 224.965C17.4288 225.554 17.6869 226.386 17.8039 227.227C17.9114 227.999 17.9148 228.871 17.55 229.584L17.4718 229.724V229.725C16.9533 230.587 15.9655 230.959 15.0422 231.101C14.2183 231.228 13.3472 231.188 12.6525 231.081L12.3664 231.031C12.0302 230.966 11.7313 230.906 11.467 230.909C11.2128 230.913 11.0868 230.975 11.0119 231.065H11.0129C10.9653 231.122 10.9278 231.214 10.9152 231.334L10.9113 231.464V231.465C10.9279 231.907 11.1917 232.332 11.5783 232.782L11.7511 232.978C13.1818 234.541 14.8143 235.492 16.8986 235.922L16.8976 235.923Z" stroke="black"/>
</g>
</g>
<path d="M91.301 96.9518C89.8673 94.9573 86.4078 89.6108 83.1907 84.5787C81.4074 81.7895 79.6908 79.0848 78.4202 77.0778C77.7849 76.0743 77.2608 75.245 76.8958 74.6666C76.7134 74.3777 76.5711 74.1509 76.4739 73.9967C76.4254 73.9198 76.3876 73.8607 76.3625 73.8209C76.3514 73.8032 76.3425 73.7889 76.3362 73.7789L75.1106 72.0895C75.1008 72.0899 75.0903 72.0878 75.0793 72.0885C74.9201 72.0991 74.6321 72.1506 74.2024 72.3473C73.391 72.7187 72.0931 73.5986 70.2444 75.6432L69.8674 76.068C67.8571 78.3716 66.9012 80.839 66.4475 82.733C66.2208 83.6797 66.1203 84.4813 66.0764 85.0426C66.0586 85.2709 66.0499 85.4592 66.0461 85.6012C66.1835 85.6625 66.3578 85.7403 66.5461 85.8307C66.9766 86.0372 67.5273 86.3212 67.8821 86.5895L67.9231 86.6207L67.9573 86.6588L80.9524 101.501L91.301 96.9518Z" fill="white" stroke="black"/>
<path d="M96.6793 110.822C96.3793 109.432 95.8755 108.095 95.3219 106.747L94.6842 105.217C94.5945 105.001 94.4885 104.771 94.3737 104.523C94.2603 104.277 94.1394 104.015 94.028 103.748C93.8353 103.287 93.6566 102.78 93.5905 102.271L93.569 102.052C93.54 101.59 93.7361 101.231 94.0436 100.999C94.3241 100.788 94.6712 100.701 94.9645 100.67V100.669C95.1482 100.65 95.365 100.681 95.5055 100.701C94.5915 99.1708 93.1701 98.011 91.6383 96.9182L89.9938 95.7717C88.3747 94.644 86.7372 93.5913 84.9449 92.968L84.5836 92.8498C83.4796 92.5066 82.3282 92.334 81.1451 92.2043L79.9518 92.0842C79.3668 92.0278 78.8766 91.9948 78.4606 92.1232L78.2867 92.1887C77.7337 92.4366 77.3462 93.0775 77.2662 93.7892C77.1963 94.4131 77.3293 95.0612 77.5455 95.7297L77.6432 96.0178C78.0584 97.1969 78.6143 98.3227 79.2135 99.4494L79.8239 100.578C80.5652 101.938 81.2962 103.279 82.1315 104.546L82.4957 105.084C82.9829 105.783 83.4895 106.417 84.109 106.864L84.3815 107.044C84.745 107.262 85.1474 107.418 85.5846 107.563L86.0338 107.706C88.4731 108.472 90.9202 109.213 93.3746 109.929L95.8317 110.637C96.1521 110.728 96.4293 110.799 96.6793 110.822Z" fill="black" stroke="black"/>
<mask id="mask2_318_1541" style="mask-type:luminance" maskUnits="userSpaceOnUse" x="76" y="91" width="22" height="21">
<path d="M96.7795 110.831V92.0346H77.2473V110.831H96.7795Z" fill="white" stroke="white"/>
</mask>
<g mask="url(#mask2_318_1541)">
<g opacity="0.149994">
<path d="M96.6789 110.822C96.3789 109.432 95.8751 108.095 95.3215 106.747L94.6838 105.217C94.5941 105.001 94.4881 104.771 94.3732 104.523C94.2599 104.277 94.1389 104.015 94.0275 103.748C93.8349 103.287 93.6561 102.78 93.59 102.271L93.5685 102.052C93.5396 101.59 93.7357 101.231 94.0431 100.999C94.3237 100.788 94.6707 100.701 94.964 100.67V100.669C95.1478 100.65 95.3645 100.681 95.5051 100.701C94.5911 99.1708 93.1696 98.011 91.6379 96.9181L89.9933 95.7716C88.3742 94.644 86.7367 93.5912 84.9445 92.9679L84.5832 92.8497C83.4791 92.5065 82.3277 92.3339 81.1447 92.2042L79.9513 92.0841C79.3664 92.0277 78.8762 91.9948 78.4601 92.1232L78.2863 92.1886C77.7332 92.4365 77.3457 93.0775 77.2658 93.7892C77.1958 94.413 77.3289 95.0612 77.5451 95.7296L77.6427 96.0177C78.058 97.1968 78.6138 98.3226 79.2131 99.4493L79.8234 100.578C80.5648 101.938 81.2958 103.279 82.131 104.546L82.4953 105.084C82.9825 105.783 83.489 106.417 84.1086 106.864L84.381 107.044C84.7446 107.262 85.147 107.417 85.5842 107.563L86.0334 107.706C88.4727 108.472 90.9198 109.213 93.3742 109.929L95.8312 110.637C96.1516 110.728 96.4289 110.799 96.6789 110.822Z" fill="black" stroke="black"/>
</g>
</g>
<path d="M98.0025 104.823C98.4181 104.991 98.8501 105.034 99.3228 104.867L99.5279 104.784H99.5288C99.5749 104.762 99.606 104.744 99.6275 104.729C99.6303 104.727 99.6331 104.725 99.6353 104.723L99.6343 104.702C99.621 104.593 99.5538 104.426 99.4361 104.21C99.3808 104.109 99.3218 104.011 99.2642 103.913L99.107 103.633C98.9717 103.362 98.8342 103.092 98.6949 102.823L98.271 102.018C98.0402 101.586 97.8045 101.156 97.5659 100.727L96.8443 99.4388H96.8433C96.7286 99.2347 96.547 99.0302 96.314 98.7991C96.1533 98.6398 95.9529 98.4544 95.771 98.2659L95.5972 98.0775C95.2502 97.6797 94.7903 97.2409 94.3579 96.9202L94.1753 96.7913C93.9415 96.6339 93.6421 96.4666 93.3316 96.304L92.4204 95.8441C91.5422 95.4055 90.7295 95.0157 89.9751 94.2835L89.8257 94.1321C89.1973 93.4764 88.7997 92.9317 88.4292 92.3734L88.0601 91.806C87.4253 90.8237 86.0964 88.67 84.9292 86.7679C84.3449 85.8156 83.7997 84.924 83.4009 84.2708C83.2015 83.9442 83.0384 83.677 82.9253 83.4915C82.908 83.4631 82.8914 83.4369 82.8765 83.4124C77.7679 82.8413 72.8863 85.684 70.564 90.0931L79.271 99.7405L82.6783 98.846L82.7906 98.8167L82.9038 98.8392V98.8401H82.9068C82.9087 98.8405 82.9118 98.8414 82.9156 98.8421L83.0816 98.8753C83.1954 98.8983 83.3597 98.9313 83.562 98.972C83.9672 99.0535 84.5248 99.1655 85.1343 99.2874L88.6099 99.972C89.4034 100.123 90.1465 100.117 91.0171 100.199C91.7476 100.267 92.51 100.397 93.2505 100.772L93.5659 100.949H93.5669C94.1969 101.334 94.7214 101.824 95.1968 102.319C95.5731 102.711 95.8854 103.067 96.2193 103.421L96.564 103.777C97.0275 104.238 97.5062 104.621 98.0025 104.823Z" fill="black" stroke="black"/>
<path d="M66.5904 86.6418C66.5391 86.5358 66.491 86.418 66.4508 86.2863C66.2009 85.4684 66.2112 84.1523 66.9195 81.9992L67.0709 81.5568C68.7525 76.8121 72.8897 74.2796 76.1529 73.1652C75.8764 72.1913 75.3431 71.2621 74.8336 70.5344C74.5449 70.122 74.2704 69.7831 74.0689 69.548C73.9684 69.4307 73.8859 69.3395 73.8297 69.2785C73.8018 69.2482 73.7803 69.225 73.7662 69.2101C73.7593 69.2029 73.7538 69.1979 73.7506 69.1945C73.7491 69.193 73.7483 69.1913 73.7477 69.1906H73.7467L73.7027 69.1447L73.6715 69.09L73.9019 68.9572C73.6711 69.0903 73.6705 69.0901 73.6705 69.09L73.6695 69.0881C73.6687 69.0866 73.6682 69.084 73.6666 69.0812C73.6633 69.0756 73.6584 69.067 73.6519 69.0558C73.639 69.0335 73.6194 69.0006 73.5943 68.9572C73.5439 68.8698 73.469 68.7407 73.3736 68.5754C73.1828 68.2447 72.908 67.7673 72.5699 67.1818C71.8937 66.0108 70.966 64.4064 69.9615 62.6721C68.4543 60.0696 66.775 57.1764 65.5094 55.0178L64.4029 53.1418C63.1675 51.0625 62.1771 49.5426 60.9332 48.4045C59.8037 47.3711 58.4412 46.6341 56.4439 46.1203L53.7701 67.5832C53.7772 67.5961 53.7855 67.6095 53.7935 67.6242C53.8589 67.7436 53.9546 67.9197 54.0777 68.1437C54.324 68.5918 54.6782 69.2341 55.11 70.0109C55.9736 71.5649 57.1467 73.6566 58.3853 75.8078C59.6245 77.9599 60.9276 80.1679 62.0504 81.9562C62.612 82.8507 63.1262 83.6361 63.5631 84.2551C63.8967 84.7277 64.1721 85.0843 64.3814 85.3176L64.568 85.5099C65.4604 86.3257 66.1453 86.5791 66.5904 86.6418Z" fill="white" stroke="black"/>
<path d="M61.9133 101.995C61.9912 97.3694 62.2744 78.7538 61.967 68.3174L61.8947 66.2695C61.5817 58.9507 60.4127 54.3346 59.135 51.3115C57.8996 48.3886 56.5568 46.9347 55.7092 45.9141C55.7003 45.911 55.6903 45.9071 55.6789 45.9033C55.6049 45.8789 55.5033 45.8488 55.3752 45.8145C55.1199 45.7459 54.7783 45.6641 54.3772 45.5732C53.5756 45.3916 52.5537 45.1787 51.5451 44.9756C50.5373 44.7727 49.5456 44.5797 48.8059 44.4375C48.4362 44.3664 48.1295 44.3082 47.9153 44.2676C47.8083 44.2473 47.7244 44.2315 47.6672 44.2207H47.6653L36.5686 45.9961L36.1496 46.0625L36.0158 45.6602L35.0803 42.8613L28.0949 44.2031H28.0959C24.6319 44.9097 23.0473 45.3176 22.0735 45.623C21.5886 45.7751 21.2518 45.9026 20.8967 46.0352C20.5784 46.1539 20.2484 46.274 19.8 46.4131C19.7479 46.492 19.6759 46.6045 19.5862 46.7471C19.3882 47.0617 19.1067 47.5267 18.7766 48.123C18.1159 49.3168 17.2615 51.0343 16.4904 53.123C14.9945 57.1757 13.8235 62.5934 14.9504 68.292L15.0666 68.8438C15.3836 70.2632 15.9216 74.3693 16.4211 78.8232C16.8594 82.7313 17.2725 86.9434 17.4865 89.916L17.5656 91.1094C17.792 94.928 17.8938 97.0388 17.6106 101.14L61.9133 101.995Z" fill="white" stroke="black"/>
<path d="M33.731 67.1715C33.6786 66.4805 33.6102 65.752 33.5161 64.9879L33.3843 64.0026C32.5997 58.5546 31.1791 54.1242 29.5972 50.8678C28.0676 47.7192 26.418 45.7361 25.1001 44.9391L22.4097 45.6432C23.7819 46.7594 25.2494 48.7217 26.5425 51.3951C28.0502 54.5123 29.351 58.6516 30.0015 63.694L30.1226 64.7145C30.2147 65.5596 30.2857 66.3545 30.3462 67.1061L33.731 67.1715Z" stroke="black"/>
<path d="M60.7571 62.5282C60.0611 58.845 58.6054 55.0372 57.052 51.8798C55.5423 48.8109 53.9658 46.4128 52.9465 45.3436C52.0881 45.1621 51.0866 44.9856 50.2776 44.8524C50.602 45.2433 50.9489 45.7023 51.304 46.2137C52.1324 47.4072 53.049 48.9323 53.9212 50.6405C55.552 53.8348 57.0514 57.7142 57.5139 61.2977L57.5921 62.0106C57.6221 62.3444 57.6484 62.6712 57.6751 62.993L60.846 63.0555C60.8168 62.882 60.7907 62.7068 60.7571 62.5282Z" stroke="black"/>
<path d="M16.8902 102.169C32.5212 107.866 48.1642 107.933 62.9488 102.611C62.9278 96.9676 62.9775 92.1637 62.9419 86.7429L62.9205 84.3279C62.8799 80.7756 62.7561 78.0061 62.6187 75.4324L62.48 72.9021C62.2646 69.0169 61.2345 64.8945 60.8316 62.9021C56.739 62.5377 52.042 62.6462 49.4468 62.7527L47.6265 62.8406C41.752 63.1659 35.9027 63.9452 30.148 65.1687C30.3361 68.8209 29.8751 74.3152 29.0923 79.3904C28.6843 82.0356 28.187 84.5803 27.646 86.7058C27.1429 88.6826 26.5904 90.3426 26.0142 91.3787L25.899 91.5779C24.5341 93.8193 21.5131 96.5727 17.7105 97.2566C17.4522 98.593 17.0554 100.765 16.8902 102.169Z" fill="white" stroke="black"/>
<path d="M24.0605 10.4429C19.5164 15.9309 22.8956 25.4736 22.8956 25.4736L37.2054 34.4172L51.8729 20.823L50.8913 12.9471C45.5251 -2.07814 27.5852 6.1859 24.0605 10.4429Z" fill="white" stroke="black"/>
<path d="M28.7247 32.0804C28.7238 32.0822 28.7212 32.0856 28.7179 32.0912C28.7109 32.1027 28.6988 32.1223 28.6818 32.1478C28.6475 32.1993 28.5928 32.2758 28.5177 32.3656C28.3665 32.5462 28.1359 32.7759 27.8214 32.9711C27.2135 33.3483 26.2345 33.6354 24.7706 33.0687L24.5294 32.9662C22.0936 31.8425 21.2384 28.5703 22.4845 25.8959H22.4855C23.078 24.6346 24.0293 24.203 24.9269 24.1556C25.3875 24.1314 25.8389 24.2091 26.2198 24.3412C26.6081 24.4758 26.8874 24.6542 27.0284 24.7992H27.0294L27.1525 24.933C27.4391 25.2575 27.7133 25.6696 27.9191 26.0541L28.0675 26.3568C28.12 26.4667 28.1827 26.5943 28.2599 26.7181C28.4208 26.9763 28.6576 27.2384 29.0499 27.3783L29.1827 27.4183C29.8451 27.583 30.5028 27.2281 30.8566 26.7689H30.8575C31.2359 26.2777 31.3454 25.6715 31.3761 25.1664L31.4093 24.6449C31.4228 24.5331 31.4426 24.4452 31.4708 24.3734L31.5021 24.306L31.5695 24.2045C31.6475 24.1064 31.7602 24.0098 31.9347 23.8441H31.9357C33.1139 22.7284 33.7259 21.0953 33.673 19.5033L33.6564 19.2299C33.6332 18.9594 33.5916 18.6957 33.547 18.4447C33.4852 18.0966 33.4222 17.7962 33.3751 17.4808L33.3322 17.2465C33.2781 16.9876 33.1868 16.6523 33.0665 16.3304C33.1783 16.341 33.2921 16.3518 33.4073 16.3588C34.0637 16.3982 34.8318 16.3865 35.6144 16.3344C37.1651 16.231 38.8468 15.9617 39.8654 15.5648L40.715 15.2211C41.5471 14.8731 42.3263 14.5163 43.0577 14.184C44.0388 13.7382 44.9282 13.3397 45.7726 13.0463C47.4497 12.4634 48.8744 12.3227 50.3448 13.0492L50.545 13.1595C51.5143 13.7603 52.0438 15.0338 52.34 16.3715L52.6329 17.7543C54.0172 24.6143 54.2199 30.6619 53.1241 34.6566L53.047 34.9183C52.2036 37.6044 49.8917 39.7906 47.464 40.1742H47.462L46.8898 40.2592C46.3462 40.333 45.8937 40.3751 45.5558 40.3988C45.331 40.4145 45.1568 40.4224 45.0402 40.4261C44.9821 40.428 44.938 40.4286 44.9093 40.4291C44.895 40.4293 44.8837 40.43 44.8771 40.4301H44.8693L44.3663 40.4291L44.3683 40.932L44.381 43.7347L44.382 43.9535L44.5431 44.101C45.3154 44.8082 45.7073 45.4272 45.8497 45.9359C45.9862 46.4237 45.9036 46.8405 45.6534 47.2103C45.3917 47.5972 44.9265 47.9586 44.2638 48.2543C43.6054 48.548 42.782 48.7629 41.8488 48.8754C38.1203 49.3244 32.9617 48.112 30.1183 44.4271L29.6613 32.3031L29.5939 30.4945L28.7247 32.0804ZM28.7247 32.0804L28.7238 32.0814V32.0804H28.7247Z" fill="white" stroke="black"/>
<path d="M27.9956 44.0708H29.7844M44.8096 44.0708H48.0293" stroke="black"/>
<path d="M32.6463 16.1667L23.7027 11.5161" stroke="black"/>
<path d="M44.3708 41.4232C41.1826 41.37 38.2978 40.9785 36.2156 40.2035L35.7898 40.0345C34.8445 39.6359 33.971 38.899 33.2273 37.9877C33.7905 38.9533 34.5494 39.8121 35.5486 40.4066L35.8191 40.558C38.6925 42.065 42.0243 42.2523 44.3738 42.3119L44.3708 41.4232Z" fill="black" stroke="black"/>
<path d="M38.1264 20.2687C37.8411 19.9841 37.4283 19.8726 37.0405 19.9904L36.933 20.0294C36.5151 20.2056 36.2433 20.6207 36.2162 21.0734L38.1264 20.2687Z" stroke="black"/>
<path d="M50.6307 18.8911C50.5889 18.4849 50.3503 18.11 49.9832 17.9185L49.8739 17.8696C49.4467 17.7005 48.9882 17.8112 48.6883 18.1206L50.6307 18.8911Z" stroke="black"/>
<path d="M38.4239 24.3031C38.8584 24.2873 39.2045 23.9451 39.2325 23.5199L39.2335 23.434C39.2167 22.9701 38.8269 22.6076 38.3634 22.6244C37.929 22.6398 37.5835 22.9832 37.5558 23.4076L37.5548 23.4935C37.5702 23.928 37.9127 24.274 38.338 24.3021L38.4239 24.3031Z" stroke="black"/>
<path d="M48.4768 23.6335C48.9109 23.6175 49.2563 23.2749 49.2844 22.8503L49.2854 22.7643C49.2686 22.3001 48.8793 21.9393 48.4153 21.9557C48.0856 21.9679 47.8954 22.0664 47.7883 22.1813C47.6946 22.2821 47.6168 22.446 47.6067 22.7067V22.8239C47.6221 23.2582 47.9654 23.6046 48.3909 23.6325L48.4768 23.6335Z" stroke="black"/>
<path d="M5.18324 216.818C5.74711 216.818 6.31171 216.693 6.84242 216.445L6.70277 216.221C5.64828 216.702 4.4427 216.662 3.41664 216.097L3.1852 215.96C2.04601 215.226 1.41489 213.966 1.50063 212.631L1.52797 212.362L2.80824 202.928C3.6764 196.526 6.64414 190.517 11.1862 185.934L11.6305 185.496V185.495L47.7457 150.58C54.7627 143.796 59.4428 135.189 61.3209 125.636L61.4938 124.709V124.708L63.2829 114.574L63.025 114.529L61.237 124.663C59.5488 134.221 55.0582 142.87 48.2311 149.732L47.5631 150.39L11.4479 185.307C6.76447 189.836 3.65087 195.839 2.63832 202.268L2.5475 202.892L1.26723 212.327C1.07231 213.771 1.65676 215.155 2.80531 216.015L3.04262 216.18C3.70375 216.606 4.44479 216.818 5.18324 216.818Z" stroke="black"/>
<path d="M62.1088 120.827C62.8688 120.881 63.6139 120.764 64.1713 120.494V120.495C64.6516 120.261 64.8509 119.988 64.9086 119.768L64.9252 119.677C64.9252 119.672 64.9242 119.665 64.9242 119.658C64.9244 119.619 64.9243 119.563 64.9242 119.492C64.924 119.348 64.9234 119.142 64.9223 118.882C64.9201 118.361 64.9164 117.624 64.9115 116.742C64.9018 114.978 64.8868 112.635 64.8725 110.279L64.8178 100.525V100.488L64.8197 100.466C64.8204 100.458 64.8211 100.451 64.8217 100.446C64.8221 100.442 64.8223 100.437 64.8227 100.434H64.8236C64.8299 100.338 64.7855 100.159 64.5346 99.9536L64.4145 99.8647C64.0584 99.6235 63.549 99.4651 63.0043 99.4262C62.5279 99.3923 62.0656 99.4529 61.6986 99.5942L61.5473 99.6596C61.1711 99.8426 61.0734 100.043 61.06 100.159C61.0491 100.298 60.6609 105.014 60.2729 109.721C60.0774 112.092 59.8819 114.462 59.7348 116.248C59.6612 117.142 59.5995 117.889 59.5561 118.417C59.5343 118.682 59.5172 118.892 59.5053 119.038C59.4993 119.11 59.4948 119.167 59.4916 119.206C59.49 119.226 59.4886 119.242 59.4877 119.253L59.4867 119.269V119.365C59.5041 119.561 59.6214 119.812 59.9389 120.073L60.1147 120.204C60.6281 120.551 61.349 120.772 62.1088 120.827Z" fill="black" stroke="black"/>
<mask id="mask3_318_1541" style="mask-type:luminance" maskUnits="userSpaceOnUse" x="58" y="98" width="8" height="24">
<path d="M64.9238 120.839V99.4164H59.4844V120.839H64.9238Z" fill="white" stroke="white"/>
</mask>
<g mask="url(#mask3_318_1541)">
<g opacity="0.149994">
<path d="M62.1088 120.827C62.8689 120.881 63.6139 120.764 64.1713 120.494V120.495C64.6517 120.261 64.8509 119.988 64.9086 119.768L64.9252 119.677C64.9253 119.672 64.9242 119.665 64.9243 119.658C64.9244 119.619 64.9244 119.563 64.9243 119.492C64.9241 119.348 64.9234 119.142 64.9223 118.882C64.9201 118.361 64.9165 117.624 64.9116 116.742C64.9018 114.978 64.8868 112.635 64.8725 110.279L64.8178 100.525V100.488L64.8198 100.466C64.8205 100.458 64.8212 100.451 64.8217 100.446C64.8222 100.442 64.8224 100.437 64.8227 100.434H64.8237C64.83 100.338 64.7856 100.159 64.5346 99.9536L64.4145 99.8647C64.0584 99.6235 63.549 99.4651 63.0043 99.4262C62.5279 99.3923 62.0657 99.4529 61.6987 99.5942L61.5473 99.6596C61.1711 99.8426 61.0735 100.043 61.06 100.159C61.0492 100.298 60.661 105.014 60.2729 109.721C60.0775 112.092 59.882 114.462 59.7348 116.248C59.6613 117.142 59.5996 117.889 59.5561 118.417C59.5344 118.682 59.5173 118.892 59.5053 119.038C59.4994 119.11 59.4949 119.167 59.4917 119.206C59.49 119.226 59.4886 119.242 59.4877 119.253L59.4868 119.269V119.365C59.5041 119.561 59.6215 119.812 59.9389 120.073L60.1147 120.204C60.6281 120.551 61.349 120.772 62.1088 120.827Z" fill="black" stroke="black"/>
</g>
</g>
<mask id="mask4_318_1541" style="mask-type:luminance" maskUnits="userSpaceOnUse" x="58" y="98" width="8" height="24">
<path d="M64.8389 120.838V99.4166H59.4844V120.838H64.8389Z" fill="white" stroke="white"/>
</mask>
<g mask="url(#mask4_318_1541)">
<g opacity="0.149994">
<path d="M61.5966 120.762C60.7156 119.866 60.284 118.583 60.2734 117.303L60.2822 116.925C60.3648 115.471 60.5772 112.233 60.7685 109.361C60.8642 107.924 60.9548 106.578 61.0214 105.591C61.0547 105.098 61.0815 104.694 61.1005 104.414C61.11 104.274 61.1179 104.165 61.123 104.09C61.1255 104.053 61.1266 104.024 61.1279 104.005C61.1285 103.996 61.1295 103.989 61.1298 103.984V103.976L61.1845 103.176L61.8779 103.578L61.8857 103.581C61.8932 103.585 61.9059 103.592 61.9238 103.601C61.9602 103.62 62.0177 103.648 62.0947 103.682C62.2487 103.75 62.481 103.841 62.7802 103.928C63.2892 104.076 63.991 104.208 64.8359 104.19L64.8173 100.525V100.489L64.8193 100.468C64.82 100.46 64.8206 100.452 64.8212 100.446C64.8217 100.442 64.8218 100.437 64.8222 100.434H64.8232C64.8295 100.338 64.7851 100.159 64.5341 99.9536L64.414 99.8647C64.0579 99.6236 63.5485 99.4651 63.0038 99.4263C62.5274 99.3923 62.0652 99.453 61.6982 99.5942L61.5468 99.6597C61.1728 99.841 61.0747 100.041 61.0605 100.157C61.0599 100.164 61.0593 100.17 61.0585 100.176C61.0308 100.52 60.6513 105.124 60.2724 109.721C60.077 112.092 59.8815 114.462 59.7343 116.249C59.6607 117.142 59.599 117.889 59.5556 118.417C59.5339 118.682 59.5167 118.892 59.5048 119.038C59.4988 119.11 59.4944 119.168 59.4911 119.208C59.4895 119.227 59.4881 119.243 59.4872 119.253L59.4863 119.269V119.365C59.5066 119.594 59.6629 119.898 60.1142 120.204L60.1132 120.205C60.5141 120.476 61.0368 120.665 61.5966 120.762Z" fill="black" stroke="black"/>
</g>
</g>
<path d="M62.8794 101.177C63.356 101.211 63.8185 101.151 64.186 101.01L64.3374 100.944H64.3384C64.6904 100.773 64.796 100.586 64.8188 100.472L64.8198 100.467C64.8205 100.459 64.8212 100.451 64.8218 100.445C64.8222 100.441 64.8224 100.437 64.8228 100.434H64.8237C64.83 100.337 64.7851 100.16 64.5347 99.9541L64.4136 99.8643C64.0576 99.6234 63.5487 99.4646 63.0044 99.4258C62.5277 99.3918 62.0649 99.4523 61.6978 99.5938L61.5474 99.6592C61.2146 99.821 61.1001 99.9968 61.0688 100.115L61.0601 100.162V100.207C61.0684 100.309 61.131 100.468 61.3481 100.646L61.4692 100.737C61.8257 100.978 62.3348 101.137 62.8794 101.177Z" stroke="black"/>
<path d="M46.2637 108.033C47.1365 108.537 47.9003 108.593 48.5107 108.347V108.346C48.7606 108.245 49.5773 107.879 50.1064 107.633L50.5078 107.443C50.9931 107.198 51.4408 106.723 51.7783 105.98L51.916 105.645L57.7783 89.8313L56.457 89.0686L56.083 90.0774L55.877 90.6321L55.3643 90.3362L54.6152 89.9045L49.1602 104.617L49.1084 104.735L49.0869 104.778L48.8906 105.228L48.4365 105.038C48.4012 105.024 48.3557 105.005 48.3047 104.982L48.1396 104.898L45.9043 103.607L45.6543 103.463V82.8313L44.4141 82.1155V84.0149L43.6641 83.5813L42.5723 82.9514V103.641C42.5723 104.133 42.6984 104.672 42.916 105.184L43.0146 105.402L43.0195 105.41L43.0645 105.51L43.1104 105.594L43.1143 105.602C43.4065 106.173 43.7614 106.589 44.1006 106.786L44.1016 106.785L44.2344 106.862L44.2354 106.863L44.498 107.014L46.2637 108.033Z" fill="black" stroke="black"/>
<mask id="mask5_318_1541" style="mask-type:luminance" maskUnits="userSpaceOnUse" x="42" y="81" width="17" height="28">
<path d="M57.8948 108.489V81.7486H42.5725V108.489H57.8948Z" fill="white" stroke="white"/>
</mask>
<g mask="url(#mask5_318_1541)">
<g opacity="0.449997">
<path d="M46.2636 108.034C47.1364 108.537 47.9003 108.593 48.5107 108.347V108.346C48.7606 108.245 49.5773 107.879 50.1064 107.633L50.5078 107.443C50.9931 107.198 51.4408 106.724 51.7783 105.98L51.916 105.645L57.7783 89.8314L56.457 89.0687L56.083 90.0775L55.8769 90.6321L55.3642 90.3362L54.6152 89.9046L49.1601 104.617L49.1084 104.735L49.0869 104.778L48.8906 105.228L48.4365 105.038C48.4012 105.024 48.3557 105.005 48.3047 104.982L48.1396 104.898L45.9043 103.607L45.6543 103.463V82.8314L44.414 82.1155V84.015L43.664 83.5814L42.5722 82.9515V103.641C42.5722 104.133 42.6984 104.672 42.916 105.184L43.0146 105.402L43.0195 105.41L43.0644 105.51L43.1103 105.594L43.1142 105.602C43.4065 106.173 43.7614 106.59 44.1006 106.786L44.1015 106.785L44.2343 106.862L44.2353 106.863L44.498 107.014L46.2636 108.034Z" fill="black" stroke="black"/>
</g>
</g>
<mask id="mask6_318_1541" style="mask-type:luminance" maskUnits="userSpaceOnUse" x="44" y="82" width="3" height="23">
<path d="M45.6537 103.51V83.0422H44.8119V103.51H45.6537Z" fill="white" stroke="white"/>
</mask>
<g mask="url(#mask6_318_1541)">
<g opacity="0.300003">
<path d="M45.6537 102.853V83.3187L44.812 83.7005V103.235L45.6537 102.853Z" fill="black" stroke="black"/>
</g>
</g>
<path d="M46.2637 108.034C47.1362 108.538 47.9008 108.595 48.5107 108.351C49.0892 108.12 49.6234 107.579 50.001 106.668L50.0742 106.481L55.9365 90.6674L54.6143 89.9047L49.1602 104.617V104.618C48.9321 105.232 48.5448 105.713 48.0029 105.93C47.5223 106.122 47.0026 106.073 46.5078 105.843L46.2979 105.734L44.0625 104.443L43.8125 104.298V83.6674L42.5723 82.9506V103.641L42.5801 103.855C42.6155 104.359 42.7718 104.899 43.0146 105.401L43.0205 105.413C43.0396 105.455 43.0474 105.475 43.0586 105.499C43.0648 105.511 43.0721 105.523 43.0801 105.538L43.1104 105.594L43.1143 105.602C43.4069 106.175 43.7634 106.59 44.1025 106.786L44.1016 106.787L44.2344 106.862L44.2354 106.863L44.4971 107.015L44.498 107.014L46.2637 108.033V108.034Z" fill="black" stroke="black"/>
<mask id="mask7_318_1541" style="mask-type:luminance" maskUnits="userSpaceOnUse" x="42" y="82" width="15" height="27">
<path d="M56.053 108.491V82.5843H42.5725V108.491H56.053Z" fill="white" stroke="white"/>
</mask>
<g mask="url(#mask7_318_1541)">
<g opacity="0.149994">
<path d="M46.2636 108.034C47.1361 108.538 47.9007 108.595 48.5107 108.351C49.0891 108.12 49.6234 107.579 50.0009 106.668L50.0742 106.481L55.9365 90.6674L54.6142 89.9047L49.1601 104.617V104.618C48.932 105.232 48.5448 105.713 48.0029 105.93C47.5223 106.122 47.0026 106.073 46.5078 105.843L46.2978 105.734L44.0625 104.443L43.8125 104.298V83.6674L42.5722 82.9506V103.641L42.58 103.855C42.6155 104.359 42.7718 104.899 43.0146 105.401L43.0205 105.413C43.0396 105.455 43.0474 105.475 43.0586 105.499C43.0648 105.511 43.0721 105.523 43.08 105.538L43.1103 105.594L43.1142 105.602C43.4069 106.175 43.7634 106.59 44.1025 106.786L44.1015 106.787L44.2343 106.862L44.2353 106.863L44.497 107.015L44.498 107.014L46.2636 108.033V108.034Z" fill="black" stroke="black"/>
</g>
</g>
<path d="M64.3 103.123C65.2246 103.655 66.5884 103.63 68.2326 102.694V102.693C69.8815 101.751 71.4041 100.109 72.5178 98.1971C73.562 96.4049 74.2227 94.4172 74.3078 92.6132L74.3176 92.2557C74.3257 90.3942 73.6945 89.2015 72.7922 88.6376V88.6366C72.7709 88.6239 72.7537 88.6153 72.7443 88.6083H72.7424L50.8449 76.0048C49.0881 74.9936 46.9507 74.9312 45.1477 75.8182L44.7922 76.0087L43.4533 76.7821C41.8404 77.7131 40.8469 79.4339 40.8469 81.2958V82.2899L40.8605 82.703C40.9885 84.6202 42.0012 86.3711 43.5988 87.4384L43.9494 87.6561L56.9406 95.1376C58.1082 95.8095 58.9423 97.0435 58.9465 98.4413C58.9492 99.3696 59.415 100.229 60.1779 100.738L60.3342 100.835H60.3352L64.299 103.124L64.3 103.123Z" fill="black" stroke="black"/>
<mask id="mask8_318_1541" style="mask-type:luminance" maskUnits="userSpaceOnUse" x="41" y="74" width="34" height="24">
<path d="M74.3157 96.6562V75.1953H41.6155V96.6562H74.3157Z" fill="white" stroke="white"/>
</mask>
<g mask="url(#mask8_318_1541)">
<g opacity="0.0500031">
<path d="M73.3869 96.4442C73.9284 95.1331 74.2579 93.7893 74.3088 92.535L74.3156 92.2537C74.3268 90.3987 73.6991 89.2096 72.798 88.6443C72.7953 88.6428 72.7935 88.6412 72.7922 88.6404C72.777 88.6313 72.7642 88.6212 72.7531 88.6131L50.8478 76.0018C48.9724 74.9233 46.6628 74.9288 44.7922 76.0076H44.7912L43.4552 76.782H43.4543C42.7971 77.1606 42.2471 77.6722 41.8215 78.2684L73.3869 96.4442Z" fill="black" stroke="black"/>
</g>
</g>
<mask id="mask9_318_1541" style="mask-type:luminance" maskUnits="userSpaceOnUse" x="40" y="78" width="34" height="26">
<path d="M73.1246 103.474V78.9384H40.8473V103.474H73.1246Z" fill="white" stroke="white"/>
</mask>
<g mask="url(#mask9_318_1541)">
<g opacity="0.199997">
<path d="M64.2954 103.124C65.1683 103.623 66.4214 103.63 67.9263 102.86L68.231 102.695C70.1233 101.616 71.8439 99.6154 72.9712 97.3586L41.3199 79.134C41.0132 79.8025 40.8472 80.5354 40.8472 81.2951V82.2873C40.8473 84.5023 42.0317 86.5493 43.9488 87.6574L43.9478 87.6584L56.937 95.1389L56.938 95.1379C58.1095 95.8065 58.9427 97.0449 58.9439 98.4387C58.9489 99.3671 59.4172 100.23 60.1802 100.739L60.3365 100.836L60.3374 100.837L64.2954 103.124Z" fill="black" stroke="black"/>
</g>
</g>
<path d="M64.2999 103.123C65.224 103.655 66.5891 103.629 68.2335 102.692V102.693C69.8822 101.751 71.4041 100.108 72.5177 98.1972C73.5618 96.4051 74.2226 94.4175 74.3077 92.6132L74.3175 92.2548C74.3255 90.3935 73.6942 89.2015 72.7921 88.6376L72.7931 88.6367C72.7862 88.6326 72.7802 88.6286 72.7745 88.6249C71.9084 88.1067 70.6363 88.0826 69.1065 88.8661L68.797 89.0341C67.1481 89.9766 65.6236 91.6172 64.5079 93.5273C63.4618 95.3183 62.7993 97.3057 62.714 99.1132L62.7042 99.4716C62.6961 101.275 63.2865 102.451 64.1397 103.03C64.1951 103.062 64.2706 103.107 64.2989 103.124L64.2999 103.123Z" fill="black" stroke="black"/>
<mask id="mask10_318_1541" style="mask-type:luminance" maskUnits="userSpaceOnUse" x="62" y="87" width="13" height="17">
<path d="M74.3175 103.472V88.2536H62.7042V103.472H74.3175Z" fill="white" stroke="white"/>
</mask>
<g mask="url(#mask10_318_1541)">
<g opacity="0.399994">
<path d="M64.3001 103.123C65.2242 103.655 66.5893 103.629 68.2337 102.692V102.693C69.8824 101.751 71.4043 100.108 72.5179 98.1973C73.562 96.4052 74.2228 94.4176 74.3079 92.6133L74.3177 92.2549C74.3257 90.3935 73.6945 89.2016 72.7923 88.6377L72.7933 88.6367C72.7865 88.6326 72.7804 88.6287 72.7747 88.625C71.9087 88.1067 70.6366 88.0827 69.1068 88.8662L68.7972 89.0342C67.1484 89.9766 65.6238 91.6172 64.5081 93.5273C63.4621 95.3184 62.7995 97.3057 62.7142 99.1133L62.7044 99.4717C62.6963 101.275 63.2867 102.451 64.14 103.03C64.1953 103.062 64.2708 103.107 64.2991 103.124L64.3001 103.123Z" fill="black" stroke="black"/>
</g>
</g>
<path d="M69.7817 100.714C70.1382 100.924 70.7012 100.959 71.4399 100.579L71.5894 100.497C72.3994 100.034 73.1629 99.2175 73.7261 98.2522C74.2188 97.4075 74.538 96.4853 74.6128 95.6428L74.6294 95.2874C74.633 94.4795 74.3921 93.9786 74.0815 93.7151L73.9448 93.6165C73.8615 93.5662 73.3672 93.2933 72.8521 93.009L71.7368 92.3909C71.3804 92.1817 70.8179 92.1475 70.0796 92.5266L69.9302 92.6077C69.1202 93.0706 68.3566 93.8885 67.7935 94.8538C67.3008 95.6983 66.9816 96.6201 66.9067 97.4622L66.8901 97.8176C66.8865 98.6195 67.1239 99.119 67.4312 99.384L67.5659 99.4827L67.5669 99.4836C67.6498 99.5348 68.1418 99.8069 68.6606 100.093L69.7817 100.714Z" fill="black" stroke="black"/>
<path d="M69.7794 100.718C70.1601 100.94 70.7763 100.962 71.589 100.497C72.399 100.034 73.1625 99.2172 73.7257 98.252C74.2184 97.4075 74.5377 96.4856 74.6124 95.6436L74.629 95.2881C74.6331 94.3519 74.3106 93.8248 73.9298 93.6026C73.5727 93.3944 73.0084 93.3628 72.2696 93.7422L72.1202 93.8233C71.3101 94.2862 70.5466 95.1033 69.9835 96.0684C69.4204 97.0336 69.0843 98.1004 69.0802 99.0333C69.0761 99.9695 69.3987 100.496 69.7794 100.718Z" fill="black" stroke="black"/>
<mask id="mask11_318_1541" style="mask-type:luminance" maskUnits="userSpaceOnUse" x="68" y="92" width="8" height="10">
<path d="M74.629 100.871V93.4501H69.0802V100.871H74.629Z" fill="white" stroke="white"/>
</mask>
<g mask="url(#mask11_318_1541)">
<g opacity="0.149994">
<path d="M69.7788 100.718C70.1595 100.94 70.7757 100.962 71.5884 100.497C72.3984 100.034 73.1619 99.2172 73.7251 98.2521C74.2178 97.4076 74.5371 96.4857 74.6118 95.6437L74.6284 95.2882C74.6325 94.3519 74.31 93.8249 73.9292 93.6027C73.5721 93.3945 73.0078 93.3629 72.269 93.7423L72.1196 93.8234C71.3095 94.2862 70.546 95.1034 69.9829 96.0685C69.4198 97.0337 69.0838 98.1004 69.0796 99.0333C69.0755 99.9695 69.3981 100.496 69.7788 100.718Z" fill="black" stroke="black"/>
</g>
</g>
<path d="M86.2653 108.135C86.42 108.224 86.6939 108.263 87.0944 108.08L87.274 107.989C87.7723 107.704 88.2519 107.193 88.609 106.58C88.9215 106.044 89.1195 105.465 89.1656 104.945L89.1764 104.726C89.1785 104.233 89.0332 103.961 88.8785 103.827L88.8121 103.777C88.6478 103.677 85.0177 101.345 81.4156 99.0316C79.5912 97.8601 77.7663 96.6884 76.3883 95.8041C75.6995 95.3621 75.1225 94.9915 74.7125 94.7289C74.5075 94.5975 74.3443 94.4932 74.2301 94.4203L74.0563 94.3099C73.7812 94.1488 73.3473 94.1065 72.7672 94.3705L72.5104 94.5023C71.8035 94.9066 71.1344 95.623 70.6393 96.472C70.2061 97.215 69.9266 98.0241 69.861 98.7601L69.8463 99.0707C69.8439 99.8696 70.1107 100.309 70.4147 100.498C70.4313 100.506 70.4793 100.528 70.5719 100.574C70.6903 100.631 70.8603 100.713 71.0739 100.817C71.5009 101.023 72.1031 101.314 72.8229 101.661C74.2626 102.354 76.1733 103.271 78.0983 104.196C81.9355 106.039 85.8426 107.917 86.1744 108.084L86.1754 108.083L86.1764 108.084L86.2086 108.099L86.2389 108.119C86.2508 108.126 86.2592 108.131 86.2653 108.135Z" fill="white" stroke="black"/>
<path d="M86.2647 108.135C86.4195 108.224 86.694 108.263 87.0948 108.08L87.2735 107.989C87.7719 107.704 88.2513 107.193 88.6085 106.58C88.921 106.044 89.119 105.465 89.1651 104.945L89.1759 104.726C89.1783 104.162 88.9893 103.887 88.8126 103.777L88.8136 103.776L88.8116 103.775V103.776C88.6576 103.684 88.3802 103.642 87.9747 103.826L87.7931 103.918C87.2946 104.203 86.8139 104.713 86.4561 105.326C86.1431 105.862 85.945 106.441 85.8985 106.962L85.8878 107.182C85.8855 107.709 86.0506 107.982 86.213 108.103L86.2384 108.119C86.2502 108.126 86.2587 108.131 86.2647 108.135Z" stroke="black"/>
<mask id="path-59-inside-1_318_1541" fill="white">
<path d="M82.5521 100.303C83.0288 100.031 83.4788 99.9299 83.855 100.004C83.6929 99.8997 83.5296 99.7946 83.3646 99.689C83.0574 99.7295 82.7319 99.842 82.3974 100.033C80.9437 100.863 79.7555 102.901 79.7481 104.573C79.7464 104.98 79.8143 105.34 79.9451 105.638C80.1255 105.725 80.3048 105.811 80.4829 105.896C80.2072 105.605 80.0576 105.148 80.0599 104.574C80.0667 103.001 81.1846 101.085 82.5521 100.303ZM80.0033 98.7366C80.5183 98.4426 81.0025 98.3404 81.4056 98.4312C81.2355 98.3221 81.0659 98.2131 80.8969 98.1046C80.5663 98.1423 80.2134 98.2616 79.8509 98.4688C78.3304 99.3378 77.088 101.469 77.08 103.219C77.0783 103.663 77.1571 104.051 77.305 104.37C77.4877 104.458 77.6704 104.546 77.8537 104.633C77.5505 104.329 77.3855 103.839 77.3878 103.22C77.3952 101.568 78.5685 99.5565 80.0033 98.7366ZM74.9064 95.6026C75.495 95.2663 76.0471 95.1607 76.5022 95.2829C76.3132 95.1618 76.1328 95.0459 75.9632 94.9375C75.5847 94.9677 75.177 95.1025 74.7573 95.3417C73.1038 96.2872 71.7518 98.6053 71.7427 100.51C71.741 101.027 71.8403 101.473 72.0236 101.83C72.2046 101.917 72.3947 102.009 72.5946 102.105C72.2354 101.773 72.0407 101.219 72.043 100.511C72.0516 98.7024 73.3362 96.5002 74.9064 95.6026ZM85.8317 101.273C85.5491 101.316 85.2505 101.421 84.9438 101.596C83.5576 102.388 82.4236 104.331 82.4162 105.927C82.4151 106.301 82.4756 106.631 82.5903 106.909C82.7696 106.996 82.9438 107.079 83.1133 107.161C82.865 106.884 82.7297 106.459 82.7319 105.928C82.7388 104.434 83.8014 102.613 85.1009 101.871C85.5451 101.617 85.9636 101.521 86.3159 101.584C86.1588 101.483 85.9978 101.379 85.8317 101.273ZM77.4546 97.1693C78.0073 96.8547 78.5257 96.7508 78.955 96.8576C78.7769 96.7434 78.6016 96.6309 78.4292 96.5202C78.0752 96.5544 77.6944 96.6823 77.3038 96.9056C75.7171 97.8128 74.4193 100.037 74.4113 101.864C74.4096 102.346 74.4987 102.762 74.6649 103.101C74.8487 103.19 75.0354 103.279 75.225 103.37C74.8932 103.051 74.7128 102.529 74.7151 101.865C74.7237 100.135 75.9524 98.0286 77.4546 97.1693Z"/>
</mask>
<path d="M82.5521 100.303L82.0558 99.4352L82.0561 99.435L82.5521 100.303ZM83.855 100.004L84.3967 99.1635L83.6615 100.985L83.855 100.004ZM83.3646 99.689L83.2337 98.6976L83.596 98.6498L83.9037 98.8468L83.3646 99.689ZM82.3974 100.033L81.9012 99.1645L81.9022 99.1639L82.3974 100.033ZM79.7481 104.573L78.7481 104.569L78.7481 104.569L79.7481 104.573ZM79.9451 105.638L79.5093 106.538L79.1775 106.377L79.0293 106.04L79.9451 105.638ZM80.4829 105.896L81.209 105.209L80.052 106.799L80.4829 105.896ZM80.0599 104.574L79.0599 104.57L79.0599 104.57L80.0599 104.574ZM80.0033 98.7366L79.5072 97.8684L79.5075 97.8682L80.0033 98.7366ZM81.4056 98.4312L81.9452 97.5892L81.1859 99.4067L81.4056 98.4312ZM80.8969 98.1046L80.7836 97.111L81.1374 97.0707L81.4371 97.263L80.8969 98.1046ZM79.8509 98.4688L80.3472 99.337L80.3471 99.337L79.8509 98.4688ZM77.08 103.219L76.08 103.215L76.08 103.214L77.08 103.219ZM77.305 104.37L76.8713 105.271L76.5487 105.116L76.3979 104.791L77.305 104.37ZM77.8537 104.633L78.5628 103.928L77.4211 105.535L77.8537 104.633ZM77.3878 103.22L76.3878 103.216L76.3878 103.215L77.3878 103.22ZM74.9064 95.6026L74.4101 94.7345L74.4103 94.7343L74.9064 95.6026ZM76.5022 95.2829L77.0415 94.4408L76.2429 96.2487L76.5022 95.2829ZM75.9632 94.9375L75.8835 93.9406L76.2188 93.9138L76.5021 94.0951L75.9632 94.9375ZM74.7573 95.3417L74.261 94.4736L74.2621 94.4729L74.7573 95.3417ZM71.7427 100.51L70.7427 100.507L70.7427 100.505L71.7427 100.51ZM72.0236 101.83L71.5889 102.731L71.2868 102.585L71.1338 102.286L72.0236 101.83ZM72.5946 102.105L73.2737 101.371L72.1597 103.006L72.5946 102.105ZM72.043 100.511L71.043 100.508L71.043 100.506L72.043 100.511ZM85.8317 101.273L85.6819 100.284L86.0535 100.228L86.3702 100.43L85.8317 101.273ZM84.9438 101.596L84.4476 100.728L84.4488 100.727L84.9438 101.596ZM82.4162 105.927L81.4162 105.924L81.4162 105.923L82.4162 105.927ZM82.5903 106.909L82.157 107.811L81.812 107.645L81.666 107.291L82.5903 106.909ZM83.1133 107.161L83.8578 106.493L82.6795 108.062L83.1133 107.161ZM82.7319 105.928L81.732 105.924L81.732 105.924L82.7319 105.928ZM85.1009 101.871L84.6049 101.002L84.6052 101.002L85.1009 101.871ZM86.3159 101.584L86.8571 100.743L86.1388 102.568L86.3159 101.584ZM77.4546 97.1693L76.958 96.3013L76.9599 96.3003L77.4546 97.1693ZM78.955 96.8576L79.4947 96.0157L78.7137 97.828L78.955 96.8576ZM78.4292 96.5202L78.3329 95.5248L78.678 95.4914L78.9697 95.6788L78.4292 96.5202ZM77.3038 96.9056L76.8075 96.0374L76.8076 96.0374L77.3038 96.9056ZM74.4113 101.864L73.4114 101.861L73.4114 101.86L74.4113 101.864ZM74.6649 103.101L74.2311 104.002L73.9195 103.852L73.7671 103.542L74.6649 103.101ZM75.225 103.37L75.9177 102.649L74.793 104.272L75.225 103.37ZM74.7151 101.865L73.7151 101.862L73.7151 101.861L74.7151 101.865ZM82.5521 100.303L82.0561 99.435C82.6582 99.0911 83.3566 98.8866 84.0486 99.0231L83.855 100.004L83.6615 100.985C83.6009 100.973 83.3995 100.971 83.0481 101.172L82.5521 100.303ZM83.855 100.004L83.3134 100.845C83.1516 100.74 82.9892 100.636 82.8254 100.531L83.3646 99.689L83.9037 98.8468C84.0699 98.9532 84.2342 99.0588 84.3967 99.1635L83.855 100.004ZM83.3646 99.689L83.4954 100.68C83.3354 100.701 83.1327 100.765 82.8925 100.901L82.3974 100.033L81.9022 99.1639C82.3312 98.9194 82.7793 98.7575 83.2337 98.6976L83.3646 99.689ZM82.3974 100.033L82.8935 100.901C82.3553 101.209 81.8091 101.78 81.3941 102.491C80.9791 103.202 80.7508 103.959 80.7481 104.577L79.7481 104.573L78.7481 104.569C78.7528 103.515 79.1223 102.416 79.6667 101.483C80.211 100.55 80.9857 99.6876 81.9012 99.1645L82.3974 100.033ZM79.7481 104.573L80.7481 104.577C80.7469 104.874 80.797 105.091 80.8608 105.236L79.9451 105.638L79.0293 106.04C78.8317 105.589 78.7459 105.086 78.7481 104.569L79.7481 104.573ZM79.9451 105.638L80.3809 104.738C80.5597 104.824 80.7374 104.91 80.9139 104.994L80.4829 105.896L80.052 106.799C79.8722 106.713 79.6913 106.626 79.5093 106.538L79.9451 105.638ZM80.4829 105.896L79.7569 106.584C79.2447 106.043 79.057 105.3 79.0599 104.57L80.0599 104.574L81.0598 104.578C81.0582 104.997 81.1696 105.167 81.209 105.209L80.4829 105.896ZM80.0599 104.574L79.0599 104.57C79.0642 103.566 79.4161 102.522 79.932 101.638C80.448 100.754 81.1836 99.9337 82.0558 99.4352L82.5521 100.303L83.0484 101.172C82.5531 101.455 82.046 101.984 81.6595 102.646C81.2729 103.308 81.0623 104.01 81.0598 104.578L80.0599 104.574ZM80.0033 98.7366L79.5075 97.8682C80.153 97.4996 80.8966 97.2915 81.6253 97.4556L81.4056 98.4312L81.1859 99.4067C81.1084 99.3893 80.8837 99.3855 80.4992 99.605L80.0033 98.7366ZM81.4056 98.4312L80.866 99.2731C80.6956 99.1638 80.5246 99.0539 80.3567 98.9461L80.8969 98.1046L81.4371 97.263C81.6071 97.3722 81.7753 97.4804 81.9452 97.5892L81.4056 98.4312ZM80.8969 98.1046L81.0101 99.0981C80.8358 99.118 80.6121 99.1856 80.3472 99.337L79.8509 98.4688L79.3546 97.6007C79.8148 97.3376 80.2968 97.1665 80.7836 97.111L80.8969 98.1046ZM79.8509 98.4688L80.3471 99.337C79.7755 99.6637 79.199 100.268 78.7621 101.017C78.3251 101.766 78.083 102.565 78.08 103.223L77.08 103.219L76.08 103.214C76.085 102.122 76.4681 100.981 77.0345 100.01C77.6008 99.0385 78.4058 98.143 79.3547 97.6006L79.8509 98.4688ZM77.08 103.219L78.08 103.223C78.0787 103.549 78.1372 103.787 78.212 103.949L77.305 104.37L76.3979 104.791C76.177 104.315 76.0779 103.776 76.08 103.215L77.08 103.219ZM77.305 104.37L77.7386 103.469C77.9214 103.557 78.1036 103.644 78.2862 103.732L77.8537 104.633L77.4211 105.535C77.2372 105.447 77.0539 105.359 76.8713 105.271L77.305 104.37ZM77.8537 104.633L77.1446 105.339C76.5895 104.78 76.3849 103.992 76.3878 103.216L77.3878 103.22L78.3878 103.223C78.3861 103.685 78.5115 103.877 78.5628 103.928L77.8537 104.633ZM77.3878 103.22L76.3878 103.215C76.3925 102.172 76.7582 101.085 77.2965 100.162C77.8348 99.2396 78.6011 98.3861 79.5072 97.8684L80.0033 98.7366L80.4995 99.6049C79.9707 99.907 79.433 100.469 79.024 101.17C78.6151 101.871 78.3905 102.616 78.3878 103.224L77.3878 103.22ZM74.9064 95.6026L74.4103 94.7343C75.1372 94.3191 75.9659 94.1035 76.7615 94.3171L76.5022 95.2829L76.2429 96.2487C76.1284 96.2179 75.8529 96.2136 75.4024 96.4709L74.9064 95.6026ZM76.5022 95.2829L75.9629 96.125C75.7717 96.0025 75.5943 95.8885 75.4243 95.7798L75.9632 94.9375L76.5021 94.0951C76.6713 94.2033 76.8548 94.3212 77.0415 94.4408L76.5022 95.2829ZM75.9632 94.9375L76.0429 95.9343C75.8408 95.9504 75.5741 96.0272 75.2526 96.2104L74.7573 95.3417L74.2621 94.4729C74.7799 94.1777 75.3285 93.985 75.8835 93.9406L75.9632 94.9375ZM74.7573 95.3417L75.2537 96.2098C74.6155 96.5747 73.9783 97.2451 73.4972 98.07C73.016 98.8949 72.7462 99.7796 72.7427 100.515L71.7427 100.51L70.7427 100.505C70.7483 99.3357 71.1591 98.109 71.7696 97.0623C72.3801 96.0156 73.2457 95.0542 74.261 94.4736L74.7573 95.3417ZM71.7427 100.51L72.7427 100.513C72.7414 100.904 72.8168 101.185 72.9134 101.374L72.0236 101.83L71.1338 102.286C70.8638 101.76 70.7406 101.151 70.7427 100.507L71.7427 100.51ZM72.0236 101.83L72.4583 100.929C72.6322 101.013 72.8344 101.111 73.0294 101.205L72.5946 102.105L72.1597 103.006C71.955 102.907 71.777 102.821 71.5889 102.731L72.0236 101.83ZM72.5946 102.105L71.9154 102.839C71.2766 102.248 71.0402 101.375 71.043 100.508L72.043 100.511L73.043 100.514C73.0412 101.062 73.1942 101.298 73.2737 101.371L72.5946 102.105ZM72.043 100.511L71.043 100.506C71.0483 99.3848 71.4422 98.211 72.0253 97.2113C72.6085 96.2116 73.4364 95.2911 74.4101 94.7345L74.9064 95.6026L75.4026 96.4708C74.8062 96.8117 74.2067 97.441 73.7529 98.2191C73.299 98.9971 73.0462 99.8287 73.043 100.516L72.043 100.511ZM85.8317 101.273L85.9815 102.262C85.8367 102.283 85.6542 102.342 85.4389 102.465L84.9438 101.596L84.4488 100.727C84.8467 100.5 85.2614 100.348 85.6819 100.284L85.8317 101.273ZM84.9438 101.596L85.4401 102.464C84.9355 102.753 84.4196 103.291 84.0266 103.964C83.6336 104.638 83.4189 105.351 83.4162 105.932L82.4162 105.927L81.4162 105.923C81.4209 104.907 81.7769 103.851 82.2993 102.956C82.8217 102.061 83.5659 101.232 84.4476 100.728L84.9438 101.596ZM82.4162 105.927L83.4162 105.93C83.4154 106.196 83.4589 106.392 83.5147 106.528L82.5903 106.909L81.666 107.291C81.4923 106.87 81.4147 106.405 81.4162 105.924L82.4162 105.927ZM82.5903 106.909L83.0237 106.008C83.2033 106.094 83.3781 106.179 83.5472 106.26L83.1133 107.161L82.6795 108.062C82.5095 107.98 82.336 107.897 82.157 107.811L82.5903 106.909ZM83.1133 107.161L82.3689 107.829C81.9013 107.307 81.729 106.609 81.732 105.924L82.7319 105.928L83.7319 105.933C83.7303 106.31 83.8287 106.461 83.8578 106.493L83.1133 107.161ZM82.7319 105.928L81.732 105.924C81.7364 104.959 82.0744 103.959 82.568 103.113C83.0617 102.267 83.7665 101.481 84.6049 101.002L85.1009 101.871L85.5968 102.739C85.1357 103.002 84.6595 103.498 84.2953 104.121C83.9311 104.745 83.7344 105.403 83.7319 105.933L82.7319 105.928ZM85.1009 101.871L84.6052 101.002C85.1731 100.678 85.8329 100.481 86.4929 100.6L86.3159 101.584L86.1388 102.568C86.0943 102.56 85.9171 102.556 85.5965 102.739L85.1009 101.871ZM86.3159 101.584L85.7746 102.425C85.6163 102.323 85.4575 102.22 85.2931 102.115L85.8317 101.273L86.3702 100.43C86.5382 100.538 86.7014 100.643 86.8571 100.743L86.3159 101.584ZM77.4546 97.1693L76.9599 96.3003C77.6464 95.9095 78.4332 95.6974 79.1964 95.8871L78.955 96.8576L78.7137 97.828C78.6181 97.8043 78.3681 97.8 77.9493 98.0384L77.4546 97.1693ZM78.955 96.8576L78.4154 97.6995C78.237 97.5851 78.0614 97.4725 77.8887 97.3615L78.4292 96.5202L78.9697 95.6788C79.1418 95.7894 79.3168 95.9017 79.4947 96.0157L78.955 96.8576ZM78.4292 96.5202L78.5255 97.5155C78.3389 97.5336 78.0933 97.6061 77.8001 97.7737L77.3038 96.9056L76.8076 96.0374C77.2954 95.7585 77.8115 95.5753 78.3329 95.5248L78.4292 96.5202ZM77.3038 96.9056L77.8002 97.7737C77.1954 98.1195 76.5884 98.7569 76.1294 99.5439C75.6702 100.331 75.4144 101.173 75.4113 101.869L74.4113 101.864L73.4114 101.86C73.4163 100.729 73.8133 99.5449 74.4018 98.5361C74.9903 97.5273 75.8256 96.5989 76.8075 96.0374L77.3038 96.9056ZM74.4113 101.864L75.4113 101.868C75.4101 102.227 75.4769 102.486 75.5626 102.66L74.6649 103.101L73.7671 103.542C73.5205 103.039 73.4092 102.464 73.4114 101.861L74.4113 101.864ZM74.6649 103.101L75.0986 102.2C75.2818 102.288 75.4679 102.378 75.6569 102.468L75.225 103.37L74.793 104.272C74.6029 104.181 74.4156 104.091 74.2311 104.002L74.6649 103.101ZM75.225 103.37L74.5323 104.091C73.9337 103.516 73.7123 102.684 73.7151 101.862L74.7151 101.865L75.7151 101.869C75.7134 102.373 75.8528 102.586 75.9177 102.649L75.225 103.37ZM74.7151 101.865L73.7151 101.861C73.7205 100.778 74.1003 99.6482 74.6609 98.687C75.2216 97.7259 76.0184 96.8388 76.958 96.3013L77.4546 97.1693L77.9511 98.0374C77.3885 98.3592 76.8199 98.9551 76.3885 99.6947C75.9571 100.434 75.7183 101.223 75.7151 101.87L74.7151 101.865Z" fill="black" mask="url(#path-59-inside-1_318_1541)"/>
<path d="M125.574 128.646L125.651 128.609C125.785 128.532 125.934 128.38 126.05 128.177C126.167 127.975 126.224 127.77 126.224 127.616V127.615C126.224 127.554 126.214 127.519 126.209 127.502C126.206 127.501 126.204 127.499 126.202 127.498C126.182 127.486 126.153 127.469 126.116 127.448C126.042 127.405 125.933 127.342 125.792 127.26C125.509 127.097 125.095 126.858 124.572 126.555C123.525 125.95 122.034 125.088 120.248 124.055C116.674 121.989 111.917 119.239 107.16 116.489C97.9053 111.139 88.6497 105.79 88.1091 105.477C88.1022 105.478 88.0923 105.48 88.0798 105.484L88.0026 105.52C87.8693 105.597 87.72 105.749 87.6032 105.952C87.4864 106.154 87.4294 106.36 87.4294 106.514C87.4294 106.576 87.4391 106.612 87.445 106.628C88.5594 107.272 124.455 128.025 125.544 128.654C125.55 128.653 125.561 128.651 125.574 128.646Z" fill="black" stroke="black"/>
<mask id="path-62-inside-2_318_1541" fill="white">
<path d="M87.0163 106.046C86.9621 106.203 86.929 106.363 86.929 106.514C86.929 106.777 87.0215 106.961 87.1705 107.047C87.2607 107.099 125.228 129.048 125.319 129.1C125.468 129.186 125.674 129.174 125.901 129.042C126.031 128.967 126.153 128.859 126.262 128.734C118.731 124.38 94.581 110.419 87.0163 106.046Z"/>
</mask>
<path d="M87.0163 106.046C86.9621 106.203 86.929 106.363 86.929 106.514C86.929 106.777 87.0215 106.961 87.1705 107.047C87.2607 107.099 125.228 129.048 125.319 129.1C125.468 129.186 125.674 129.174 125.901 129.042C126.031 128.967 126.153 128.859 126.262 128.734C118.731 124.38 94.581 110.419 87.0163 106.046Z" fill="black"/>
<path d="M87.0163 106.046L86.0708 105.72L86.4659 104.573L87.5168 105.18L87.0163 106.046ZM87.1705 107.047L87.6688 106.18L87.6737 106.183L87.1705 107.047ZM125.319 129.1L125.82 128.235L125.821 128.235L125.319 129.1ZM125.901 129.042L126.402 129.908L126.401 129.908L125.901 129.042ZM126.262 128.734L126.763 127.868L127.817 128.477L127.014 129.393L126.262 128.734ZM87.0163 106.046L87.9619 106.371C87.9325 106.457 87.929 106.504 87.929 106.514H86.929H85.929C85.929 106.223 85.9917 105.95 86.0708 105.72L87.0163 106.046ZM86.929 106.514H87.929C87.929 106.532 87.9325 106.494 87.9004 106.425C87.8657 106.35 87.7935 106.251 87.6688 106.18L87.1705 107.047L86.6722 107.914C86.1036 107.587 85.929 106.988 85.929 106.514H86.929ZM87.1705 107.047L87.6737 106.183C87.6734 106.182 87.682 106.187 87.7028 106.199C87.7224 106.211 87.751 106.227 87.7882 106.249C87.8626 106.292 87.9718 106.355 88.1133 106.437C88.3964 106.6 88.8089 106.839 89.3324 107.142C90.3794 107.747 91.8702 108.609 93.657 109.642C97.2306 111.707 101.988 114.458 106.745 117.208C116.259 122.708 125.774 128.208 125.82 128.235L125.319 129.1L124.818 129.966C124.818 129.966 124.818 129.965 124.818 129.965C124.817 129.965 124.817 129.965 124.816 129.964C124.814 129.963 124.812 129.962 124.81 129.961C124.804 129.958 124.797 129.953 124.787 129.947C124.767 129.936 124.739 129.92 124.702 129.898C124.627 129.855 124.518 129.792 124.376 129.71C124.093 129.546 123.681 129.308 123.157 129.005C122.11 128.4 120.619 127.538 118.832 126.505C115.259 124.439 110.501 121.689 105.744 118.939C96.2314 113.44 86.7142 107.938 86.6673 107.911L87.1705 107.047ZM125.319 129.1L125.821 128.235C125.696 128.162 125.573 128.15 125.492 128.157C125.416 128.164 125.385 128.186 125.401 128.177L125.901 129.042L126.401 129.908C125.993 130.144 125.386 130.295 124.817 129.965L125.319 129.1ZM125.901 129.042L125.4 128.177C125.409 128.172 125.449 128.144 125.51 128.074L126.262 128.734L127.014 129.393C126.857 129.573 126.653 129.762 126.402 129.908L125.901 129.042ZM126.262 128.734L125.762 129.599C118.23 125.246 94.0805 111.285 86.5159 106.912L87.0163 106.046L87.5168 105.18C95.0815 109.553 119.231 123.514 126.763 127.868L126.262 128.734Z" fill="black" mask="url(#path-62-inside-2_318_1541)"/>
<path d="M132.446 132.706C132.46 132.704 132.482 132.701 132.51 132.691L132.617 132.641C132.789 132.541 132.974 132.35 133.116 132.104C133.258 131.857 133.331 131.601 133.332 131.402C133.332 131.304 133.314 131.247 133.302 131.221C133.301 131.218 133.299 131.215 133.297 131.212C133.295 131.212 133.291 131.212 133.287 131.212C133.258 131.215 133.2 131.228 133.116 131.277H133.117C132.944 131.377 132.758 131.568 132.616 131.815C132.473 132.062 132.4 132.318 132.4 132.517C132.4 132.614 132.417 132.67 132.429 132.696C132.431 132.7 132.434 132.703 132.435 132.706C132.438 132.706 132.442 132.706 132.446 132.706Z" fill="white" stroke="black"/>
<path d="M131.452 133.834C131.573 133.904 131.802 133.942 132.151 133.782L132.307 133.701C132.742 133.45 133.163 132.998 133.478 132.453C133.792 131.909 133.972 131.318 133.972 130.816C133.972 130.374 133.839 130.149 133.713 130.046L133.66 130.009L128.009 126.753C127.872 126.674 127.592 126.636 127.154 126.888H127.154C126.719 127.139 126.298 127.59 125.984 128.134C125.669 128.679 125.489 129.27 125.489 129.772C125.489 130.214 125.622 130.439 125.747 130.541L125.8 130.578H125.801L131.452 133.834Z" fill="black" stroke="black"/>
<path d="M131.453 133.834C131.573 133.904 131.802 133.942 132.151 133.782L132.307 133.701C132.742 133.449 133.164 132.998 133.478 132.454C133.792 131.909 133.972 131.318 133.972 130.816C133.972 130.373 133.839 130.148 133.714 130.046L133.662 130.01L133.661 130.009C133.541 129.94 133.312 129.902 132.964 130.062L132.807 130.144C132.372 130.395 131.95 130.846 131.636 131.39C131.322 131.934 131.142 132.526 131.142 133.028C131.142 133.532 131.314 133.755 131.452 133.835L131.453 133.834Z" fill="white" stroke="black"/>
<path d="M132.192 132.554C132.216 132.548 132.255 132.535 132.307 132.505C132.456 132.419 132.62 132.251 132.747 132.032C132.874 131.812 132.937 131.586 132.937 131.414C132.937 131.354 132.928 131.315 132.921 131.291C132.914 131.293 132.905 131.294 132.896 131.297L132.807 131.338H132.806C132.657 131.424 132.494 131.593 132.367 131.813C132.24 132.033 132.176 132.259 132.176 132.431C132.176 132.491 132.185 132.53 132.192 132.554Z" stroke="black"/>
<path d="M34.0488 92.1758L17.3184 84.4873L16.9043 84.2969L17.0557 83.8672L22.1953 69.2354C22.1969 69.2288 22.1991 69.2207 22.2012 69.2119C22.2094 69.1763 22.2217 69.1226 22.2373 69.0527C22.2686 68.9124 22.3136 68.7048 22.3682 68.4395C22.4775 67.9081 22.6251 67.1438 22.7764 66.2148C23.0793 64.3547 23.3976 61.8423 23.46 59.2236C23.5225 56.5992 23.327 53.8992 22.624 51.6484C21.9427 49.4669 20.8038 47.7729 19.0215 46.9219C16.66 47.7 14.9777 48.5009 13.6689 49.624C12.4162 50.6992 11.4715 52.0973 10.6182 54.1318L10.4482 54.5469V54.5479C8.57812 59.2569 3.4021 77.0507 1.57129 83.4863L1.01074 85.4775C0.592159 87.0015 0.36347 88.3079 0.586914 89.4688C0.790266 90.5248 1.38107 91.5174 2.69727 92.4551L2.96973 92.6416C3.70254 93.1237 5.36818 93.7646 7.60449 94.4854C9.81553 95.1979 12.5172 95.9683 15.2686 96.7207C20.4878 98.1481 25.9119 99.5212 28.4062 100.288L34.0488 92.1758Z" fill="white" stroke="black"/>
<path d="M49.0654 97.6758C49.0691 97.6763 49.0749 97.6751 49.082 97.6758C49.104 97.6778 49.1406 97.6802 49.1865 97.6787C49.2797 97.6757 49.4021 97.6575 49.5273 97.6025C49.7158 97.5198 50.0013 97.3145 50.1533 96.709L50.209 96.4248V96.4229C50.2373 96.2377 50.1803 96.0545 50.0156 95.8525C49.8446 95.643 49.5816 95.4464 49.2783 95.2734C48.9795 95.1031 48.6694 94.9705 48.4307 94.8809C48.3122 94.8364 48.2127 94.8032 48.1445 94.7812C48.1107 94.7704 48.0845 94.762 48.0674 94.7568C48.059 94.7543 48.0527 94.7531 48.0488 94.752L48.0449 94.751L48.207 93.7705H48.2119C48.2152 93.7707 48.2201 93.7712 48.2266 93.7715C48.2401 93.7721 48.2606 93.7723 48.2871 93.7734C48.3403 93.7758 48.4186 93.779 48.5166 93.7822C48.7127 93.7887 48.9884 93.7959 49.3047 93.7969C49.9427 93.7989 50.7257 93.7773 51.3584 93.6885L51.3701 93.6865H51.3818C51.3847 93.6862 51.3894 93.6845 51.3955 93.6836C51.4117 93.6812 51.4382 93.6773 51.4727 93.6699C51.5429 93.6549 51.6431 93.628 51.7539 93.583C51.8361 93.5496 51.9188 93.5047 52.001 93.4521L45.7793 89.8672C44.7908 89.7477 43.8787 89.6558 43.1367 89.6055C42.5488 89.5656 42.0927 89.5534 41.7939 89.5645L41.5488 89.583H41.5469C39.1613 89.9102 37.3471 91.2012 32.7959 90.4014L32.3467 90.3174C31.4104 90.1314 29.8822 89.4794 28.1523 88.6699C26.4476 87.8722 24.4718 86.8868 22.5654 85.9639C21.7215 86.1228 20.8656 86.708 20.0918 87.6436C19.2798 88.6253 18.5975 89.946 18.1562 91.3965C17.2835 94.2654 17.3971 97.4646 19.0498 99.4893C25.2793 100.682 35.8498 102.921 38.1914 103.488L38.1924 103.487C39.663 103.84 41.7817 104.136 43.6699 104.149C44.6149 104.156 45.4819 104.093 46.1719 103.939C46.8827 103.781 47.3071 103.55 47.4941 103.305V103.304C47.7786 102.927 47.8771 102.656 47.9014 102.479C47.9241 102.312 47.8854 102.201 47.8359 102.121C47.7806 102.031 47.698 101.959 47.6172 101.907C47.5784 101.882 47.5447 101.864 47.5225 101.854C47.5131 101.849 47.5059 101.846 47.502 101.845H47.5029L47.5039 101.843L47.7344 100.888C47.7349 100.883 47.7353 100.881 47.7354 100.88C47.7397 100.88 47.7483 100.88 47.7607 100.881C47.7866 100.882 47.8287 100.883 47.8818 100.88C47.9893 100.874 48.137 100.855 48.2959 100.8C48.5597 100.709 48.8775 100.516 49.1006 100.064L49.1895 99.8545C49.4108 99.244 49.2523 98.9755 49.1465 98.8545C49.0784 98.7768 48.9966 98.7222 48.9277 98.6865C48.8942 98.6692 48.8665 98.6577 48.8496 98.6514C48.8451 98.6497 48.8415 98.6484 48.8389 98.6475H48.8398C48.8399 98.6475 48.84 98.6476 48.8428 98.6377L49.0615 97.6982C49.0642 97.6838 49.0651 97.678 49.0654 97.6758Z" fill="black" stroke="black"/>
<mask id="path-70-inside-3_318_1541" fill="white">
<path d="M48.1806 94.2694C47.9025 94.0856 47.6056 93.9993 47.3047 93.936C47.0015 93.8852 46.6938 93.8577 46.3672 93.9297C46.6453 94.1147 46.9422 94.2009 47.2436 94.2631C47.5468 94.3134 47.8546 94.3402 48.1806 94.2694ZM47.7992 97.6004C47.3886 97.4708 46.9701 97.3646 46.5202 97.3532C46.8879 97.6124 47.2876 97.7757 47.6947 97.9167C48.1058 98.0452 48.5243 98.1514 48.9736 98.1634C48.6054 97.9053 48.2057 97.7414 47.7992 97.6004ZM45.6238 100.621C45.9207 100.869 46.2519 101.023 46.5922 101.153C46.9359 101.273 47.2882 101.37 47.6747 101.373C47.3778 101.126 47.0461 100.972 46.7069 100.841C46.3626 100.721 46.0103 100.624 45.6238 100.621Z"/>
</mask>
<path d="M48.1806 94.2694C47.9025 94.0856 47.6056 93.9993 47.3047 93.936C47.0015 93.8852 46.6938 93.8577 46.3672 93.9297C46.6453 94.1147 46.9422 94.2009 47.2436 94.2631C47.5468 94.3134 47.8546 94.3402 48.1806 94.2694ZM47.7992 97.6004C47.3886 97.4708 46.9701 97.3646 46.5202 97.3532C46.8879 97.6124 47.2876 97.7757 47.6947 97.9167C48.1058 98.0452 48.5243 98.1514 48.9736 98.1634C48.6054 97.9053 48.2057 97.7414 47.7992 97.6004ZM45.6238 100.621C45.9207 100.869 46.2519 101.023 46.5922 101.153C46.9359 101.273 47.2882 101.37 47.6747 101.373C47.3778 101.126 47.0461 100.972 46.7069 100.841C46.3626 100.721 46.0103 100.624 45.6238 100.621Z" fill="black"/>
<path d="M48.1806 94.2694L48.7321 93.4353L50.7104 94.7433L48.3928 95.2466L48.1806 94.2694ZM47.3047 93.936L47.47 92.9497L47.4905 92.9532L47.5108 92.9574L47.3047 93.936ZM46.3672 93.9297L45.8133 94.7623L43.8546 93.4592L46.1521 92.9531L46.3672 93.9297ZM47.2436 94.2631L47.0801 95.2497L47.0607 95.2465L47.0414 95.2425L47.2436 94.2631ZM47.7992 97.6004L48.1002 96.6468L48.1136 96.651L48.1269 96.6556L47.7992 97.6004ZM46.5202 97.3532L45.944 98.1705L43.2479 96.2698L46.5456 96.3535L46.5202 97.3532ZM47.6947 97.9167L47.3964 98.8712L47.3818 98.8666L47.3673 98.8616L47.6947 97.9167ZM48.9736 98.1634L49.5475 97.3444L52.2691 99.2516L48.947 99.163L48.9736 98.1634ZM45.6238 100.621L44.9822 101.388L42.8453 99.6002L45.6312 99.6208L45.6238 100.621ZM46.5922 101.153L46.2642 102.098L46.2487 102.093L46.2335 102.087L46.5922 101.153ZM47.6747 101.373L48.3146 100.605L50.4682 102.398L47.6658 102.373L47.6747 101.373ZM46.7069 100.841L47.0358 99.8962L47.0527 99.9021L47.0694 99.9086L46.7069 100.841ZM48.1806 94.2694L47.629 95.1036C47.507 95.0229 47.3552 94.9685 47.0986 94.9145L47.3047 93.936L47.5108 92.9574C47.856 93.0301 48.298 93.1482 48.7321 93.4353L48.1806 94.2694ZM47.3047 93.936L47.1394 94.9222C46.8828 94.8792 46.7238 94.8751 46.5823 94.9063L46.3672 93.9297L46.1521 92.9531C46.6638 92.8404 47.1203 92.8911 47.47 92.9497L47.3047 93.936ZM46.3672 93.9297L46.9211 93.0971C47.0417 93.1773 47.1918 93.2313 47.4458 93.2838L47.2436 94.2631L47.0414 95.2425C46.6925 95.1704 46.2489 95.052 45.8133 94.7623L46.3672 93.9297ZM47.2436 94.2631L47.4071 93.2766C47.6637 93.3191 47.8249 93.3233 47.9684 93.2922L48.1806 94.2694L48.3928 95.2466C47.8842 95.3571 47.4299 95.3076 47.0801 95.2497L47.2436 94.2631ZM47.7992 97.6004L47.4981 98.554C47.1188 98.4342 46.8053 98.3607 46.4948 98.3528L46.5202 97.3532L46.5456 96.3535C47.135 96.3684 47.6585 96.5073 48.1002 96.6468L47.7992 97.6004ZM46.5202 97.3532L47.0964 96.5358C47.3488 96.7138 47.6434 96.8406 48.022 96.9718L47.6947 97.9167L47.3673 98.8616C46.9318 98.7107 46.427 98.511 45.944 98.1705L46.5202 97.3532ZM47.6947 97.9167L47.993 96.9622C48.3751 97.0816 48.6894 97.1554 49.0003 97.1637L48.9736 98.1634L48.947 99.163C48.3592 99.1473 47.8365 99.0087 47.3964 98.8712L47.6947 97.9167ZM48.9736 98.1634L48.3997 98.9823C48.1451 98.8038 47.8486 98.676 47.4714 98.5452L47.7992 97.6004L48.1269 96.6556C48.5627 96.8068 49.0656 97.0067 49.5475 97.3444L48.9736 98.1634ZM45.6238 100.621L46.2654 99.8538C46.4369 99.9972 46.6476 100.103 46.9508 100.22L46.5922 101.153L46.2335 102.087C45.8561 101.942 45.4045 101.741 44.9822 101.388L45.6238 100.621ZM46.5922 101.153L46.9201 100.209C47.2279 100.316 47.459 100.371 47.6836 100.373L47.6747 101.373L47.6658 102.373C47.1174 102.368 46.6439 102.23 46.2642 102.098L46.5922 101.153ZM47.6747 101.373L47.0348 102.142C46.8625 101.998 46.6502 101.891 46.3445 101.773L46.7069 100.841L47.0694 99.9086C47.442 100.053 47.8931 100.254 48.3146 100.605L47.6747 101.373ZM46.7069 100.841L46.378 101.785C46.0703 101.678 45.84 101.622 45.6164 101.621L45.6238 100.621L45.6312 99.6208C46.1807 99.6249 46.655 99.7636 47.0358 99.8962L46.7069 100.841Z" fill="black" mask="url(#path-70-inside-3_318_1541)"/>
<path d="M0.979568 84.4824C1.20487 84.3521 1.47787 84.1982 1.795 84.0342C2.76581 83.5319 4.14864 82.9119 5.79695 82.4424C8.96002 81.5414 13.1432 81.1853 17.2637 83.3232C17.3885 82.998 17.5652 82.5368 17.7794 81.9795C18.2169 80.8409 18.8106 79.2992 19.4346 77.6875C20.5245 74.8726 21.7129 71.8294 22.3223 70.3525L22.546 69.8203C23.0036 68.7641 24.3192 64.0551 24.42 59.002C24.5198 53.9964 23.4237 48.9093 19.4307 46.5391C16.6438 47.5172 14.7815 48.3768 13.3614 49.5664C12.0062 50.7017 11.018 52.1655 10.0391 54.4092L9.84383 54.8682C8.53497 58.0094 6.98218 63.0467 5.63972 67.6484C4.30531 72.2227 3.17278 76.3868 2.71883 77.7109L2.69637 77.7783L2.65535 77.8359L2.4659 78.1221C1.55259 79.5685 1.17873 81.2834 1.04305 82.6973C0.975231 83.4039 0.968452 84.0247 0.979568 84.4824Z" fill="white" stroke="black"/>
<path d="M96.1944 113.445C96.5569 113.632 96.9401 113.571 97.0996 113.398V113.399C97.161 113.332 97.2107 113.239 97.2637 113.104L97.3184 112.953C97.6587 111.956 97.8137 110.896 97.7744 109.843L97.7451 109.392C97.7322 109.248 97.7068 109.097 97.668 108.946L97.625 108.795L97.6241 108.794C97.525 108.479 97.3774 108.197 97.1963 107.989L97.1162 107.905V107.904C96.8292 107.624 96.4146 107.649 96.1866 107.925L96.1436 107.984L96.0928 108.069C96.0447 108.157 96.0025 108.261 95.9561 108.386C95.9 108.537 95.8285 108.749 95.7422 108.94L95.0811 110.397L94.795 108.822C94.6007 107.756 94.3285 106.653 93.8321 105.759L93.7305 105.583C93.5374 105.266 93.2933 105.011 93.0176 104.863L92.8975 104.807C92.6165 104.692 92.4474 104.712 92.3428 104.753C92.2283 104.798 92.1074 104.902 91.9903 105.098C91.747 105.504 91.6236 106.129 91.5772 106.66L90.6153 106.804C90.4211 106.321 90.2421 105.877 90.0039 105.471C89.8533 105.214 89.6739 104.954 89.4698 104.753C89.2903 104.577 89.1177 104.472 88.9512 104.435L88.8809 104.423H88.8799C88.6342 104.395 88.4088 104.503 88.2178 104.739C88.045 104.953 87.9336 105.236 87.9053 105.493L87.8985 105.602V105.603L87.8897 106.124L87.8799 106.647L86.9297 106.856C86.7911 106.569 86.6352 106.329 86.4463 106.158L86.3633 106.09C86.1307 105.913 85.8236 105.855 85.543 105.928L85.4248 105.968C85.3507 105.998 85.2673 106.073 85.1953 106.228C85.1415 106.343 85.1057 106.48 85.0879 106.615L85.0762 106.75L85.0752 106.886C85.0807 107.113 85.1219 107.346 85.1807 107.602L85.2588 107.921L85.501 108.889C85.5713 109.169 85.6419 109.468 85.7364 109.757L85.8399 110.041C85.9997 110.434 86.1853 110.689 86.4043 110.811L86.501 110.855C86.6495 110.909 86.8393 110.921 87.0078 110.878C87.1324 110.847 87.2214 110.793 87.2793 110.73L87.3272 110.663L87.7862 109.827L88.2129 110.681C88.3741 111.003 88.5655 111.271 88.8018 111.452C89.1576 111.725 89.5612 111.755 89.917 111.546L90.0664 111.443C90.2204 111.318 90.3563 111.157 90.4756 110.97L90.5889 110.775L90.5899 110.773C90.6102 110.735 90.6601 110.633 90.7393 110.531L90.8282 110.432L90.8301 110.431C90.9518 110.315 91.1791 110.178 91.4502 110.216L91.5684 110.243L91.5703 110.244C91.7511 110.303 91.8672 110.421 91.9356 110.516C91.9685 110.561 91.9945 110.608 92.0157 110.65L92.0645 110.755C92.1619 110.991 92.2579 111.274 92.335 111.476C92.3991 111.644 92.4635 111.794 92.5371 111.929L92.6143 112.06C92.7752 112.309 93.0705 112.507 93.3985 112.577C93.6812 112.638 93.9446 112.597 94.1465 112.461L94.2295 112.397C94.2587 112.37 94.3334 112.303 94.4278 112.252C94.5306 112.197 94.7228 112.129 94.9463 112.209L94.9473 112.207C95.0531 112.245 95.1341 112.31 95.1895 112.365L95.2774 112.472L95.2784 112.474C95.573 112.886 95.7708 113.175 96.0625 113.368L96.1944 113.445V113.445Z" fill="black" stroke="black"/>
<path d="M86.5002 110.855C86.6485 110.909 86.8383 110.921 87.007 110.878C87.1734 110.836 87.277 110.755 87.3273 110.663L87.7414 109.908C87.6825 109.81 87.61 109.723 87.5432 109.675C87.5309 109.666 87.519 109.663 87.5109 109.658C87.4985 109.669 87.4793 109.685 87.4504 109.71C87.408 109.747 87.3285 109.818 87.2199 109.878L87.1017 109.933H87.1008C86.7581 110.06 86.45 109.942 86.2502 109.807C86.0544 109.674 85.9035 109.491 85.8019 109.335C85.7004 109.18 85.5793 108.972 85.4611 108.734L85.5012 108.889C85.5714 109.169 85.641 109.468 85.7355 109.757L85.8391 110.041C85.9989 110.435 86.1854 110.689 86.4045 110.811L86.5002 110.855ZM88.8019 111.452C89.1572 111.725 89.5607 111.754 89.9162 111.546L90.0656 111.443C90.2199 111.317 90.3551 111.156 90.4748 110.969L90.5891 110.774C90.6156 110.724 90.6951 110.558 90.8293 110.43V110.431C90.9238 110.34 91.0774 110.245 91.2629 110.219C90.9839 110.124 90.695 110.135 90.4816 110.24L90.3849 110.297V110.298C90.3255 110.341 90.2616 110.399 90.1789 110.478C90.1044 110.549 90.0036 110.649 89.9035 110.735C89.7288 110.884 89.4615 111.076 89.1066 111.091L88.9494 111.086C88.6139 111.051 88.3766 110.868 88.2121 110.682C88.3533 110.964 88.5183 111.204 88.715 111.38L88.8019 111.452ZM96.1935 113.447C96.511 113.61 96.844 113.582 97.0295 113.457L97.0998 113.398C97.1668 113.325 97.2198 113.221 97.2795 113.061C96.9797 113.088 96.6716 113.052 96.3801 112.936L96.2512 112.879C95.9142 112.714 95.5895 112.426 95.3898 112.277C95.1497 112.097 94.9982 112.029 94.8557 112.028C94.749 112.027 94.6394 112.06 94.4152 112.127C94.2495 112.177 94.0038 112.248 93.7297 112.232L93.6105 112.219C93.2263 112.159 92.9492 111.938 92.7531 111.725C92.6595 111.623 92.5725 111.508 92.4943 111.399L92.2892 111.101C92.228 111.012 92.1634 110.928 92.0978 110.849C92.1823 111.063 92.2679 111.3 92.3351 111.476C92.4207 111.7 92.5062 111.892 92.6144 112.06L92.6135 112.061C92.7745 112.31 93.07 112.507 93.3976 112.577C93.6802 112.638 93.9437 112.597 94.1457 112.461L94.2287 112.397L94.2297 112.396C94.254 112.374 94.3307 112.305 94.426 112.253C94.5156 112.205 94.6761 112.144 94.8664 112.185L94.9494 112.208L94.9504 112.209C95.1525 112.283 95.2599 112.451 95.2766 112.475L95.2775 112.474C95.6145 112.945 95.8255 113.255 96.1945 113.446L96.1935 113.447Z" fill="black" stroke="black"/>
<path d="M40.8744 32.9808C41.5221 33.4434 42.1104 33.8745 42.8237 34.2311C43.3141 34.4763 43.9412 34.5774 44.4834 34.6377C44.9711 34.6919 45.3404 34.5965 45.8256 34.4845C46.118 34.417 46.4367 34.1838 46.739 34.1838" stroke="#0A0A0A" stroke-linecap="round"/>
<path d="M43.0995 27.7581C42.9074 27.8302 43.1211 28.624 43.1747 28.755C43.2495 28.9379 43.3904 29.0663 43.5005 29.2228C43.8727 29.7517 44.3675 29.8132 44.9931 29.8132C45.8086 29.8132 46.4106 29.1075 46.2964 28.3206C46.2489 27.9937 45.9295 27.5458 45.7561 27.2568" stroke="#0A0A0A" stroke-linecap="round"/>
<path d="M35.9813 20.1234C38.4216 20.4334 40.4406 20.1264 42.4344 19.7045C44.568 19.2529 46.6312 18.6832 49.2264 18.5375L49.7264 18.515C52.2842 18.4293 55.6587 18.7129 57.9578 18.8959C58.5664 18.9443 59.1014 18.9853 59.5203 19.0101C59.9193 19.0337 60.2664 19.0464 60.4647 19.0219C60.509 19.0163 60.6049 19.0029 60.6991 18.9574C60.7451 18.9351 60.8506 18.8776 60.9256 18.7543C61.0196 18.5996 61.0179 18.4242 60.9608 18.2865C60.915 18.1765 60.8424 18.1095 60.8084 18.0805C60.7687 18.0465 60.7297 18.0208 60.701 18.0043C60.6433 17.9712 60.5786 17.9435 60.5194 17.9203C60.4028 17.8747 60.2394 17.8219 60.0291 17.7611L59.2547 17.5531C57.2654 17.0467 55.1382 16.4853 53.5086 16.0502C53.436 16.0308 53.3644 16.0114 53.2938 15.9926L53.1434 15.6215L49.2088 5.91834L49.1522 5.77869L49.0282 5.69373H49.0272L49.0262 5.69178C49.0251 5.69104 49.0232 5.69006 49.0213 5.68885C49.017 5.68591 49.0098 5.68158 49.0018 5.67615C48.9853 5.665 48.9609 5.64822 48.9295 5.62733C48.8666 5.58537 48.774 5.52424 48.6551 5.44764C48.4167 5.29407 48.0702 5.07631 47.6375 4.81971C46.7727 4.30679 45.557 3.63452 44.1561 2.99744C41.4683 1.77526 37.9927 0.634348 34.9862 1.11072L34.6971 1.16151C33.4254 1.41041 32.2003 1.57887 30.9813 1.78455C29.7768 1.98779 28.5999 2.22494 27.4989 2.60682C25.4065 3.33259 23.6006 4.57808 22.3143 7.05604L22.0643 7.56873C21.255 9.32967 21.0618 11.7897 21.0565 13.7494C21.0538 14.7404 21.0991 15.6257 21.1453 16.2631C21.1685 16.5819 21.1922 16.8405 21.2098 17.0189C21.2186 17.1078 21.2261 17.1775 21.2313 17.225C21.2339 17.2486 21.2357 17.2672 21.2371 17.2797C21.2379 17.2858 21.2387 17.291 21.2391 17.2943C21.2393 17.2958 21.24 17.2974 21.2401 17.2982V17.2992L21.7362 17.2406L21.2401 17.3002L21.2928 17.7406H28.0106L28.0252 17.7396L28.4881 17.7133C30.5914 18.6949 33.1346 19.6815 35.4871 20.0531L35.9813 20.1234Z" fill="white"/>
<path d="M35.9813 20.1234L35.9183 20.6195L35.9108 20.6184L35.9813 20.1234ZM42.4344 19.7045L42.5379 20.1936L42.5379 20.1936L42.4344 19.7045ZM49.2264 18.5375L49.1984 18.0382L49.204 18.038L49.2264 18.5375ZM49.7264 18.515L49.704 18.0155L49.7097 18.0153L49.7264 18.515ZM57.9578 18.8959L57.9182 19.3943L57.9182 19.3943L57.9578 18.8959ZM59.5203 19.0101L59.4908 19.5093L59.4908 19.5093L59.5203 19.0101ZM60.4647 19.0219L60.5264 19.518L60.5262 19.5181L60.4647 19.0219ZM60.6991 18.9574L60.9171 19.4074L60.9167 19.4076L60.6991 18.9574ZM60.9256 18.7543L61.353 19.0138L61.3528 19.0141L60.9256 18.7543ZM60.9608 18.2865L61.4224 18.0945L61.4226 18.0948L60.9608 18.2865ZM60.8084 18.0805L61.1334 17.7005L61.1337 17.7007L60.8084 18.0805ZM60.701 18.0043L60.9498 17.5706L60.9501 17.5708L60.701 18.0043ZM60.5194 17.9203L60.7017 17.4547L60.7018 17.4548L60.5194 17.9203ZM60.0291 17.7611L60.1589 17.2781L60.1681 17.2808L60.0291 17.7611ZM59.2547 17.5531L59.3781 17.0685L59.3844 17.0702L59.2547 17.5531ZM53.5086 16.0502L53.3796 16.5333L53.3796 16.5333L53.5086 16.0502ZM53.2938 15.9926L53.1646 16.4756L52.924 16.4112L52.8304 16.1804L53.2938 15.9926ZM53.1434 15.6215L53.6067 15.4336L53.6068 15.4337L53.1434 15.6215ZM49.2088 5.91834L49.6722 5.73041L49.6722 5.73045L49.2088 5.91834ZM49.1522 5.77869L49.4348 5.3662L49.5589 5.45127L49.6155 5.59076L49.1522 5.77869ZM49.0282 5.69373V5.19373H49.183L49.3107 5.28124L49.0282 5.69373ZM49.0272 5.69373V6.19373H48.7182L48.58 5.91734L49.0272 5.69373ZM49.0262 5.69178L49.3086 5.27917L49.4155 5.35233L49.4734 5.46817L49.0262 5.69178ZM49.0213 5.68885L48.7463 6.10649L48.7396 6.10193L49.0213 5.68885ZM49.0018 5.67615L48.7221 6.09058L48.7215 6.09021L49.0018 5.67615ZM48.9295 5.62733L49.2068 5.21126L49.2068 5.21128L48.9295 5.62733ZM48.6551 5.44764L48.9259 5.02729L48.9259 5.0273L48.6551 5.44764ZM47.6375 4.81971L47.8926 4.38965L47.8926 4.38966L47.6375 4.81971ZM44.1561 2.99744L44.3631 2.54229L44.3631 2.54229L44.1561 2.99744ZM34.9862 1.11072L34.8996 0.618196L34.9079 0.616884L34.9862 1.11072ZM34.6971 1.16151L34.601 0.670724L34.6106 0.669047L34.6971 1.16151ZM30.9813 1.78455L30.8981 1.29152L30.8981 1.29152L30.9813 1.78455ZM27.4989 2.60682L27.335 2.13443L27.335 2.13443L27.4989 2.60682ZM22.3143 7.05604L21.8647 6.83682L21.8705 6.82568L22.3143 7.05604ZM22.0643 7.56873L21.6099 7.35987L21.6149 7.34959L22.0643 7.56873ZM21.0565 13.7494L20.5565 13.748L20.5565 13.748L21.0565 13.7494ZM21.1453 16.2631L20.6467 16.2992L20.6467 16.2992L21.1453 16.2631ZM21.2098 17.0189L20.7122 17.0681L20.7122 17.0681L21.2098 17.0189ZM21.2313 17.225L21.7283 17.1703L21.7283 17.1703L21.2313 17.225ZM21.2371 17.2797L20.7405 17.3377L20.7404 17.3369L21.2371 17.2797ZM21.2391 17.2943L20.7459 17.3764L20.7439 17.3646L20.7425 17.3528L21.2391 17.2943ZM21.2401 17.2982L21.7366 17.2391L21.7401 17.2686V17.2982H21.2401ZM21.2401 17.2992L21.2987 17.7957L20.7401 17.8617V17.2992H21.2401ZM21.7362 17.2406L21.6775 16.7441L21.7958 17.737L21.7362 17.2406ZM21.2401 17.3002L20.7436 17.3596L20.6842 16.8633L21.1805 16.8037L21.2401 17.3002ZM21.2928 17.7406V18.2406H20.8491L20.7964 17.8L21.2928 17.7406ZM28.0106 17.7406L28.0438 18.2395L28.0272 18.2406H28.0106V17.7406ZM28.0252 17.7396L27.992 17.2407L27.9968 17.2404L28.0252 17.7396ZM28.4881 17.7133L28.4597 17.2141L28.5854 17.2069L28.6996 17.2602L28.4881 17.7133ZM35.4871 20.0531L35.4167 20.5482L35.4091 20.547L35.4871 20.0531ZM35.9813 20.1234L36.0443 19.6274C38.4033 19.9271 40.3586 19.6327 42.3309 19.2153L42.4344 19.7045L42.5379 20.1936C40.5226 20.6202 38.44 20.9398 35.9183 20.6194L35.9813 20.1234ZM42.4344 19.7045L42.3309 19.2153C44.4332 18.7704 46.5533 18.1868 49.1984 18.0383L49.2264 18.5375L49.2544 19.0367C46.7091 19.1796 44.7029 19.7354 42.5379 20.1936L42.4344 19.7045ZM49.2264 18.5375L49.204 18.038L49.704 18.0155L49.7264 18.515L49.7488 19.0145L49.2488 19.037L49.2264 18.5375ZM49.7264 18.515L49.7097 18.0153C52.3022 17.9285 55.7093 18.2154 57.9975 18.3975L57.9578 18.8959L57.9182 19.3943C55.6082 19.2105 52.2662 18.9302 49.7431 19.0147L49.7264 18.515ZM57.9578 18.8959L57.9975 18.3975C58.6064 18.4459 59.1367 18.4866 59.5499 18.511L59.5203 19.0101L59.4908 19.5093C59.0661 19.4841 58.5263 19.4427 57.9182 19.3943L57.9578 18.8959ZM59.5203 19.0101L59.5499 18.511C59.9621 18.5354 60.2595 18.5435 60.4032 18.5257L60.4647 19.0219L60.5262 19.5181C60.2733 19.5494 59.8766 19.5321 59.4908 19.5093L59.5203 19.0101ZM60.4647 19.0219L60.403 18.5257C60.4184 18.5238 60.4329 18.5216 60.4484 18.518C60.4647 18.5141 60.4757 18.51 60.4815 18.5072L60.6991 18.9574L60.9167 19.4076C60.7454 19.4904 60.5815 19.5112 60.5264 19.518L60.4647 19.0219ZM60.6991 18.9574L60.481 18.5074C60.4857 18.5052 60.4893 18.5031 60.4928 18.5004C60.4961 18.4978 60.4975 18.496 60.4984 18.4945L60.9256 18.7543L61.3528 19.0141C61.2049 19.2573 60.9988 19.3678 60.9171 19.4074L60.6991 18.9574ZM60.9256 18.7543L60.4983 18.4947C60.4995 18.4927 60.4999 18.4915 60.5001 18.491C60.5003 18.4903 60.5005 18.4894 60.5005 18.488C60.5006 18.4865 60.5005 18.4846 60.5002 18.4825C60.4998 18.4804 60.4992 18.4788 60.499 18.4782L60.9608 18.2865L61.4226 18.0948C61.5338 18.3627 61.5389 18.7077 61.353 19.0138L60.9256 18.7543ZM60.9608 18.2865L60.4991 18.4785C60.4985 18.4771 60.4972 18.4746 60.4943 18.4711C60.4915 18.4677 60.4884 18.4647 60.4832 18.4602L60.8084 18.0805L61.1337 17.7007C61.1915 17.7502 61.3326 17.8785 61.4224 18.0945L60.9608 18.2865ZM60.8084 18.0805L60.4834 18.4604C60.4775 18.4553 60.4712 18.4505 60.465 18.4462C60.4589 18.4419 60.4541 18.4391 60.4519 18.4378L60.701 18.0043L60.9501 17.5708C61.0017 17.6004 61.0669 17.6436 61.1334 17.7005L60.8084 18.0805ZM60.701 18.0043L60.4522 18.438C60.4265 18.4232 60.3887 18.4061 60.3369 18.3858L60.5194 17.9203L60.7018 17.4548C60.7685 17.4809 60.8601 17.5191 60.9498 17.5706L60.701 18.0043ZM60.5194 17.9203L60.337 18.3859C60.2421 18.3487 60.0961 18.301 59.8902 18.2414L60.0291 17.7611L60.1681 17.2808C60.3828 17.3429 60.5636 17.4006 60.7017 17.4547L60.5194 17.9203ZM60.0291 17.7611L59.8994 18.244L59.125 18.036L59.2547 17.5531L59.3844 17.0702L60.1588 17.2782L60.0291 17.7611ZM59.2547 17.5531L59.1314 18.0377C57.1394 17.5306 55.0101 16.9686 53.3796 16.5333L53.5086 16.0502L53.6376 15.5671C55.2663 16.002 57.3914 16.5628 59.3781 17.0686L59.2547 17.5531ZM53.5086 16.0502L53.3796 16.5333C53.3091 16.5144 53.2314 16.4934 53.1646 16.4756L53.2938 15.9926L53.423 15.5095C53.4974 15.5294 53.5629 15.5471 53.6376 15.5671L53.5086 16.0502ZM53.2938 15.9926L52.8304 16.1804L52.68 15.8093L53.1434 15.6215L53.6068 15.4337L53.7572 15.8048L53.2938 15.9926ZM53.1434 15.6215L52.68 15.8094L48.7455 6.10623L49.2088 5.91834L49.6722 5.73045L53.6067 15.4336L53.1434 15.6215ZM49.2088 5.91834L48.7455 6.10627L48.6888 5.96662L49.1522 5.77869L49.6155 5.59076L49.6722 5.73041L49.2088 5.91834ZM49.1522 5.77869L48.8696 6.19119L48.7456 6.10623L49.0282 5.69373L49.3107 5.28124L49.4348 5.3662L49.1522 5.77869ZM49.0282 5.69373V6.19373H49.0272V5.69373V5.19373H49.0282V5.69373ZM49.0272 5.69373L48.58 5.91734L48.579 5.91539L49.0262 5.69178L49.4734 5.46817L49.4744 5.47012L49.0272 5.69373ZM49.0262 5.69178L48.7438 6.10439C48.7513 6.10953 48.7576 6.11353 48.7618 6.11612C48.766 6.11877 48.7695 6.12084 48.7716 6.12207C48.7737 6.12331 48.7753 6.12424 48.7759 6.12457C48.7762 6.12476 48.777 6.12517 48.7761 6.12468C48.7754 6.12426 48.7715 6.12208 48.7669 6.11931C48.7621 6.11645 48.7549 6.11206 48.7463 6.10643L49.0213 5.68885L49.2963 5.27127C49.2887 5.26624 49.2824 5.26242 49.2785 5.26012C49.2765 5.25893 49.2749 5.25797 49.2738 5.25735C49.2728 5.25675 49.272 5.25632 49.272 5.2563C49.2716 5.25605 49.2727 5.2567 49.2734 5.25713C49.2744 5.25768 49.2764 5.25883 49.2789 5.26029C49.2814 5.26174 49.2852 5.26401 49.2898 5.26686C49.2942 5.26965 49.3008 5.27384 49.3086 5.27917L49.0262 5.69178ZM49.0213 5.68885L48.7396 6.10193C48.7421 6.1036 48.744 6.10487 48.745 6.10557C48.7462 6.1063 48.7469 6.10677 48.747 6.10687C48.7472 6.10697 48.7471 6.10692 48.7466 6.10657C48.7455 6.10591 48.7458 6.1061 48.7442 6.10509C48.7403 6.10259 48.7319 6.09719 48.7221 6.09058L49.0018 5.67615L49.2815 5.26173C49.2798 5.26055 49.2789 5.26003 49.2817 5.26178C49.2823 5.2622 49.2855 5.26422 49.2881 5.26591C49.2908 5.26761 49.2964 5.27126 49.303 5.27577L49.0213 5.68885ZM49.0018 5.67615L48.7215 6.09021C48.7018 6.0769 48.6817 6.063 48.6522 6.04337L48.9295 5.62733L49.2068 5.21128C49.2401 5.23344 49.2688 5.2531 49.2821 5.2621L49.0018 5.67615ZM48.9295 5.62733L48.6522 6.04339C48.591 6.00261 48.5007 5.94293 48.3843 5.86797L48.6551 5.44764L48.9259 5.0273C49.0474 5.10555 49.1421 5.16813 49.2068 5.21126L48.9295 5.62733ZM48.6551 5.44764L48.3844 5.86798C48.1504 5.71731 47.8092 5.50283 47.3825 5.24976L47.6375 4.81971L47.8926 4.38966C48.3312 4.64979 48.683 4.87084 48.9259 5.02729L48.6551 5.44764ZM47.6375 4.81971L47.3825 5.24976C46.5288 4.74348 45.3295 4.08033 43.9491 3.45259L44.1561 2.99744L44.3631 2.54229C45.7845 3.1887 47.0166 3.8701 47.8926 4.38965L47.6375 4.81971ZM44.1561 2.99744L43.9491 3.4526C41.2766 2.23736 37.9168 1.1526 35.0644 1.60456L34.9862 1.11072L34.9079 0.616884C38.0686 0.116092 41.66 1.31316 44.3631 2.54229L44.1561 2.99744ZM34.9862 1.11072L35.0727 1.60318L34.7836 1.65396L34.6971 1.16151L34.6106 0.669047L34.8997 0.618265L34.9862 1.11072ZM34.6971 1.16151L34.7931 1.65219C33.5146 1.90244 32.2622 2.07549 31.0645 2.27758L30.9813 1.78455L30.8981 1.29152C32.1383 1.08225 33.3362 0.918391 34.6011 0.670816L34.6971 1.16151ZM30.9813 1.78455L31.0645 2.27758C29.8668 2.47968 28.7232 2.71139 27.6627 3.07921L27.4989 2.60682L27.335 2.13443C28.4766 1.73848 29.6869 1.49591 30.8981 1.29152L30.9813 1.78455ZM27.4989 2.60682L27.6627 3.07921C25.6705 3.77022 23.9761 4.93994 22.7581 7.28639L22.3143 7.05604L21.8705 6.82568C23.225 4.21623 25.1424 2.89496 27.335 2.13443L27.4989 2.60682ZM22.3143 7.05604L22.7637 7.27518L22.5137 7.78788L22.0643 7.56873L21.6149 7.34959L21.8649 6.83689L22.3143 7.05604ZM22.0643 7.56873L22.5186 7.77753C21.7575 9.43351 21.5618 11.7994 21.5565 13.7508L21.0565 13.7494L20.5565 13.748C20.5619 11.78 20.7524 9.22584 21.61 7.35993L22.0643 7.56873ZM21.0565 13.7494L21.5565 13.7508C21.5538 14.7263 21.5985 15.5987 21.644 16.2269L21.1453 16.2631L20.6467 16.2992C20.5998 15.6526 20.5537 14.7544 20.5565 13.748L21.0565 13.7494ZM21.1453 16.2631L21.644 16.2269C21.6668 16.5406 21.6901 16.7948 21.7074 16.9698L21.2098 17.0189L20.7122 17.0681C20.6942 16.8862 20.6702 16.6232 20.6467 16.2992L21.1453 16.2631ZM21.2098 17.0189L21.7074 16.9697C21.7159 17.0565 21.7232 17.1243 21.7283 17.1703L21.2313 17.225L20.7343 17.2797C20.7289 17.2308 20.7212 17.1592 20.7122 17.0681L21.2098 17.0189ZM21.2313 17.225L21.7283 17.1703C21.7322 17.2056 21.7322 17.2084 21.7339 17.2224L21.2371 17.2797L20.7404 17.3369C20.7392 17.3259 20.7356 17.2916 20.7343 17.2796L21.2313 17.225ZM21.2371 17.2797L21.7338 17.2216C21.7334 17.2186 21.7331 17.2167 21.7333 17.2183C21.7334 17.2188 21.7334 17.2189 21.7336 17.2199C21.7337 17.2205 21.7338 17.2217 21.734 17.2229C21.7343 17.225 21.735 17.2299 21.7357 17.2358L21.2391 17.2943L20.7425 17.3528C20.7428 17.3552 20.743 17.357 20.7432 17.3581C20.7433 17.3592 20.7434 17.3599 20.7435 17.3601C20.7435 17.3603 20.7435 17.3603 20.7434 17.3598C20.7434 17.3596 20.7432 17.3585 20.7431 17.3578C20.7427 17.3544 20.7416 17.3468 20.7405 17.3377L21.2371 17.2797ZM21.2391 17.2943L21.7323 17.2122C21.7292 17.1933 21.7256 17.1785 21.7235 17.1705C21.7223 17.1661 21.7214 17.1626 21.7207 17.1603C21.7201 17.1581 21.7196 17.1564 21.7196 17.1563C21.7193 17.1554 21.7199 17.1573 21.7203 17.1588C21.7208 17.1606 21.7219 17.1645 21.7233 17.1696C21.7246 17.1744 21.7267 17.1826 21.7289 17.1929C21.73 17.1982 21.7313 17.2046 21.7326 17.2121C21.7339 17.2194 21.7353 17.2286 21.7366 17.2391L21.2401 17.2982L20.7436 17.3573C20.7448 17.3678 20.7462 17.3768 20.7475 17.3841C20.7488 17.3914 20.7501 17.3977 20.7512 17.4029C20.7533 17.4128 20.7553 17.4208 20.7566 17.4254C20.7578 17.4301 20.7588 17.4338 20.7593 17.4352C20.7596 17.4364 20.7601 17.4379 20.7597 17.4367C20.7596 17.4362 20.759 17.4342 20.7582 17.4316C20.7575 17.429 20.7564 17.4251 20.7552 17.4204C20.754 17.4157 20.7525 17.4096 20.7509 17.4024C20.7494 17.3953 20.7476 17.3865 20.7459 17.3764L21.2391 17.2943ZM21.2401 17.2982H21.7401V17.2992H21.2401H20.7401V17.2982H21.2401ZM21.2401 17.2992L21.1814 16.8027L21.6775 16.7441L21.7362 17.2406L21.7948 17.7372L21.2987 17.7957L21.2401 17.2992ZM21.7362 17.2406L21.7958 17.737L21.2997 17.7966L21.2401 17.3002L21.1805 16.8037L21.6766 16.7442L21.7362 17.2406ZM21.2401 17.3002L21.7365 17.2407L21.7893 17.6812L21.2928 17.7406L20.7964 17.8L20.7436 17.3596L21.2401 17.3002ZM21.2928 17.7406V17.2406H28.0106V17.7406V18.2406H21.2928V17.7406ZM28.0106 17.7406L27.9773 17.2417L27.992 17.2407L28.0252 17.7396L28.0585 18.2385L28.0438 18.2395L28.0106 17.7406ZM28.0252 17.7396L27.9968 17.2404L28.4597 17.2141L28.4881 17.7133L28.5166 18.2125L28.0537 18.2388L28.0252 17.7396ZM28.4881 17.7133L28.6996 17.2602C30.7874 18.2346 33.281 19.1984 35.5652 19.5592L35.4871 20.0531L35.4091 20.547C32.9882 20.1646 30.3954 19.1552 28.2767 18.1663L28.4881 17.7133ZM35.4871 20.0531L35.5576 19.5581L36.0517 19.6284L35.9813 20.1234L35.9108 20.6184L35.4167 20.5481L35.4871 20.0531Z" fill="black"/>
</svg>
