<svg width="567" height="154" viewBox="0 0 567 154" fill="none" xmlns="http://www.w3.org/2000/svg">
<g clip-path="url(#clip0_323_2002)">
<rect width="567" height="154" fill="black"/>
<path d="M435.148 134.484V51.4192H468.916C474.079 51.4192 478.649 51.8807 482.627 52.8036C486.689 53.7265 490.117 55.1109 492.91 56.9568C495.787 58.7188 497.945 60.9422 499.384 63.6272C500.907 66.3121 501.669 69.4585 501.669 73.0663C501.669 76.4224 500.95 79.443 499.511 82.1279C498.157 84.8128 495.914 86.9943 492.783 88.6724C489.736 90.2665 485.716 91.2734 480.723 91.6929V92.8256C489.27 93.2451 495.449 95.2168 499.257 98.7408C503.15 102.265 505.097 106.921 505.097 112.711C505.097 117.577 503.827 121.605 501.288 124.793C498.749 127.981 495.025 130.414 490.117 132.092C485.293 133.687 479.284 134.484 472.09 134.484H435.148ZM455.713 118.123H471.201C475.518 118.123 478.861 117.367 481.23 115.857C483.6 114.263 484.785 112.039 484.785 109.187C484.785 105.998 483.431 103.649 480.723 102.139C478.099 100.545 474.121 99.7476 468.789 99.7476H455.713V118.123ZM455.713 85.9036H466.758C471.582 85.9036 475.264 85.1065 477.803 83.5123C480.342 81.9181 481.611 79.5688 481.611 76.4644C481.611 73.5278 480.469 71.3463 478.184 69.9199C475.898 68.4097 472.471 67.6545 467.901 67.6545H455.713V85.9036Z" fill="transparent"/>
<path d="M332.323 134.484L315.36 51.4192H337.513L347.767 115.102H348.147L360.173 51.4192H384.352L396.758 115.102H397.138L407.139 51.4192H428.153L411.19 134.484H382.58L371.946 72.0595H371.567L360.68 134.484H332.323Z" fill="transparent"/>
<path d="M240.165 134.484L268.066 51.4192H294.579L322.355 134.484H300.261L281.575 67.9062H280.818L262.006 134.484H240.165ZM255.946 119.759V105.411H282.522H309.098V119.759H255.946Z" fill="transparent"/>
<path d="M151.33 134.484L134.367 51.4192H156.52L166.774 115.102H167.154L179.18 51.4192H203.359L215.765 115.102H216.145L226.145 51.4192H247.16L230.196 134.484H201.587L190.953 72.0595H190.573L179.686 134.484H151.33Z" fill="transparent"/>
<path fill-rule="evenodd" clip-rule="evenodd" d="M47.0531 102.568C55.6031 85.6619 64.3109 68.2289 74.2367 52.1215C75.6801 49.7789 77.662 47.8682 80.3115 46.9758C84.7093 45.496 102.07 46.0644 108.289 46.1C105.834 48.0937 90.5517 56.9218 86.6651 62.0342C84.0926 65.4223 82.6871 68.2325 81.3375 72.6103C78.1399 82.9764 67.767 114.586 71.3476 120.699C74.1501 125.481 81.0931 125.493 82.2898 123.752C83.6111 121.826 77.3417 121.322 76.7203 115.62C76.2055 110.889 83.4711 87.2047 85.2988 80.9316C87.4087 73.6914 88.9067 67.3389 95.6682 62.8495C99.3852 60.5947 110.687 54.0962 114.951 52.5594C115.73 54.9779 115.419 60.0049 114.25 65.3072C109.758 82.3498 96.4747 110.473 84.873 124.317C81.2212 128.674 77.5564 130.278 72.5217 128.227C65.8468 125.509 54.2487 118.107 47.7457 113.902C44.0749 111.53 45.3819 105.873 47.0531 102.568ZM89.2376 127.574C85.1636 132.987 81.8 149.175 76.7203 147.932C53.9095 138.645 33.5312 113.004 18.0085 99.2167C17.8935 96.8753 18.9455 95.3159 21.1645 94.5386C26.6072 93.0505 30.6586 88.8601 33.3177 81.9676C40.1077 69.5474 46.4814 59.6251 52.4388 52.2034C55.9281 47.8528 57.2351 44.9643 56.8164 39.9397C56.5448 36.6584 53.9972 32.9606 51.388 29.7161C44.6691 21.3556 53.1955 14.9212 61.5427 11.6826C67.0221 9.55953 75.7608 8.13783 81.4667 8.65049C122.681 9.35304 143.288 9.70193 143.288 9.70193C145.299 10.306 146.311 11.6316 146.327 13.6787L146.387 17.9746H268.129C268.618 15.079 271.148 12.8586 274.174 12.8586H330.397C333.42 12.8586 335.952 15.079 336.441 17.9746H476.414V17.9437C476.414 17.3516 476.9 16.865 477.492 16.865H478.985V15.6688C489.621 14.812 503.5 11.6826 503.5 11.6826C503.5 11.6826 537.208 -1.1398 547.839 -2.00017C547.839 2.74555 607 -21.2422 607 -16.5001C607 -11.7579 651.5 60.5615 651.5 65.3072C642.325 56.5955 546.712 183.197 547.839 165.5C555.5 45.134 489.621 34.7051 478.985 33.8447V32.766H477.492C476.9 32.766 476.414 32.2806 476.414 31.6884V31.5365H336.46C336.022 34.4891 333.462 36.7735 330.397 36.7735H274.174C271.107 36.7735 268.545 34.4891 268.108 31.5365H146.582L146.619 34.1426C146.832 36.357 145.352 37.5663 142.177 37.7668C135.171 37.7823 130.34 40.24 127.686 45.134C124.147 54.0357 120.914 63.2708 117.987 72.85C111.3 91.0235 105.379 103.577 100.224 110.504C96.6253 117.4 92.9629 123.092 89.2376 127.574Z" fill="transparent"/>
</g>
<defs>
<clipPath id="clip0_323_2002">
<rect width="567" height="154" fill="white"/>
</clipPath>
</defs>
</svg>