<svg width="233" height="407" viewBox="0 0 233 407" fill="none" xmlns="http://www.w3.org/2000/svg">
<path d="M159.136 335.079C153.017 337.442 146.547 337.322 141.554 336.588C139.024 336.216 136.884 335.688 135.378 335.253C134.625 335.036 134.031 334.841 133.627 334.702C133.498 334.658 133.388 334.618 133.299 334.586L132.476 326.473V326.472L131.593 317.653V317.652C131.516 316.898 131.379 316.14 131.25 315.41C131.152 314.857 131.058 314.319 130.992 313.79L130.936 313.265C130.825 311.962 131.033 310.753 130.143 309.285V309.286C129.777 308.68 129.419 308.176 129.114 307.605C128.858 307.124 128.678 306.66 128.628 306.184L128.614 305.979C128.601 305.494 128.727 305.011 128.861 304.429C128.973 303.946 129.089 303.395 129.047 302.82L129.018 302.573C128.913 301.898 128.585 301.331 128.256 300.839C127.95 300.383 127.665 300.017 127.433 299.614L127.338 299.44C126.521 297.869 126.822 295.905 127.379 294.01C127.885 292.285 128.613 290.364 128.51 288.401L128.477 288.007C128.357 286.933 127.982 285.944 127.57 285.012C127.2 284.176 126.816 283.414 126.503 282.619L126.373 282.276C125.503 279.863 125.496 277.292 125.628 274.606C125.75 272.115 125.996 269.504 125.71 266.956L125.645 266.447C125.44 265.003 125.048 263.586 124.662 262.205L124.285 260.838C123.126 256.461 122.823 252.108 122.779 247.708C122.741 243.894 122.901 239.958 122.852 236.025L122.818 234.339C122.701 230.377 122.612 226.414 122.546 222.449L122.486 218.484C122.231 199.444 121.989 180.27 123.187 161.277L172.571 161.027L171.613 171.277C171.211 175.581 170.809 179.884 170.407 184.188L169.2 197.097L166.304 228.1C165.484 236.882 164.663 245.664 163.844 254.446C163.674 256.254 163.433 258.121 163.302 259.975L163.253 260.769C163.141 262.908 163.699 265.055 164.315 267.065L164.928 269.023C165.796 271.834 166.405 274.733 166.254 277.627L166.214 278.206C166.098 279.523 165.815 280.818 165.52 282.148C165.228 283.467 164.921 284.822 164.779 286.21L164.78 286.211C164.635 287.623 164.864 289.035 165.183 290.394C165.343 291.073 165.529 291.752 165.705 292.411C165.837 292.909 165.964 293.397 166.075 293.878L166.179 294.358C166.484 295.841 166.706 297.284 166.3 298.561L166.21 298.814C165.959 299.452 165.552 300.017 165.128 300.693C164.722 301.341 164.315 302.076 164.224 302.942C164.135 303.803 164.382 304.617 164.61 305.33C164.819 305.984 165.011 306.554 165.053 307.122L165.061 307.365C165.056 308.352 164.548 309.059 163.874 309.813C163.55 310.174 163.163 310.573 162.845 310.981C162.518 311.399 162.223 311.871 162.07 312.432L162.059 312.471L162.055 312.511V312.513C162.055 312.514 162.055 312.516 162.054 312.519C162.054 312.524 162.054 312.531 162.053 312.54C162.05 312.559 162.048 312.588 162.044 312.624C162.036 312.698 162.024 312.805 162.01 312.937C161.981 313.201 161.94 313.566 161.893 313.975C161.8 314.793 161.682 315.776 161.585 316.448L160.634 323.041C160.069 327.039 159.53 331.051 159.136 335.079Z" fill="white" stroke="black"/>
<path d="M120.553 386.499C112.045 387.511 106.477 386.417 103.471 383.323L103.188 383.018C102.123 381.809 101.773 380.515 101.726 379.531C101.702 379.037 101.756 378.63 101.827 378.36C101.851 378.273 101.876 378.209 101.896 378.163L160.871 361.918C160.873 361.95 160.875 361.984 160.876 362.018C160.895 362.454 160.913 363.044 160.908 363.663C160.904 364.285 160.877 364.926 160.809 365.466C160.775 365.736 160.732 365.972 160.68 366.162C160.639 366.31 160.598 366.413 160.563 366.479L160.53 366.532C159.628 367.788 157.891 368.739 155.832 369.49C154.301 370.049 152.652 370.478 151.142 370.846L149.688 371.195C147.608 371.697 145.341 373.044 143.192 374.606C141.573 375.782 139.992 377.103 138.574 378.321L137.216 379.497C135.501 380.987 133.645 382.457 131.072 383.694C128.658 384.855 125.594 385.821 121.406 386.391L120.553 386.499Z" fill="#FEFFFF" stroke="black"/>
<path d="M118.409 384.329C114.079 384.48 110.525 383.998 107.845 383.111C105.323 382.276 103.624 381.099 102.745 379.801L102.58 379.541C101.858 378.311 101.486 376.377 101.578 374.49C101.665 372.705 102.157 371.106 103.005 370.214L103.178 370.045C104.665 368.722 106.57 367.567 108.579 366.501C110.106 365.69 111.627 364.963 113.081 364.243L114.51 363.522C120.035 360.672 125.855 356.73 129.176 353.364L129.49 353.04C131.409 351.017 131.882 348.021 131.867 345.358L131.857 344.831C131.664 338.077 131.032 325.863 130.405 318.572L130.28 317.182C130.123 315.527 130.1 314.364 130.138 313.552C130.174 313.594 130.221 313.649 130.28 313.713C130.425 313.87 130.642 314.091 130.939 314.353C131.534 314.879 132.448 315.574 133.741 316.276C136.249 317.638 140.172 319.018 145.946 319.252L146.51 319.271C152.575 319.435 156.566 318.534 159.058 317.573C160.304 317.093 161.173 316.598 161.737 316.216C162.019 316.026 162.224 315.864 162.362 315.746C162.431 315.687 162.483 315.639 162.519 315.604C162.537 315.587 162.552 315.573 162.562 315.562L162.582 315.543L162.218 315.199L162.583 315.542L162.695 315.423L162.715 315.261L162.96 313.324C163.142 313.468 163.277 313.65 163.376 313.883C163.573 314.345 163.652 315.034 163.601 316.066C163.526 317.616 163.175 319.76 162.693 322.724L162.174 325.97C161.461 330.527 160.719 334.957 160.283 338.853C159.848 342.739 159.711 346.159 160.236 348.682C161.249 353.547 162.176 356.966 160.9 362.78C159.711 364.787 157.752 365.96 155.554 366.822C154.445 367.257 153.293 367.607 152.164 367.948C151.183 368.244 150.214 368.535 149.331 368.868L148.958 369.012C145.231 370.513 141.015 373.426 137.258 376.561L136.512 377.191C134.538 378.881 131.422 380.62 128.072 381.964C124.931 383.223 121.635 384.113 118.94 384.3L118.409 384.329Z" fill="black" stroke="black"/>
<mask id="mask0_318_1738" style="mask-type:luminance" maskUnits="userSpaceOnUse" x="101" y="311" width="55" height="70">
<path d="M101.687 379.958L116.66 311.886H155.038V379.958H101.687Z" fill="white" stroke="white"/>
</mask>
<g mask="url(#mask0_318_1738)">
<g opacity="0.100006">
<path d="M102.127 378.553C101.709 377.393 101.509 375.928 101.579 374.489C101.666 372.704 102.159 371.107 103.006 370.215L103.18 370.046C104.666 368.722 106.571 367.566 108.58 366.5C110.107 365.689 111.628 364.963 113.082 364.243L114.511 363.522C120.035 360.672 125.856 356.73 129.177 353.364L129.49 353.041C131.409 351.018 131.882 348.022 131.868 345.359L131.858 344.831C131.664 338.077 131.033 325.863 130.405 318.572L130.28 317.182C130.123 315.526 130.101 314.364 130.139 313.552C130.175 313.594 130.221 313.648 130.28 313.713C130.426 313.87 130.643 314.09 130.941 314.353C131.535 314.879 132.448 315.574 133.741 316.276C136.249 317.638 140.173 319.018 145.946 319.253L146.511 319.271C149.845 319.361 152.555 319.129 154.736 318.741C154.152 319.738 153.094 320.441 151.905 320.989L151.331 321.239C149.48 322.002 147.532 322.536 145.549 322.825L145.55 322.826C144.801 322.934 143.941 323.032 143.148 323.251C142.395 323.458 141.651 323.785 141.052 324.372L140.934 324.493C140.165 325.317 139.867 326.421 139.67 327.41L139.59 327.825C138.79 332.134 138.216 336.486 137.868 340.855L137.733 342.729C137.659 343.88 137.595 345.148 137.925 346.36L137.996 346.601L138.106 346.913C138.379 347.628 138.776 348.268 139.185 348.865C139.545 349.392 139.901 349.867 140.227 350.359L140.54 350.859C140.925 351.51 141.21 352.264 141.285 352.985C141.351 353.613 141.257 354.189 140.965 354.662L140.827 354.858H140.826C140.603 355.141 140.304 355.368 139.953 355.59L139.586 355.811L139.585 355.812C135.364 358.29 130.705 359.934 126.033 361.68C121.67 363.312 117.303 365.031 113.382 367.604L112.604 368.131C111.415 368.958 110.148 369.977 109.493 371.422C108.858 372.82 108.948 374.768 110.212 375.86L110.338 375.964C110.61 376.174 110.928 376.359 111.218 376.526C111.52 376.7 111.793 376.855 112.027 377.019C112.263 377.185 112.413 377.331 112.493 377.466C112.544 377.551 112.571 377.636 112.564 377.74L112.544 377.851C112.494 378.043 112.339 378.196 112.002 378.292C111.747 378.365 111.437 378.387 111.128 378.373L110.821 378.346H110.82C108.354 378.048 105.927 377.426 103.621 376.503L103.331 376.386L103.1 376.595C102.495 377.141 102.23 377.832 102.127 378.553Z" fill="black" stroke="black"/>
</g>
</g>
<path d="M199.93 354.541C195.609 354.968 192.763 354.129 191.015 353.213C190.138 352.754 189.53 352.272 189.145 351.912C188.953 351.731 188.816 351.581 188.729 351.479C188.686 351.428 188.655 351.389 188.637 351.365C188.627 351.353 188.621 351.343 188.617 351.338L188.616 351.337V351.336C188.449 351.093 188.328 350.644 188.229 350.069C188.164 349.686 188.106 349.223 188.039 348.84L187.969 348.491V348.49L186.001 340.267L183.195 328.504L181.568 321.665C181.373 320.844 181.188 319.893 180.895 319.008C180.636 318.225 180.28 317.449 179.72 316.786L179.467 316.508C179.095 316.132 178.753 315.823 178.444 315.465C178.184 315.163 177.984 314.865 177.869 314.544L177.825 314.406C177.69 313.918 177.746 313.389 177.794 312.726C177.835 312.148 177.869 311.46 177.595 310.812L177.535 310.683C177.365 310.34 177.127 310.064 176.904 309.831C176.723 309.641 176.57 309.497 176.427 309.343L176.286 309.185C175.598 308.372 175.357 307.341 175.333 306.162C175.314 305.265 175.42 304.34 175.525 303.401L175.627 302.458C175.914 299.508 175.584 296.501 174.667 293.684L174.475 293.124C174.139 292.18 173.738 291.262 173.349 290.365C173.055 289.687 172.767 289.02 172.512 288.345L172.268 287.668C171.713 286.034 171.386 284.333 171.115 282.597L170.857 280.852L170.234 276.52C168.328 263.252 166.068 250.093 163.732 236.912L162.727 231.26C160.831 220.633 158.953 210.003 157.088 199.37L155.225 188.736C153.722 180.131 152.21 171.529 150.753 162.919C150.756 162.918 150.759 162.918 150.763 162.918C151.143 162.905 151.7 162.887 152.41 162.864C153.829 162.818 155.857 162.752 158.29 162.673C163.156 162.516 169.644 162.305 176.133 162.094C187.959 161.711 199.804 161.326 201.812 161.26C201.833 161.32 201.858 161.393 201.884 161.482C201.989 161.84 202.113 162.368 202.25 163.021C202.522 164.324 202.835 166.083 203.137 167.896C203.438 169.708 203.728 171.567 203.956 173.064L204.404 176.065L204.646 177.797C205.111 181.264 205.454 184.746 205.715 188.238L205.838 189.984C206.203 195.447 206.292 200.979 206.461 206.538L206.539 208.921C206.766 215.277 207.165 221.638 208.276 227.866L208.509 229.109V229.11L208.683 229.977V229.979L208.932 231.114C209.191 232.247 209.473 233.372 209.747 234.49C210.022 235.611 210.289 236.727 210.52 237.846L210.738 238.967C211.669 244.092 211.646 249.34 211.393 254.595L211.273 256.847C211.152 258.939 211.007 261.116 211.305 263.263L211.37 263.692C211.59 265.008 211.983 266.276 212.379 267.509C212.728 268.597 213.077 269.655 213.333 270.73L213.436 271.193C213.973 273.747 213.895 276.343 213.728 278.982L213.552 281.635V281.636C213.525 282.07 213.486 282.521 213.447 282.988C213.408 283.453 213.369 283.932 213.344 284.413C213.299 285.252 213.295 286.113 213.408 286.939L213.465 287.291C213.644 288.278 214.05 289.022 214.498 289.705C214.9 290.317 215.301 290.835 215.669 291.476L215.824 291.759C216.49 293.027 216.77 294.496 216.619 295.919L216.583 296.203C216.508 296.711 216.38 297.229 216.234 297.765C216.091 298.292 215.929 298.851 215.802 299.399C215.562 300.43 215.422 301.529 215.757 302.62L215.83 302.837L215.908 303.035C216.1 303.487 216.36 303.894 216.597 304.262C216.807 304.589 217 304.887 217.154 305.191L217.295 305.499C217.772 306.681 217.54 308.101 216.896 309.319L216.762 309.56C216.266 310.405 215.549 310.998 214.826 311.774C214.132 312.519 213.489 313.397 213.481 314.663C213.467 316.916 213.477 319.197 213.467 321.443C213.455 323.59 213.439 325.738 213.418 327.885L213.343 334.326C213.292 338.152 213.232 341.979 213.156 345.804L213.075 349.629C213.075 349.645 213.075 349.658 213.075 349.667C213.075 349.674 213.076 349.681 213.076 349.687C213.066 349.697 213.056 349.708 213.045 349.718C212.935 349.824 212.763 349.981 212.524 350.174C212.047 350.561 211.303 351.094 210.252 351.66C208.283 352.72 205.23 353.899 200.828 354.441L199.93 354.541Z" fill="white" stroke="black"/>
<path d="M205.991 406.002C201.595 407.117 196.474 405.874 193.923 402.796L193.684 402.492C190.536 398.27 189.556 394.238 189.035 388.337L218.982 382.575C219.931 387.613 219.414 391.696 217.867 395.868L217.533 396.731C215.529 401.713 210.569 404.84 205.991 406.002Z" fill="#FEFFFF" stroke="black"/>
<path d="M205.019 403.505C200.975 404.364 196.883 403.707 194.25 400.613L194 400.305C189.709 394.8 188.562 388.949 188.675 381.042L188.689 380.271C188.793 375.956 189.082 372.398 189.236 369.051C189.38 365.925 189.402 363.013 189.03 359.945L188.95 359.329C188.026 352.621 187.76 349.208 186.279 343.955C184.991 339.387 182.715 331.567 181.144 325.729L180.519 323.364C180.008 321.384 179.964 320.231 180.051 319.578C180.188 320.03 180.307 320.537 180.411 321.076L180.434 321.198L180.512 321.294L180.852 321.021C180.512 321.294 180.512 321.295 180.513 321.295H180.514L180.519 321.304C180.523 321.309 180.528 321.314 180.534 321.321C180.545 321.334 180.561 321.352 180.581 321.373C180.621 321.417 180.678 321.478 180.755 321.551C180.908 321.698 181.138 321.9 181.458 322.131C182.098 322.595 183.097 323.179 184.557 323.703C187.388 324.717 191.94 325.498 198.977 324.741L199.666 324.663C205.711 323.942 209.405 321.733 211.594 319.669C212.685 318.64 213.396 317.653 213.836 316.917C214.056 316.55 214.208 316.244 214.307 316.028C214.356 315.92 214.391 315.834 214.415 315.773C214.427 315.742 214.437 315.718 214.443 315.701C214.446 315.692 214.448 315.685 214.45 315.68C214.451 315.677 214.452 315.675 214.453 315.673L214.454 315.671V315.67C214.454 315.67 214.454 315.67 213.981 315.507L214.454 315.669L214.481 315.59V314.981C214.536 315.001 214.579 315.022 214.613 315.045C214.707 315.111 214.795 315.223 214.86 315.456C214.929 315.698 214.962 316.031 214.971 316.485C214.975 316.71 214.972 316.955 214.968 317.222L214.948 318.097C214.901 320.187 214.826 323.913 214.739 328.299L214.462 342.464C214.299 350.78 214.545 353.492 215.541 359.603L216.015 362.456C216.598 365.94 217.07 368.395 217.545 370.888C217.9 372.757 218.257 374.648 218.662 377.013L219.085 379.552C220.41 387.734 218.188 392.959 215.173 397.283L215.172 397.282C213.183 400.133 209.2 402.618 205.019 403.505Z" fill="black" stroke="black"/>
<mask id="mask1_318_1738" style="mask-type:luminance" maskUnits="userSpaceOnUse" x="179" y="318" width="36" height="84">
<path d="M180.013 400.542V318.861H213.591V400.542H180.013Z" fill="white" stroke="white"/>
</mask>
<g mask="url(#mask1_318_1738)">
<g opacity="0.100006">
<path d="M202.969 400.181C199.835 400.827 196.493 400.598 193.447 399.553C189.739 394.431 188.636 388.949 188.667 381.746L188.689 380.271C188.793 375.956 189.082 372.398 189.236 369.05C189.379 365.924 189.402 363.012 189.03 359.944L188.951 359.327C188.027 352.621 187.76 349.208 186.279 343.954C184.991 339.387 182.715 331.567 181.144 325.729L180.519 323.364C180.007 321.384 179.964 320.231 180.05 319.577C180.187 320.03 180.307 320.537 180.411 321.076L180.434 321.198L180.511 321.294L180.852 321.021C180.512 321.294 180.512 321.295 180.512 321.295L180.515 321.298C180.516 321.3 180.517 321.302 180.519 321.304C180.523 321.308 180.528 321.314 180.534 321.321C180.545 321.334 180.561 321.352 180.581 321.373C180.62 321.417 180.678 321.478 180.754 321.551C180.908 321.698 181.138 321.9 181.458 322.131C182.098 322.595 183.097 323.179 184.557 323.702C187.387 324.717 191.94 325.498 198.977 324.741L199.666 324.662C202.316 324.347 204.493 323.735 206.311 322.984C206.68 323.004 206.916 323.086 207.05 323.224L207.106 323.291C207.212 323.451 207.232 323.709 207.154 324.034L207.114 324.179V324.18C206.651 325.687 205.375 326.572 203.739 327.417C202.963 327.818 202.029 328.246 201.213 328.686C200.476 329.083 199.749 329.531 199.114 330.086L198.847 330.33C197.37 331.755 196.702 333.628 196.446 335.586C196.222 337.296 196.308 339.105 196.462 340.8L196.532 341.519L198.293 358.899C198.536 361.297 198.811 363.898 200 366.135L200.25 366.577H200.25C200.908 367.67 201.803 368.646 202.56 369.572C203.287 370.461 203.91 371.328 204.248 372.32L204.311 372.52L204.378 372.769C204.683 374.018 204.515 375.304 204.14 376.649C203.94 377.365 203.686 378.085 203.419 378.818C203.221 379.363 203.015 379.917 202.827 380.472L202.645 381.026C202.324 382.043 201.889 383.453 201.692 384.869C201.509 386.182 201.516 387.594 202.092 388.722L202.215 388.944C203.026 390.292 204.596 390.908 206.153 391.148C207.531 391.36 208.996 391.294 210.165 391.114L210.647 391.03C211.215 390.919 211.771 390.806 212.273 390.813C212.704 390.819 213.02 390.913 213.244 391.118L213.333 391.213C213.494 391.409 213.581 391.69 213.59 392.007L213.589 392.146V392.147C213.556 393.037 213.03 393.855 212.346 394.65L212.044 394.989C209.683 397.569 207.002 399.208 203.649 400.028L202.969 400.181Z" fill="black" stroke="black"/>
</g>
</g>
<path d="M73.9424 160.158C76.2131 157.074 82.4171 147.488 88.1895 138.459C91.2665 133.646 94.2284 128.98 96.421 125.517C97.5171 123.785 98.4209 122.354 99.0508 121.357C99.3658 120.858 99.6126 120.466 99.7803 120.2C99.8642 120.067 99.9285 119.965 99.9717 119.897C99.9932 119.862 100.01 119.837 100.021 119.819C100.025 119.813 100.029 119.808 100.031 119.804L102.254 116.74C102.317 116.735 102.405 116.731 102.517 116.738C102.841 116.76 103.382 116.863 104.158 117.218C105.619 117.887 107.896 119.443 111.106 122.993L111.76 123.731C115.277 127.76 116.949 132.075 117.742 135.386C118.139 137.041 118.315 138.442 118.392 139.427C118.43 139.919 118.443 140.307 118.447 140.569C118.448 140.598 118.448 140.626 118.448 140.651C118.416 140.665 118.382 140.679 118.346 140.695C118.097 140.806 117.753 140.961 117.375 141.143C116.631 141.499 115.711 141.977 115.131 142.415L115.091 142.446L115.057 142.484L92.4551 168.296L73.9424 160.158Z" fill="white" stroke="black"/>
<path d="M64.77 184.318C65.2787 181.724 66.2088 179.246 67.226 176.77L68.3246 174.131C68.4827 173.751 68.6701 173.347 68.8676 172.919C69.0635 172.495 69.2692 172.049 69.4584 171.596C69.7873 170.809 70.0802 169.97 70.1879 169.141L70.2231 168.787C70.2652 168.117 69.9866 167.611 69.5483 167.281C69.1371 166.971 68.6113 166.834 68.1391 166.784V166.783C67.8751 166.755 67.5473 166.801 67.2924 166.837C67.0111 166.878 66.7751 166.914 66.5844 166.918L66.6498 166.777C68.5114 163.336 71.8099 160.954 75.1284 158.656L76.5473 157.672C79.3438 155.725 82.2053 153.884 85.35 152.791L85.9828 152.582C87.9195 151.979 89.936 151.679 91.9877 151.455L94.0493 151.247C95.1153 151.144 96.0944 151.071 96.9389 151.388L97.1059 151.458C98.2118 151.953 98.9321 153.196 99.0795 154.51C99.2086 155.661 98.9619 156.837 98.5815 158.012L98.4106 158.516C97.6855 160.575 96.716 162.539 95.6782 164.49L94.6245 166.44C93.3465 168.784 92.0774 171.111 90.6254 173.313L89.9916 174.249C89.0866 175.547 88.1156 176.76 86.8774 177.578L86.6264 177.736C85.9671 178.131 85.2413 178.409 84.476 178.663L83.6977 178.913C79.4859 180.234 75.2608 181.514 71.0229 182.751L66.7807 183.973C66.0527 184.181 65.3884 184.352 64.77 184.318Z" fill="black" stroke="black"/>
<mask id="mask2_318_1738" style="mask-type:luminance" maskUnits="userSpaceOnUse" x="64" y="150" width="36" height="35">
<path d="M64.682 184.322V151.159H99.1146V184.322H64.682Z" fill="white" stroke="white"/>
</mask>
<g mask="url(#mask2_318_1738)">
<g opacity="0.149994">
<path d="M64.7708 184.318C65.2796 181.724 66.2097 179.246 67.2269 176.77L68.3255 174.131C68.4836 173.751 68.671 173.347 68.8685 172.919C69.0644 172.495 69.2701 172.049 69.4593 171.596C69.7882 170.809 70.0811 169.97 70.1888 169.141L70.224 168.787C70.2661 168.116 69.9875 167.611 69.5492 167.281C69.1379 166.971 68.6122 166.833 68.14 166.784V166.783C67.8759 166.755 67.5482 166.801 67.2933 166.837C67.012 166.878 66.7759 166.914 66.5853 166.917L66.6507 166.777C68.5123 163.336 71.8108 160.954 75.1292 158.656L76.5482 157.672C79.3447 155.725 82.2062 153.884 85.3509 152.79L85.9837 152.581C87.9204 151.979 89.9369 151.679 91.9886 151.455L94.0501 151.247C95.1162 151.144 96.0953 151.071 96.9398 151.388L97.1068 151.457C98.2127 151.953 98.933 153.196 99.0804 154.51C99.2095 155.661 98.9628 156.837 98.5824 158.012L98.4115 158.516C97.6864 160.575 96.7169 162.538 95.679 164.49L94.6253 166.44C93.3474 168.784 92.0783 171.111 90.6263 173.313L89.9925 174.248C89.0874 175.546 88.1165 176.76 86.8783 177.578L86.6273 177.736C85.968 178.13 85.2422 178.409 84.4769 178.663L83.6986 178.913C79.4868 180.234 75.2617 181.514 71.0238 182.75L66.7816 183.973C66.0536 184.18 65.3892 184.352 64.7708 184.318Z" fill="black" stroke="black"/>
</g>
</g>
<path d="M63.0706 173.927C62.2247 174.27 61.3259 174.34 60.345 173.937L60.1478 173.85H60.1468C60.0048 173.784 59.9093 173.724 59.847 173.665L59.7952 173.607L59.7943 173.605C59.775 173.578 59.7535 173.531 59.7523 173.443L59.7591 173.339V173.339C59.7911 173.076 59.9379 172.736 60.1429 172.36C60.2418 172.178 60.3461 172.003 60.4446 171.837C60.492 171.756 60.5398 171.675 60.5843 171.597L60.7044 171.375C60.9387 170.906 61.177 170.438 61.4183 169.972L62.1507 168.579C62.5502 167.831 62.9589 167.087 63.3714 166.345L64.6175 164.121H64.6185C64.8428 163.722 65.1883 163.339 65.5941 162.937C65.8842 162.65 66.2188 162.34 66.5218 162.026L66.8118 161.712C67.4237 161.01 68.2369 160.234 69.0091 159.662L69.3362 159.429C69.9601 159.009 70.8399 158.553 71.6419 158.151L72.4056 157.771H72.4066C73.9303 157.01 75.2808 156.359 76.5345 155.142L76.7835 154.891C77.8482 153.78 78.5193 152.86 79.1526 151.905L79.7864 150.93C80.8791 149.239 83.1708 145.527 85.1859 142.243C86.1941 140.6 87.1345 139.062 87.8226 137.935C88.1666 137.372 88.4478 136.91 88.6429 136.59C88.7141 136.474 88.7744 136.376 88.8216 136.298C97.9462 135.2 106.674 140.317 110.724 148.226L95.3821 165.228L89.2874 163.628L89.1751 163.598L89.0609 163.621V163.622H89.0599C89.059 163.622 89.0575 163.622 89.056 163.623L88.9827 163.637C88.931 163.648 88.8543 163.663 88.7562 163.683C88.5597 163.723 88.2756 163.78 87.9261 163.85C87.2268 163.991 86.2643 164.185 85.2122 164.395C84.1595 164.606 83.0174 164.833 81.9593 165.042L79.2103 165.577C77.8209 165.841 76.4786 165.835 75.0228 165.971C73.6915 166.096 72.3367 166.34 71.0384 167.063L70.7796 167.214L70.7786 167.214C69.7303 167.855 68.8496 168.674 68.0374 169.52C67.4085 170.175 66.8546 170.807 66.2708 171.426L65.6732 172.042V172.043C64.8615 172.85 63.9943 173.553 63.0706 173.927Z" fill="black" stroke="black"/>
<path d="M116.484 142.598C116.69 142.331 116.889 141.973 117.035 141.495C117.435 140.187 117.441 138.001 116.23 134.32L115.971 133.563C113.065 125.363 105.824 121.035 100.202 119.191C100.664 117.332 101.674 115.563 102.619 114.212C103.126 113.489 103.607 112.894 103.961 112.482C104.138 112.276 104.282 112.115 104.382 112.007C104.432 111.953 104.471 111.912 104.496 111.885C104.509 111.872 104.518 111.861 104.525 111.855C104.528 111.852 104.53 111.849 104.531 111.848L104.532 111.846H104.533L104.577 111.801L104.609 111.746L104.61 111.745C104.61 111.745 104.61 111.744 104.611 111.742C104.612 111.74 104.615 111.737 104.617 111.732C104.623 111.722 104.632 111.707 104.643 111.688C104.665 111.649 104.698 111.591 104.741 111.516C104.828 111.365 104.957 111.143 105.121 110.858C105.451 110.287 105.925 109.463 106.509 108.452C107.676 106.431 109.277 103.662 111.011 100.669C113.612 96.1789 116.511 91.1866 118.696 87.4602L120.605 84.2209C122.736 80.6339 124.469 77.9669 126.66 75.9622C128.737 74.0625 131.25 72.7387 134.961 71.8372L139.64 109.399C139.614 109.446 139.582 109.503 139.544 109.573C139.431 109.779 139.265 110.081 139.053 110.468C138.628 111.242 138.015 112.351 137.27 113.693C135.779 116.375 133.753 119.987 131.614 123.701C129.475 127.417 127.225 131.232 125.284 134.323C124.314 135.87 123.422 137.23 122.663 138.306C121.992 139.257 121.442 139.959 121.04 140.371L120.877 140.53C119.122 142.134 117.78 142.549 116.928 142.604C116.764 142.614 116.616 142.609 116.484 142.598Z" fill="white" stroke="black"/>
<path d="M124.854 169.08C124.725 161.514 124.182 126.613 124.816 108.757L124.883 107.044C125.425 94.3831 127.448 86.373 129.674 81.1063C131.856 75.9425 134.239 73.3952 135.695 71.6346C135.734 71.6211 135.798 71.5979 135.896 71.5702C136.072 71.5206 136.311 71.4617 136.607 71.3944C137.199 71.2599 137.999 71.0967 138.938 70.9159C140.817 70.5544 143.237 70.1248 145.632 69.7118C148.025 69.2989 150.391 68.9034 152.158 68.6112C153.041 68.4651 153.775 68.3444 154.288 68.2606C154.544 68.2188 154.745 68.1862 154.883 68.1639C154.951 68.1528 155.003 68.1443 155.039 68.1385C155.047 68.1373 155.054 68.1366 155.06 68.1356L177.202 67.3407C188.926 69.7339 194.514 71.4072 198.118 72.4882C198.131 72.508 198.146 72.5297 198.162 72.5536C198.255 72.6933 198.391 72.9025 198.563 73.1766C198.908 73.7249 199.398 74.5332 199.971 75.5692C201.118 77.6418 202.601 80.6219 203.939 84.2469C206.534 91.2763 208.574 100.697 206.612 110.62L206.409 111.582C205.867 114.008 204.943 121.07 204.08 128.764C203.324 135.506 202.611 142.769 202.242 147.891L202.106 149.947C201.709 156.647 201.529 160.283 202.049 167.589L124.854 169.08Z" fill="white" stroke="black"/>
<path d="M173.456 108.986C173.566 107.421 173.728 105.743 173.966 103.958L174.087 103.096C175.445 93.6621 177.906 85.9803 180.654 80.3232C183.35 74.7731 186.29 71.2409 188.681 69.8604L194.192 71.3008C191.731 73.0661 188.99 76.5629 186.579 81.5488C183.909 87.0678 181.612 94.4705 180.535 103.533L180.434 104.415C180.262 105.993 180.129 107.469 180.02 108.859L173.456 108.986Z" stroke="black"/>
<path d="M126.68 101.512L126.851 100.536C128.06 94.1381 130.587 87.5359 133.277 82.0677C135.924 76.688 138.703 72.4642 140.501 70.6166C142.021 70.292 143.815 69.9758 145.251 69.7396C145.597 69.6826 145.923 69.6341 146.218 69.5873C145.498 70.3695 144.68 71.4167 143.819 72.6566C142.4 74.7013 140.827 77.3185 139.329 80.2533C136.43 85.9311 133.785 92.845 133.092 99.1361L133.031 99.7426C132.969 100.431 132.915 101.102 132.861 101.763L126.619 101.884C126.639 101.76 126.659 101.636 126.68 101.512Z" stroke="black"/>
<path d="M203.305 169.252C176.079 179.241 148.816 179.362 123.063 170.029C123.102 160.187 123.013 151.825 123.075 142.387L123.112 138.218C123.205 130.036 123.554 124.257 123.874 118.487C124.257 111.571 126.135 104.199 126.781 100.908C135.14 100.136 145.04 100.533 148.709 100.718L149.887 100.781C160.146 101.349 170.361 102.718 180.407 104.87C180.041 111.13 180.84 120.752 182.211 129.647C182.914 134.203 183.769 138.583 184.699 142.237C185.567 145.646 186.51 148.47 187.478 150.211L187.672 150.544C190.016 154.394 195.25 159.134 201.802 160.216C202.262 162.578 203.032 166.744 203.305 169.252Z" fill="white" stroke="black"/>
<path d="M191.531 32.9209L192.717 34.8369C192.65 34.9182 192.541 35.0187 192.387 35.1338C192.078 35.3654 191.653 35.6071 191.209 35.8311C190.947 35.9631 190.684 36.0852 190.444 36.1924L191.531 32.9209Z" fill="black" stroke="black"/>
<mask id="mask3_318_1738" style="mask-type:luminance" maskUnits="userSpaceOnUse" x="189" y="31" width="5" height="7">
<path d="M190.121 36.5775V32.2494H192.773V36.5775H190.121Z" fill="white" stroke="white"/>
</mask>
<g mask="url(#mask3_318_1738)">
<g opacity="0.300003">
<path d="M191.531 32.9203L192.717 34.8364C192.65 34.9176 192.541 35.0181 192.387 35.1332C192.078 35.3648 191.653 35.6065 191.209 35.8305C190.947 35.9625 190.684 36.0847 190.444 36.1918L191.531 32.9203Z" fill="black" stroke="black"/>
</g>
</g>
<path d="M180.592 47.1049L180.975 39.9545L180.988 39.7172L180.812 39.558L180.809 39.5551C180.806 39.5529 180.802 39.5489 180.797 39.5443C180.787 39.5351 180.772 39.5209 180.752 39.5023C180.712 39.4644 180.651 39.4071 180.573 39.3324C180.419 39.1829 180.195 38.9629 179.925 38.682C179.385 38.1197 178.661 37.317 177.921 36.3578C176.522 34.5423 175.12 32.2283 174.757 29.9457L174.698 29.4896C174.386 26.2527 174.862 23.7269 175.41 22.0179C175.685 21.163 175.977 20.5113 176.198 20.0775C176.309 19.8609 176.402 19.6983 176.466 19.5922C176.483 19.5638 176.499 19.5402 176.512 19.5199L184.875 14.0355C184.976 14.0521 185.123 14.0801 185.306 14.1273C185.694 14.2275 186.246 14.4118 186.878 14.7484C188.06 15.3772 189.54 16.5439 190.774 18.7123L191.017 19.1595C192.22 21.4726 193.199 25.7849 189.945 38.1908L189.616 39.4164C187.43 47.4219 184.85 51.1575 183.481 53.601L183.223 54.0736C182.65 55.163 181.772 55.8693 181.022 56.306C180.774 56.4501 180.542 56.5628 180.344 56.6498L180.592 47.1049Z" fill="#FEFFFF" stroke="black"/>
<path d="M140.126 25.5387C138.409 23.4978 138.45 19.8344 141.209 18.069L141.361 17.9723L141.415 17.8004C143.714 10.6238 146.459 6.28616 149.989 3.80042C153.294 1.47341 157.364 0.715162 162.596 0.882446L163.658 0.928345C177.466 1.6664 184.5 8.28551 185.616 13.692L176.094 23.1901L140.126 25.5387Z" fill="#FEFFFF" stroke="black"/>
<path d="M180.439 69.5007C175.445 76.0616 166.342 78.1915 159.796 77.4031C158.158 77.2058 156.7 76.8274 155.523 76.3025C154.342 75.7756 153.475 75.1152 152.972 74.3728C152.482 73.6474 152.32 72.8178 152.585 71.8718C152.855 70.9051 153.583 69.7828 154.943 68.5369L155.104 68.3894L155.105 68.1707L155.128 63.3337L155.13 62.8308L154.627 62.8318H154.61C154.598 62.8317 154.578 62.8312 154.552 62.8308C154.501 62.83 154.423 62.8283 154.32 62.825C154.114 62.8183 153.808 62.8047 153.415 62.7771C152.824 62.7357 152.037 62.6635 151.09 62.5349L150.093 62.3865H150.092C145.744 61.6996 141.657 57.8101 140.168 53.0652L140.031 52.6033C138.054 45.3971 138.506 34.4227 141.12 22.073L141.38 20.8738C141.896 18.5411 142.845 16.1902 144.679 15.0789C146.591 17.277 148.415 18.4443 150.216 18.9548C152.098 19.4878 153.893 19.2874 155.626 18.9011C156.488 18.7088 157.355 18.465 158.204 18.24C159.06 18.0132 159.908 17.8024 160.767 17.6619C162.371 17.3996 164 17.3852 165.733 17.9832L166.082 18.1111C167.726 18.7519 169.876 19.4968 171.886 19.9587C172.891 20.1896 173.875 20.3536 174.751 20.3943C175.039 20.4077 175.321 20.4066 175.593 20.3904C175.502 20.5788 175.418 20.7749 175.344 20.9705C175.137 21.5186 174.982 22.0956 174.89 22.5339L174.82 22.9197C174.738 23.4695 174.626 24.0065 174.522 24.5925C174.446 25.0222 174.376 25.4655 174.338 25.9158L174.31 26.3679V26.3689C174.228 28.8545 175.12 31.3952 176.84 33.2263L177.195 33.5828C177.521 33.8921 177.773 34.1013 177.944 34.3572L178.012 34.4705V34.4714L178.085 34.6277C178.149 34.7906 178.189 34.9747 178.214 35.1853C178.232 35.3326 178.242 35.4766 178.25 35.6267L178.274 36.1072C178.326 36.9532 178.506 37.911 179.092 38.6726H179.093C179.642 39.386 180.64 39.9027 181.609 39.6628L181.802 39.6052C182.379 39.4 182.73 39.0162 182.98 38.615C183.102 38.4196 183.204 38.2144 183.294 38.0261L183.556 37.489C183.921 36.8072 184.41 36.0708 184.928 35.4841L185.152 35.2429C185.447 34.9396 185.984 34.6064 186.689 34.3621C187.386 34.1203 188.212 33.9777 189.058 34.0222C190.623 34.1046 192.276 34.8245 193.371 36.8171L193.583 37.2332C195.793 41.976 194.313 47.8744 189.88 49.9177L189.441 50.1042C186.808 51.1238 184.999 50.6173 183.854 49.907C183.271 49.5451 182.845 49.1199 182.565 48.7859C182.426 48.6195 182.324 48.4772 182.258 48.3787C182.226 48.3294 182.202 48.2908 182.187 48.2664C182.18 48.2547 182.175 48.246 182.173 48.241C182.171 48.2388 182.17 48.2368 182.17 48.2361V48.2371L181.3 46.6501L181.232 48.4587L180.439 69.5007Z" fill="white" stroke="black"/>
<path d="M155.125 63.8252C160.944 63.7549 166.165 63.0365 169.797 61.5986L170.154 61.4531C172.098 60.6331 173.887 58.9317 175.318 56.8457C175.81 56.1281 176.262 55.3593 176.666 54.5586C176.459 55.2774 176.204 56.0064 175.894 56.7246C174.868 59.1014 173.265 61.3318 170.896 62.7412L170.411 63.0117C165.217 65.736 159.184 65.9954 155.116 66.0889L155.125 63.8252Z" fill="black" stroke="black"/>
<path d="M165.678 27.824C166.231 26.953 167.27 26.5554 168.239 26.8494L168.461 26.9294C169.49 27.3628 170.074 28.4891 169.893 29.5994L165.678 27.824Z" fill="#FEFFFF" stroke="black"/>
<path d="M144.328 25.8315C144.197 24.8081 144.718 23.7776 145.633 23.3003L145.854 23.1997C146.904 22.7832 148.049 23.1922 148.614 24.1294L144.328 25.8315Z" fill="#FEFFFF" stroke="black"/>
<path d="M165.735 35.0027C164.797 34.9685 164.052 34.2285 163.992 33.3113L163.989 33.1257C164.025 32.1254 164.865 31.3434 165.866 31.3796C166.803 31.4129 167.549 32.1538 167.609 33.0701L167.612 33.2556C167.579 34.1937 166.838 34.9395 165.92 34.9998L165.735 35.0027Z" fill="#FEFFFF" stroke="black"/>
<path d="M148.387 33.8471C147.45 33.8129 146.704 33.0722 146.644 32.1557L146.641 31.9702C146.678 30.9691 147.517 30.1877 148.518 30.2231L148.748 30.2397C149.262 30.2969 149.621 30.4798 149.854 30.7309C150.088 30.982 150.244 31.3529 150.264 31.8696V32.1C150.231 33.0373 149.49 33.7839 148.573 33.8442L148.387 33.8471Z" fill="#FEFFFF" stroke="black"/>
<path d="M223.111 367.221C221.953 367.221 220.794 366.936 219.726 366.362L220.354 365.361C222.2 366.32 224.374 366.264 226.176 365.188L226.362 365.073C228.279 363.838 229.311 361.691 229.086 359.436L229.059 359.219L226.85 342.937C225.363 331.969 220.277 321.672 212.495 313.819L211.733 313.066L149.41 252.812C137.052 240.865 128.874 225.653 125.725 208.775L125.579 207.969L122.428 190.124L123.589 189.92L126.738 207.765C129.685 224.452 137.603 239.523 149.653 251.402L150.229 251.965L212.553 312.219C220.692 320.089 226.101 330.521 227.86 341.694L228.019 342.778L230.228 359.059C230.594 361.769 229.447 364.368 227.221 365.917L227.002 366.063C225.802 366.836 224.455 367.221 223.111 367.221Z" fill="#FEFFFF" stroke="black"/>
<path d="M124.902 201.569C123.544 201.666 122.191 201.461 121.159 200.96V200.961C120.148 200.469 119.715 199.836 119.656 199.267H119.655C119.656 199.285 119.656 199.275 119.656 199.191C119.655 199.124 119.654 199.028 119.655 198.904C119.655 198.656 119.657 198.3 119.659 197.85C119.662 196.951 119.669 195.679 119.677 194.157C119.694 191.113 119.719 187.068 119.743 183.003C119.768 178.94 119.793 174.852 119.811 171.719L119.838 166.174V166.126L119.836 166.104C119.835 166.085 119.832 166.064 119.83 166.053L119.828 166.031C119.811 165.714 119.97 165.309 120.46 164.907L120.694 164.733C121.373 164.273 122.318 163.986 123.304 163.916C124.167 163.854 125.022 163.961 125.716 164.229L126.003 164.353C126.724 164.703 127.005 165.14 127.045 165.505C127.047 165.522 127.047 165.536 127.049 165.547C127.098 166.153 127.752 174.088 128.406 182.013C128.743 186.104 129.08 190.194 129.334 193.277C129.461 194.819 129.568 196.109 129.643 197.021C129.68 197.477 129.709 197.839 129.73 198.091C129.74 198.216 129.749 198.315 129.754 198.383C129.757 198.418 129.76 198.444 129.761 198.464C129.762 198.473 129.762 198.481 129.762 198.486L129.763 198.494V198.496L129.767 198.606C129.763 199.128 129.461 199.738 128.693 200.31L128.521 200.432C127.57 201.076 126.26 201.472 124.902 201.569Z" fill="black" stroke="black"/>
<mask id="mask4_318_1738" style="mask-type:luminance" maskUnits="userSpaceOnUse" x="119" y="163" width="12" height="40">
<path d="M119.655 201.592V163.898H129.768V201.592H119.655Z" fill="white" stroke="white"/>
</mask>
<g mask="url(#mask4_318_1738)">
<g opacity="0.149994">
<path d="M124.902 201.569C123.544 201.666 122.192 201.461 121.159 200.96V200.961C120.149 200.469 119.715 199.836 119.656 199.267H119.655C119.657 199.285 119.656 199.275 119.656 199.191C119.656 199.124 119.655 199.028 119.655 198.904C119.655 198.656 119.657 198.3 119.659 197.85C119.663 196.951 119.669 195.679 119.678 194.157C119.694 191.113 119.719 187.068 119.744 183.003C119.769 178.94 119.793 174.852 119.811 171.719L119.839 166.174V166.126L119.837 166.104C119.835 166.085 119.832 166.064 119.831 166.053L119.829 166.031C119.812 165.714 119.971 165.309 120.461 164.907L120.694 164.733C121.374 164.273 122.318 163.986 123.305 163.916C124.168 163.854 125.022 163.961 125.717 164.229L126.004 164.353C126.724 164.703 127.006 165.14 127.046 165.505C127.047 165.522 127.048 165.536 127.05 165.547C127.099 166.153 127.753 174.088 128.406 182.013C128.743 186.104 129.081 190.194 129.335 193.277C129.462 194.819 129.568 196.109 129.643 197.021C129.681 197.477 129.71 197.839 129.73 198.091C129.741 198.216 129.749 198.315 129.755 198.383C129.758 198.418 129.76 198.444 129.762 198.464C129.762 198.473 129.762 198.481 129.763 198.486L129.764 198.494V198.496L129.767 198.606C129.764 199.128 129.461 199.738 128.693 200.31L128.521 200.432C127.57 201.076 126.26 201.472 124.902 201.569Z" fill="black" stroke="black"/>
</g>
</g>
<mask id="mask5_318_1738" style="mask-type:luminance" maskUnits="userSpaceOnUse" x="119" y="163" width="12" height="40">
<path d="M119.803 201.59V163.898H129.768V201.59H119.803Z" fill="white" stroke="white"/>
</mask>
<g mask="url(#mask5_318_1738)">
<g opacity="0.149994">
<path d="M124.633 201.581C126.74 200.087 127.742 197.446 127.679 194.812L127.666 194.496C127.523 191.989 127.157 186.402 126.827 181.445C126.662 178.966 126.506 176.644 126.391 174.941C126.333 174.09 126.287 173.392 126.254 172.909C126.238 172.667 126.225 172.478 126.216 172.35C126.212 172.286 126.208 172.238 126.206 172.205C126.205 172.188 126.204 172.176 126.203 172.168C126.203 172.163 126.202 172.16 126.202 172.158V172.155L126.147 171.355L125.453 171.755L125.454 171.756C125.454 171.757 125.452 171.756 125.451 171.756C125.448 171.758 125.442 171.762 125.435 171.766C125.419 171.775 125.393 171.788 125.359 171.805C125.291 171.84 125.185 171.892 125.046 171.954C124.767 172.077 124.351 172.241 123.817 172.396C122.839 172.68 121.465 172.932 119.805 172.851L119.839 166.174V166.127L119.837 166.106C119.835 166.085 119.832 166.064 119.831 166.053L119.829 166.031C119.812 165.714 119.971 165.309 120.461 164.907L120.694 164.734C121.374 164.274 122.318 163.986 123.305 163.916C124.168 163.854 125.023 163.961 125.717 164.229L126.004 164.354H126.005C126.725 164.704 127.006 165.141 127.046 165.505C127.047 165.516 127.048 165.526 127.049 165.535C127.089 166.035 127.748 174.028 128.406 182.013C128.743 186.104 129.081 190.195 129.335 193.278C129.462 194.819 129.569 196.109 129.644 197.021C129.681 197.477 129.71 197.84 129.73 198.091C129.741 198.217 129.749 198.315 129.755 198.383C129.758 198.418 129.76 198.445 129.762 198.464C129.763 198.474 129.762 198.482 129.763 198.487L129.764 198.495V198.497L129.768 198.607C129.763 199.166 129.416 199.826 128.522 200.432C127.499 201.125 126.071 201.521 124.633 201.581Z" fill="black" stroke="black"/>
</g>
</g>
<path d="M123.573 167.66C122.709 167.723 121.854 167.616 121.159 167.348L120.87 167.224C120.182 166.89 119.897 166.476 119.838 166.126V166.125L119.836 166.104C119.835 166.084 119.832 166.064 119.83 166.053C119.83 166.048 119.83 166.044 119.829 166.04V166.039C119.809 165.721 119.966 165.312 120.46 164.907L120.694 164.734C121.373 164.273 122.317 163.986 123.304 163.915C124.291 163.845 125.267 163.996 126.004 164.354H126.005C126.638 164.662 126.931 165.037 127.02 165.37L127.046 165.511C127.047 165.517 127.047 165.523 127.047 165.529C127.071 165.893 126.864 166.379 126.184 166.841L126.183 166.84C125.503 167.3 124.559 167.589 123.573 167.66Z" fill="#FEFFFF" stroke="black"/>
<path d="M152.401 179.445C150.921 180.299 149.566 180.465 148.429 180.089L148.204 180.007C147.62 179.77 145.302 178.722 144.733 178.436V178.435C143.737 177.934 142.863 176.947 142.245 175.442L142.125 175.135L131.901 147.559L134.82 145.874L135.615 148.018L135.821 148.573L136.333 148.277L137.998 147.317L147.561 173.109V173.11C147.586 173.178 147.615 173.236 147.635 173.277L147.679 173.367L147.876 173.817L148.329 173.628C148.393 173.601 148.468 173.57 148.548 173.534L148.801 173.406L152.658 171.178L152.908 171.034V135.43L155.774 133.775V137.053L156.524 136.62L158.952 135.219V171.552C158.952 172.458 158.721 173.437 158.329 174.357L158.152 174.748L158.148 174.757C158.11 174.839 158.098 174.872 158.072 174.927L157.981 175.093L157.977 175.1C157.456 176.119 156.803 176.904 156.133 177.293L156.132 177.292L155.903 177.424H155.902L155.448 177.686L152.401 179.445Z" fill="black" stroke="black"/>
<mask id="mask6_318_1738" style="mask-type:luminance" maskUnits="userSpaceOnUse" x="131" y="132" width="29" height="49">
<path d="M131.784 180.28V133.41H158.952V180.28H131.784Z" fill="white" stroke="white"/>
</mask>
<g mask="url(#mask6_318_1738)">
<g opacity="0.449997">
<path d="M152.401 179.445C150.921 180.299 149.567 180.465 148.429 180.089L148.205 180.007C147.621 179.77 145.303 178.723 144.733 178.436V178.435C143.738 177.935 142.864 176.947 142.246 175.442L142.126 175.135L131.901 147.56L134.82 145.874L135.615 148.018L135.821 148.573L136.334 148.277L137.999 147.317L147.561 173.109V173.11C147.587 173.179 147.615 173.236 147.635 173.277L147.679 173.367L147.876 173.817L148.33 173.628C148.394 173.601 148.468 173.57 148.548 173.534L148.801 173.406L152.659 171.179L152.909 171.034V135.431L155.774 133.775V137.054L156.524 136.62L158.953 135.219V171.552C158.953 172.458 158.721 173.438 158.33 174.357L158.152 174.748L158.148 174.757C158.11 174.839 158.098 174.873 158.072 174.928L157.981 175.093L157.977 175.101C157.456 176.119 156.803 176.905 156.133 177.293L156.132 177.292L155.903 177.424H155.902L155.448 177.686L152.401 179.445Z" fill="black" stroke="black"/>
</g>
</g>
<mask id="mask7_318_1738" style="mask-type:luminance" maskUnits="userSpaceOnUse" x="152" y="135" width="4" height="38">
<path d="M152.909 171.688V135.641H155.088V171.688H152.909Z" fill="white" stroke="white"/>
</mask>
<g mask="url(#mask7_318_1738)">
<g opacity="0.300003">
<path d="M152.909 170.424V135.917L155.088 136.906V171.412L152.909 170.424Z" fill="black" stroke="black"/>
</g>
</g>
<path d="M152.401 179.445C150.825 180.355 149.388 180.488 148.207 180.015C147.093 179.57 146.113 178.549 145.435 176.913L145.303 176.578L135.079 149.002L137.998 147.316L147.561 173.109C147.931 174.105 148.541 174.839 149.353 175.164C150.121 175.471 150.976 175.376 151.813 174.94L151.98 174.848L155.837 172.621L156.087 172.476V136.873L158.952 135.217V171.551C158.952 172.587 158.65 173.72 158.153 174.747L158.602 174.965L158.152 174.747L158.147 174.758C158.113 174.832 158.095 174.877 158.069 174.932C158.057 174.953 158.045 174.975 158.031 174.999L157.981 175.092L157.977 175.1C157.455 176.12 156.801 176.905 156.131 177.292L156.132 177.293L155.903 177.423L155.901 177.424L155.447 177.687L155.448 177.688L152.401 179.445Z" fill="black" stroke="black"/>
<mask id="mask8_318_1738" style="mask-type:luminance" maskUnits="userSpaceOnUse" x="134" y="134" width="26" height="47">
<path d="M134.963 180.283V134.852H158.952V180.283H134.963Z" fill="white" stroke="white"/>
</mask>
<g mask="url(#mask8_318_1738)">
<g opacity="0.149994">
<path d="M152.401 179.445C150.825 180.355 149.389 180.488 148.208 180.015C147.094 179.57 146.113 178.549 145.435 176.913L145.303 176.578L135.08 149.002L137.999 147.316L147.561 173.109C147.931 174.105 148.541 174.839 149.353 175.164C150.121 175.471 150.977 175.376 151.813 174.94L151.98 174.848L155.837 172.621L156.087 172.476V136.873L158.953 135.217V171.551C158.953 172.587 158.65 173.72 158.153 174.747L158.602 174.966L158.152 174.747L158.147 174.758C158.113 174.832 158.095 174.877 158.069 174.932C158.057 174.954 158.045 174.975 158.032 174.999L157.981 175.092L157.977 175.1C157.456 176.12 156.801 176.905 156.131 177.292L156.132 177.293L155.903 177.424L155.901 177.424L155.447 177.687L155.448 177.688L152.401 179.445Z" fill="black" stroke="black"/>
</g>
</g>
<path d="M121.277 170.972C119.638 171.914 117.34 171.89 114.666 170.521L114.127 170.23C111.213 168.565 108.544 165.678 106.599 162.339C104.775 159.208 103.611 155.722 103.461 152.537L103.445 151.904C103.43 148.617 104.547 146.416 106.246 145.354C106.273 145.338 106.294 145.327 106.305 145.318C106.309 145.315 106.313 145.312 106.317 145.309L144.132 123.545C147.478 121.619 151.597 121.622 154.941 123.553H154.942L157.25 124.887C160.146 126.558 161.93 129.647 161.93 132.99V134.705C161.93 138.534 159.948 142.08 156.711 144.091L156.394 144.28L133.977 157.192L133.976 157.191C132.117 158.261 130.788 160.189 130.7 162.368L130.697 162.58C130.691 164.303 129.826 165.897 128.409 166.843L128.118 167.023L121.278 170.973L121.277 170.972Z" fill="black" stroke="black"/>
<mask id="mask9_318_1738" style="mask-type:luminance" maskUnits="userSpaceOnUse" x="102" y="121" width="60" height="40">
<path d="M103.448 159.86V122.1H160.604V159.86H103.448Z" fill="white" stroke="white"/>
</mask>
<g mask="url(#mask9_318_1738)">
<g opacity="0.0500031">
<path d="M105.235 159.651C104.192 157.238 103.556 154.736 103.461 152.399L103.448 151.902C103.428 148.621 104.541 146.422 106.241 145.359C106.247 145.356 106.251 145.354 106.253 145.353C106.281 145.336 106.304 145.319 106.318 145.307L144.128 123.54C147.477 121.614 151.601 121.623 154.941 123.549H154.941L157.248 124.885L157.249 124.886L157.518 125.046C158.697 125.78 159.673 126.755 160.408 127.882L105.235 159.651Z" fill="black" stroke="black"/>
</g>
</g>
<mask id="mask10_318_1738" style="mask-type:luminance" maskUnits="userSpaceOnUse" x="105" y="128" width="58" height="45">
<path d="M105.504 171.625V128.558H161.929V171.625H105.504Z" fill="white" stroke="white"/>
</mask>
<g mask="url(#mask10_318_1738)">
<g opacity="0.199997">
<path d="M121.281 170.976C119.634 171.917 117.336 171.891 114.67 170.525L114.132 170.234C110.703 168.278 107.621 164.631 105.656 160.562L160.91 128.747C161.573 130.042 161.929 131.488 161.929 132.989V134.7C161.929 138.652 159.818 142.306 156.398 144.283L156.397 144.282L133.98 157.193L133.979 157.192C132.054 158.291 130.702 160.317 130.701 162.575C130.692 164.298 129.822 165.899 128.406 166.845L128.116 167.025H128.115L121.28 170.975L121.281 170.976Z" fill="black" stroke="black"/>
</g>
</g>
<path d="M121.275 170.972C119.529 171.978 117.03 171.882 114.127 170.23V170.231C111.214 168.566 108.544 165.678 106.599 162.339C104.775 159.209 103.612 155.722 103.461 152.537L103.445 151.904C103.43 148.617 104.548 146.416 106.246 145.354C106.273 145.338 106.294 145.327 106.305 145.318C106.309 145.316 106.312 145.313 106.316 145.31C108.061 144.284 110.586 144.357 113.514 146.028H113.513C116.427 147.694 119.1 150.577 121.049 153.914C122.877 157.043 124.044 160.53 124.195 163.721L124.211 164.355C124.226 167.543 123.179 169.708 121.571 170.798L121.572 170.799C121.482 170.85 121.328 170.941 121.276 170.973L121.275 170.972Z" fill="black" stroke="black"/>
<mask id="mask11_318_1738" style="mask-type:luminance" maskUnits="userSpaceOnUse" x="102" y="144" width="23" height="29">
<path d="M103.445 171.623V144.635H124.211V171.623H103.445Z" fill="white" stroke="white"/>
</mask>
<g mask="url(#mask11_318_1738)">
<g opacity="0.399994">
<path d="M121.274 170.972C119.528 171.978 117.03 171.882 114.127 170.23V170.231C111.213 168.566 108.544 165.678 106.599 162.339C104.775 159.209 103.611 155.723 103.461 152.538L103.444 151.905C103.43 148.617 104.547 146.417 106.246 145.354C106.272 145.339 106.293 145.327 106.305 145.319C106.308 145.316 106.312 145.313 106.315 145.31C108.061 144.284 110.586 144.357 113.514 146.029H113.513C116.426 147.694 119.1 150.577 121.049 153.914C122.876 157.043 124.044 160.53 124.194 163.721L124.211 164.355C124.225 167.543 123.178 169.709 121.57 170.798L121.571 170.799C121.482 170.851 121.328 170.941 121.275 170.973L121.274 170.972Z" fill="black" stroke="black"/>
</g>
</g>
<path d="M111.82 166.813C111.063 167.258 109.955 167.281 108.608 166.59L108.335 166.441C106.869 165.604 105.51 164.141 104.515 162.435C103.582 160.835 102.992 159.063 102.915 157.456L102.907 157.137C102.9 155.572 103.403 154.553 104.118 154.038L104.264 153.941C104.416 153.85 105.278 153.373 106.16 152.886L108.077 151.823C108.834 151.379 109.942 151.358 111.287 152.049L111.559 152.196C113.025 153.034 114.384 154.497 115.379 156.203C116.312 157.803 116.902 159.575 116.979 161.182L116.988 161.5C116.995 163.053 116.499 164.069 115.792 164.588L115.649 164.685H115.648C115.496 164.778 114.633 165.256 113.744 165.746L111.82 166.813Z" fill="black" stroke="black"/>
<path d="M111.822 166.821C111.013 167.292 109.804 167.281 108.335 166.442C106.869 165.604 105.51 164.14 104.515 162.434C103.582 160.834 102.991 159.063 102.915 157.456L102.907 157.138C102.899 155.446 103.485 154.387 104.293 153.915C105.051 153.473 106.162 153.455 107.508 154.146L107.78 154.294C109.246 155.132 110.605 156.595 111.601 158.301C112.596 160.007 113.201 161.91 113.208 163.599C113.216 165.291 112.63 166.349 111.822 166.821Z" fill="black" stroke="black"/>
<mask id="mask12_318_1738" style="mask-type:luminance" maskUnits="userSpaceOnUse" x="102" y="153" width="12" height="15">
<path d="M102.907 167.134V153.601H113.208V167.134H102.907Z" fill="white" stroke="white"/>
</mask>
<g mask="url(#mask12_318_1738)">
<g opacity="0.149994">
<path d="M111.822 166.82C111.013 167.292 109.804 167.281 108.335 166.441C106.869 165.603 105.511 164.14 104.515 162.434C103.582 160.834 102.992 159.062 102.915 157.456L102.907 157.138C102.899 155.446 103.485 154.387 104.293 153.915C105.051 153.473 106.162 153.454 107.508 154.145L107.78 154.294C109.246 155.132 110.606 156.595 111.601 158.301C112.596 160.007 113.201 161.91 113.208 163.599C113.216 165.29 112.63 166.349 111.822 166.82Z" fill="black" stroke="black"/>
</g>
</g>
<path d="M83.3705 179.621C82.914 179.884 82.1957 179.896 81.269 179.368V179.369C80.3406 178.839 79.4714 177.905 78.8315 176.807C78.2315 175.777 77.8571 174.644 77.809 173.626L77.8041 173.424C77.7997 172.375 78.1534 171.758 78.601 171.478L78.6 171.477C78.6013 171.476 78.6027 171.476 78.6039 171.475V171.476C78.762 171.383 85.0772 167.327 91.3627 163.291C94.5111 161.269 97.6595 159.248 100.038 157.722C101.227 156.959 102.223 156.32 102.931 155.866C103.285 155.64 103.566 155.459 103.763 155.333C103.862 155.27 103.94 155.221 103.995 155.187L104.075 155.136L104.076 155.135C104.726 154.754 105.684 154.729 106.867 155.336L107.106 155.466C108.394 156.203 109.591 157.491 110.469 158.997C111.292 160.409 111.811 161.97 111.878 163.382L111.886 163.662C111.891 165.117 111.401 166.019 110.732 166.436C110.713 166.445 110.622 166.491 110.43 166.584C110.225 166.684 109.932 166.826 109.564 167.004C108.827 167.361 107.788 167.861 106.545 168.459C104.061 169.655 100.763 171.24 97.4409 172.836C90.8085 176.022 84.0639 179.262 83.5073 179.542C83.502 179.545 83.499 179.546 83.4965 179.547L83.4936 179.549L83.4604 179.564L83.4311 179.583C83.4069 179.599 83.3873 179.613 83.3715 179.622L83.3705 179.621Z" fill="white" stroke="black"/>
<path d="M83.3708 179.621C82.9143 179.884 82.1959 179.896 81.2693 179.368V179.369C80.3409 178.839 79.4717 177.905 78.8318 176.807C78.2318 175.777 77.8574 174.644 77.8093 173.626L77.8044 173.424C77.8 172.375 78.1545 171.758 78.6023 171.478L78.6013 171.476C78.6036 171.474 78.606 171.473 78.6082 171.472V171.473C79.0637 171.2 79.793 171.179 80.7332 171.715H80.7341C81.6622 172.246 82.5327 173.178 83.1736 174.276C83.7745 175.305 84.1494 176.438 84.198 177.457L84.2039 177.659C84.2083 178.657 83.8889 179.263 83.4763 179.558L83.4617 179.564L83.4314 179.583C83.4071 179.599 83.3876 179.613 83.3718 179.622L83.3708 179.621Z" fill="#FEFFFF" stroke="black"/>
<mask id="path-61-inside-1_318_1738" fill="white">
<path d="M89.5972 165.791C88.7745 165.321 87.9981 165.147 87.3488 165.275C87.6286 165.095 87.9104 164.913 88.1952 164.731C88.7253 164.801 89.2869 164.995 89.8643 165.324C92.3728 166.758 94.4232 170.273 94.436 173.159C94.439 173.862 94.3217 174.482 94.0961 174.997C93.7847 175.147 93.4754 175.296 93.1679 175.443C93.6438 174.941 93.902 174.152 93.898 173.161C93.8862 170.447 91.957 167.14 89.5972 165.791ZM93.9956 163.087C93.1069 162.58 92.2713 162.404 91.5757 162.56C91.8693 162.372 92.162 162.184 92.4536 161.997C93.0241 162.062 93.633 162.268 94.2587 162.625C96.8825 164.125 99.0265 167.802 99.0403 170.822C99.0433 171.589 98.9073 172.259 98.6521 172.808C98.3368 172.96 98.0215 173.112 97.7052 173.264C98.2284 172.737 98.5132 171.892 98.5092 170.824C98.4964 167.974 96.4716 164.502 93.9956 163.087ZM102.791 157.679C101.775 157.099 100.823 156.917 100.037 157.127C100.364 156.919 100.675 156.719 100.968 156.531C101.621 156.584 102.324 156.816 103.048 157.229C105.902 158.861 108.235 162.861 108.251 166.148C108.254 167.04 108.082 167.809 107.766 168.426C107.454 168.577 107.126 168.734 106.781 168.901C107.401 168.327 107.736 167.371 107.733 166.15C107.718 163.028 105.501 159.228 102.791 157.679ZM83.9377 167.464C84.4254 167.538 84.9407 167.72 85.4698 168.022C87.8621 169.389 89.8189 172.742 89.8317 175.496C89.8337 176.141 89.7293 176.711 89.5312 177.191C89.2218 177.34 88.9213 177.485 88.6287 177.625C89.0573 177.148 89.2908 176.415 89.2869 175.498C89.2751 172.919 87.4414 169.777 85.1989 168.496C84.4323 168.058 83.7101 167.892 83.1022 168.001C83.3731 167.827 83.651 167.647 83.9377 167.464ZM98.3939 160.383C97.4402 159.84 96.5455 159.661 95.8046 159.845C96.112 159.648 96.4145 159.454 96.712 159.263C97.3229 159.322 97.9801 159.542 98.6541 159.928C101.392 161.493 103.632 165.332 103.646 168.485C103.649 169.316 103.495 170.035 103.208 170.619C102.891 170.772 102.569 170.926 102.242 171.083C102.814 170.533 103.125 169.632 103.121 168.487C103.107 165.501 100.986 161.866 98.3939 160.383Z"/>
</mask>
<path d="M89.5972 165.791C88.7745 165.321 87.9981 165.147 87.3488 165.275C87.6286 165.095 87.9104 164.913 88.1952 164.731C88.7253 164.801 89.2869 164.995 89.8643 165.324C92.3728 166.758 94.4232 170.273 94.436 173.159C94.439 173.862 94.3217 174.482 94.0961 174.997C93.7847 175.147 93.4754 175.296 93.1679 175.443C93.6438 174.941 93.902 174.152 93.898 173.161C93.8862 170.447 91.957 167.14 89.5972 165.791ZM93.9956 163.087C93.1069 162.58 92.2713 162.404 91.5757 162.56C91.8693 162.372 92.162 162.184 92.4536 161.997C93.0241 162.062 93.633 162.268 94.2587 162.625C96.8825 164.125 99.0265 167.802 99.0403 170.822C99.0433 171.589 98.9073 172.259 98.6521 172.808C98.3368 172.96 98.0215 173.112 97.7052 173.264C98.2284 172.737 98.5132 171.892 98.5092 170.824C98.4964 167.974 96.4716 164.502 93.9956 163.087ZM102.791 157.679C101.775 157.099 100.823 156.917 100.037 157.127C100.364 156.919 100.675 156.719 100.968 156.531C101.621 156.584 102.324 156.816 103.048 157.229C105.902 158.861 108.235 162.861 108.251 166.148C108.254 167.04 108.082 167.809 107.766 168.426C107.454 168.577 107.126 168.734 106.781 168.901C107.401 168.327 107.736 167.371 107.733 166.15C107.718 163.028 105.501 159.228 102.791 157.679ZM83.9377 167.464C84.4254 167.538 84.9407 167.72 85.4698 168.022C87.8621 169.389 89.8189 172.742 89.8317 175.496C89.8337 176.141 89.7293 176.711 89.5312 177.191C89.2218 177.34 88.9213 177.485 88.6287 177.625C89.0573 177.148 89.2908 176.415 89.2869 175.498C89.2751 172.919 87.4414 169.777 85.1989 168.496C84.4323 168.058 83.7101 167.892 83.1022 168.001C83.3731 167.827 83.651 167.647 83.9377 167.464ZM98.3939 160.383C97.4402 159.84 96.5455 159.661 95.8046 159.845C96.112 159.648 96.4145 159.454 96.712 159.263C97.3229 159.322 97.9801 159.542 98.6541 159.928C101.392 161.493 103.632 165.332 103.646 168.485C103.649 169.316 103.495 170.035 103.208 170.619C102.891 170.772 102.569 170.926 102.242 171.083C102.814 170.533 103.125 169.632 103.121 168.487C103.107 165.501 100.986 161.866 98.3939 160.383Z" fill="#FEFFFF"/>
<path d="M89.5972 165.791L90.0935 164.923L90.0933 164.923L89.5972 165.791ZM87.3488 165.275L86.8071 164.434L87.5423 166.256L87.3488 165.275ZM88.1952 164.731L88.326 163.74L87.9638 163.692L87.656 163.889L88.1952 164.731ZM89.8643 165.324L90.3604 164.456L90.3594 164.455L89.8643 165.324ZM94.436 173.159L95.436 173.155L95.436 173.155L94.436 173.159ZM94.0961 174.997L94.5319 175.897L94.8637 175.736L95.0118 175.398L94.0961 174.997ZM93.1679 175.443L92.4419 174.755L93.5989 176.345L93.1679 175.443ZM93.898 173.161L94.898 173.157L94.898 173.157L93.898 173.161ZM93.9956 163.087L94.4917 162.219L94.4914 162.219L93.9956 163.087ZM91.5757 162.56L91.0361 161.718L91.7954 163.536L91.5757 162.56ZM92.4536 161.997L92.5669 161.003L92.2131 160.963L91.9134 161.155L92.4536 161.997ZM94.2587 162.625L93.7624 163.494L93.7625 163.494L94.2587 162.625ZM99.0403 170.822L100.04 170.818L100.04 170.817L99.0403 170.822ZM98.6521 172.808L99.0857 173.709L99.4084 173.554L99.5591 173.229L98.6521 172.808ZM97.7052 173.264L96.9961 172.558L98.1378 174.165L97.7052 173.264ZM98.5092 170.824L99.5092 170.82L99.5092 170.82L98.5092 170.824ZM102.791 157.679L103.288 156.811L103.287 156.811L102.791 157.679ZM100.037 157.127L99.4981 156.285L100.297 158.093L100.037 157.127ZM100.968 156.531L101.047 155.535L100.712 155.508L100.429 155.689L100.968 156.531ZM103.048 157.229L103.545 156.361L103.544 156.36L103.048 157.229ZM108.251 166.148L109.251 166.144L109.251 166.143L108.251 166.148ZM107.766 168.426L108.201 169.326L108.503 169.181L108.656 168.882L107.766 168.426ZM106.781 168.901L106.102 168.167L107.216 169.801L106.781 168.901ZM107.733 166.15L108.733 166.147L108.733 166.145L107.733 166.15ZM83.9377 167.464L84.0875 166.475L83.7159 166.419L83.3992 166.622L83.9377 167.464ZM85.4698 168.022L85.9661 167.154L85.9649 167.153L85.4698 168.022ZM89.8317 175.496L90.8317 175.493L90.8317 175.492L89.8317 175.496ZM89.5312 177.191L89.9646 178.092L90.3096 177.926L90.4556 177.572L89.5312 177.191ZM88.6287 177.625L87.8843 176.958L89.0625 178.526L88.6287 177.625ZM89.2869 175.498L90.2869 175.494L90.2869 175.494L89.2869 175.498ZM85.1989 168.496L85.6949 167.627L85.6946 167.627L85.1989 168.496ZM83.1022 168.001L82.561 167.16L83.2792 168.985L83.1022 168.001ZM98.3939 160.383L98.8905 159.515L98.8886 159.514L98.3939 160.383ZM95.8046 159.845L95.2649 159.003L96.0459 160.815L95.8046 159.845ZM96.712 159.263L96.8084 158.267L96.4633 158.234L96.1716 158.421L96.712 159.263ZM98.6541 159.928L99.1504 159.06L99.1503 159.059L98.6541 159.928ZM103.646 168.485L104.646 168.481L104.646 168.481L103.646 168.485ZM103.208 170.619L103.642 171.52L103.953 171.37L104.106 171.06L103.208 170.619ZM102.242 171.083L101.549 170.362L102.673 171.985L102.242 171.083ZM103.121 168.487L104.121 168.483L104.121 168.482L103.121 168.487ZM89.5972 165.791L90.0933 164.923C89.1452 164.381 88.1202 164.103 87.1553 164.294L87.3488 165.275L87.5423 166.256C87.876 166.19 88.4039 166.261 89.1012 166.659L89.5972 165.791ZM87.3488 165.275L87.8905 166.115C88.1699 165.935 88.4508 165.755 88.7343 165.573L88.1952 164.731L87.656 163.889C87.3701 164.072 87.0873 164.254 86.8071 164.434L87.3488 165.275ZM88.1952 164.731L88.0643 165.722C88.4472 165.773 88.8861 165.918 89.3691 166.193L89.8643 165.324L90.3594 164.455C89.6876 164.072 89.0033 163.829 88.326 163.74L88.1952 164.731ZM89.8643 165.324L89.3681 166.192C90.4337 166.801 91.4592 167.893 92.2223 169.201C92.9854 170.509 93.4306 171.938 93.436 173.164L94.436 173.159L95.436 173.155C95.4286 171.494 94.8422 169.723 93.9498 168.193C93.0573 166.663 91.8033 165.28 90.3604 164.456L89.8643 165.324ZM94.436 173.159L93.436 173.163C93.4385 173.756 93.339 174.233 93.1803 174.595L94.0961 174.997L95.0118 175.398C95.3044 174.732 95.4394 173.968 95.436 173.155L94.436 173.159ZM94.0961 174.997L93.6603 174.097C93.3505 174.247 93.0428 174.395 92.737 174.541L93.1679 175.443L93.5989 176.345C93.9079 176.198 94.2189 176.048 94.5319 175.897L94.0961 174.997ZM93.1679 175.443L93.894 176.131C94.6063 175.379 94.9026 174.303 94.898 173.157L93.898 173.161L92.8981 173.165C92.9014 174.001 92.6814 174.503 92.4419 174.755L93.1679 175.443ZM93.898 173.161L94.898 173.157C94.8912 171.582 94.3353 169.905 93.4918 168.46C92.6484 167.015 91.4619 165.705 90.0935 164.923L89.5972 165.791L89.101 166.659C90.0924 167.226 91.0504 168.244 91.7644 169.468C92.4785 170.692 92.8931 172.026 92.8981 173.165L93.898 173.161ZM93.9956 163.087L94.4914 162.219C93.4722 161.637 92.3772 161.355 91.356 161.585L91.5757 162.56L91.7954 163.536C92.1654 163.453 92.7415 163.523 93.4998 163.956L93.9956 163.087ZM91.5757 162.56L92.1153 163.402C92.4092 163.214 92.7032 163.025 92.9938 162.838L92.4536 161.997L91.9134 161.155C91.6207 161.343 91.3294 161.53 91.0361 161.718L91.5757 162.56ZM92.4536 161.997L92.3404 162.99C92.7546 163.038 93.2344 163.192 93.7624 163.494L94.2587 162.625L94.755 161.757C94.0317 161.344 93.2936 161.086 92.5669 161.003L92.4536 161.997ZM94.2587 162.625L93.7625 163.494C94.8857 164.136 95.9634 165.284 96.7644 166.657C97.5655 168.031 98.0344 169.534 98.0403 170.827L99.0403 170.822L100.04 170.817C100.032 169.09 99.4224 167.245 98.492 165.65C97.5616 164.055 96.2554 162.615 94.7549 161.757L94.2587 162.625ZM99.0403 170.822L98.0403 170.826C98.0428 171.475 97.9272 171.995 97.745 172.387L98.6521 172.808L99.5591 173.229C99.8874 172.522 100.044 171.702 100.04 170.818L99.0403 170.822ZM98.6521 172.808L98.2184 171.907C97.9031 172.059 97.5883 172.211 97.2727 172.362L97.7052 173.264L98.1378 174.165C98.4547 174.013 98.7705 173.861 99.0857 173.709L98.6521 172.808ZM97.7052 173.264L98.4143 173.969C99.1894 173.189 99.5137 172.045 99.5092 170.82L98.5092 170.824L97.5092 170.828C97.5126 171.739 97.2674 172.286 96.9961 172.558L97.7052 173.264ZM98.5092 170.824L99.5092 170.82C99.5018 169.177 98.9219 167.425 98.0399 165.914C97.1579 164.402 95.9184 163.034 94.4917 162.219L93.9956 163.087L93.4995 163.956C94.5488 164.555 95.5597 165.631 96.3124 166.921C97.065 168.211 97.5038 169.621 97.5092 170.829L98.5092 170.824ZM102.791 157.679L103.287 156.811C102.133 156.152 100.904 155.859 99.7781 156.162L100.037 157.127L100.297 158.093C100.741 157.974 101.418 158.046 102.295 158.548L102.791 157.679ZM100.037 157.127L100.577 157.97C100.905 157.759 101.213 157.561 101.506 157.374L100.968 156.531L100.429 155.689C100.136 155.876 99.822 156.078 99.4981 156.285L100.037 157.127ZM100.968 156.531L100.888 157.528C101.365 157.566 101.927 157.741 102.553 158.098L103.048 157.229L103.544 156.36C102.721 155.891 101.877 155.601 101.047 155.535L100.968 156.531ZM103.048 157.229L102.552 158.097C103.79 158.805 104.973 160.067 105.85 161.571C106.727 163.075 107.244 164.726 107.251 166.153L108.251 166.148L109.251 166.143C109.242 164.282 108.584 162.29 107.578 160.564C106.571 158.838 105.16 157.284 103.545 156.361L103.048 157.229ZM108.251 166.148L107.251 166.151C107.253 166.917 107.106 167.522 106.876 167.97L107.766 168.426L108.656 168.882C109.059 168.096 109.254 167.164 109.251 166.144L108.251 166.148ZM107.766 168.426L107.331 167.525C107.026 167.673 106.686 167.836 106.346 168L106.781 168.901L107.216 169.801C107.565 169.632 107.881 169.481 108.201 169.326L107.766 168.426ZM106.781 168.901L107.46 169.635C108.359 168.803 108.737 167.527 108.733 166.147L107.733 166.15L106.733 166.153C106.736 167.214 106.442 167.852 106.102 168.167L106.781 168.901ZM107.733 166.15L108.733 166.145C108.724 164.367 108.096 162.466 107.136 160.821C106.177 159.176 104.831 157.693 103.288 156.811L102.791 157.679L102.295 158.547C103.461 159.214 104.579 160.406 105.409 161.829C106.239 163.252 106.726 164.811 106.733 166.155L107.733 166.15ZM83.9377 167.464L83.7879 168.453C84.1378 168.506 84.537 168.641 84.9748 168.891L85.4698 168.022L85.9649 167.153C85.3445 166.799 84.7131 166.57 84.0875 166.475L83.9377 167.464ZM85.4698 168.022L84.9736 168.89C85.9812 169.466 86.9543 170.501 87.6794 171.743C88.4046 172.986 88.8264 174.341 88.8318 175.501L89.8317 175.496L90.8317 175.492C90.8243 173.897 90.2613 172.199 89.4068 170.735C88.5522 169.271 87.3508 167.945 85.9661 167.154L85.4698 168.022ZM89.8317 175.496L88.8317 175.499C88.8334 176.036 88.746 176.472 88.6069 176.809L89.5312 177.191L90.4556 177.572C90.7125 176.95 90.834 176.245 90.8317 175.493L89.8317 175.496ZM89.5312 177.191L89.0978 176.29C88.7882 176.439 88.487 176.584 88.1949 176.724L88.6287 177.625L89.0625 178.526C89.3556 178.385 89.6555 178.241 89.9646 178.092L89.5312 177.191ZM88.6287 177.625L89.3731 178.293C90.021 177.571 90.2915 176.564 90.2869 175.494L89.2869 175.498L88.2869 175.503C88.2902 176.265 88.0936 176.724 87.8843 176.958L88.6287 177.625ZM89.2869 175.498L90.2869 175.494C90.28 173.986 89.7479 172.385 88.943 171.006C88.1381 169.627 87.0048 168.376 85.6949 167.627L85.1989 168.496L84.7029 169.364C85.6355 169.897 86.5403 170.857 87.2158 172.014C87.8913 173.171 88.282 174.431 88.2869 175.503L89.2869 175.498ZM85.1989 168.496L85.6946 167.627C84.8043 167.119 83.8408 166.852 82.9251 167.017L83.1022 168.001L83.2792 168.985C83.5794 168.931 84.0603 168.997 84.7032 169.364L85.1989 168.496ZM83.1022 168.001L83.6434 168.842C83.9157 168.667 84.1913 168.489 84.4763 168.307L83.9377 167.464L83.3992 166.622C83.1107 166.806 82.8306 166.987 82.561 167.16L83.1022 168.001ZM98.3939 160.383L98.8886 159.514C97.801 158.895 96.638 158.607 95.5633 158.874L95.8046 159.845L96.0459 160.815C96.4531 160.714 97.0794 160.785 97.8993 161.252L98.3939 160.383ZM95.8046 159.845L96.3443 160.687C96.6519 160.49 96.9547 160.295 97.2525 160.104L96.712 159.263L96.1716 158.421C95.8743 158.612 95.5721 158.806 95.2649 159.003L95.8046 159.845ZM96.712 159.263L96.6157 160.258C97.0592 160.301 97.5812 160.466 98.1578 160.796L98.6541 159.928L99.1503 159.059C98.3791 158.619 97.5866 158.343 96.8084 158.267L96.712 159.263ZM98.6541 159.928L98.1577 160.796C99.3382 161.471 100.468 162.676 101.308 164.115C102.147 165.554 102.64 167.13 102.646 168.489L103.646 168.485L104.646 168.481C104.638 166.687 104.004 164.768 103.035 163.107C102.067 161.447 100.708 159.95 99.1504 159.06L98.6541 159.928ZM103.646 168.485L102.646 168.488C102.648 169.197 102.517 169.758 102.31 170.179L103.208 170.619L104.106 171.06C104.473 170.311 104.649 169.434 104.646 168.481L103.646 168.485ZM103.208 170.619L102.774 169.718C102.458 169.87 102.136 170.025 101.81 170.181L102.242 171.083L102.673 171.985C103.001 171.828 103.324 171.673 103.642 171.52L103.208 170.619ZM102.242 171.083L102.934 171.804C103.773 170.998 104.126 169.787 104.121 168.483L103.121 168.487L102.121 168.49C102.125 169.476 101.854 170.068 101.549 170.362L102.242 171.083ZM103.121 168.487L104.121 168.482C104.113 166.772 103.509 164.946 102.588 163.368C101.667 161.789 100.375 160.364 98.8905 159.515L98.3939 160.383L97.8974 161.251C99.0051 161.884 100.069 163.019 100.86 164.375C101.652 165.732 102.115 167.216 102.121 168.492L103.121 168.487Z" fill="black" mask="url(#path-61-inside-1_318_1738)"/>
<path d="M15.5446 215.052C15.5025 215.076 15.3783 215.115 15.1471 215.008L15.0406 214.953C14.7421 214.78 14.4432 214.464 14.2184 214.075C13.9936 213.685 13.8698 213.268 13.8698 212.923V212.922C13.8692 212.662 13.9357 212.535 13.9889 212.476L14.0348 212.437L14.0406 212.434C14.0432 212.433 14.0468 212.43 14.0514 212.427C14.0605 212.422 14.0736 212.415 14.0905 212.405C14.1243 212.385 14.1737 212.357 14.2379 212.32C14.3664 212.246 14.5545 212.137 14.7985 211.996C15.2869 211.713 15.9996 211.301 16.903 210.779C18.7097 209.734 21.2826 208.247 24.3658 206.464C30.5326 202.899 38.7424 198.154 46.9518 193.409L79.8668 174.38C79.9156 174.352 80.0713 174.306 80.3727 174.48H80.3737C80.6716 174.652 80.9693 174.969 81.194 175.358C81.4188 175.748 81.5435 176.164 81.5436 176.508C81.5436 176.851 81.4289 176.965 81.3795 176.995L15.5446 215.052Z" fill="black" stroke="black"/>
<path d="M15.5442 215.053C15.5039 215.076 15.3799 215.116 15.1477 215.009L15.0413 214.953C15.0336 214.948 15.0265 214.943 15.0188 214.938C28.4471 207.176 68.0651 184.273 81.5432 176.481C81.5434 176.49 81.5442 176.5 81.5442 176.509C81.5442 176.769 81.4774 176.897 81.4241 176.956L81.3782 176.995L81.3723 176.998C81.3698 176.999 81.3661 177.002 81.3616 177.005C81.3525 177.01 81.3394 177.017 81.3225 177.027C81.2887 177.047 81.2393 177.075 81.175 177.112C81.0465 177.186 80.8578 177.295 80.6135 177.436C80.1251 177.719 79.4133 178.131 78.51 178.653C76.7033 179.698 74.1304 181.185 71.0471 182.968C64.8803 186.533 56.6706 191.278 48.4612 196.024L15.5442 215.053Z" fill="#FEFFFF" stroke="black"/>
<path d="M3.69943 222.028C3.60757 222.081 3.39069 222.125 3.0217 221.912V221.911C2.65499 221.7 2.29494 221.317 2.0256 220.85C1.75625 220.383 1.60471 219.88 1.60471 219.456C1.60473 219.083 1.71574 218.909 1.8049 218.836L1.84201 218.812L1.84396 218.811C1.92446 218.764 2.10039 218.725 2.39084 218.859L2.5217 218.927C2.8879 219.139 3.24743 219.522 3.51682 219.989C3.78634 220.455 3.93869 220.959 3.93869 221.382C3.93859 221.807 3.79254 221.974 3.69943 222.028Z" fill="white" stroke="black"/>
<path d="M5.39233 223.969C5.02751 224.179 4.45341 224.209 3.70679 223.822L3.55542 223.739L3.55444 223.738C2.73625 223.265 1.96684 222.434 1.40112 221.454C0.835299 220.474 0.500747 219.392 0.500732 218.447C0.500732 217.618 0.752032 217.105 1.07593 216.839L1.21948 216.74L10.9724 211.121C11.3371 210.911 11.911 210.882 12.658 211.27L12.8093 211.353C13.6278 211.826 14.3969 212.657 14.9626 213.637C15.5285 214.617 15.864 215.699 15.864 216.645C15.8639 217.475 15.6113 217.986 15.2878 218.251L15.1453 218.35V218.351C14.7829 218.561 5.76975 223.753 5.39331 223.97L5.39233 223.969Z" fill="black" stroke="black"/>
<path d="M5.3916 223.97C5.02696 224.18 4.45298 224.209 3.70605 223.822L3.55469 223.739C2.73624 223.266 1.96717 222.434 1.40137 221.455C0.835533 220.474 0.5 219.392 0.5 218.447C0.500048 217.616 0.751886 217.104 1.0752 216.839L1.21777 216.741C1.58213 216.53 2.15605 216.501 2.90332 216.889L3.05469 216.972L3.20801 217.065C3.96933 217.549 4.67866 218.338 5.20898 219.256C5.7745 220.236 6.10938 221.318 6.10938 222.263C6.10935 223.094 5.85781 223.606 5.53418 223.872L5.3916 223.97Z" fill="white" stroke="black"/>
<path d="M4.13025 221.783C4.06432 221.821 3.88335 221.866 3.55505 221.677C3.2293 221.488 2.90604 221.146 2.66345 220.725C2.42091 220.305 2.28561 219.854 2.28552 219.478C2.28552 219.1 2.41484 218.966 2.48083 218.928C2.53843 218.894 2.68357 218.856 2.93884 218.974L3.05505 219.034H3.05603C3.38156 219.222 3.70408 219.565 3.94666 219.985C4.18914 220.405 4.32458 220.857 4.32458 221.233C4.32449 221.612 4.19531 221.746 4.13025 221.783Z" fill="#FEFFFF" stroke="black"/>
<path d="M172.754 151.617L202.018 138.168L202.433 137.978L202.281 137.548L193.405 112.283C193.402 112.268 193.396 112.247 193.39 112.22C193.375 112.158 193.354 112.065 193.327 111.943C193.273 111.699 193.194 111.339 193.1 110.878C192.91 109.957 192.655 108.633 192.393 107.024C191.868 103.804 191.317 99.4505 191.209 94.9094C191.101 90.3627 191.437 85.6582 192.667 81.72C193.876 77.8498 195.927 74.7854 199.204 73.2786C203.371 74.6415 206.366 76.053 208.703 78.0588C210.92 79.9617 212.58 82.4277 214.067 85.9739L214.362 86.6975C217.597 94.8431 226.535 125.571 229.694 136.676L230.661 140.112C231.385 142.748 231.801 145.071 231.398 147.162C231.027 149.091 229.947 150.879 227.613 152.542L227.13 152.873C225.817 153.737 222.894 154.857 219.045 156.097C215.221 157.329 210.552 158.66 205.803 159.959C196.595 162.477 187.055 164.883 182.887 166.187L172.754 151.617Z" fill="white" stroke="black"/>
<path d="M156.697 172.792C155.052 172.804 153.527 172.694 152.299 172.421C151.05 172.143 150.209 171.719 149.806 171.188V171.187C149.291 170.506 149.087 169.981 149.035 169.595C148.983 169.219 149.07 168.944 149.197 168.738C149.329 168.523 149.518 168.362 149.686 168.254C149.768 168.201 149.841 168.163 149.891 168.14C149.916 168.128 149.935 168.119 149.946 168.114C149.949 168.113 149.953 168.112 149.955 168.111L149.724 167.154C149.724 167.15 149.723 167.148 149.723 167.146C149.721 167.147 149.717 167.146 149.711 167.146C149.699 167.147 149.679 167.149 149.652 167.15C149.597 167.153 149.513 167.154 149.409 167.148C149.198 167.137 148.908 167.099 148.594 166.991C148.022 166.794 147.343 166.358 146.912 165.351L146.83 165.141C146.408 163.979 146.691 163.373 146.971 163.053C147.126 162.875 147.308 162.755 147.455 162.679C147.527 162.641 147.589 162.616 147.629 162.601C147.649 162.593 147.664 162.589 147.672 162.586C147.674 162.585 147.676 162.584 147.677 162.584L147.672 162.566L147.456 161.634C147.451 161.611 147.451 161.611 147.451 161.611H147.452L147.454 161.61L147.444 161.612C147.433 161.614 147.414 161.616 147.389 161.618C147.338 161.623 147.261 161.628 147.165 161.625C146.97 161.619 146.71 161.582 146.441 161.464C145.97 161.257 145.364 160.753 145.1 159.428L145.052 159.151L145.051 159.15C144.982 158.701 145.134 158.285 145.462 157.882C145.797 157.471 146.295 157.104 146.837 156.795C147.375 156.488 147.93 156.254 148.353 156.095C148.563 156.016 148.739 155.956 148.862 155.917C148.923 155.897 148.971 155.883 149.002 155.873C149.018 155.868 149.03 155.864 149.038 155.862C149.041 155.861 149.044 155.861 149.045 155.86H149.047L148.886 154.892C148.886 154.883 148.885 154.881 148.885 154.88H148.876C148.87 154.88 148.861 154.88 148.849 154.881C148.825 154.882 148.79 154.884 148.744 154.886C148.651 154.89 148.515 154.896 148.344 154.901C148.003 154.913 147.523 154.925 146.973 154.927C145.867 154.93 144.495 154.892 143.376 154.735L143.365 154.734H143.354V154.733H143.355L143.348 154.732C143.341 154.731 143.328 154.73 143.311 154.727C143.276 154.722 143.222 154.713 143.154 154.698C143.016 154.669 142.823 154.617 142.609 154.53C142.302 154.405 141.965 154.213 141.675 153.919L152.942 147.428C154.679 147.217 156.285 147.057 157.591 146.969C158.772 146.889 159.672 146.869 160.203 146.911L160.407 146.933H160.408C164.658 147.515 167.622 149.716 175.398 148.348L176.165 148.203C177.73 147.892 180.325 146.789 183.32 145.388C186.29 143.998 189.732 142.279 193.06 140.669C194.672 140.93 196.263 142.02 197.664 143.714C199.1 145.451 200.298 147.775 201.071 150.315C202.607 155.366 202.421 161.094 199.378 164.717C188.645 166.768 170.27 170.66 166.23 171.64L166.231 171.641C163.668 172.255 159.985 172.768 156.697 172.792Z" fill="black" stroke="black"/>
<mask id="path-71-inside-2_318_1738" fill="white">
<path d="M148.912 155.379C149.391 155.061 149.904 154.913 150.423 154.803C150.946 154.715 151.477 154.668 152.041 154.792C151.561 155.112 151.049 155.26 150.529 155.368C150.005 155.454 149.474 155.501 148.912 155.379ZM149.57 161.127C150.278 160.903 151 160.72 151.777 160.7C151.142 161.147 150.453 161.429 149.75 161.673C149.041 161.894 148.319 162.078 147.543 162.098C148.179 161.653 148.868 161.37 149.57 161.127ZM153.324 166.339C152.811 166.768 152.24 167.033 151.653 167.258C151.06 167.464 150.452 167.632 149.785 167.638C150.297 167.211 150.869 166.946 151.455 166.718C152.049 166.511 152.657 166.344 153.324 166.339Z"/>
</mask>
<path d="M148.912 155.379C149.391 155.061 149.904 154.913 150.423 154.803C150.946 154.715 151.477 154.668 152.041 154.792C151.561 155.112 151.049 155.26 150.529 155.368C150.005 155.454 149.474 155.501 148.912 155.379ZM149.57 161.127C150.278 160.903 151 160.72 151.777 160.7C151.142 161.147 150.453 161.429 149.75 161.673C149.041 161.894 148.319 162.078 147.543 162.098C148.179 161.653 148.868 161.37 149.57 161.127ZM153.324 166.339C152.811 166.768 152.24 167.033 151.653 167.258C151.06 167.464 150.452 167.632 149.785 167.638C150.297 167.211 150.869 166.946 151.455 166.718C152.049 166.511 152.657 166.344 153.324 166.339Z" fill="black"/>
<path d="M148.912 155.379L148.36 154.544L146.382 155.852L148.699 156.356L148.912 155.379ZM150.423 154.803L150.258 153.817L150.237 153.82L150.217 153.825L150.423 154.803ZM152.041 154.792L152.595 155.625L154.553 154.322L152.256 153.816L152.041 154.792ZM150.529 155.368L150.692 156.354L150.711 156.351L150.731 156.347L150.529 155.368ZM149.57 161.127L149.269 160.173L149.255 160.177L149.242 160.182L149.57 161.127ZM151.777 160.7L152.353 161.517L155.049 159.617L151.752 159.7L151.777 160.7ZM149.75 161.673L150.048 162.627L150.063 162.623L150.077 162.618L149.75 161.673ZM147.543 162.098L146.969 161.279L144.248 163.187L147.57 163.098L147.543 162.098ZM153.324 166.339L153.965 167.106L156.102 165.318L153.316 165.339L153.324 166.339ZM151.653 167.258L151.981 168.203L151.996 168.198L152.011 168.192L151.653 167.258ZM149.785 167.638L149.145 166.869L146.991 168.662L149.793 168.638L149.785 167.638ZM151.455 166.718L151.126 165.774L151.109 165.78L151.092 165.786L151.455 166.718ZM148.912 155.379L149.463 156.213C149.787 155.999 150.154 155.882 150.629 155.782L150.423 154.803L150.217 153.825C149.653 153.943 148.996 154.124 148.36 154.544L148.912 155.379ZM150.423 154.803L150.588 155.789C151.065 155.71 151.447 155.686 151.826 155.769L152.041 154.792L152.256 153.816C151.507 153.651 150.828 153.721 150.258 153.817L150.423 154.803ZM152.041 154.792L151.487 153.96C151.165 154.174 150.799 154.291 150.326 154.388L150.529 155.368L150.731 156.347C151.298 156.23 151.957 156.049 152.595 155.625L152.041 154.792ZM150.529 155.368L150.365 154.381C149.888 154.46 149.504 154.484 149.124 154.401L148.912 155.379L148.699 156.356C149.445 156.518 150.122 156.449 150.692 156.354L150.529 155.368ZM149.57 161.127L149.871 162.08C150.548 161.867 151.165 161.716 151.802 161.7L151.777 160.7L151.752 159.7C150.836 159.724 150.008 159.94 149.269 160.173L149.57 161.127ZM151.777 160.7L151.201 159.883C150.681 160.249 150.097 160.494 149.423 160.728L149.75 161.673L150.077 162.618C150.808 162.364 151.603 162.046 152.353 161.517L151.777 160.7ZM149.75 161.673L149.452 160.718C148.771 160.931 148.153 161.082 147.516 161.099L147.543 162.098L147.57 163.098C148.484 163.074 149.31 162.858 150.048 162.627L149.75 161.673ZM147.543 162.098L148.117 162.917C148.639 162.551 149.225 162.305 149.898 162.072L149.57 161.127L149.242 160.182C148.511 160.436 147.718 160.754 146.969 161.279L147.543 162.098ZM153.324 166.339L152.682 165.572C152.295 165.896 151.844 166.113 151.294 166.325L151.653 167.258L152.011 168.192C152.636 167.952 153.328 167.64 153.965 167.106L153.324 166.339ZM151.653 167.258L151.325 166.314C150.768 166.507 150.281 166.633 149.776 166.638L149.785 167.638L149.793 168.638C150.622 168.63 151.352 168.421 151.981 168.203L151.653 167.258ZM149.785 167.638L150.425 168.406C150.812 168.083 151.265 167.865 151.817 167.65L151.455 166.718L151.092 165.786C150.474 166.027 149.782 166.339 149.145 166.869L149.785 167.638ZM151.455 166.718L151.784 167.663C152.341 167.468 152.827 167.343 153.331 167.339L153.324 166.339L153.316 165.339C152.486 165.345 151.756 165.554 151.126 165.774L151.455 166.718Z" fill="black" mask="url(#path-71-inside-2_318_1738)"/>
<path d="M230.706 139.109C230.258 138.836 229.61 138.462 228.792 138.039C227.133 137.18 224.769 136.121 221.953 135.319C216.455 133.753 209.188 133.157 202.071 137C202.032 136.898 201.988 136.783 201.939 136.655C201.724 136.092 201.413 135.284 201.035 134.301C200.28 132.337 199.257 129.676 198.18 126.895C196.298 122.034 194.249 116.788 193.2 114.247L192.815 113.332C192.005 111.461 189.726 103.287 189.551 94.526C189.377 85.81 191.289 76.7699 198.483 72.609C203.391 74.3232 206.701 75.8374 209.231 77.9576C211.628 79.9653 213.361 82.5456 215.064 86.4469L215.403 87.2457C217.671 92.6879 220.355 101.399 222.671 109.338C224.979 117.249 226.926 124.413 227.706 126.687L227.73 126.754L227.77 126.812L228.106 127.318C229.726 129.882 230.38 132.906 230.617 135.374C230.743 136.684 230.749 137.826 230.725 138.639C230.719 138.811 230.713 138.968 230.706 139.109Z" fill="white" stroke="black"/>
<path d="M66.2209 188.792C65.5538 189.136 64.7572 189.102 64.3097 188.716L64.2248 188.634C64.0768 188.473 63.9688 188.265 63.8693 188.01L63.7716 187.739V187.738C63.1269 185.849 62.8584 183.832 62.9855 181.84L63.0168 181.443C63.0409 181.176 63.0893 180.895 63.1613 180.616L63.2404 180.336L63.2414 180.335C63.4231 179.757 63.6992 179.22 64.0539 178.815L64.2101 178.65L64.2111 178.649C64.8446 178.03 65.8078 178.061 66.3449 178.708L66.4464 178.846V178.847C66.5905 179.067 66.6977 179.319 66.8068 179.613C66.8842 179.821 66.9679 180.065 67.0646 180.306L67.1662 180.545L67.8273 182.001L68.1134 180.428C68.4498 178.581 68.927 176.629 69.8146 175.03L69.9972 174.714C70.3527 174.13 70.8163 173.635 71.3654 173.34L71.6066 173.226C72.1578 173.001 72.5488 173.02 72.8351 173.133C73.1315 173.25 73.3948 173.499 73.6222 173.878C74.086 174.652 74.3027 175.801 74.3839 176.731L75.3459 176.873C75.6376 176.147 75.9188 175.451 76.2707 174.8L76.4259 174.524C76.6928 174.07 77.0204 173.589 77.4054 173.211C77.7432 172.88 78.099 172.652 78.4738 172.568L78.6349 172.54H78.6359C79.2148 172.475 79.717 172.742 80.1027 173.218C80.4457 173.642 80.6641 174.197 80.7199 174.711L80.7336 174.929C80.739 175.23 80.7447 175.53 80.7502 175.83C80.7556 176.131 80.7604 176.431 80.7658 176.732L81.716 176.94C81.9649 176.425 82.2591 175.965 82.6349 175.625L82.8009 175.488C83.3279 175.087 84.0312 174.976 84.6544 175.184L84.7775 175.23H84.7785C85.0178 175.328 85.2161 175.543 85.3644 175.861C85.4756 176.099 85.5466 176.373 85.5812 176.639L85.6037 176.901L85.6066 177.157C85.5963 177.584 85.5175 178.017 85.4132 178.47L85.2785 179.025L84.8605 180.696H84.8595C84.7207 181.249 84.5748 181.88 84.3576 182.478L84.2599 182.733C83.9538 183.485 83.5598 184.045 83.0187 184.294L82.9084 184.339C82.5824 184.459 82.1804 184.483 81.8195 184.392C81.461 184.301 81.1861 184.111 81.0392 183.844L80.5802 183.008L80.1535 183.861C79.8982 184.371 79.5899 184.83 79.2033 185.177L79.0324 185.32C78.2523 185.917 77.3286 185.947 76.5539 185.411L76.4015 185.295C76.049 185.009 75.7554 184.636 75.5099 184.215L75.4074 184.032L75.4064 184.03C75.3634 183.95 75.2916 183.806 75.1837 183.666L75.0636 183.532L75.0617 183.53C74.8994 183.375 74.6152 183.214 74.2902 183.258L74.1486 183.29H74.1466C73.9309 183.361 73.7884 183.504 73.6984 183.628C73.6548 183.688 73.6187 183.751 73.589 183.809L73.5177 183.966C73.3505 184.37 73.1962 184.828 73.0539 185.201C72.9408 185.497 72.8236 185.773 72.6847 186.028L72.5382 186.276C72.2029 186.795 71.6068 187.186 70.9572 187.327C70.3134 187.465 69.6736 187.347 69.2072 186.935V186.934C69.1574 186.889 69.0556 186.798 68.9318 186.732C68.8017 186.662 68.5796 186.585 68.3263 186.677L68.3273 186.678C68.1482 186.743 68.0292 186.874 67.9709 186.951L67.9328 187.003L67.9308 187.005C67.4003 187.748 67.0035 188.339 66.3546 188.719L66.2209 188.792Z" fill="black" stroke="black"/>
<path d="M66.2224 188.793C65.5549 189.137 64.7585 189.103 64.3102 188.716L64.2253 188.634C64.0284 188.421 63.9042 188.124 63.7722 187.739V187.738C63.7275 187.607 63.6855 187.475 63.6452 187.342C64.2806 187.514 64.9695 187.505 65.6003 187.254L65.7975 187.167C66.3383 186.901 66.842 186.452 67.2263 186.164C67.6509 185.845 67.9925 185.662 68.362 185.659L68.5524 185.672C68.7461 185.7 68.9554 185.767 69.2292 185.848C69.5179 185.934 69.8862 186.038 70.2849 186.014L70.4567 185.996C71.0067 185.91 71.4151 185.594 71.7253 185.256C71.8762 185.092 72.0166 184.908 72.1452 184.727L72.4958 184.218V184.217C72.9739 183.524 73.5499 182.94 74.2438 182.634C74.8951 182.348 75.6485 182.351 76.1872 182.674L76.2917 182.744C76.4168 182.833 76.5431 182.948 76.6872 183.086C76.8231 183.217 76.9845 183.378 77.1472 183.517C77.4515 183.778 77.8688 184.063 78.4099 184.046L78.5202 184.039C79.0553 183.982 79.4234 183.655 79.6755 183.325C79.7985 183.163 79.9071 182.983 80.0026 182.807L80.2526 182.316V182.315C80.379 182.061 80.5733 181.814 80.7722 181.67C80.9193 181.564 81.0214 181.542 81.0964 181.555L81.1628 181.578C81.2134 181.603 81.2613 181.645 81.3835 181.751C81.4584 181.817 81.571 181.915 81.7165 181.996L81.8737 182.068L82.0378 182.116C82.4162 182.195 82.7599 182.062 83.0124 181.891C83.2259 181.747 83.4082 181.556 83.5534 181.366L83.6862 181.178C84.0844 180.57 84.661 179.474 84.9343 178.368C85.1801 177.372 85.2292 176.135 84.3522 175.372L84.1647 175.225C84.0847 175.17 84.0014 175.124 83.9177 175.084C84.1656 175.072 84.4161 175.104 84.655 175.184L84.778 175.23H84.779C85.0186 175.328 85.2176 175.543 85.3659 175.861C85.5141 176.179 85.5911 176.559 85.6061 176.901H85.6052C85.6349 177.582 85.4682 178.268 85.279 179.025L84.861 180.696H84.86C84.7212 181.25 84.5754 181.88 84.3581 182.478L84.2604 182.732C83.9544 183.485 83.5602 184.045 83.0192 184.294L82.9089 184.34C82.583 184.46 82.1809 184.483 81.82 184.392C81.4613 184.301 81.1866 184.11 81.0397 183.843L80.5807 183.008L80.154 183.861C79.8985 184.372 79.5901 184.831 79.2038 185.177L79.0329 185.319C78.2537 185.917 77.3295 185.947 76.5554 185.411L76.403 185.296C76.0496 185.01 75.7568 184.636 75.5104 184.214L75.4079 184.032C75.3514 183.927 75.2432 183.704 75.0641 183.532V183.531C74.8993 183.372 74.6133 183.213 74.2897 183.258L74.1491 183.291C73.9328 183.36 73.7899 183.504 73.6999 183.627C73.6562 183.687 73.6203 183.75 73.5905 183.808L73.5182 183.965C73.3509 184.37 73.1968 184.829 73.0544 185.202C72.9414 185.498 72.824 185.773 72.6852 186.028L72.5388 186.276C72.2034 186.795 71.6071 187.187 70.9577 187.327C70.3534 187.457 69.7528 187.361 69.2956 187.006L69.2067 186.932L69.2048 186.931C69.1578 186.89 69.0563 186.798 68.9343 186.732C68.8213 186.671 68.6366 186.604 68.4216 186.65L68.3278 186.676L68.3268 186.677C68.0899 186.764 67.9606 186.964 67.9304 187.006L67.9313 187.007C67.3659 187.798 66.951 188.416 66.2214 188.792L66.2224 188.793Z" fill="black" stroke="black"/>
<path d="M158.707 48.2824C159.938 47.6669 160.953 46.923 162.071 46.1247C163.189 45.3264 161.041 50.7122 158.707 51.8151C156.282 52.9611 152.77 53.1345 151.95 50.5804C151.667 49.6955 151.429 48.2007 151.95 48.2007C152.472 48.2007 153.022 48.6032 153.527 48.7197C154.364 48.9129 155.001 49.0775 155.843 48.984C156.779 48.88 157.861 48.7055 158.707 48.2824Z" stroke="#0A0A0A" stroke-linecap="round"/>
<path d="M157.68 40.6016C158.011 40.7259 157.642 42.0958 157.55 42.3219C157.421 42.6376 157.178 42.8592 156.988 43.1293C156.345 44.0419 155.492 44.148 154.412 44.148C153.005 44.148 151.966 42.9302 152.163 41.5723C152.245 41.0081 152.796 40.2352 153.095 39.7366" stroke="#0A0A0A" stroke-linecap="round"/>
</svg>
