<svg width="84" height="84" viewBox="0 0 84 84" fill="none" xmlns="http://www.w3.org/2000/svg">
<path d="M0.980812 39.8364L13.5119 34.7719L5.11528 24.1806L18.6306 24.2971L14.9262 11.2988L27.3682 16.5784L28.92 3.152L38.3945 12.7911L44.9663 0.980542L50.0308 13.5116L60.622 5.11501L60.5056 18.6303L73.5039 14.926L68.2242 27.3679L81.6507 28.9198L72.0116 38.3942L83.8221 44.966L71.2911 50.0305L79.6877 60.6218L66.1724 60.5053L69.8767 73.5036L57.4347 68.224L55.8829 81.6504L46.4085 72.0113L39.8367 83.8219L34.7722 71.2908L24.1809 79.6874L24.2973 66.1721L11.2991 69.8765L16.5787 57.4345L3.15227 55.8827L12.7914 46.4082L0.980812 39.8364Z" fill="#3B82F6"/>
</svg>
