<svg width="715" height="141" viewBox="0 0 715 141" fill="none" xmlns="http://www.w3.org/2000/svg">
<path d="M651.443 42.1413L573 31.9322V11.5139C733.918 3.66245 637.033 -14.5239 696.5 22.0266C755.967 58.5772 651.443 42.1413 651.443 42.1413Z" fill="url(#paint0_linear_321_1967)"/>
<path fill-rule="evenodd" clip-rule="evenodd" d="M32.6292 105.814C41.9484 87.3776 51.4395 68.367 62.2582 50.802C63.8315 48.2474 65.9916 46.1639 68.8795 45.1907C73.6729 43.5769 92.5956 44.1968 99.3733 44.2356C96.6974 46.4097 80.0408 56.0367 75.8046 61.6117C73.0007 65.3064 71.4688 68.3709 69.9977 73.1449C66.5125 84.449 55.2065 118.919 59.1092 125.585C62.1639 130.8 69.7314 130.813 71.0357 128.915C72.4758 126.814 65.6425 126.264 64.9652 120.046C64.4041 114.888 72.3233 89.0599 74.3154 82.2192C76.6151 74.3238 78.2478 67.3964 85.6176 62.5008C89.6689 60.042 101.987 52.9554 106.634 51.2795C107.484 53.9169 107.145 59.3988 105.87 65.1809C100.975 83.7657 86.4966 114.434 73.8513 129.531C69.871 134.282 65.8765 136.031 60.389 133.795C53.1136 130.83 40.4721 122.759 33.3842 118.174C29.3832 115.587 30.8078 109.418 32.6292 105.814ZM78.6085 133.082C74.168 138.986 69.1794 141.258 63.6427 139.903C38.78 129.775 17.891 117.194 0.971978 102.159C0.846585 99.6057 1.99322 97.9052 4.41189 97.0576C10.3441 95.4347 14.7601 90.8652 17.6583 83.349C25.0591 69.8048 32.0061 58.9847 38.4994 50.8913C42.3026 46.147 43.7272 42.9971 43.2709 37.5179C42.9748 33.9396 40.1981 29.9072 37.3541 26.369C30.0309 17.252 39.3242 10.2353 48.4223 6.70365C54.3946 4.38848 63.9194 2.83813 70.1386 3.39719C115.06 4.1633 137.521 4.54377 137.521 4.54377C139.712 5.20248 140.816 6.64801 140.833 8.88036L140.899 13.5651H273.592C274.125 10.4074 276.882 7.98612 280.181 7.98612H341.461C344.756 7.98612 347.516 10.4074 348.049 13.5651H500.613V13.5314C500.613 12.8856 501.143 12.3551 501.788 12.3551H503.416V11.0506C515.009 10.1162 526.611 9.178 538.198 8.24365C549.784 7.31059 561.376 6.37624 572.963 5.43801C572.963 10.6132 572.963 15.7909 572.963 20.9622C572.963 26.1335 572.963 31.3087 572.963 36.4839C561.376 35.5495 549.784 34.6152 538.198 33.6808C526.609 32.7465 515.009 31.8095 503.416 30.8713V29.6949H501.788C501.143 29.6949 500.613 29.1656 500.613 28.5199V28.3542H348.069C347.592 31.574 344.803 34.0652 341.461 34.0652H280.181C276.838 34.0652 274.046 31.574 273.569 28.3542H141.111L141.151 31.1961C141.384 33.6109 139.771 34.9296 136.31 35.1483C128.674 35.1652 123.409 37.8453 120.516 43.1822C116.658 52.8894 113.134 62.9602 109.944 73.4063C102.656 93.2244 96.2023 106.914 90.5829 114.467C86.6608 121.987 82.6689 128.195 78.6085 133.082Z" fill="white"/>
<defs>
<linearGradient id="paint0_linear_321_1967" x1="632.5" y1="23" x2="518.503" y2="26.5877" gradientUnits="userSpaceOnUse">
<stop stop-color="white" stop-opacity="0"/>
<stop offset="1" stop-color="white"/>
</linearGradient>
</defs>
</svg>
