<svg width="343" height="91" viewBox="0 0 343 91" fill="none" xmlns="http://www.w3.org/2000/svg">
<path fill-rule="evenodd" clip-rule="evenodd" d="M18.6596 61.3538C24.151 50.3218 29.7439 38.9461 36.1189 28.4353C37.0459 26.9066 38.3187 25.6598 40.0204 25.0774C42.845 24.1118 53.9952 24.4828 57.989 24.506C56.4122 25.807 46.5973 31.5677 44.1011 34.9037C42.4488 37.1146 41.5462 38.9483 40.6793 41.8051C38.6257 48.5694 31.9636 69.196 34.2633 73.1849C36.0633 76.3057 40.5222 76.3134 41.2908 75.1774C42.1394 73.9206 38.113 73.5914 37.7139 69.8705C37.3833 66.7838 42.0497 51.3285 43.2236 47.2351C44.5787 42.5105 45.5406 38.3652 49.8833 35.4357C52.2706 33.9643 59.5291 29.7238 62.2675 28.721C62.768 30.2992 62.5686 33.5795 61.8175 37.0395C58.9328 48.1605 50.4014 66.512 42.9501 75.5461C40.6047 78.3889 38.2508 79.4358 35.0172 78.0976C30.7301 76.3235 23.2812 71.4936 19.1046 68.75C16.747 67.202 17.5863 63.5105 18.6596 61.3538ZM45.7531 77.671C43.1365 81.2037 40.9764 91.7665 37.7139 90.9557C23.0634 84.8954 9.97508 68.1638 0.00545653 59.1669C-0.0684319 57.6391 0.607384 56.6215 2.0326 56.1143C5.52821 55.1432 8.13008 52.4088 9.83789 47.9111C14.1988 39.8063 18.2924 33.3317 22.1186 28.4886C24.3597 25.6497 25.1993 23.7649 24.9304 20.4861C24.756 18.3449 23.1196 15.9319 21.4438 13.8148C17.1285 8.35918 22.6047 4.16039 27.9658 2.04708C31.485 0.661696 37.0977 -0.266035 40.7624 0.0685018C67.2328 0.526943 80.4679 0.754663 80.4679 0.754663C81.759 1.14883 82.4095 2.0138 82.4194 3.34962L82.4583 6.15288L160.648 6.15289C160.962 4.26338 162.587 2.8145 164.531 2.8145L200.64 2.8145C202.582 2.8145 204.208 4.26338 204.522 6.15289L340.562 3.38847L340.562 3.36839C340.562 2.98197 340.874 2.66447 341.254 2.66447L342.213 2.66447L342.213 1.88384C342.213 1.88384 344.51 15.9015 341.254 13.0405L340.562 12.3374L340.562 12.2383L204.534 15.0027C204.253 16.9294 202.61 18.42 200.64 18.42L164.531 18.42C162.561 18.42 160.916 16.9294 160.635 15.0027L82.5831 15.0027L82.607 16.7032C82.7441 18.1482 81.7933 18.9373 79.7541 19.0682C75.2545 19.0782 72.152 20.682 70.4473 23.8756C68.1742 29.6843 66.0978 35.7106 64.2178 41.9615C59.9231 53.8205 56.1205 62.012 52.8092 66.5321C50.4981 71.0321 48.1457 74.7469 45.7531 77.671Z" fill="black"/>
</svg>
