<svg width="375" height="100" viewBox="0 0 375 100" fill="none" xmlns="http://www.w3.org/2000/svg">
<path d="M20.1624 84C19.7159 84 19.3234 83.7039 19.2008 83.2745L0.363741 17.2744C0.181434 16.6357 0.661081 16 1.32534 16H20.7828C21.242 16 21.6422 16.3128 21.7532 16.7584L29.9894 49.838C30.2355 50.8266 31.6293 50.8572 31.9186 49.8804L41.7404 16.716C41.8662 16.2914 42.2563 16 42.6993 16H56.3007C56.7437 16 57.1338 16.2914 57.2596 16.716L67.0814 49.8804C67.3707 50.8572 68.7645 50.8266 69.0106 49.838L77.2468 16.7584C77.3578 16.3128 77.758 16 78.2172 16H97.6747C98.3389 16 98.8186 16.6357 98.6363 17.2745L79.7992 83.2744C79.6766 83.7039 79.2841 84 78.8376 84H61.0285C60.5858 84 60.1958 83.7089 60.0698 83.2845L50.4587 50.8989C50.1756 49.9449 48.8244 49.9449 48.5413 50.8989L38.9302 83.2845C38.8042 83.7089 38.4142 84 37.9715 84H20.1624Z" fill="black"/>
<path d="M155.77 0.89681C156.212 -0.298938 157.788 -0.298936 158.23 0.896812L170.566 34.2677C170.757 34.7831 171.209 35.1324 171.724 35.1625L205.747 37.1475C206.962 37.2184 207.451 38.8654 206.499 39.6793L180.137 62.2083C179.724 62.5615 179.546 63.145 179.684 63.6926L188.389 98.2017C188.705 99.4513 187.428 100.466 186.408 99.7767L157.705 80.3721C157.274 80.0809 156.726 80.0809 156.295 80.3721L127.592 99.7767C126.572 100.466 125.295 99.4513 125.611 98.2017L134.316 63.6926C134.454 63.145 134.276 62.5615 133.863 62.2083L107.501 39.6793C106.549 38.8654 107.038 37.2184 108.253 37.1475L142.276 35.1625C142.791 35.1324 143.243 34.7831 143.434 34.2677L155.77 0.89681Z" fill="url(#paint0_radial_363_5937)"/>
<path d="M235.162 84C234.716 84 234.323 83.7039 234.201 83.2745L215.364 17.2744C215.181 16.6357 215.661 16 216.325 16H235.783C236.242 16 236.642 16.3128 236.753 16.7584L244.989 49.8381C245.235 50.8266 246.629 50.8572 246.919 49.8804L256.74 16.716C256.866 16.2914 257.256 16 257.699 16H271.301C271.744 16 272.134 16.2914 272.26 16.716L282.081 49.8804C282.371 50.8572 283.765 50.8266 284.011 49.838L292.247 16.7584C292.358 16.3128 292.758 16 293.217 16H312.675C313.339 16 313.819 16.6357 313.636 17.2745L294.799 83.2744C294.677 83.7039 294.284 84 293.838 84H276.029C275.586 84 275.196 83.7089 275.07 83.2845L265.459 50.8989C265.176 49.9449 263.824 49.9449 263.541 50.8989L253.93 83.2845C253.804 83.7089 253.414 84 252.972 84H235.162Z" fill="black"/>
<path d="M367.399 47.9642C366.844 48.4391 366.896 49.3438 367.507 49.7459C372.502 53.0376 375 57.7852 375 63.9886C375 70.2057 372.939 75.0952 368.817 78.6571C364.76 82.2191 358.838 84 351.052 84H323C322.448 84 322 83.5523 322 83V17C322 16.4477 322.448 16 323 16H349.285C357.006 16 362.895 17.6514 366.952 20.9543C371.009 24.2571 373.037 28.9848 373.037 35.1371C373.037 40.4757 371.158 44.7514 367.399 47.9642ZM348.107 32.7086H342.63C342.077 32.7086 341.63 33.1563 341.63 33.7086V40.8271C341.63 41.3844 342.085 41.8341 342.642 41.827L349.187 41.7429C352.001 41.3543 353.407 39.8648 353.407 37.2743C353.407 35.7848 352.884 34.6514 351.837 33.8743C350.79 33.0971 349.547 32.7086 348.107 32.7086ZM349.874 67.2914C351.444 67.2914 352.753 66.8381 353.8 65.9314C354.847 65.0248 355.37 63.859 355.37 62.4343C355.37 59.7363 353.922 58.1534 351.025 57.6855C350.978 57.6779 350.93 57.674 350.882 57.6735L342.64 57.5877C342.084 57.5819 341.63 58.0313 341.63 58.5876V66.2914C341.63 66.8437 342.077 67.2914 342.63 67.2914H349.874Z" fill="black"/>
<defs>
<radialGradient id="paint0_radial_363_5937" cx="0" cy="0" r="1" gradientUnits="userSpaceOnUse" gradientTransform="translate(157 50) rotate(90) scale(56)">
<stop offset="0.0192308" stop-color="#7AACFF"/>
<stop offset="0.432692" stop-color="#3B82F6"/>
<stop offset="1" stop-color="#173668"/>
</radialGradient>
</defs>
</svg>
