<svg width="275" height="114" viewBox="0 0 275 114" fill="none" xmlns="http://www.w3.org/2000/svg">
<path d="M89.28 76.52C89.52 76.44 89.92 76.4 90.48 76.4C91.68 76.4 92.6 76.8 93.24 77.6C93.88 78.4 94.2 79.48 94.2 80.84C94.2 83.32 93.72 85.28 92.76 86.72C91.8 88.08 90.36 89.08 88.44 89.72C84.76 90.92 80.84 91.52 76.68 91.52C73.16 91.52 69.84 91.04 66.72 90.08C64.4 93.84 61.84 97.72 59.04 101.72C55.84 106.28 53.08 109.4 50.76 111.08C48.52 112.76 45.96 113.6 43.08 113.6C39.88 113.6 37.44 112.36 35.76 109.88C34.16 107.4 33.16 103.32 32.76 97.64L32.16 88.88C29.68 95.6 27.44 100.72 25.44 104.24C23.52 107.76 21.56 110.2 19.56 111.56C17.64 112.92 15.36 113.6 12.72 113.6C9.44 113.6 6.84 112.32 4.92 109.76C3.08 107.2 1.92 103.16 1.44 97.64C0.48 86.44 8.9407e-08 76.64 8.9407e-08 68.24V64.04C0.0800003 61.4 0.8 59.56 2.16 58.52C3.52 57.48 5.56 56.96 8.28 56.96C10.36 56.96 11.88 57.44 12.84 58.4C13.88 59.28 14.4 60.8 14.4 62.96C14.4 72.16 14.96 84.12 16.08 98.84C21.52 87.4 26.52 75.48 31.08 63.08C31.96 60.68 33 59.08 34.2 58.28C35.48 57.4 37 56.96 38.76 56.96C40.92 56.96 42.4 57.4 43.2 58.28C44.08 59.16 44.52 60.72 44.52 62.96C44.52 72.16 45.08 84.12 46.2 98.84C51 91.72 54.6 86.04 57 81.8C55.8 79.48 55.2 76.72 55.2 73.52C55.2 70.8 55.8 68.16 57 65.6C58.2 63.04 59.84 60.96 61.92 59.36C64 57.76 66.36 56.96 69 56.96C71.32 56.96 73.2 57.8 74.64 59.48C76.08 61.08 76.8 63.44 76.8 66.56C76.8 70.16 75.84 74.28 73.92 78.92C76.96 78.76 81 78.16 86.04 77.12L89.28 76.52ZM98.5434 113.6C93.5834 113.6 89.6234 111.8 86.6634 108.2C83.7034 104.6 82.2234 99.88 82.2234 94.04C82.2234 87.64 83.7034 81.6 86.6634 75.92C89.6234 70.16 93.5434 65.56 98.4234 62.12C103.383 58.6 108.623 56.84 114.143 56.84C115.903 56.84 117.063 57.2 117.623 57.92C118.263 58.56 118.783 59.76 119.183 61.52C120.863 61.2 122.623 61.04 124.463 61.04C128.383 61.04 130.343 62.44 130.343 65.24C130.343 66.92 129.743 70.92 128.543 77.24C126.703 86.44 125.783 92.84 125.783 96.44C125.783 97.64 126.063 98.6 126.623 99.32C127.263 100.04 128.063 100.4 129.023 100.4C130.543 100.4 132.383 99.44 134.543 97.52C136.703 95.52 139.623 92.32 143.303 87.92C144.263 86.8 145.343 86.24 146.543 86.24C147.583 86.24 148.383 86.72 148.943 87.68C149.583 88.64 149.903 89.96 149.903 91.64C149.903 94.84 149.143 97.32 147.623 99.08C144.343 103.16 140.863 106.6 137.183 109.4C133.503 112.2 129.943 113.6 126.503 113.6C123.863 113.6 121.423 112.72 119.183 110.96C117.023 109.12 115.383 106.64 114.263 103.52C110.103 110.24 104.863 113.6 98.5434 113.6ZM102.863 101.48C104.623 101.48 106.303 100.44 107.903 98.36C109.503 96.28 110.663 93.52 111.383 90.08L115.823 68C112.463 68.08 109.343 69.36 106.463 71.84C103.663 74.24 101.423 77.44 99.7434 81.44C98.0634 85.44 97.2234 89.68 97.2234 94.16C97.2234 96.64 97.7034 98.48 98.6634 99.68C99.7034 100.88 101.103 101.48 102.863 101.48ZM230.843 76.52C231.083 76.44 231.483 76.4 232.043 76.4C233.243 76.4 234.163 76.8 234.803 77.6C235.443 78.4 235.763 79.48 235.763 80.84C235.763 83.32 235.283 85.28 234.323 86.72C233.363 88.08 231.923 89.08 230.003 89.72C226.323 90.92 222.403 91.52 218.243 91.52C214.723 91.52 211.403 91.04 208.283 90.08C205.963 93.84 203.403 97.72 200.603 101.72C197.403 106.28 194.643 109.4 192.323 111.08C190.083 112.76 187.523 113.6 184.643 113.6C181.443 113.6 179.003 112.36 177.323 109.88C175.723 107.4 174.723 103.32 174.323 97.64L173.723 88.88C171.243 95.6 169.003 100.72 167.003 104.24C165.083 107.76 163.123 110.2 161.123 111.56C159.203 112.92 156.923 113.6 154.283 113.6C151.003 113.6 148.403 112.32 146.483 109.76C144.643 107.2 143.483 103.16 143.003 97.64C142.043 86.44 141.563 76.64 141.563 68.24V64.04C141.643 61.4 142.363 59.56 143.723 58.52C145.083 57.48 147.123 56.96 149.843 56.96C151.923 56.96 153.443 57.44 154.403 58.4C155.443 59.28 155.963 60.8 155.963 62.96C155.963 72.16 156.523 84.12 157.643 98.84C163.083 87.4 168.083 75.48 172.643 63.08C173.523 60.68 174.563 59.08 175.763 58.28C177.043 57.4 178.563 56.96 180.323 56.96C182.483 56.96 183.963 57.4 184.763 58.28C185.643 59.16 186.083 60.72 186.083 62.96C186.083 72.16 186.643 84.12 187.763 98.84C192.563 91.72 196.163 86.04 198.563 81.8C197.363 79.48 196.763 76.72 196.763 73.52C196.763 70.8 197.363 68.16 198.563 65.6C199.763 63.04 201.403 60.96 203.483 59.36C205.563 57.76 207.923 56.96 210.562 56.96C212.883 56.96 214.763 57.8 216.203 59.48C217.643 61.08 218.363 63.44 218.363 66.56C218.363 70.16 217.403 74.28 215.483 78.92C218.523 78.76 222.563 78.16 227.603 77.12L230.843 76.52ZM249.106 113.6C241.106 113.6 235.266 110.52 231.586 104.36C227.986 98.2 226.186 89.28 226.186 77.6C226.186 67.28 227.466 56.08 230.026 44C232.586 31.84 236.306 21.52 241.186 13.04C246.146 4.47999 252.026 0.199993 258.826 0.199993C262.506 0.199993 265.466 1.79999 267.706 5C269.946 8.11999 271.066 12.2 271.066 17.24C271.066 23.8 269.826 30.32 267.346 36.8C264.866 43.28 260.746 50.08 254.986 57.2C258.906 57.52 262.306 58.84 265.186 61.16C268.146 63.48 270.386 66.48 271.906 70.16C273.506 73.84 274.306 77.84 274.306 82.16C274.306 88.16 273.106 93.56 270.706 98.36C268.386 103.16 265.306 106.92 261.466 109.64C257.626 112.28 253.506 113.6 249.106 113.6ZM242.026 65.36C247.306 55.68 251.506 47.16 254.626 39.8C257.826 32.36 259.426 25.76 259.426 20C259.426 17.44 259.106 15.48 258.466 14.12C257.906 12.76 257.106 12.08 256.066 12.08C254.466 12.08 252.706 14.48 250.786 19.28C248.946 24 247.226 30.44 245.626 38.6C244.026 46.76 242.826 55.68 242.026 65.36ZM249.586 100.64C252.306 100.64 254.586 99.16 256.426 96.2C258.346 93.24 259.306 88.92 259.306 83.24C259.306 78.84 258.506 75.52 256.906 73.28C255.306 71.04 253.386 69.92 251.146 69.92C248.346 69.92 245.986 71.36 244.066 74.24C242.146 77.12 241.186 81.32 241.186 86.84C241.186 91.64 241.986 95.16 243.586 97.4C245.186 99.56 247.186 100.64 249.586 100.64Z" fill="black"/>
</svg>
