<svg width="197" height="69" viewBox="0 0 197 69" fill="none" xmlns="http://www.w3.org/2000/svg">
<g clip-path="url(#clip0_340_3069)">
<path fill-rule="evenodd" clip-rule="evenodd" d="M10.1186 33.0367C13.0964 27.0964 16.1293 20.971 19.5863 15.3113C20.089 14.4882 20.7792 13.8168 21.702 13.5032C23.2337 12.9833 29.2802 13.183 31.4459 13.1955C30.5909 13.8961 25.2685 16.998 23.9149 18.7943C23.0189 19.9848 22.5294 20.9722 22.0593 22.5104C20.9457 26.1527 17.333 37.2594 18.5801 39.4073C19.5562 41.0877 21.9742 41.0919 22.391 40.4802C22.8511 39.8034 20.6677 39.6262 20.4513 37.6226C20.272 35.9605 22.8025 27.6384 23.439 25.4343C24.1739 22.8903 24.6955 20.6582 27.0504 19.0808C28.345 18.2885 32.2811 16.0051 33.7661 15.4651C34.0375 16.315 33.9293 18.0813 33.522 19.9443C31.9577 25.9326 27.3314 35.8142 23.2907 40.6787C22.0189 42.2094 20.7424 42.7731 18.9889 42.0526C16.6641 41.0973 12.6248 38.4966 10.3599 37.0192C9.08147 36.1857 9.53659 34.198 10.1186 33.0367ZM24.8107 41.8229C23.3918 43.7251 22.2204 49.4128 20.4513 48.9762C12.5067 45.7129 5.40923 36.7036 0.00295896 31.8591C-0.0371088 31.0364 0.329368 30.4885 1.10222 30.2154C2.99781 29.6925 4.40873 28.2201 5.33484 25.7983C7.69967 21.4342 9.91951 17.9478 11.9944 15.34C13.2096 13.8114 13.6649 12.7965 13.5191 11.031C13.4245 9.87804 12.5372 8.57874 11.6284 7.43872C9.28835 4.5011 12.2579 2.24021 15.1651 1.10227C17.0735 0.356298 20.1171 -0.14325 22.1044 0.0368856C36.4586 0.283739 43.6356 0.406357 43.6356 0.406357C44.3358 0.6186 44.6885 1.08435 44.6939 1.80364L44.715 3.31309L87.1154 3.31309C87.2856 2.29566 88.1668 1.5155 89.2209 1.5155L108.802 1.5155C109.855 1.5155 110.737 2.29567 110.907 3.3131L146.5 3.32171L146.5 3.3109C146.5 3.10283 146.669 2.93186 146.875 2.93186L147.396 2.93186L147.396 2.51152C147.396 2.51152 148.641 10.0595 146.875 8.51895L146.5 8.14034L146.5 8.08698L110.914 8.07837C110.761 9.11582 109.87 9.91847 108.802 9.91847L89.2209 9.91847C88.1527 9.91847 87.2604 9.11581 87.1079 8.07837L44.7827 8.07837L44.7956 8.99402C44.87 9.7721 44.3544 10.197 43.2486 10.2675C40.8086 10.2729 39.1262 11.1365 38.2017 12.8561C36.9691 15.9838 35.8431 19.2288 34.8237 22.5947C32.4948 28.9803 30.4327 33.3911 28.6371 35.825C27.3838 38.2481 26.1082 40.2483 24.8107 41.8229Z" fill="#F9FAFB"/>
<path fill-rule="evenodd" clip-rule="evenodd" d="M186.703 33.0367C183.726 27.0964 180.693 20.971 177.236 15.3113C176.733 14.4882 176.043 13.8168 175.12 13.5032C173.588 12.9833 167.542 13.183 165.376 13.1955C166.231 13.8961 171.554 16.998 172.907 18.7943C173.803 19.9848 174.293 20.9722 174.763 22.5104C175.876 26.1527 179.489 37.2594 178.242 39.4073C177.266 41.0877 174.848 41.0919 174.431 40.4802C173.971 39.8034 176.154 39.6262 176.371 37.6226C176.55 35.9605 174.02 27.6384 173.383 25.4343C172.648 22.8903 172.127 20.6582 169.772 19.0808C168.477 18.2885 164.541 16.0051 163.056 15.4651C162.785 16.315 162.893 18.0813 163.3 19.9443C164.864 25.9326 169.491 35.8142 173.531 40.6787C174.803 42.2094 176.08 42.7731 177.833 42.0526C180.158 41.0973 184.197 38.4966 186.462 37.0192C187.741 36.1857 187.285 34.198 186.703 33.0367ZM172.011 41.8229C173.43 43.7251 174.602 49.4128 176.371 48.9762C184.315 45.7129 191.413 36.7036 196.819 31.8591C196.859 31.0364 196.493 30.4885 195.72 30.2154C193.824 29.6925 192.413 28.2201 191.487 25.7983C189.122 21.4342 186.903 17.9478 184.828 15.34C183.612 13.8114 183.157 12.7965 183.303 11.031C183.397 9.87804 184.285 8.57874 185.194 7.43872C187.534 4.5011 184.564 2.24021 181.657 1.10227C179.749 0.356298 176.705 -0.14325 174.718 0.0368856C160.363 0.283739 153.186 0.406357 153.186 0.406357C152.486 0.6186 152.133 1.08435 152.128 1.80364L152.107 3.31309L109.707 3.31309C109.536 2.29566 108.655 1.5155 107.601 1.5155L88.0199 1.5155C86.967 1.5155 86.0851 2.29567 85.9149 3.3131L50.322 3.32171L50.322 3.3109C50.322 3.10283 50.1527 2.93186 49.9465 2.93186L49.4265 2.93186L49.4265 2.51152C49.4265 2.51152 48.181 10.0595 49.9465 8.51895L50.322 8.14034L50.322 8.08698L85.9083 8.07837C86.0607 9.11582 86.9521 9.91847 88.0199 9.91847L107.601 9.91847C108.669 9.91847 109.562 9.11581 109.714 8.07837L152.039 8.07837L152.026 8.99402C151.952 9.7721 152.468 10.197 153.573 10.2675C156.013 10.2729 157.696 11.1365 158.62 12.8561C159.853 15.9838 160.979 19.2288 161.998 22.5947C164.327 28.9803 166.389 33.3911 168.185 35.825C169.438 38.2481 170.714 40.2483 172.011 41.8229Z" fill="#F9FAFB"/>
<path d="M132.511 68.9778V14H146.256C148.821 14 151.125 14.6021 153.167 15.8064C155.261 16.9583 156.911 18.5291 158.115 20.5188C159.372 22.5085 160 24.7861 160 27.3518C160 28.7131 159.712 30.1268 159.136 31.5929C158.56 33.0066 157.749 34.2633 156.701 35.3628C155.654 36.4624 154.398 37.2216 152.931 37.6405V38.4259C155.078 39.2636 156.78 40.625 158.037 42.5099C159.346 44.3949 160 46.3322 160 48.3219V55.2334C160 57.799 159.372 60.129 158.115 62.2234C156.911 64.2654 155.261 65.9148 153.167 67.1714C151.125 68.3757 148.821 68.9778 146.256 68.9778H132.511ZM144.214 31.2002H145.156C145.994 31.2002 146.701 30.886 147.277 30.2577C147.905 29.577 148.219 28.7393 148.219 27.7445C148.219 26.7496 147.905 25.9119 147.277 25.2312C146.701 24.5505 145.994 24.2102 145.156 24.2102H144.214V31.2002ZM144.214 58.8462H144.763C145.706 58.8462 146.517 58.3226 147.198 57.2754C147.879 56.2282 148.219 54.9716 148.219 53.5055V49.8927C148.219 48.3742 147.879 47.1176 147.198 46.1228C146.517 45.0756 145.706 44.552 144.763 44.552H144.214V58.8462Z" fill="#F9FAFB"/>
<path d="M101.603 68.9778L98.1469 15.1781V14H106.865L107.964 38.4259H108.985L111.891 14H118.724L121.63 38.4259H122.651L123.751 14H132.469V15.1781L129.092 68.9778H117.232L115.975 49.3429H114.719L113.384 68.9778H101.603Z" fill="#F9FAFB"/>
<path d="M72.9865 68.9778L79.6623 14H93.7995L100.475 68.9778H89.4798L88.7729 58.8462H84.6103L84.0606 68.9778H72.9865ZM85.2386 47.0652H88.2232L87.4378 29.708H86.1026L85.2386 47.0652Z" fill="#F9FAFB"/>
<path d="M44.4557 68.9778L41 15.1781V14H49.7179L50.8175 38.4259H51.8385L54.7445 14H61.5774L64.4834 38.4259H65.5044L66.604 14H75.3219V15.1781L71.9447 68.9778H60.0852L58.8285 49.3429H57.5719L56.2367 68.9778H44.4557Z" fill="#F9FAFB"/>
<path d="M14.7182 43.0574L7.90186 34L17.9576 116.717L25.1163 116.657L14.7182 43.0574Z" fill="#F9FAFB"/>
<path d="M182.998 43.0574L189.814 34L179.759 116.717L172.6 116.657L182.998 43.0574Z" fill="#F9FAFB"/>
</g>
<defs>
<clipPath id="clip0_340_3069">
<rect width="196.822" height="68.9778" fill="white"/>
</clipPath>
</defs>
</svg>
