<svg width="242" height="73" viewBox="0 0 242 73" fill="none" xmlns="http://www.w3.org/2000/svg">
<path d="M54.816 29.144V25.4H72.384V29.144L67.2 30.392L53.184 71.576H49.632L37.152 37.496L24.48 71.576H20.928L5.472 30.104L0 29.144V25.4H21.888V29.144L14.4 30.296L24.288 59.768L35.04 30.296L27.936 29.144V25.4H49.152V29.144L42.048 30.392L52.992 59.672L61.92 30.488L54.816 29.144ZM111.749 71.96C109.445 71.96 107.525 71.288 105.989 69.944C104.453 68.6 103.493 66.808 103.109 64.568C100.485 67.128 98.1805 69.048 96.1965 70.328C94.2125 71.608 91.8125 72.248 88.9965 72.248C85.4765 72.248 82.4365 71.256 79.8765 69.272C77.3805 67.224 76.1325 64.216 76.1325 60.248C76.1325 58.392 76.5485 56.664 77.3805 55.064C78.2765 53.464 79.8765 51.896 82.1805 50.36C84.4845 48.824 87.7805 47.288 92.0685 45.752C93.5405 45.24 95.2365 44.696 97.1565 44.12C99.0765 43.544 100.997 43.032 102.917 42.584V40.184C102.917 35.512 102.213 32.408 100.805 30.872C99.3965 29.336 97.0925 28.568 93.8925 28.568C93.1885 28.568 92.3885 28.6 91.4925 28.664C90.6605 28.728 89.7325 28.888 88.7085 29.144L86.8845 35.384C85.9885 38.456 84.3245 39.992 81.8925 39.992C79.2045 39.992 77.7005 38.68 77.3805 36.056C78.2765 32.408 80.3885 29.528 83.7165 27.416C87.1085 25.24 91.2365 24.152 96.1005 24.152C101.157 24.152 104.901 25.432 107.333 27.992C109.765 30.488 110.981 34.776 110.981 40.856V61.304C110.981 63.352 111.301 64.824 111.941 65.72C112.581 66.552 113.413 66.968 114.437 66.968C115.269 66.968 115.973 66.776 116.549 66.392C117.125 66.008 117.669 65.496 118.181 64.856L120.101 66.968C118.949 68.824 117.669 70.136 116.261 70.904C114.917 71.608 113.413 71.96 111.749 71.96ZM84.6765 58.808C84.6765 61.368 85.4125 63.192 86.8845 64.28C88.3565 65.368 90.1805 65.912 92.3565 65.912C93.3165 65.912 94.2125 65.784 95.0445 65.528C95.9405 65.272 96.9965 64.792 98.2125 64.088C99.4285 63.32 100.997 62.232 102.917 60.824V46.136C101.253 46.584 99.6205 47.096 98.0205 47.672C96.4205 48.184 95.1085 48.632 94.0845 49.016C91.3325 50.104 89.2845 51.224 87.9405 52.376C86.5965 53.528 85.7005 54.648 85.2525 55.736C84.8685 56.824 84.6765 57.848 84.6765 58.808ZM173.597 29.144V25.4H191.165V29.144L185.981 30.392L171.965 71.576H168.413L155.933 37.496L143.261 71.576H139.709L124.253 30.104L118.781 29.144V25.4H140.669V29.144L133.181 30.296L143.069 59.768L153.821 30.296L146.717 29.144V25.4H167.933V29.144L160.829 30.392L171.773 59.672L180.701 30.488L173.597 29.144ZM193.099 71V67.544L200.299 66.296C200.363 63.864 200.395 61.24 200.395 58.424C200.459 55.544 200.491 53.016 200.491 50.84V8.696L192.619 7.736V4.376L207.307 0.0559978L208.651 0.823999L208.267 14.456V31.544C210.571 28.984 212.939 27.128 215.371 25.976C217.867 24.76 220.427 24.152 223.051 24.152C226.443 24.152 229.515 25.08 232.267 26.936C235.019 28.792 237.195 31.48 238.795 35C240.459 38.52 241.291 42.776 241.291 47.768C241.291 52.696 240.427 57.016 238.699 60.728C236.971 64.376 234.603 67.224 231.595 69.272C228.651 71.256 225.291 72.248 221.515 72.248C219.275 72.248 217.035 71.768 214.795 70.808C212.555 69.848 210.379 68.056 208.267 65.432L207.499 71.96L193.099 71ZM220.459 29.624C218.987 29.624 217.291 30.008 215.371 30.776C213.451 31.544 211.179 33.016 208.555 35.192V61.496C210.539 63.352 212.491 64.696 214.411 65.528C216.331 66.36 218.187 66.776 219.979 66.776C223.371 66.776 226.315 65.304 228.811 62.36C231.371 59.352 232.651 54.744 232.651 48.536C232.651 42.392 231.499 37.72 229.195 34.52C226.955 31.256 224.043 29.624 220.459 29.624Z" fill="black"/>
</svg>
