<svg width="387" height="100" viewBox="0 0 387 100" fill="none" xmlns="http://www.w3.org/2000/svg">
<path d="M20.1624 84C19.7159 84 19.3234 83.7039 19.2008 83.2745L0.363741 17.2744C0.181434 16.6357 0.661081 16 1.32534 16H20.7828C21.242 16 21.6422 16.3128 21.7532 16.7584L29.9894 49.838C30.2355 50.8266 31.6293 50.8572 31.9186 49.8804L41.7404 16.716C41.8662 16.2914 42.2563 16 42.6993 16H56.3007C56.7437 16 57.1338 16.2914 57.2596 16.716L67.0814 49.8804C67.3707 50.8572 68.7645 50.8266 69.0106 49.838L77.2468 16.7584C77.3578 16.3128 77.758 16 78.2172 16H97.6747C98.3389 16 98.8186 16.6357 98.6363 17.2745L79.7992 83.2744C79.6766 83.7039 79.2841 84 78.8376 84H61.0285C60.5858 84 60.1958 83.7089 60.0698 83.2845L50.4587 50.8989C50.1756 49.9449 48.8244 49.9449 48.5413 50.8989L38.9302 83.2845C38.8042 83.7089 38.4142 84 37.9715 84H20.1624Z" fill="black"/>
<path d="M159.77 0.89681C160.212 -0.298938 161.788 -0.298936 162.23 0.896812L174.566 34.2677C174.757 34.7831 175.209 35.1324 175.724 35.1625L209.747 37.1475C210.962 37.2184 211.451 38.8654 210.499 39.6793L184.137 62.2083C183.724 62.5615 183.546 63.145 183.684 63.6926L192.389 98.2017C192.705 99.4513 191.428 100.466 190.408 99.7767L161.705 80.3721C161.274 80.0809 160.726 80.0809 160.295 80.3721L131.592 99.7767C130.572 100.466 129.295 99.4513 129.611 98.2017L138.316 63.6926C138.454 63.145 138.276 62.5615 137.863 62.2083L111.501 39.6793C110.549 38.8654 111.038 37.2184 112.253 37.1475L146.276 35.1625C146.791 35.1324 147.243 34.7831 147.434 34.2677L159.77 0.89681Z" fill="#3B82F6"/>
<path d="M243.162 84C242.716 84 242.323 83.7039 242.201 83.2745L223.364 17.2744C223.181 16.6357 223.661 16 224.325 16H243.783C244.242 16 244.642 16.3128 244.753 16.7584L252.989 49.8381C253.235 50.8266 254.629 50.8572 254.919 49.8804L264.74 16.716C264.866 16.2914 265.256 16 265.699 16H279.301C279.744 16 280.134 16.2914 280.26 16.716L290.081 49.8804C290.371 50.8572 291.765 50.8266 292.011 49.838L300.247 16.7584C300.358 16.3128 300.758 16 301.217 16H320.675C321.339 16 321.819 16.6357 321.636 17.2745L302.799 83.2744C302.677 83.7039 302.284 84 301.838 84H284.029C283.586 84 283.196 83.7089 283.07 83.2845L273.459 50.8989C273.176 49.9449 271.824 49.9449 271.541 50.8989L261.93 83.2845C261.804 83.7089 261.414 84 260.972 84H243.162Z" fill="black"/>
<path d="M379.399 47.9642C378.844 48.4391 378.896 49.3438 379.507 49.7459C384.502 53.0376 387 57.7852 387 63.9886C387 70.2057 384.939 75.0952 380.817 78.6571C376.76 82.2191 370.838 84 363.052 84H335C334.448 84 334 83.5523 334 83V17C334 16.4477 334.448 16 335 16H361.285C369.006 16 374.895 17.6514 378.952 20.9543C383.009 24.2571 385.037 28.9848 385.037 35.1371C385.037 40.4757 383.158 44.7514 379.399 47.9642ZM360.107 32.7086H354.63C354.077 32.7086 353.63 33.1563 353.63 33.7086V40.8271C353.63 41.3844 354.085 41.8341 354.642 41.827L361.187 41.7429C364.001 41.3543 365.407 39.8648 365.407 37.2743C365.407 35.7848 364.884 34.6514 363.837 33.8743C362.79 33.0971 361.547 32.7086 360.107 32.7086ZM361.874 67.2914C363.444 67.2914 364.753 66.8381 365.8 65.9314C366.847 65.0248 367.37 63.859 367.37 62.4343C367.37 59.7363 365.922 58.1534 363.025 57.6855C362.978 57.6779 362.93 57.674 362.882 57.6735L354.64 57.5877C354.084 57.5819 353.63 58.0313 353.63 58.5876V66.2914C353.63 66.8437 354.077 67.2914 354.63 67.2914H361.874Z" fill="black"/>
</svg>
