<svg width="420" height="211" viewBox="0 0 420 211" fill="none" xmlns="http://www.w3.org/2000/svg">
<path d="M297.575 176.412C297.575 176.412 297.575 212.412 383.075 186.412C396.848 182.224 413.559 165.996 394.075 157.412C374.768 148.906 349.768 172.462 326.075 160.412C289.814 141.97 347.302 76.3194 300.075 59.9119" stroke="url(#paint0_linear_340_2093)" stroke-width="7"/>
<path d="M305 195.5L295 185.5L301 178L312 187.5L305 195.5Z" fill="url(#paint1_linear_340_2093)"/>
<path fill-rule="evenodd" clip-rule="evenodd" d="M290.016 177.978C285.437 168.886 280.774 159.51 275.458 150.848C274.685 149.588 273.624 148.56 272.205 148.08C269.85 147.284 260.552 147.59 257.222 147.609C258.537 148.681 266.721 153.429 268.802 156.179C270.18 158.001 270.933 159.512 271.655 161.867C273.368 167.442 278.923 184.442 277.005 187.729C275.504 190.301 271.786 190.308 271.145 189.371C270.438 188.335 273.795 188.064 274.128 184.997C274.404 182.453 270.513 169.716 269.534 166.342C268.404 162.448 267.602 159.032 263.981 156.617C261.99 155.404 255.938 151.91 253.655 151.083C253.237 152.384 253.404 155.087 254.03 157.939C256.435 167.105 263.549 182.229 269.762 189.675C271.718 192.018 273.68 192.881 276.377 191.778C279.951 190.316 286.162 186.335 289.645 184.074C291.611 182.798 290.911 179.756 290.016 177.978ZM267.425 191.426C269.606 194.338 271.408 203.044 274.128 202.375C286.344 197.381 297.257 183.591 305.57 176.176C305.632 174.917 305.068 174.078 303.88 173.66C300.965 172.86 298.796 170.606 297.372 166.899C293.735 160.219 290.322 154.883 287.132 150.892C285.263 148.552 284.563 146.998 284.787 144.296C284.933 142.531 286.297 140.543 287.694 138.798C291.292 134.301 286.726 130.841 282.256 129.099C279.322 127.957 274.642 127.193 271.586 127.468C249.515 127.846 238.479 128.034 238.479 128.034C237.402 128.359 236.86 129.072 236.852 130.173L236.819 132.483L171.623 132.483C171.361 130.926 170.006 129.732 168.385 129.732L138.277 129.732C136.658 129.732 135.302 130.926 135.04 132.483L21.6074 130.205L21.6074 130.188C21.6074 129.87 21.347 129.608 21.0301 129.608L20.2304 129.608L20.2304 128.964C20.2304 128.964 18.3153 140.517 21.0301 138.16L21.6074 137.58L21.6074 137.498L135.03 139.777C135.264 141.365 136.635 142.593 138.277 142.593L168.385 142.593C170.028 142.593 171.4 141.365 171.634 139.777L236.715 139.777L236.695 141.178C236.581 142.369 237.374 143.02 239.074 143.127C242.826 143.136 245.413 144.457 246.834 147.09C248.73 151.877 250.461 156.844 252.029 161.996C255.61 171.769 258.78 178.521 261.541 182.246C263.468 185.955 265.43 189.016 267.425 191.426Z" fill="black"/>
<path d="M27.5106 108.236C24.6306 108.236 22.3906 107.628 20.7906 106.412C19.1906 105.196 18.1026 103.532 17.5266 101.42C17.0146 99.3079 16.9186 96.9399 17.2386 94.3159C17.5586 91.6919 18.1666 89.0039 19.0626 86.2519L27.7026 59.9479C28.0226 58.9879 28.4386 58.2519 28.9506 57.7399C29.5266 57.1639 30.6146 56.8759 32.2146 56.8759C34.2626 56.8759 35.5106 57.1959 35.9586 57.8359C36.4066 58.4119 36.4386 59.3079 36.0546 60.5239L26.9346 88.3639C26.2306 90.5399 25.7186 92.5559 25.3986 94.4119C25.1426 96.2679 25.3026 97.7719 25.8786 98.9239C26.5186 100.012 27.8306 100.556 29.8146 100.556C31.6066 100.556 33.4306 99.9159 35.2866 98.6359C37.1426 97.3559 38.9346 95.6599 40.6626 93.5479C42.3906 91.3719 44.0226 88.9719 45.5586 86.3479C47.0946 83.7239 48.4386 81.0679 49.5906 78.3799L55.5426 59.9479C55.8626 58.9879 56.2786 58.2519 56.7906 57.7399C57.3666 57.1639 58.3906 56.8759 59.8626 56.8759C61.9746 56.8759 63.2226 57.1959 63.6066 57.8359C63.9906 58.4119 63.9906 59.3079 63.6066 60.5239L55.4466 87.1159C55.1906 88.0759 54.9026 89.3239 54.5826 90.8599C54.2626 92.3319 54.1026 93.8359 54.1026 95.3719C54.1666 96.8439 54.5506 98.0919 55.2546 99.1159C56.0226 100.076 57.3026 100.556 59.0946 100.556C61.2066 100.556 63.2866 99.8839 65.3346 98.5399C67.3826 97.1319 69.3026 95.3079 71.0946 93.0679C72.9506 90.7639 74.5826 88.2359 75.9906 85.4839C77.3986 82.6679 78.4866 79.8199 79.2546 76.9399C79.4466 76.2359 79.7346 74.9879 80.1186 73.1959C80.5026 71.4039 80.6946 69.7399 80.6946 68.2039C79.4786 67.2439 78.6146 66.2839 78.1026 65.3239C77.5906 64.3639 77.3346 63.2119 77.3346 61.8679C77.3346 60.3959 77.7506 59.1479 78.5826 58.1239C79.4146 57.0999 80.7586 56.5879 82.6146 56.5879C84.7906 56.5879 86.3266 57.5479 87.2226 59.4679C88.1186 61.3879 88.5666 63.7559 88.5666 66.5719C88.5666 67.7879 88.5026 69.0359 88.3746 70.3159C88.2466 71.5959 88.0546 72.9079 87.7986 74.2519C87.5426 75.5959 87.2226 76.9399 86.8386 78.2839C85.8146 81.9959 84.3426 85.6439 82.4226 89.2279C80.5026 92.7479 78.2306 95.9479 75.6066 98.8279C73.0466 101.708 70.1666 104.012 66.9666 105.74C63.8306 107.404 60.4706 108.236 56.8866 108.236C53.9426 108.236 51.6386 107.66 49.9746 106.508C48.3106 105.356 47.1266 103.852 46.4226 101.996C45.7826 100.076 45.4626 98.0279 45.4626 95.8519C43.8626 98.3479 42.1346 100.524 40.2786 102.38C38.4226 104.236 36.4386 105.676 34.3266 106.7C32.2146 107.724 29.9426 108.236 27.5106 108.236Z" fill="#155DFC"/>
<path d="M98.4081 70.8919C96.0401 70.8919 93.6081 70.6039 91.1121 70.0279C88.6161 69.4519 86.3441 68.4919 84.2961 67.1479C83.9761 66.8919 83.8801 66.4119 84.0081 65.7079C84.1361 64.9399 84.3921 64.1719 84.7761 63.4039C85.1601 62.5719 85.6081 61.9319 86.1201 61.4839C86.6321 61.0359 87.1121 60.9719 87.5601 61.2919C89.0321 62.3159 91.0161 63.0839 93.5121 63.5959C95.9441 64.1079 98.3441 64.3639 100.712 64.3639C102.952 64.3639 105.32 64.2039 107.816 63.8839C110.376 63.5639 112.84 63.0519 115.208 62.3479C117.64 61.6439 119.784 60.7799 121.64 59.7559C122.088 59.4359 122.312 59.7239 122.312 60.6199C122.376 61.4519 122.28 62.4119 122.024 63.4999C121.768 64.5239 121.384 65.1959 120.872 65.5159C117.48 67.3079 113.864 68.6519 110.024 69.5479C106.248 70.4439 102.376 70.8919 98.4081 70.8919Z" fill="#155DFC"/>
<path d="M112.9 108.044C110.724 108.044 108.836 107.468 107.236 106.316C105.636 105.164 104.388 103.532 103.492 101.42C102.596 99.3079 102.148 96.8119 102.148 93.9319C102.148 90.9879 102.596 87.8199 103.492 84.4279C104.388 81.0359 105.732 77.7079 107.524 74.4439C109.316 71.1799 111.492 68.2039 114.052 65.5159C116.612 62.8279 119.556 60.6839 122.884 59.0839C126.276 57.4199 129.988 56.5879 134.02 56.5879C136.452 56.5879 139.076 57.0359 141.892 57.9319C144.708 58.7639 147.236 59.9479 149.476 61.4839L147.748 68.1079C144.612 66.4439 141.828 65.3879 139.396 64.9399C136.964 64.4279 134.724 64.1719 132.676 64.1719C129.924 64.1719 127.396 64.8119 125.092 66.0919C122.852 67.3719 120.836 69.0679 119.044 71.1799C117.316 73.2279 115.844 75.5319 114.628 78.0919C113.412 80.5879 112.484 83.0839 111.844 85.5799C111.204 88.0759 110.884 90.3479 110.884 92.3959C110.884 93.9959 111.076 95.4039 111.46 96.6199C111.844 97.8359 112.388 98.7639 113.092 99.4039C113.86 100.044 114.724 100.364 115.684 100.364C118.052 100.364 120.74 99.0839 123.748 96.5239C126.756 93.8999 129.956 90.0599 133.348 85.0039C136.804 79.9479 140.324 73.8039 143.908 66.5719L147.46 70.1239C143.3 78.6999 139.172 85.8039 135.076 91.4359C131.044 97.0039 127.172 101.164 123.46 103.916C119.748 106.668 116.228 108.044 112.9 108.044ZM142.468 108.044C139.588 108.044 137.444 107.5 136.036 106.412C134.692 105.388 133.828 104.076 133.444 102.476C133.124 100.812 133.124 99.0839 133.444 97.2919C133.764 95.4359 134.212 93.7399 134.788 92.2039L145.54 60.0439C145.988 58.7639 146.5 57.9319 147.076 57.5479C147.716 57.1639 148.644 56.9719 149.86 56.9719C151.844 56.9719 153.092 57.2919 153.604 57.9319C154.18 58.5079 154.244 59.4359 153.796 60.7159L143.236 92.1079C142.148 95.4359 141.636 97.7399 141.7 99.0199C141.828 100.236 142.628 100.844 144.1 100.844C144.996 100.844 145.668 101.228 146.116 101.996C146.564 102.7 146.724 103.532 146.596 104.492C146.532 105.388 146.148 106.188 145.444 106.892C144.804 107.66 143.812 108.044 142.468 108.044Z" fill="#155DFC"/>
<path d="M144.365 108.044C143.469 108.044 142.797 107.66 142.349 106.892C141.901 106.188 141.741 105.388 141.869 104.492C141.933 103.532 142.317 102.7 143.021 101.996C143.725 101.228 144.749 100.844 146.093 100.844C147.629 100.844 149.389 100.076 151.373 98.5399C153.293 97.0039 155.565 94.6039 158.189 91.3399C160.813 88.0119 163.917 83.6919 167.501 78.3799C171.085 73.0039 175.277 66.5079 180.077 58.8919C180.653 57.9959 181.389 57.6119 182.285 57.7399C183.245 57.8679 184.013 58.2839 184.589 58.9879C185.165 59.6919 185.197 60.4599 184.685 61.2919C179.245 70.5079 174.541 78.1559 170.573 84.2359C166.669 90.2519 163.245 95.0199 160.301 98.5399C157.357 101.996 154.637 104.46 152.141 105.932C149.581 107.34 146.989 108.044 144.365 108.044Z" fill="#155DFC"/>
<path d="M181.421 108.236C178.541 108.236 176.301 107.628 174.701 106.412C173.101 105.196 172.013 103.532 171.437 101.42C170.925 99.3079 170.829 96.9399 171.149 94.3159C171.469 91.6919 172.077 89.0039 172.973 86.2519L181.613 59.9479C181.933 58.9879 182.349 58.2519 182.861 57.7399C183.437 57.1639 184.525 56.8759 186.125 56.8759C188.173 56.8759 189.421 57.1959 189.869 57.8359C190.317 58.4119 190.349 59.3079 189.965 60.5239L180.845 88.3639C180.141 90.5399 179.629 92.5559 179.309 94.4119C179.053 96.2679 179.213 97.7719 179.789 98.9239C180.429 100.012 181.741 100.556 183.725 100.556C185.517 100.556 187.341 99.9159 189.197 98.6359C191.053 97.3559 192.845 95.6599 194.573 93.5479C196.301 91.3719 197.933 88.9719 199.469 86.3479C201.005 83.7239 202.349 81.0679 203.501 78.3799L209.453 59.9479C209.773 58.9879 210.189 58.2519 210.701 57.7399C211.277 57.1639 212.301 56.8759 213.773 56.8759C215.885 56.8759 217.133 57.1959 217.517 57.8359C217.901 58.4119 217.901 59.3079 217.517 60.5239L209.357 87.1159C209.101 88.0759 208.813 89.3239 208.493 90.8599C208.173 92.3319 208.013 93.8359 208.013 95.3719C208.077 96.8439 208.461 98.0919 209.165 99.1159C209.933 100.076 211.213 100.556 213.005 100.556C215.117 100.556 217.197 99.8839 219.245 98.5399C221.293 97.1319 223.213 95.3079 225.005 93.0679C226.797 90.7639 228.397 88.2359 229.805 85.4839C231.213 82.6679 232.333 79.8199 233.165 76.9399C233.677 75.1479 234.029 73.5799 234.221 72.2359C234.477 70.8279 234.605 69.4839 234.605 68.2039C233.389 67.2439 232.525 66.2839 232.013 65.3239C231.501 64.3639 231.245 63.2119 231.245 61.8679C231.245 60.3959 231.661 59.1479 232.493 58.1239C233.325 57.0999 234.669 56.5879 236.525 56.5879C238.701 56.5879 240.237 57.5479 241.133 59.4679C242.029 61.3879 242.477 63.7559 242.477 66.5719C242.477 67.7879 242.413 69.0359 242.285 70.3159C242.157 71.5959 241.965 72.9079 241.709 74.2519C241.453 75.5959 241.133 76.9399 240.749 78.2839C239.725 81.9959 238.253 85.6439 236.333 89.2279C234.413 92.7479 232.141 95.9479 229.517 98.8279C226.957 101.708 224.077 104.012 220.877 105.74C217.741 107.404 214.381 108.236 210.797 108.236C207.853 108.236 205.549 107.66 203.885 106.508C202.221 105.356 201.037 103.852 200.333 101.996C199.693 100.076 199.373 98.0279 199.373 95.8519C197.773 98.3479 196.045 100.524 194.189 102.38C192.333 104.236 190.349 105.676 188.237 106.7C186.125 107.724 183.853 108.236 181.421 108.236Z" fill="#155DFC"/>
<path d="M260.018 76.6519C257.33 76.6519 254.77 76.2679 252.338 75.4999C249.906 74.7319 247.666 73.6119 245.618 72.1399C243.506 70.6039 241.586 68.7479 239.858 66.5719C239.282 65.8039 239.09 65.0999 239.282 64.4599C239.41 63.7559 235.949 59.9159 236.525 59.4679C237.037 59.0199 238.642 57.9959 239.282 57.9319C239.858 57.8039 243.122 61.9639 243.506 62.3479C245.106 64.2039 246.834 65.7079 248.69 66.8599C250.482 68.0119 252.402 68.8439 254.45 69.3559C256.562 69.8679 258.738 70.1239 260.978 70.1239C263.858 70.1239 266.642 69.6119 269.33 68.5879C272.082 67.4999 274.642 66.0599 277.01 64.2679C279.442 62.4119 281.714 60.2999 283.826 57.9319C286.002 55.5639 287.954 53.0679 289.682 50.4439C291.474 47.7559 293.074 45.0359 294.482 42.2839C295.89 39.4679 297.074 36.7799 298.034 34.2199C299.058 31.5959 299.826 29.1959 300.338 27.0199C300.85 24.8439 301.106 23.0199 301.106 21.5479C301.106 20.5879 301.49 19.8839 302.258 19.4359C303.09 18.9239 304.05 18.6679 305.138 18.6679C306.226 18.6679 307.154 18.9239 307.922 19.4359C308.754 19.8839 309.17 20.5879 309.17 21.5479C309.17 23.2759 308.85 25.3879 308.21 27.8839C307.634 30.3799 306.77 33.0999 305.618 36.0439C304.466 38.9879 303.058 42.0279 301.394 45.1639C299.73 48.2359 297.81 51.3079 295.634 54.3799C293.522 57.3879 291.154 60.2359 288.53 62.9239C285.906 65.6119 283.09 67.9799 280.082 70.0279C277.138 72.0759 273.97 73.7079 270.578 74.9239C267.25 76.0759 263.73 76.6519 260.018 76.6519Z" fill="#155DFC"/>
<path d="M272.304 108.236C269.04 108.236 266.48 107.596 264.624 106.316C262.768 105.036 261.488 103.372 260.784 101.324C260.144 99.2119 259.92 96.9399 260.112 94.5079C260.304 92.0119 260.784 89.5479 261.552 87.1159L280.176 29.9959C282.544 22.5079 285.168 17.0679 288.048 13.6759C290.992 10.2839 294.512 8.58789 298.608 8.58789C300.656 8.58789 302.416 9.13189 303.888 10.2199C305.424 11.3079 306.608 12.8119 307.44 14.7319C308.336 16.6519 308.784 18.9239 308.784 21.5479C308.784 22.7639 308.368 23.6599 307.536 24.2359C306.768 24.8119 305.84 25.0999 304.752 25.0999C303.664 25.0999 302.704 24.8119 301.872 24.2359C301.104 23.6599 300.72 22.7639 300.72 21.5479C300.72 20.4599 300.624 19.5319 300.432 18.7639C300.24 17.9959 299.92 17.3879 299.472 16.9399C299.024 16.4919 298.352 16.2679 297.456 16.2679C296.432 16.2679 295.44 16.7159 294.48 17.6119C293.584 18.4439 292.592 20.0119 291.504 22.3159C290.48 24.5559 289.264 27.7559 287.856 31.9159L270 87.1159C269.488 88.7159 269.04 90.3159 268.656 91.9159C268.336 93.4519 268.24 94.8919 268.368 96.2359C268.496 97.5159 269.008 98.5719 269.904 99.4039C270.8 100.172 272.24 100.556 274.224 100.556C276.336 100.556 278.48 99.8839 280.656 98.5399C282.896 97.1319 285.008 95.2759 286.992 92.9719C288.976 90.6679 290.736 88.1079 292.272 85.2919C293.872 82.4759 295.12 79.5639 296.016 76.5559C296.912 73.5479 297.36 70.6999 297.36 68.0119C297.36 67.2439 297.328 66.3159 297.264 65.2279C297.2 64.0759 297.072 62.9239 296.88 61.7719C296.688 60.6199 296.688 59.6599 296.88 58.8919C297.072 58.1239 297.456 57.5479 298.032 57.1639C298.672 56.7799 299.472 56.5879 300.432 56.5879C301.648 56.5879 302.608 56.9399 303.312 57.6439C304.08 58.3479 304.656 59.5319 305.04 61.1959C305.168 61.7079 305.264 62.2839 305.328 62.9239C305.392 63.4999 305.424 64.1079 305.424 64.7479C305.488 65.3239 305.52 65.9319 305.52 66.5719C305.52 70.0919 304.944 73.7719 303.792 77.6119C302.704 81.3879 301.136 85.0999 299.088 88.7479C297.04 92.3959 294.64 95.6919 291.888 98.6359C289.136 101.58 286.096 103.916 282.768 105.644C279.44 107.372 275.952 108.236 272.304 108.236Z" fill="#155DFC"/>
<defs>
<linearGradient id="paint0_linear_340_2093" x1="350.26" y1="59.9119" x2="350.26" y2="195.844" gradientUnits="userSpaceOnUse">
<stop stop-color="#155DFC"/>
<stop offset="1" stop-color="#0D3796"/>
</linearGradient>
<linearGradient id="paint1_linear_340_2093" x1="308" y1="191" x2="288" y2="170" gradientUnits="userSpaceOnUse">
<stop stop-color="#D9D9D9"/>
<stop offset="1" stop-color="#737373"/>
</linearGradient>
</defs>
</svg>
